<svg width="44" height="44" viewBox="0 0 44 44" fill="none" xmlns="http://www.w3.org/2000/svg">
<circle cx="22" cy="22" r="22" fill="black"/>
<path d="M28.11 18.4749C28.0002 18.5591 26.0629 19.6381 26.0629 22.0373C26.0629 24.8124 28.5281 25.7941 28.6018 25.8184C28.5905 25.8783 28.2102 27.1629 27.3021 28.4719C26.4924 29.6239 25.6467 30.7739 24.3602 30.7739C23.0737 30.7739 22.7427 30.0353 21.2575 30.0353C19.8102 30.0353 19.2956 30.7982 18.1189 30.7982C16.9421 30.7982 16.121 29.7323 15.177 28.4233C14.0835 26.8862 13.2 24.4982 13.2 22.2318C13.2 18.5965 15.5913 16.6685 17.9448 16.6685C19.1954 16.6685 20.2378 17.4801 21.0229 17.4801C21.7702 17.4801 22.9356 16.6199 24.3583 16.6199C24.8975 16.6199 26.8348 16.6685 28.11 18.4749ZM23.6829 15.0809C24.2713 14.3908 24.6875 13.4334 24.6875 12.476C24.6875 12.3432 24.6762 12.2086 24.6516 12.1001C23.6943 12.1356 22.5554 12.7303 21.8686 13.5176C21.3294 14.1234 20.8262 15.0809 20.8262 16.0514C20.8262 16.1973 20.8508 16.3431 20.8621 16.3899C20.9227 16.4011 21.021 16.4142 21.1194 16.4142C21.9783 16.4142 23.0586 15.8457 23.6829 15.0809Z" fill="white"/>
</svg>
