<?xml version="1.0" encoding="UTF-8"?>
<svg version="1.1" xmlns="http://www.w3.org/2000/svg" width="440" height="440">
<path d="M0 0 C145.2 0 290.4 0 440 0 C440 145.2 440 290.4 440 440 C294.8 440 149.6 440 0 440 C0 294.8 0 149.6 0 0 Z " fill="#FBFCFD" transform="translate(0,0)"/>
<path d="M0 0 C0.70861679 -0.00637985 1.41723358 -0.0127597 2.14732361 -0.01933289 C2.89220535 -0.02044571 3.6370871 -0.02155853 4.40454102 -0.02270508 C5.20013931 -0.02603348 5.99573761 -0.02936188 6.81544495 -0.03279114 C8.49544706 -0.03783126 10.17545909 -0.04020037 11.85546875 -0.04003906 C14.37005117 -0.04220328 16.88417792 -0.06032824 19.39868164 -0.0793457 C40.14647857 -0.15177075 63.42009991 1.41038788 80.06469727 15.25073242 C85.41975753 20.57287223 89.212984 27.58469639 89.40844727 35.20776367 C89.21202702 43.7809297 86.09592681 51.33178544 80.22094727 57.58276367 C76.16715887 61.25083713 71.84920668 63.73710704 66.97094727 66.14526367 C66.07633789 66.63897461 65.18172852 67.13268555 64.26000977 67.64135742 C52.31050115 74.06461876 39.82744218 76.46024271 26.49633789 78.01904297 C25.67713867 78.12385986 24.85793945 78.22867676 24.01391602 78.33666992 C23.28197021 78.42118408 22.55002441 78.50569824 21.79589844 78.59277344 C19.57208027 79.05496627 19.57208027 79.05496627 17.97094727 82.14526367 C17.38749251 85.1027286 17.38749251 85.1027286 17.97094727 88.14526367 C22.16702674 92.12227072 27.31167264 94.82116076 32.28344727 97.70776367 C34.25901744 98.86478702 36.23425736 100.02237438 38.20922852 101.18041992 C39.28640137 101.81093262 40.36357422 102.44144531 41.47338867 103.09106445 C47.29838077 106.50703039 53.09851548 109.96502404 58.90246582 113.41656494 C60.96861931 114.64388084 63.03641473 115.86838296 65.10473633 117.09204102 C71.31734613 120.76967513 77.51499654 124.46480908 83.66235352 128.25073242 C85.16572266 129.16725586 85.16572266 129.16725586 86.69946289 130.10229492 C88.52755807 131.21855428 90.3485063 132.34664476 92.16040039 133.48901367 C92.96541992 133.97756836 93.77043945 134.46612305 94.59985352 134.96948242 C95.28120361 135.39318115 95.96255371 135.81687988 96.66455078 136.25341797 C100.01596662 137.54935552 102.41521167 137.64848092 105.97094727 137.14526367 C108.31600642 134.7636008 108.31600642 134.7636008 109.95922852 131.44995117 C110.29054276 130.86228973 110.62185699 130.2746283 110.96321106 129.66915894 C111.65118386 128.44213238 112.32753165 127.20852024 112.99249268 125.96887207 C114.47202159 123.21137941 116.03361972 120.50055805 117.57641602 117.77807617 C118.77316743 115.6103163 119.96710188 113.44099926 121.15844727 111.27026367 C122.47457391 108.88527412 123.79314879 106.50164037 125.11157227 104.11791992 C125.43890854 103.52544968 125.76624481 102.93297943 126.10350037 102.32255554 C134.22696403 87.62762833 142.58132262 73.06155815 150.92700195 58.49212646 C155.19976028 51.03147382 159.4354164 43.55213324 163.61914062 36.04101562 C165.35409624 32.93021582 167.10084571 29.82630395 168.84985352 26.72338867 C170.80203043 23.25731481 172.7058386 19.7735818 174.56079102 16.25463867 C175.32189954 14.86367959 176.08356712 13.47302619 176.84594727 12.08276367 C177.46211914 10.91616211 178.07829102 9.74956055 178.71313477 8.54760742 C181.08795553 6.02076526 181.63327186 5.6378358 184.91625977 5.27416992 C187.50482406 5.47994531 188.59892958 5.77151883 190.44335938 7.62451172 C191.80314162 9.73733877 192.90196892 11.87172924 193.97094727 14.14526367 C194.49470947 15.1884375 194.49470947 15.1884375 195.02905273 16.25268555 C196.19354568 18.61697531 197.30208687 21.00323001 198.40844727 23.39526367 C204.05852478 35.41496547 210.01180071 47.27673637 215.97094727 59.14526367 C222.09718216 71.3529268 228.20568144 83.55843446 234.03320312 95.91210938 C239.95562137 108.41925067 246.23446979 120.75524572 252.44970703 133.11865234 C253.20272095 134.61682495 253.20272095 134.61682495 253.97094727 136.14526367 C254.32694598 136.77058581 254.6829447 137.39590796 255.04973125 138.04017925 C256.11506561 140.47459065 256.22498644 142.20214389 256.23164368 144.85322571 C256.23872849 145.79626053 256.24581329 146.73929535 256.25311279 147.71090698 C256.25063538 148.7389444 256.24815796 149.76698181 256.24560547 150.82617188 C256.25327187 152.45876701 256.25327187 152.45876701 256.26109314 154.12434387 C256.27501857 157.7316332 256.27402876 161.33873185 256.27172852 164.94604492 C256.27561657 167.46030244 256.27995147 169.9745593 256.28471375 172.48881531 C256.29218431 177.76893506 256.29201922 183.04898508 256.28662109 188.32910156 C256.28061192 194.39675146 256.29281305 200.46416766 256.31419116 206.53177768 C256.33408525 212.39757567 256.33696166 218.26328383 256.33345604 224.12911034 C256.33396631 226.60915866 256.33914823 229.08921093 256.34926796 231.56923866 C256.40669888 247.62663184 255.87062341 262.41873838 250.28344727 277.64526367 C250.03578613 278.33740967 249.788125 279.02955566 249.53295898 279.74267578 C246.73601506 287.25210332 242.9500564 294.20707085 238.97094727 301.14526367 C237.98094727 301.14526367 236.99094727 301.14526367 235.97094727 301.14526367 C235.49786133 299.97092773 235.02477539 298.7965918 234.53735352 297.58666992 C213.0892875 245.05237852 173.62249778 203.29206371 121.06469727 181.12573242 C84.8251785 166.5936854 40.46625772 159.76585073 1.97094727 169.14526367 C0.93969727 169.38696289 -0.09155273 169.62866211 -1.15405273 169.87768555 C-14.76959895 173.10364167 -28.13247089 176.66641968 -41.02905273 182.14526367 C-41.72264893 182.43723633 -42.41624512 182.72920898 -43.13085938 183.0300293 C-48.70782396 185.43215379 -53.97255073 188.2138032 -59.21655273 191.27026367 C-60.04026367 191.74963379 -60.86397461 192.22900391 -61.71264648 192.72290039 C-103.25779002 217.2451794 -138.49346688 256.57793418 -153.02905273 303.14526367 C-163.72647311 293.04373092 -167.88032409 275.99555373 -171.02905273 262.14526367 C-171.18868028 261.46885865 -171.34830782 260.79245363 -171.51277256 260.09555149 C-172.96325451 253.5149122 -173.38245245 247.19246178 -173.47827148 240.46704102 C-173.51244171 238.78166481 -173.51244171 238.78166481 -173.54730225 237.0622406 C-173.74233247 226.71624023 -173.84525651 216.3679775 -173.91868591 206.02042198 C-173.97354736 198.40986115 -174.07459543 190.80308292 -174.23963451 183.19409406 C-174.36627609 177.14351825 -174.41331232 171.09439956 -174.43521118 165.04259109 C-174.45578277 162.49989367 -174.50007306 159.95725505 -174.57040405 157.41544724 C-175.05442637 138.96044387 -171.36784972 127.11538631 -160.88235474 111.91051102 C-157.68262535 107.13630629 -154.88032804 102.13233138 -152.02905273 97.14526367 C-150.86410193 95.14426374 -149.69763576 93.14414456 -148.52905273 91.14526367 C-147.95155273 90.15526367 -147.37405273 89.16526367 -146.77905273 88.14526367 C-140.36238607 77.14526367 -133.9457194 66.14526367 -127.52905273 55.14526367 C-126.95098877 54.15421631 -126.3729248 53.16316895 -125.77734375 52.14208984 C-124.61665733 50.15250378 -123.45568963 48.16308178 -122.29443359 46.17382812 C-119.28388054 41.01584026 -116.27902948 35.85464799 -113.28295898 30.68823242 C-112.66485352 29.62411133 -112.04674805 28.55999023 -111.40991211 27.46362305 C-110.24139968 25.45167307 -109.0745884 23.43873361 -107.90991211 21.42456055 C-106.83873188 19.58182193 -105.75645766 17.74548059 -104.66235352 15.91625977 C-103.51474913 13.96927773 -102.4126089 11.99512854 -101.3449707 10.00317383 C-97.0943808 2.47475986 -97.0943808 2.47475986 -93.80859375 1.45849609 C-91.59155273 1.45776367 -91.59155273 1.45776367 -88.02905273 2.14526367 C-81.98671901 13.07454948 -76.60045414 24.23953946 -71.39160156 35.58764648 C-66.90558893 45.3406444 -62.24311604 55.00070383 -57.52905273 64.64526367 C-52.32073029 75.3075144 -47.18767145 85.99508937 -42.21655273 96.77026367 C-37.97507997 105.96133691 -33.69922281 115.13370182 -29.34155273 124.27026367 C-28.8358374 125.33841309 -28.33012207 126.4065625 -27.80908203 127.50708008 C-27.34155518 128.48338379 -26.87402832 129.4596875 -26.39233398 130.46557617 C-25.98281494 131.32425293 -25.5732959 132.18292969 -25.15136719 133.06762695 C-24.08329753 135.28172993 -24.08329753 135.28172993 -22.02905273 137.14526367 C-19.34065889 137.41518273 -16.73763337 137.23263724 -14.02905273 137.14526367 C-13.00980511 134.08752079 -12.87817354 131.939742 -12.83287048 128.73530579 C-12.81466751 127.6120993 -12.79646454 126.48889282 -12.77770996 125.33164978 C-12.76260376 124.09878738 -12.74749756 122.86592499 -12.73193359 121.59570312 C-12.70245384 119.64920868 -12.70245384 119.64920868 -12.67237854 117.66339111 C-12.61857683 114.10381664 -12.5706679 110.54418419 -12.52380061 106.98451257 C-12.47383011 103.26486848 -12.41846264 99.54530487 -12.36366272 95.82572937 C-12.26070604 88.78164412 -12.16261728 81.7374998 -12.0662685 74.69332141 C-11.95634556 66.67400275 -11.84100939 58.65476483 -11.72521389 50.63552916 C-11.48712812 34.13885643 -11.25585536 17.64209546 -11.02905273 1.14526367 C-3.59993747 0.02244901 -3.59993747 0.02244901 0 0 Z " fill="#3066B0" transform="translate(178.029052734375,80.854736328125)"/>
<path d="M0 0 C0.91520005 -0.00226556 1.8304001 -0.00453111 2.77333349 -0.00686532 C5.81744356 -0.01315799 8.86150857 -0.01237901 11.90562439 -0.0115509 C14.09771278 -0.01454542 16.28980064 -0.01794862 18.48188782 -0.02172852 C24.42232519 -0.03054459 30.36274814 -0.03290567 36.30319142 -0.0335443 C40.02057433 -0.03425635 43.73795361 -0.03639364 47.45533562 -0.03904152 C59.77205744 -0.04781148 72.08877049 -0.05246221 84.40549547 -0.05171105 C85.06827727 -0.05167109 85.73105907 -0.05163113 86.41392517 -0.05158997 C87.40932794 -0.05152864 87.40932794 -0.05152864 88.42483985 -0.05146609 C99.16407397 -0.05106019 109.90327293 -0.06061745 120.64249689 -0.07472833 C131.69890322 -0.08913997 142.75529162 -0.0958133 153.81170744 -0.09513456 C160.00709733 -0.09488051 166.20244745 -0.09767989 172.39782906 -0.10831261 C178.23127686 -0.11805103 184.06464733 -0.11803365 189.89809799 -0.11079597 C192.02802456 -0.10975713 194.15795609 -0.11207096 196.28787422 -0.11815643 C227.4442201 -0.20134251 227.4442201 -0.20134251 241.04600525 5.25871277 C241.83918152 5.56655701 242.63235779 5.87440125 243.4495697 6.1915741 C274.17811427 18.43919534 296.64468716 40.16966316 310.48350525 70.13371277 C316.90071807 85.50517604 317.92193516 100.79141463 317.776474 117.19230652 C317.77086362 119.07658547 317.76660036 120.96086887 317.76361084 122.84515381 C317.75227544 127.75238086 317.72290865 132.65933226 317.6894989 137.56645203 C317.65855116 142.59469374 317.64505325 147.62298095 317.62998962 152.65129089 C317.59802562 162.47888452 317.54696997 172.30627553 317.48350525 182.13371277 C314.9249326 179.6834961 313.52322308 177.51124247 312.00694275 174.28996277 C311.51371521 173.25387878 311.02048767 172.2177948 310.51231384 171.15031433 C309.96655701 169.98983582 309.42080017 168.8293573 308.85850525 167.63371277 C307.61241002 165.01205335 306.36057841 162.39314656 305.10850525 159.77433777 C304.76089142 159.04607788 304.41327759 158.31781799 304.05513 157.56748962 C298.2283031 145.3854441 292.23471255 133.28366084 286.27616882 121.16569519 C285.24052266 119.05907876 284.20535411 116.95222745 283.17066956 114.84513855 C282.14904292 112.76480596 281.12624551 110.6850479 280.10224915 108.60588074 C277.42205142 103.14914337 274.7888284 97.67468127 272.21495056 92.16691589 C271.67979828 91.028573 271.144646 89.8902301 270.59327698 88.71739197 C269.57296244 86.54172272 268.56135669 84.36194033 267.56001282 82.17747498 C265.09068845 76.92473771 262.94963722 72.88160294 258.48350525 69.13371277 C257.51864197 68.24812683 257.51864197 68.24812683 256.5342865 67.34465027 C251.91723141 64.61838917 245.45055588 65.52941438 240.354599 66.56730652 C231.10470728 69.898923 226.68202083 80.73817201 222.35850525 88.75871277 C221.35951836 90.58810654 220.35739189 92.41575812 219.35516357 94.24337769 C218.68348282 95.46870592 218.01273499 96.69454602 217.34292603 97.92089844 C214.4724309 103.17376547 211.52797275 108.38102743 208.54600525 113.57121277 C208.07195251 114.39798523 207.59789978 115.22475769 207.10948181 116.07658386 C206.11213188 117.81517166 205.11423192 119.55344403 204.11582947 121.29142761 C190.04229787 145.79696977 176.18339055 170.41709943 162.48350525 195.13371277 C158.18117023 194.55307484 155.27765569 193.02277252 151.60850525 190.73918152 C150.77117607 190.22356911 150.77117607 190.22356911 149.91693115 189.69754028 C148.10169371 188.57857592 146.29268074 187.44994655 144.48350525 186.32121277 C141.96936523 184.76588592 139.45169398 183.21635911 136.932724 181.66886902 C136.30428085 181.28221069 135.67583771 180.89555237 135.02835083 180.49717712 C128.33848098 176.399358 121.50984121 172.55042789 114.61827087 168.80241394 C113.81711853 168.35744568 113.01596619 167.91247742 112.1905365 167.45402527 C111.49420105 167.07520203 110.7978656 166.69637878 110.08042908 166.30607605 C108.48350525 165.13371277 108.48350525 165.13371277 107.48350525 162.13371277 C108.51088806 161.83078308 109.53827087 161.52785339 110.5967865 161.21574402 C129.87974722 155.42992223 149.17388762 147.53190499 159.48350525 129.13371277 C164.25565872 119.79526344 165.27438792 108.20167054 162.24131775 98.09855652 C157.13504674 84.85910128 149.19557539 76.74740565 136.48350525 70.50871277 C131.67152682 68.44934912 126.75637037 66.89338835 121.73350525 65.44621277 C121.04385681 65.24366882 120.35420837 65.04112488 119.6436615 64.83244324 C105.87187813 61.07279655 92.00653759 60.81228998 77.83995056 60.87297058 C74.85634667 60.88372055 71.87334133 60.87300054 68.88975525 60.86027527 C54.01270598 60.51466524 54.01270598 60.51466524 39.48350525 63.13371277 C37.38972453 66.27438385 37.22998407 67.01400148 37.20503235 70.59457397 C37.19386887 71.50742661 37.18270538 72.42027924 37.17120361 73.36079407 C37.16796333 74.85943497 37.16796333 74.85943497 37.16465759 76.38835144 C37.15461197 77.44217514 37.14456635 78.49599884 37.13421631 79.58175659 C37.10327788 83.07172592 37.08631944 86.56161817 37.06944275 90.05168152 C37.05073969 92.46878731 37.03116694 94.88588653 37.01075745 97.30297852 C36.95933923 103.67008081 36.91976535 110.03720429 36.88261414 116.40440369 C36.8426352 122.89951359 36.79151503 129.3945346 36.74131775 135.88957214 C36.64444374 148.63755554 36.55969752 161.38558985 36.48350525 174.13371277 C33.8311661 172.80754319 33.60101818 171.57210865 32.4092865 168.87590027 C31.99694763 167.95647644 31.58460876 167.03705261 31.15977478 166.08976746 C30.70973083 165.07301941 30.25968689 164.05627136 29.79600525 163.00871277 C25.39051013 153.21839388 20.81377784 143.53231652 16.10850525 133.88371277 C11.17833657 123.76046654 6.33491001 113.60374129 1.60850525 103.38371277 C1.07563904 102.23411072 0.54277283 101.08450867 -0.00624084 99.90007019 C-2.40430806 94.7212177 -4.78924381 89.53702405 -7.14930725 84.34074402 C-7.93813473 82.62579215 -8.72718084 80.91094081 -9.51649475 79.19621277 C-9.85406799 78.43921082 -10.19164124 77.68220886 -10.53944397 76.90226746 C-13.05799369 71.46743603 -16.13195567 67.82033797 -21.07899475 64.32121277 C-26.83630961 62.33232218 -33.18410271 62.21285329 -39.0750885 63.84074402 C-46.39305575 67.71633947 -49.54617458 74.97231933 -53.45399475 81.94621277 C-54.11647908 83.1140569 -54.77990689 84.28136627 -55.44422913 85.44816589 C-56.46676344 87.24449501 -57.48865557 89.04115894 -58.5075531 90.83955383 C-61.79133523 96.63511643 -65.14868681 102.38662157 -68.51649475 108.13371277 C-73.35432627 116.41085482 -78.16513974 124.70313952 -82.95399475 133.00871277 C-83.56936096 134.07589539 -84.18472717 135.143078 -84.81874084 136.24259949 C-87.74512674 141.31973029 -90.66908078 146.39825007 -93.58956909 151.47877502 C-94.6129873 153.25872617 -95.63702488 155.03831946 -96.66127014 156.8177948 C-97.94428102 159.04720614 -99.22609563 161.27730653 -100.50648499 163.50822449 C-103.73711446 169.11999876 -106.96905127 174.71509031 -110.51649475 180.13371277 C-110.84649475 180.13371277 -111.17649475 180.13371277 -111.51649475 180.13371277 C-111.56313364 170.353241 -111.59852253 160.57279631 -111.62011909 150.79223537 C-111.63049192 146.24920114 -111.64453008 141.70624379 -111.66737366 137.16325378 C-111.68933677 132.76712364 -111.70111205 128.37106678 -111.70624924 123.97488594 C-111.70990338 122.30982881 -111.71703687 120.64477502 -111.72795486 118.97974968 C-111.9322576 86.48765726 -102.72007982 57.69600507 -80.098526 33.68449402 C-75.82671931 29.46438846 -71.32884322 25.72121285 -66.51649475 22.13371277 C-65.69520081 21.51665466 -65.69520081 21.51665466 -64.85731506 20.88713074 C-46.08863185 6.98186544 -23.2907195 -0.0430235 0 0 Z " fill="#3066B0" transform="translate(116.51649475097656,6.8662872314453125)"/>
<path d="M0 0 C25.41 0 50.82 0 77 0 C83.46909101 12.93818201 84.93894231 29.93196921 86.875 44.1875 C86.99480225 45.03223877 87.11460449 45.87697754 87.23803711 46.74731445 C88.29966338 55.28206935 88 63.20718723 88 72 C58.96 72 29.92 72 0 72 C0 48.24 0 24.48 0 0 Z " fill="#3166B0" transform="translate(228,362)"/>
<path d="M0 0 C25.41 0 50.82 0 77 0 C77 23.76 77 47.52 77 72 C47.96 72 18.92 72 -11 72 C-11 64.06583599 -10.60109912 56.56840662 -9.67553711 48.73950195 C-9.44574424 46.7585696 -9.24095544 44.7747859 -9.03710938 42.79101562 C-7.30819311 28.0070174 -3.57504856 14.81091546 0 0 Z " fill="#3066B0" transform="translate(134,362)"/>
<path d="M0 0 C1.13029129 0.01110306 2.26058258 0.02220612 3.42512512 0.03364563 C5.34677742 0.03421211 5.34677742 0.03421211 7.30725098 0.03479004 C8.70568306 0.06032341 10.10410526 0.0864034 11.5025177 0.11299133 C12.93311326 0.12231807 14.3637248 0.12943484 15.79434204 0.13442993 C19.55784785 0.15351144 23.32038716 0.20262003 27.08351135 0.25794983 C30.924219 0.30911873 34.76508299 0.33193879 38.60603333 0.35713196 C46.14097893 0.41073949 53.67512847 0.4960639 61.20954895 0.60127258 C60.89279861 2.69013488 60.57476257 4.77880225 60.25617981 6.86738586 C60.07921066 8.03053314 59.90224152 9.19368042 59.71990967 10.39207458 C59.1806945 13.78271218 58.51189251 17.12398707 57.77204895 20.47627258 C54.33976041 37.30835428 52.80035193 54.5141771 51.20954895 71.60127258 C27.76998168 70.6266544 5.9297649 60.00556812 -11.85295105 45.10127258 C-12.83392761 44.28658508 -13.81490417 43.47189758 -14.8256073 42.63252258 C-17.30477219 38.80780696 -17.18548002 36.8133976 -16.49040222 32.40644836 C-15.17624872 27.13975016 -13.08968795 22.25009785 -10.91545105 17.28877258 C-10.46814636 16.2310968 -10.02084167 15.17342102 -9.5599823 14.08369446 C-8.34098031 11.23396266 -7.12203149 8.40020758 -5.79045105 5.60127258 C-5.39801712 4.73410614 -5.00558319 3.8669397 -4.60125732 2.97349548 C-2.79045105 0.60127258 -2.79045105 0.60127258 0 0 Z " fill="#3167B1" transform="translate(54.79045104980469,361.3987274169922)"/>
<path d="M0 0 C21.12 0 42.24 0 64 0 C73.28142589 17.40267355 73.28142589 17.40267355 76 25.125 C76.44666016 26.31996094 76.44666016 26.31996094 76.90234375 27.5390625 C79.81344821 35.58819925 79.81344821 35.58819925 79 39 C77.13988849 41.03668511 75.45017714 42.61897627 73.3125 44.3125 C72.72380127 44.79178955 72.13510254 45.2710791 71.52856445 45.76489258 C65.68698947 50.42243811 59.52598222 54.36452132 53 58 C52.40380859 58.34160156 51.80761719 58.68320312 51.19335938 59.03515625 C38.80045996 66.0686133 24.45568354 71.62091527 10 71 C9.96559814 70.37472412 9.93119629 69.74944824 9.89575195 69.10522461 C9.10520097 55.53593795 7.75931058 42.15751036 5.5625 28.75 C5.25469604 26.86269165 5.25469604 26.86269165 4.94067383 24.93725586 C3.52669439 16.55015138 1.78727992 8.34063963 0 0 Z " fill="#3166B0" transform="translate(323,362)"/>
<path d="M0 0 C19.13615523 2.73373646 34.05135954 15.24091172 45.69042969 30.16796875 C71 64.77149501 71 64.77149501 71 81 C47.57 81 24.14 81 0 81 C0 54.27 0 27.54 0 0 Z " fill="#3267B1" transform="translate(228,264)"/>
<path d="M0 0 C0 26.73 0 53.46 0 81 C-23.43 81 -46.86 81 -71 81 C-68.97913274 74.26377581 -67.00619703 68.25208638 -64 62 C-63.61118652 61.18966309 -63.22237305 60.37932617 -62.82177734 59.54443359 C-55.87498137 45.37362853 -47.68801674 32.61667538 -37 21 C-36.42121094 20.34 -35.84242188 19.68 -35.24609375 19 C-26.29883202 9.31273918 -13.51229104 0 0 0 Z " fill="#3166B0" transform="translate(211,264)"/>
<path d="M0 0 C-0.53367187 0.48726563 -1.06734375 0.97453125 -1.6171875 1.4765625 C-21.54769036 20.44157388 -33.42818194 47.28454581 -42 73 C-61.14 73 -80.28 73 -100 73 C-88.0240493 43.06012324 -47.86396983 17.38948873 -19.765625 5.10546875 C-15.89053233 3.55652634 -11.98805347 2.22214542 -8 1 C-6.865625 0.5875 -5.73125 0.175 -4.5625 -0.25 C-2 -1 -2 -1 0 0 Z " fill="#3368B1" transform="translate(164,272)"/>
<path d="M0 0 C27.58109638 4.8612322 54.16646541 24.104154 74 43 C74.57008789 43.54285645 75.14017578 44.08571289 75.72753906 44.64501953 C84.24176116 52.80651591 92.46926715 61.11938536 99 71 C99 71.66 99 72.32 99 73 C79.53 73 60.06 73 40 73 C38.02 67.06 36.04 61.12 34 55 C32.48276575 51.37332071 30.97833856 47.88622601 29.25 44.375 C28.82589844 43.50166016 28.40179688 42.62832031 27.96484375 41.72851562 C21.38206342 28.43673647 13.2778837 16.54038517 4 5 C3.24460937 4.05511719 2.48921875 3.11023438 1.7109375 2.13671875 C1.14632813 1.43160156 0.58171875 0.72648437 0 0 Z " fill="#3267B1" transform="translate(277,272)"/>
<path d="M0 0 C3.32437322 2.27677662 5.34062581 4.23009649 6.859375 8.0234375 C7.71286113 12.88381641 7.41635819 16.83251299 4.609375 20.9609375 C2.04097956 24.31412043 -0.51426077 25.76441471 -4.69140625 26.4296875 C-9.82720657 26.60402867 -13.2377384 26.56755449 -17.265625 23.1484375 C-20.61162851 19.83445316 -21.36406561 17.53875741 -21.578125 12.8359375 C-21.55040542 7.56228788 -20.37291054 5.00885813 -16.74609375 1.265625 C-12.32028664 -2.15872211 -4.97447637 -2.2693779 0 0 Z " fill="#FAFBFD" transform="translate(369.140625,144.9765625)"/>
<path d="M0 0 C2.64 0 5.28 0 8 0 C8 18.81 8 37.62 8 57 C5.36 57 2.72 57 0 57 C-1.69295345 55.30704655 -1.12749729 53.17103516 -1.12939453 50.85351562 C-1.13412277 49.20675842 -1.13412277 49.20675842 -1.13894653 47.5267334 C-1.1369223 46.33197388 -1.13489807 45.13721436 -1.1328125 43.90625 C-1.13376923 42.68925415 -1.13472595 41.4722583 -1.13571167 40.21838379 C-1.13639372 37.63924101 -1.13453772 35.06009653 -1.13037109 32.48095703 C-1.12502322 28.51721364 -1.13031529 24.55358358 -1.13671875 20.58984375 C-1.13605797 18.09114558 -1.13477682 15.59244748 -1.1328125 13.09375 C-1.13483673 11.89899048 -1.13686096 10.70423096 -1.13894653 9.4732666 C-1.13579437 8.37542847 -1.13264221 7.27759033 -1.12939453 6.14648438 C-1.12859894 5.1746521 -1.12780334 4.20281982 -1.12698364 3.20153809 C-1 1 -1 1 0 0 Z " fill="#F9FBFD" transform="translate(358,190)"/>
</svg>
