<svg version="1.1" id="Layer_1" xmlns="http://www.w3.org/2000/svg" xmlns:xlink="http://www.w3.org/1999/xlink" x="0px" y="0px"
	 width="100%" viewBox="0 0 241 257" enable-background="new 0 0 241 257" xml:space="preserve">
<path fill="#2E387C" opacity="1.000000" stroke="none" 
	d="
M242.000000,99.000000 
	C242.000000,152.333328 242.000000,205.166672 242.000000,258.000000 
	C161.666672,258.000000 81.333336,258.000000 1.000000,258.000000 
	C1.000000,172.333328 1.000000,86.666664 1.000000,1.000000 
	C81.333336,1.000000 161.666672,1.000000 242.000000,1.000000 
	C242.000000,33.500000 242.000000,66.000000 242.000000,99.000000 
M162.500244,17.603205 
	C123.345810,17.602818 84.191299,17.554358 45.036983,17.621935 
	C24.883629,17.656717 13.384108,29.258081 13.383156,49.291164 
	C13.380693,101.108536 13.379046,152.925919 13.383998,204.743286 
	C13.385890,224.538910 24.957232,236.131607 44.729637,236.133987 
	C102.211929,236.140900 159.694229,236.136826 217.176514,236.134094 
	C218.675583,236.134033 220.303406,236.460129 221.638336,235.982864 
	C223.034775,235.483597 224.791229,234.450043 225.279953,233.211746 
	C227.804276,226.815811 225.008957,222.951553 218.148972,222.951019 
	C170.496979,222.947327 122.844994,222.949753 75.193001,222.948822 
	C68.528404,222.948685 61.858871,223.101822 55.200390,222.897842 
	C45.809120,222.610138 39.722824,216.042770 39.895061,206.719040 
	C40.073895,197.038025 46.549622,191.286545 57.504974,191.280487 
	C107.989410,191.252533 158.473862,191.269485 208.958313,191.263947 
	C220.686829,191.262665 225.612671,186.315430 225.614487,174.517624 
	C225.621628,127.865326 225.620651,81.213028 225.615494,34.560726 
	C225.614182,22.661255 220.541779,17.628370 208.486389,17.608463 
	C193.491058,17.583702 178.495636,17.602936 162.500244,17.603205 
M174.500137,200.678406 
	C155.026901,200.678421 135.553650,200.677750 116.080406,200.678635 
	C96.607170,200.679520 77.133842,200.650009 57.660759,200.704330 
	C52.239853,200.719467 49.246319,203.123993 49.248547,207.117371 
	C49.250771,211.093155 52.274487,213.474884 57.618919,213.698944 
	C58.283577,213.726822 58.950260,213.708206 59.616005,213.708206 
	C108.382317,213.708298 157.148636,213.723373 205.914871,213.659592 
	C208.184036,213.656631 210.764511,213.486038 212.625458,212.404724 
	C214.209915,211.484039 215.890167,209.111298 215.843704,207.427444 
	C215.790695,205.506485 214.254074,203.148987 212.648666,201.893936 
	C211.274765,200.819885 208.895752,200.746964 206.956451,200.728104 
	C196.471848,200.626190 185.985748,200.678894 174.500137,200.678406 
z"/>
<path fill="#FDFDFD" opacity="1.000000" stroke="none" 
	d="
M163.000244,17.603188 
	C178.495636,17.602936 193.491058,17.583702 208.486389,17.608463 
	C220.541779,17.628370 225.614182,22.661255 225.615494,34.560726 
	C225.620651,81.213028 225.621628,127.865326 225.614487,174.517624 
	C225.612671,186.315430 220.686829,191.262665 208.958313,191.263947 
	C158.473862,191.269485 107.989410,191.252533 57.504974,191.280487 
	C46.549622,191.286545 40.073895,197.038025 39.895061,206.719040 
	C39.722824,216.042770 45.809120,222.610138 55.200390,222.897842 
	C61.858871,223.101822 68.528404,222.948685 75.193001,222.948822 
	C122.844994,222.949753 170.496979,222.947327 218.148972,222.951019 
	C225.008957,222.951553 227.804276,226.815811 225.279953,233.211746 
	C224.791229,234.450043 223.034775,235.483597 221.638336,235.982864 
	C220.303406,236.460129 218.675583,236.134033 217.176514,236.134094 
	C159.694229,236.136826 102.211929,236.140900 44.729637,236.133987 
	C24.957232,236.131607 13.385890,224.538910 13.383998,204.743286 
	C13.379046,152.925919 13.380693,101.108536 13.383156,49.291164 
	C13.384108,29.258081 24.883629,17.656717 45.036983,17.621935 
	C84.191299,17.554358 123.345810,17.602818 163.000244,17.603188 
M170.725998,44.599747 
	C170.120193,44.760769 169.514374,44.921791 168.326385,44.685486 
	C166.185852,42.011242 163.415497,40.555492 160.722702,43.263069 
	C158.622070,45.375237 157.457962,48.418804 155.511597,51.407196 
	C155.326157,51.693710 155.140717,51.980225 154.892639,52.434368 
	C154.892639,52.434368 154.872513,52.612186 154.428558,53.338631 
	C153.403305,56.777641 154.666885,61.056164 150.513229,63.424717 
	C150.025131,63.703053 150.328613,65.974609 150.756180,67.142357 
	C152.142303,70.927872 155.078384,72.366364 159.110397,72.693947 
	C161.808456,76.328453 164.506531,79.962959 167.077652,83.426468 
	C166.985214,83.564789 167.481766,82.821800 168.031311,82.770378 
	C170.256241,86.121437 172.285400,89.817551 177.922440,88.675194 
	C188.244156,89.981491 191.778595,88.405952 194.684219,81.129173 
	C194.765732,79.762871 194.847229,78.396576 195.101318,76.333054 
	C194.697556,75.231148 194.293793,74.129242 193.728485,72.385536 
	C192.447723,71.204918 191.166962,70.024300 189.907257,68.203964 
	C190.222321,67.207870 190.537384,66.211784 191.571335,64.995865 
	C196.242874,61.125595 195.222733,55.734646 194.943558,50.790096 
	C194.816818,48.544968 193.317413,45.905640 190.058121,47.147858 
	C190.058121,47.147858 190.033295,46.944054 190.075439,46.317295 
	C188.987625,45.176575 187.899811,44.035851 186.239822,42.325359 
	C182.835815,42.246307 179.431824,42.167255 175.354721,42.127853 
	C173.998413,42.867645 172.642120,43.607437 170.725998,44.599747 
M127.423454,117.047173 
	C135.839264,111.063522 144.272461,105.104141 152.664795,99.087761 
	C158.330002,95.026436 158.855087,90.651039 154.442612,85.139137 
	C139.393204,66.339989 111.357285,63.502151 92.758347,78.895355 
	C74.046822,94.381760 71.477959,122.276024 87.073296,140.627258 
	C108.436081,165.765121 149.115326,159.276352 160.988968,128.836929 
	C163.044662,123.566948 161.667175,119.117836 157.439148,117.371422 
	C153.041763,115.555061 149.270050,117.510155 146.847183,122.850723 
	C146.365967,123.911438 145.901108,124.984261 145.343246,126.004776 
	C139.594208,136.521545 127.801071,142.514725 116.486961,140.690186 
	C104.030411,138.681396 95.019218,129.768417 92.562950,117.026924 
	C90.475204,106.197052 96.244392,94.137894 106.249260,88.120415 
	C116.518448,81.943954 131.955582,83.747993 137.309845,90.966454 
	C135.881317,92.046791 134.467896,93.160858 133.008636,94.211281 
	C127.466423,98.200790 121.802513,102.030495 116.388680,106.186432 
	C111.222221,110.152473 111.823425,117.856758 117.630966,119.360886 
	C120.350250,120.065163 123.736946,118.192543 127.423454,117.047173 
z"/>
<path fill="#F2C556" opacity="1.000000" stroke="none" 
	d="
M175.000153,200.678345 
	C185.985748,200.678894 196.471848,200.626190 206.956451,200.728104 
	C208.895752,200.746964 211.274765,200.819885 212.648666,201.893936 
	C214.254074,203.148987 215.790695,205.506485 215.843704,207.427444 
	C215.890167,209.111298 214.209915,211.484039 212.625458,212.404724 
	C210.764511,213.486038 208.184036,213.656631 205.914871,213.659592 
	C157.148636,213.723373 108.382317,213.708298 59.616005,213.708206 
	C58.950260,213.708206 58.283577,213.726822 57.618919,213.698944 
	C52.274487,213.474884 49.250771,211.093155 49.248547,207.117371 
	C49.246319,203.123993 52.239853,200.719467 57.660759,200.704330 
	C77.133842,200.650009 96.607170,200.679520 116.080406,200.678635 
	C135.553650,200.677750 155.026901,200.678421 175.000153,200.678345 
z"/>
<path fill="#F9CB58" opacity="1.000000" stroke="none" 
	d="
M127.122307,117.267487 
	C123.736946,118.192543 120.350250,120.065163 117.630966,119.360886 
	C111.823425,117.856758 111.222221,110.152473 116.388680,106.186432 
	C121.802513,102.030495 127.466423,98.200790 133.008636,94.211281 
	C134.467896,93.160858 135.881317,92.046791 137.309845,90.966454 
	C131.955582,83.747993 116.518448,81.943954 106.249260,88.120415 
	C96.244392,94.137894 90.475204,106.197052 92.562950,117.026924 
	C95.019218,129.768417 104.030411,138.681396 116.486961,140.690186 
	C127.801071,142.514725 139.594208,136.521545 145.343246,126.004776 
	C145.901108,124.984261 146.365967,123.911438 146.847183,122.850723 
	C149.270050,117.510155 153.041763,115.555061 157.439148,117.371422 
	C161.667175,119.117836 163.044662,123.566948 160.988968,128.836929 
	C149.115326,159.276352 108.436081,165.765121 87.073296,140.627258 
	C71.477959,122.276024 74.046822,94.381760 92.758347,78.895355 
	C111.357285,63.502151 139.393204,66.339989 154.442612,85.139137 
	C158.855087,90.651039 158.330002,95.026436 152.664795,99.087761 
	C144.272461,105.104141 135.839264,111.063522 127.122307,117.267487 
z"/>
<path fill="#ABC526" opacity="1.000000" stroke="none" 
	d="
M194.076645,81.474182 
	C191.778595,88.405952 188.244156,89.981491 177.455139,88.079170 
	C172.395828,85.255478 169.080521,82.092293 168.677887,76.611877 
	C168.632614,75.995422 167.684357,75.445297 167.240143,74.867821 
	C167.325439,74.871223 167.337906,74.700943 167.304718,74.344574 
	C165.483749,72.971031 163.695938,71.953857 161.694473,70.824539 
	C161.480804,70.712387 161.045364,70.504303 160.801727,70.249420 
	C160.308151,68.395477 160.058197,66.796432 159.877167,64.793480 
	C161.243195,57.098724 164.050430,50.779903 171.035446,47.093353 
	C171.030472,47.033344 170.940964,46.952785 171.334167,46.965439 
	C175.601410,45.969448 179.475449,44.960796 183.571228,43.984650 
	C183.792984,44.017155 184.241196,44.023983 184.241196,44.023983 
	C184.241196,44.023983 184.680145,43.933044 185.001221,44.086792 
	C186.892639,45.141716 188.462967,46.042885 190.033295,46.944054 
	C190.033295,46.944054 190.058121,47.147858 190.047928,47.545067 
	C191.009705,50.027596 192.912766,52.189259 192.749420,54.181496 
	C192.457581,57.740879 190.919235,61.198055 189.590912,64.894318 
	C187.533875,66.408134 185.787964,67.725601 183.859711,68.701996 
	C182.180313,68.267258 180.683258,68.173584 179.186188,68.079918 
	C179.188721,68.382591 179.191238,68.685272 179.193771,68.987946 
	C180.826431,68.987946 182.459076,68.987946 184.316208,69.203033 
	C185.680695,69.915680 186.820709,70.413239 188.197723,71.149185 
	C189.566757,72.764435 190.698761,74.141304 191.853058,75.818298 
	C192.253433,77.032547 192.631531,77.946663 193.049423,79.218277 
	C193.418365,80.208565 193.747513,80.841377 194.076645,81.474182 
z"/>
<path fill="#ECC75B" opacity="1.000000" stroke="none" 
	d="
M171.040421,47.153358 
	C164.050430,50.779903 161.243195,57.098724 159.597565,64.890518 
	C158.666519,66.521385 158.084000,67.651314 157.501480,68.781235 
	C156.961670,68.718056 156.421875,68.654869 155.882080,68.591690 
	C155.781265,64.309921 155.721008,60.026535 155.550720,55.747528 
	C155.508835,54.695087 155.108215,53.656918 154.872513,52.612186 
	C154.872513,52.612186 154.892639,52.434368 155.154266,52.204285 
	C155.569824,51.665627 155.723740,51.357048 155.877670,51.048473 
	C157.457962,48.418804 158.622070,45.375237 160.722702,43.263069 
	C163.415497,40.555492 166.185852,42.011242 168.679199,45.217331 
	C169.701477,46.217236 170.370956,46.685295 171.040421,47.153358 
z"/>
<path fill="#CAC9CE" opacity="1.000000" stroke="none" 
	d="
M154.650543,52.975410 
	C155.108215,53.656918 155.508835,54.695087 155.550720,55.747528 
	C155.721008,60.026535 155.781265,64.309921 155.882080,68.591690 
	C156.421875,68.654869 156.961670,68.718056 157.501480,68.781235 
	C158.084000,67.651314 158.666519,66.521385 159.528641,65.294418 
	C160.058197,66.796432 160.308151,68.395477 160.536758,70.428223 
	C160.009277,71.242401 159.503128,71.622887 158.996994,72.003372 
	C155.078384,72.366364 152.142303,70.927872 150.756180,67.142357 
	C150.328613,65.974609 150.025131,63.703053 150.513229,63.424717 
	C154.666885,61.056164 153.403305,56.777641 154.650543,52.975410 
z"/>
<path fill="#4E5788" opacity="1.000000" stroke="none" 
	d="
M189.902023,64.697960 
	C190.919235,61.198055 192.457581,57.740879 192.749420,54.181496 
	C192.912766,52.189259 191.009705,50.027596 189.954437,47.587471 
	C193.317413,45.905640 194.816818,48.544968 194.943558,50.790096 
	C195.222733,55.734646 196.242874,61.125595 190.992279,64.946159 
	C190.242828,64.830284 190.072418,64.764122 189.902023,64.697960 
z"/>
<path fill="#4F5891" opacity="1.000000" stroke="none" 
	d="
M159.053696,72.348663 
	C159.503128,71.622887 160.009277,71.242401 160.780396,70.683105 
	C161.045364,70.504303 161.480804,70.712387 161.875702,71.119057 
	C163.959686,72.584129 165.648804,73.642540 167.337906,74.700943 
	C167.337906,74.700943 167.325439,74.871223 167.229584,75.272926 
	C167.415268,77.809357 167.696808,79.944092 167.978333,82.078819 
	C167.481766,82.821800 166.985214,83.564789 167.077652,83.426468 
	C164.506531,79.962959 161.808456,76.328453 159.053696,72.348663 
z"/>
<path fill="#394271" opacity="1.000000" stroke="none" 
	d="
M168.004822,82.424599 
	C167.696808,79.944092 167.415268,77.809357 167.144287,75.269524 
	C167.684357,75.445297 168.632614,75.995422 168.677887,76.611877 
	C169.080521,82.092293 172.395828,85.255478 177.191681,87.783340 
	C172.285400,89.817551 170.256241,86.121437 168.004822,82.424599 
z"/>
<path fill="#C7D1AE" opacity="1.000000" stroke="none" 
	d="
M189.590912,64.894318 
	C190.072418,64.764122 190.242828,64.830284 190.632843,65.056076 
	C190.537384,66.211784 190.222321,67.207870 189.711945,68.676949 
	C189.214920,69.318810 189.024414,69.571571 188.761932,70.055756 
	C188.340836,70.411201 188.134796,70.647041 187.960724,70.910797 
	C186.820709,70.413239 185.680695,69.915680 184.301193,69.215065 
	C184.061707,69.012009 184.042053,69.043060 184.042053,69.043060 
	C185.787964,67.725601 187.533875,66.408134 189.590912,64.894318 
z"/>
<path fill="#8890B4" opacity="1.000000" stroke="none" 
	d="
M184.680145,43.933044 
	C184.680145,43.933044 184.241196,44.023983 184.241196,44.023983 
	C184.241196,44.023983 183.792984,44.017155 183.213165,43.761581 
	C180.422119,43.447643 178.210876,43.389286 176.012390,43.020378 
	C176.026031,42.502617 176.026917,42.295410 176.027817,42.088203 
	C179.431824,42.167255 182.835815,42.246307 186.222443,42.635773 
	C185.696747,43.275139 185.188446,43.604092 184.680145,43.933044 
z"/>
<path fill="#9198A3" opacity="1.000000" stroke="none" 
	d="
M194.380432,81.301682 
	C193.747513,80.841377 193.418365,80.208565 193.087311,78.889252 
	C193.202454,77.776901 193.319504,77.351051 193.686676,76.914314 
	C194.267456,76.945709 194.598099,76.987991 194.928741,77.030273 
	C194.847229,78.396576 194.765732,79.762871 194.380432,81.301682 
z"/>
<path fill="#6D74A4" opacity="1.000000" stroke="none" 
	d="
M188.945068,69.908234 
	C189.024414,69.571571 189.214920,69.318810 189.701416,68.996803 
	C191.166962,70.024300 192.447723,71.204918 193.613174,72.880058 
	C193.289734,73.654251 193.081589,73.933914 192.714691,74.105598 
	C192.555939,73.997620 192.220184,73.810280 192.124023,73.500320 
	C191.000259,72.096313 189.972672,71.002274 188.945068,69.908234 
z"/>
<path fill="#C3C7DA" opacity="1.000000" stroke="none" 
	d="
M185.001221,44.086792 
	C185.188446,43.604092 185.696747,43.275139 186.508514,42.920654 
	C187.899811,44.035851 188.987625,45.176575 190.054367,46.630676 
	C188.462967,46.042885 186.892639,45.141716 185.001221,44.086792 
z"/>
<path fill="#A0A6C4" opacity="1.000000" stroke="none" 
	d="
M175.691269,42.108028 
	C176.026917,42.295410 176.026031,42.502617 175.789642,43.218719 
	C174.442795,44.244137 173.331421,44.760658 171.994629,45.036510 
	C171.608078,44.646301 171.446945,44.496765 171.285812,44.347225 
	C172.642120,43.607437 173.998413,42.867645 175.691269,42.108028 
z"/>
<path fill="#676EA1" opacity="1.000000" stroke="none" 
	d="
M192.873444,74.213577 
	C193.081589,73.933914 193.289734,73.654251 193.693954,73.200958 
	C194.293793,74.129242 194.697556,75.231148 195.015030,76.681664 
	C194.598099,76.987991 194.267456,76.945709 193.590424,76.578308 
	C193.120514,75.573326 192.996979,74.893448 192.873444,74.213577 
z"/>
<path fill="#A0A6C4" opacity="1.000000" stroke="none" 
	d="
M171.035446,47.093349 
	C170.370956,46.685295 169.701477,46.217236 168.970291,45.415993 
	C169.514374,44.921791 170.120193,44.760769 171.005905,44.473488 
	C171.446945,44.496765 171.608078,44.646301 171.827164,45.240337 
	C171.570404,46.107487 171.255692,46.530140 170.940979,46.952789 
	C170.940964,46.952785 171.030472,47.033344 171.035446,47.093349 
z"/>
<path fill="#CAC9CE" opacity="1.000000" stroke="none" 
	d="
M155.694641,51.227837 
	C155.723740,51.357048 155.569824,51.665627 155.185593,52.120468 
	C155.140717,51.980225 155.326157,51.693710 155.694641,51.227837 
z"/>
<path fill="#D9DFC9" opacity="1.000000" stroke="none" 
	d="
M171.334183,46.965446 
	C171.255692,46.530140 171.570404,46.107487 172.052582,45.481007 
	C173.331421,44.760658 174.442795,44.244137 175.776886,43.529270 
	C178.210876,43.389286 180.422119,43.447643 182.991425,43.729073 
	C179.475449,44.960796 175.601410,45.969448 171.334183,46.965446 
z"/>
<path fill="#394271" opacity="1.000000" stroke="none" 
	d="
M167.304718,74.344574 
	C165.648804,73.642540 163.959686,72.584129 162.089355,71.231201 
	C163.695938,71.953857 165.483749,72.971031 167.304718,74.344574 
z"/>
<path fill="#D9E0C7" opacity="1.000000" stroke="none" 
	d="
M188.761932,70.055756 
	C189.972672,71.002274 191.000259,72.096313 192.015991,73.924393 
	C191.946335,74.945000 191.888565,75.231590 191.830780,75.518173 
	C190.698761,74.141304 189.566757,72.764435 188.197723,71.149185 
	C188.134796,70.647041 188.340836,70.411201 188.761932,70.055756 
z"/>
<path fill="#505C7D" opacity="1.000000" stroke="none" 
	d="
M184.076721,68.999977 
	C182.459076,68.987946 180.826431,68.987946 179.193771,68.987946 
	C179.191238,68.685272 179.188721,68.382591 179.186188,68.079918 
	C180.683258,68.173584 182.180313,68.267258 183.859711,68.701996 
	C184.042053,69.043060 184.061707,69.012009 184.076721,68.999977 
z"/>
<path fill="#CBD5B1" opacity="1.000000" stroke="none" 
	d="
M191.853058,75.818298 
	C191.888565,75.231590 191.946335,74.945000 192.112152,74.234344 
	C192.220184,73.810280 192.555939,73.997620 192.714691,74.105598 
	C192.996979,74.893448 193.120514,75.573326 193.340302,76.589203 
	C193.319504,77.351051 193.202454,77.776901 193.047516,78.531769 
	C192.631531,77.946663 192.253433,77.032547 191.853058,75.818298 
z"/>
</svg>