<svg width="44" height="44" viewBox="0 0 44 44" fill="none" xmlns="http://www.w3.org/2000/svg">
<circle cx="22" cy="22" r="21.5" fill="white" stroke="#E6E7EA"/>
<path fill-rule="evenodd" clip-rule="evenodd" d="M31.5036 21.6747C31.5036 20.9724 31.4402 20.2981 31.3236 19.6499H22V23.4793H27.3282C27.0988 24.717 26.4011 25.7652 25.3529 26.4675V28.9512H28.5527C30.4246 27.2276 31.5046 24.6899 31.5046 21.6747H31.5036Z" fill="#3E82F1"/>
<path fill-rule="evenodd" clip-rule="evenodd" d="M22.0001 31.3499C24.6731 31.3499 26.9142 30.463 28.5519 28.9512L25.352 26.4675C24.4651 27.0616 23.3319 27.4123 21.9992 27.4123C19.4204 27.4123 17.2381 25.6711 16.4593 23.3311H13.1531V25.8958C14.7824 29.1312 18.1297 31.3499 22.0001 31.3499Z" fill="#32A753"/>
<path fill-rule="evenodd" clip-rule="evenodd" d="M16.4602 23.331C16.2625 22.7369 16.1496 22.1027 16.1496 21.4498C16.1496 20.797 16.2625 20.1628 16.4602 19.5687V17.0039H13.1531C12.4825 18.3404 12.1001 19.8522 12.1001 21.4498C12.1001 23.0474 12.4825 24.5592 13.1531 25.8957L16.4602 23.331Z" fill="#F9BB00"/>
<path fill-rule="evenodd" clip-rule="evenodd" d="M22.0001 15.4874C23.4532 15.4874 24.7589 15.9873 25.7848 16.9675L28.6247 14.1276C26.9096 12.5309 24.6684 11.5498 22.0001 11.5498C18.1297 11.5498 14.7824 13.7686 13.1531 17.0039L16.4602 19.5687C17.239 17.2287 19.4214 15.4874 22.0001 15.4874Z" fill="#E74133"/>
</svg>
