<?xml version="1.0" encoding="UTF-8"?>
<svg id="_레이어_2" data-name="레이어 2" xmlns="http://www.w3.org/2000/svg" viewBox="0 0 15.41 15.43">
  <defs>
    <style>
      .cls-1 {
        fill: #231815;
      }
    </style>
  </defs>
  <g id="_레이어_1-2" data-name="레이어 1">
    <path class="cls-1" d="M0,7.71C0,3.46,3.46,0,7.7,0s7.71,3.46,7.71,7.71-3.46,7.71-7.71,7.71S0,11.97,0,7.71ZM13.93,7.71c0-3.42-2.81-6.21-6.23-6.21S1.48,4.3,1.48,7.71s2.79,6.21,6.21,6.21,6.23-2.79,6.23-6.21ZM4.8,5.92h-.02l-1.41.88v-1.19l1.52-.98h1.27v6.17h-1.37v-4.88ZM7.56,9.73l2.23-1.99c.53-.53.84-.86.84-1.33,0-.51-.39-.84-.92-.84-.57,0-.94.33-.94.92h-1.29c0-1.21.9-2.01,2.23-2.01s2.25.76,2.25,1.84c0,.72-.35,1.29-1.66,2.44l-.84.82v.04h2.56v1.11h-4.45v-1Z"/>
  </g>
</svg>