<?xml version="1.0" encoding="UTF-8"?>
<svg id="_레이어_2" data-name="레이어 2" xmlns="http://www.w3.org/2000/svg" viewBox="0 0 15.41 15.43">
  <defs>
    <style>
      .cls-1 {
        fill: #231815;
      }
    </style>
  </defs>
  <g id="_레이어_1-2" data-name="레이어 1">
    <path class="cls-1" d="M0,7.71C0,3.46,3.46,0,7.7,0s7.71,3.46,7.71,7.71-3.46,7.71-7.71,7.71S0,11.97,0,7.71ZM13.93,7.71c0-3.42-2.81-6.21-6.23-6.21S1.48,4.3,1.48,7.71s2.79,6.21,6.21,6.21,6.23-2.79,6.23-6.21ZM5.14,9.24h1.37c0,.53.53.9,1.21.9.72,0,1.23-.41,1.23-.98s-.51-1-1.37-1h-.61v-1.04h.61c.7,0,1.19-.39,1.19-.96,0-.53-.41-.9-1.04-.9s-1.15.33-1.17.9h-1.31c.02-1.17,1.09-1.99,2.48-1.99s2.34.86,2.34,1.91c0,.78-.51,1.35-1.29,1.48v.06c1.02.12,1.56.74,1.56,1.6,0,1.17-1.11,2.03-2.64,2.03s-2.58-.84-2.58-2.03Z"/>
  </g>
</svg>