<?xml version="1.0" encoding="UTF-8"?>
<svg id="_레이어_2" data-name="레이어 2" xmlns="http://www.w3.org/2000/svg" viewBox="0 0 11.05 11.05">
  <defs>
    <style>
      .cls-1 {
        fill: #231815;
      }
    </style>
  </defs>
  <g id="_레이어_1-2" data-name="레이어 1">
    <path class="cls-1" d="M0,5.53C0,2.48,2.48,0,5.53,0s5.53,2.48,5.53,5.53-2.48,5.53-5.53,5.53S0,8.57,0,5.53ZM9.73,5.53c0-2.32-1.88-4.2-4.2-4.2S1.33,3.2,1.33,5.53s1.88,4.2,4.2,4.2,4.2-1.88,4.2-4.2ZM3.59,2.91h2.58c.62,0,1.56.53,1.56,1.64,0,.7-.38,1.2-.82,1.48l1.04,1.97h-1.25l-.88-1.72h-1.11v1.72h-1.11V2.91ZM5.74,5.45c.31,0,.76-.29.76-.9s-.47-.8-.72-.8h-1.07v1.7h1.04Z"/>
  </g>
</svg>