<?xml version="1.0" encoding="UTF-8"?>
<svg id="_레이어_2" data-name="레이어 2" xmlns="http://www.w3.org/2000/svg" viewBox="0 0 15.41 15.43">
  <defs>
    <style>
      .cls-1 {
        fill: #231815;
      }
    </style>
  </defs>
  <g id="_레이어_1-2" data-name="레이어 1">
    <path class="cls-1" d="M0,7.71C0,3.46,3.46,0,7.7,0s7.71,3.46,7.71,7.71-3.46,7.71-7.71,7.71S0,11.97,0,7.71ZM13.93,7.71c0-3.42-2.81-6.21-6.23-6.21S1.48,4.3,1.48,7.71s2.79,6.21,6.21,6.21,6.23-2.79,6.23-6.21ZM6.04,10.8h-1.37v-4.88h-.02l-1.41.88v-1.19l1.5-.98h1.29v6.17ZM12.21,7.56c.02,2.09-1,3.32-2.56,3.32-1.27,0-2.11-.8-2.25-1.84h1.35c.1.43.43.66.9.66.82,0,1.23-.72,1.23-1.91h-.06c-.27.55-.88.88-1.56.88-1.11,0-1.91-.84-1.91-1.97,0-1.25.94-2.15,2.36-2.15,1.29.02,2.5.78,2.5,3.01ZM8.67,6.64c0,.61.43,1.05,1.04,1.05s1.04-.47,1.04-1.05-.43-1.04-1.04-1.04-1.04.47-1.04,1.04Z"/>
  </g>
</svg>