<?xml version="1.0" encoding="UTF-8"?>
<svg id="_레이어_2" data-name="레이어 2" xmlns="http://www.w3.org/2000/svg" viewBox="0 0 15.41 15.43">
  <defs>
    <style>
      .cls-1 {
        fill: #231815;
      }
    </style>
  </defs>
  <g id="_레이어_1-2" data-name="레이어 1">
    <path class="cls-1" d="M0,7.71C0,3.46,3.46,0,7.7,0s7.71,3.46,7.71,7.71-3.46,7.71-7.71,7.71S0,11.97,0,7.71ZM13.93,7.71c0-3.42-2.81-6.21-6.23-6.21S1.48,4.3,1.48,7.71s2.79,6.21,6.21,6.21,6.23-2.79,6.23-6.21ZM6.04,10.8h-1.37v-4.88h-.02l-1.41.88v-1.19l1.5-.98h1.29v6.17ZM7.32,9.14c0-.78.59-1.41,1.37-1.52v-.04c-.66-.14-1.13-.68-1.13-1.37,0-.96.94-1.66,2.21-1.66s2.21.7,2.21,1.66c0,.68-.47,1.23-1.13,1.37v.04c.76.12,1.37.74,1.37,1.52,0,1-1.02,1.74-2.44,1.74s-2.44-.74-2.44-1.74ZM10.78,9.02c0-.51-.41-.88-1.02-.88s-1.02.37-1.02.88.41.86,1.02.86,1.02-.35,1.02-.86ZM10.64,6.37c0-.47-.35-.8-.88-.8s-.88.33-.88.8.37.8.88.8.88-.33.88-.8Z"/>
  </g>
</svg>