<?xml version="1.0" encoding="UTF-8"?>
<svg id="_레이어_2" data-name="레이어 2" xmlns="http://www.w3.org/2000/svg" viewBox="0 0 15.41 15.43">
  <defs>
    <style>
      .cls-1 {
        fill: #231815;
      }
    </style>
  </defs>
  <g id="_레이어_1-2" data-name="레이어 1">
    <path class="cls-1" d="M0,7.71C0,3.46,3.46,0,7.7,0s7.71,3.46,7.71,7.71-3.46,7.71-7.71,7.71S0,11.97,0,7.71ZM13.93,7.71c0-3.42-2.81-6.21-6.23-6.21S1.48,4.3,1.48,7.71s2.79,6.21,6.21,6.21,6.23-2.79,6.23-6.21ZM5.06,9.32c0-.88.66-1.58,1.5-1.72v-.04c-.74-.16-1.25-.76-1.23-1.52-.02-1.07,1-1.86,2.4-1.86s2.4.78,2.38,1.86c.02.76-.49,1.37-1.23,1.52v.04c.84.14,1.5.84,1.5,1.72,0,1.11-1.11,1.95-2.66,1.95s-2.68-.84-2.68-1.95ZM8.98,9.22c0-.64-.53-1.07-1.25-1.07s-1.27.43-1.27,1.07c0,.59.51,1.02,1.27,1.02s1.25-.43,1.25-1.02ZM8.81,6.17c0-.57-.45-.94-1.07-.96-.64.02-1.07.39-1.07.96s.43.96,1.07.96,1.07-.39,1.07-.96Z"/>
  </g>
</svg>