<?xml version="1.0" encoding="UTF-8"?>
<svg id="_레이어_2" data-name="레이어 2" xmlns="http://www.w3.org/2000/svg" viewBox="0 0 10.23 17.7">
  <defs>
    <style>
      .cls-1 {
        fill: #231815;
      }
    </style>
  </defs>
  <g id="_레이어_1-2" data-name="레이어 1">
    <path class="cls-1" d="M4.53,16.15c-2.71-.19-4.38-1.71-4.53-3.91h1.8c.14,1.4,1.3,2.14,2.73,2.3v-5.18l-.55-.14c-2.23-.64-3.59-1.78-3.59-3.69C.39,3.38,2.16,1.88,4.53,1.62V0h1.13v1.58c2.52.17,4.3,1.71,4.38,3.75h-1.72c-.14-1.26-1.19-2.03-2.66-2.17v4.84l.57.16c1.52.39,4,1.27,4,3.91,0,2.17-1.64,3.89-4.57,4.08v1.54h-1.13v-1.54ZM4.53,7.7V3.18c-1.49.21-2.44,1.1-2.44,2.29,0,1.36,1.39,1.93,2.44,2.23ZM8.52,12.03c0-1.37-1.31-1.89-2.79-2.32l-.06-.02v4.84c1.66-.17,2.85-1.11,2.85-2.5Z"/>
  </g>
</svg>