<?xml version="1.0" encoding="UTF-8"?>
<svg id="_레이어_2" data-name="레이어 2" xmlns="http://www.w3.org/2000/svg" viewBox="0 0 15.41 15.43">
  <defs>
    <style>
      .cls-1 {
        fill: #231815;
      }
    </style>
  </defs>
  <g id="_레이어_1-2" data-name="레이어 1">
    <path class="cls-1" d="M0,7.71C0,3.46,3.46,0,7.7,0s7.71,3.46,7.71,7.71-3.46,7.71-7.71,7.71S0,11.97,0,7.71ZM13.93,7.71c0-3.42-2.81-6.21-6.23-6.21S1.48,4.3,1.48,7.71s2.79,6.21,6.21,6.21,6.23-2.79,6.23-6.21ZM5.04,7.89c0-2.34,1.09-3.71,2.81-3.71,1.37,0,2.3.86,2.44,1.99h-1.35c-.1-.51-.51-.82-1.09-.82-.98,0-1.48.86-1.48,2.25h.08c.31-.62,1-.96,1.76-.96,1.23,0,2.17.92,2.17,2.23,0,1.39-1.04,2.4-2.58,2.4-1.41-.02-2.75-.84-2.75-3.38ZM9.04,8.91c0-.7-.51-1.27-1.25-1.27s-1.27.59-1.29,1.27c0,.68.55,1.27,1.27,1.27s1.27-.55,1.27-1.27Z"/>
  </g>
</svg>