<?xml version="1.0" encoding="UTF-8"?>
<svg id="_레이어_2" data-name="레이어 2" xmlns="http://www.w3.org/2000/svg" viewBox="0 0 9.24 14.98">
  <defs>
    <style>
      .cls-1 {
        fill: #231815;
      }
    </style>
  </defs>
  <g id="_레이어_1-2" data-name="레이어 1">
    <path class="cls-1" d="M4.8,0c.98,0,1.7.16,2.56.49v1.64c-.55-.21-1.58-.53-2.52-.53-1.11,0-1.7.45-1.7,1.09,0,.49.35,1.11,2.07,1.74,2.79,1,4.02,2.77,4.02,5.33v.18c0,2.85-1.72,5.04-4.61,5.04S0,12.79,0,9.94v-.18c0-2.23,1.41-3.96,3.11-4.39v-.06c-1.19-.47-1.93-1.39-1.93-2.6C1.17,1.07,2.54,0,4.8,0ZM4.63,13.44c1.84,0,2.68-1.6,2.68-3.5v-.2c0-1.54-1.05-3.2-2.68-3.54-1.86,0-2.68,1.64-2.68,3.54v.2c0,1.89.82,3.5,2.68,3.5Z"/>
  </g>
</svg>