<?xml version="1.0" encoding="UTF-8"?>
<svg id="_레이어_2" data-name="레이어 2" xmlns="http://www.w3.org/2000/svg" viewBox="0 0 8.75 17.21">
  <defs>
    <style>
      .cls-1 {
        fill: #231815;
      }
    </style>
  </defs>
  <g id="_레이어_1-2" data-name="레이어 1">
    <path class="cls-1" d="M4.36,1.5c-1.21,0-1.78.78-1.78,1.46,0,.82.82,1.5,1.48,1.89l2.68,1.56c.72.41,2.03,1.31,2.01,3.03,0,1.04-.88,2.15-1.91,2.48v.02c.66.59.98,1.37.98,2.27,0,2.03-1.7,2.99-3.54,2.99-2.19,0-3.77-1.35-3.77-3.57h1.64c0,1.35.9,2.07,2.13,2.07,1.02,0,1.91-.49,1.91-1.48s-.82-1.5-1.48-1.89l-2.68-1.54c-.72-.41-2.03-1.33-2.03-3.07.02-1,.82-2.17,1.93-2.5v-.04c-.59-.59-.98-1.31-.98-2.21C.96,1.25,2.38,0,4.36,0c2.15,0,3.48,1.46,3.48,3.54h-1.62c0-1.15-.57-2.03-1.86-2.03ZM5.92,7.7l-2.7-1.54c-.59-.37-1.66.43-1.66,1.56,0,.86.62,1.39,1.31,1.8l2.58,1.46c.57.33,1.76-.39,1.76-1.5,0-.78-.62-1.39-1.29-1.78Z"/>
  </g>
</svg>