<?xml version="1.0" encoding="UTF-8"?>
<svg id="_레이어_2" data-name="레이어 2" xmlns="http://www.w3.org/2000/svg" viewBox="0 0 10.18 14.53">
  <defs>
    <style>
      .cls-1 {
        fill: #231815;
      }
    </style>
  </defs>
  <g id="_레이어_1-2" data-name="레이어 1">
    <path class="cls-1" d="M2.75,3.59H.88C.88,1.7,2.01,0,5.14,0c2.58,0,4.04,1.13,4.04,3.28,0,.58-.16,1.16-.49,1.68h1.48v1.54H0v-1.54h6.64c.41-.55.78-1.1.78-1.68,0-1.04-.76-1.72-2.29-1.72-1.66,0-2.38.82-2.38,2.03ZM3.5,9.38c-.64.6-.88,1.14-.88,1.82,0,1.07.88,1.74,2.46,1.74,1.48,0,2.54-.59,2.54-1.97h1.89c0,2.44-1.78,3.57-4.43,3.57S.74,13.36.74,11.21c0-.64.22-1.32.68-1.84H0v-1.52h10.18v1.52H3.5Z"/>
  </g>
</svg>