<?xml version="1.0" encoding="UTF-8"?>
<svg id="_레이어_2" data-name="레이어 2" xmlns="http://www.w3.org/2000/svg" viewBox="0 0 14.7 13.82">
  <defs>
    <style>
      .cls-1 {
        fill: #231815;
      }
    </style>
  </defs>
  <g id="_레이어_1-2" data-name="레이어 1">
    <path class="cls-1" d="M0,13.36c.7-.07,1.14-.18,1.32-.36.18-.17.27-.64.27-1.4v-4.66c0-.42-.03-.72-.09-.88-.1-.27-.3-.4-.62-.4-.07,0-.14,0-.21.02s-.26.07-.59.16v-.3l.42-.14c1.14-.37,1.93-.65,2.38-.84.18-.08.3-.12.35-.12.01.05.02.09.02.15v7.01c0,.74.09,1.21.27,1.4.18.19.58.31,1.22.36v.27H0v-.27ZM1.55.3c.2-.2.44-.3.72-.3s.52.1.72.3c.2.2.3.44.3.72s-.1.52-.3.71c-.2.2-.44.3-.72.3s-.53-.1-.72-.3c-.2-.2-.29-.44-.29-.71s.1-.52.29-.72ZM9.46,4.56v.3c-.34.04-.58.09-.72.16-.14.07-.21.21-.21.43,0,.1.01.2.04.3s.08.23.15.42l2.05,4.91,1.74-4.33c.08-.21.16-.44.24-.67.08-.23.11-.41.11-.54,0-.25-.12-.44-.36-.55-.14-.06-.34-.1-.59-.12v-.3h2.77v.3c-.32.03-.55.13-.69.32-.14.19-.34.61-.61,1.28l-2.82,7.03c-.05.12-.09.21-.13.25-.03.05-.08.07-.14.07-.07,0-.12-.04-.17-.11-.05-.08-.09-.17-.15-.28l-2.99-7.15c-.24-.58-.5-.97-.77-1.18-.16-.12-.4-.2-.71-.23v-.3h3.94Z"/>
  </g>
</svg>