<?xml version="1.0" encoding="UTF-8"?>
<svg id="_레이어_2" data-name="레이어 2" xmlns="http://www.w3.org/2000/svg" viewBox="0 0 14 14">
  <defs>
    <style>
      .cls-1 {
        fill: #231815;
      }
    </style>
  </defs>
  <g id="_레이어_1-2" data-name="레이어 1">
    <path class="cls-1" d="M0,10.45V3.57C0,1.11,1.09,0,3.55,0h6.88c2.46,0,3.57,1.11,3.57,3.57v6.88c0,2.46-1.11,3.55-3.57,3.55H3.55c-2.46,0-3.55-1.09-3.55-3.55ZM12.52,10.45V3.55c0-1.64-.43-2.05-2.07-2.05H3.55c-1.62,0-2.07.41-2.07,2.05v6.89c0,1.64.45,2.07,2.07,2.07h6.89c1.64,0,2.07-.43,2.07-2.07Z"/>
  </g>
</svg>