<?xml version="1.0" encoding="UTF-8"?>
<svg id="_레이어_2" data-name="레이어 2" xmlns="http://www.w3.org/2000/svg" viewBox="0 0 11.29 14.53">
  <defs>
    <style>
      .cls-1 {
        fill: #231815;
      }
    </style>
  </defs>
  <g id="_레이어_1-2" data-name="레이어 1">
    <path class="cls-1" d="M9,6.58H3.44c0,.22-.02.45-.02.68s0,.46.02.68h5.02l-.64,1.39H3.65c.54,2.32,2.03,3.55,3.89,3.55,1.21,0,2.23-.53,3.01-1.21l.72,1.46c-.98.92-2.32,1.39-3.73,1.39-2.85,0-5.01-1.94-5.64-5.2H0l.49-1.39h1.23l-.02-.68.02-.68H0l.49-1.39h1.41C2.53,1.94,4.69,0,7.54,0c1.46,0,2.75.53,3.75,1.45l-.68,1.48c-.88-.78-1.88-1.29-3.07-1.29-1.86,0-3.35,1.23-3.89,3.55h6l-.64,1.39Z"/>
  </g>
</svg>