<?xml version="1.0" encoding="UTF-8"?>
<svg id="_레이어_2" data-name="레이어 2" xmlns="http://www.w3.org/2000/svg" viewBox="0 0 9.17 9.26">
  <defs>
    <style>
      .cls-1 {
        fill: #231815;
      }
    </style>
  </defs>
  <g id="_레이어_1-2" data-name="레이어 1">
    <path class="cls-1" d="M3.94,0v.3c-.34.04-.58.09-.72.16-.14.07-.21.21-.21.43,0,.1.02.2.04.3s.08.23.15.42l2.05,4.91,1.74-4.33c.08-.21.17-.44.24-.67.07-.23.11-.41.11-.54,0-.25-.12-.44-.36-.55-.14-.06-.34-.1-.59-.12v-.3h2.77v.3c-.32.03-.55.13-.69.32-.14.19-.34.61-.61,1.28l-2.82,7.03c-.05.12-.09.21-.13.25-.03.05-.08.07-.14.07-.06,0-.12-.04-.17-.11-.04-.08-.09-.17-.15-.28L1.48,1.72c-.24-.58-.5-.97-.77-1.18-.16-.12-.4-.2-.71-.23v-.3h3.94Z"/>
  </g>
</svg>