<?xml version="1.0" encoding="UTF-8"?>
<svg id="_레이어_2" data-name="레이어 2" xmlns="http://www.w3.org/2000/svg" viewBox="0 0 13.62 13.47">
  <defs>
    <style>
      .cls-1 {
        fill: #231815;
      }
    </style>
  </defs>
  <g id="_레이어_1-2" data-name="레이어 1">
    <path class="cls-1" d="M5.33,0v.34c-.5,0-.84.04-1.02.1-.32.11-.48.32-.48.65,0,.17.06.4.17.69s.33.79.64,1.48l3.13,6.96,2.84-7.54c.13-.33.22-.62.29-.85s.1-.42.1-.57c0-.39-.17-.65-.5-.79-.2-.08-.52-.13-.96-.14v-.34h4.09v.34c-.42.06-.74.17-.94.34-.31.25-.61.77-.91,1.53l-4.43,11.25h-.3L2.1,2.47c-.42-.93-.75-1.51-1-1.74-.25-.23-.62-.36-1.1-.39v-.34h5.33Z"/>
  </g>
</svg>