<?xml version="1.0" encoding="UTF-8"?>
<svg id="_레이어_2" data-name="레이어 2" xmlns="http://www.w3.org/2000/svg" viewBox="0 0 15.41 15.43">
  <defs>
    <style>
      .cls-1 {
        fill: #231815;
      }
    </style>
  </defs>
  <g id="_레이어_1-2" data-name="레이어 1">
    <path class="cls-1" d="M0,7.71C0,3.46,3.46,0,7.7,0s7.71,3.46,7.71,7.71-3.46,7.71-7.71,7.71S0,11.97,0,7.71ZM13.93,7.71c0-3.42-2.81-6.21-6.23-6.21S1.48,4.3,1.48,7.71s2.79,6.21,6.21,6.21,6.23-2.79,6.23-6.21ZM6.04,10.8h-1.37v-4.88h-.02l-1.41.88v-1.19l1.5-.98h1.29v6.17ZM7.32,7.85c0-2.05,1.02-3.3,2.56-3.3,1.25,0,2.13.8,2.23,1.82h-1.33c-.1-.41-.43-.64-.9-.64-.8,0-1.21.74-1.21,1.89h.04c.27-.55.88-.88,1.56-.88,1.13,0,1.93.82,1.91,1.99.02,1.25-.94,2.15-2.34,2.15-1.31-.02-2.54-.78-2.52-3.03ZM10.86,8.77c.02-.61-.41-1.05-1.02-1.04-.61-.02-1.05.45-1.05,1.04s.45,1.04,1.05,1.04,1.04-.45,1.02-1.04Z"/>
  </g>
</svg>