<?xml version="1.0" encoding="UTF-8"?>
<svg id="_레이어_2" data-name="레이어 2" xmlns="http://www.w3.org/2000/svg" viewBox="0 0 9.88 17.7">
  <defs>
    <style>
      .cls-1 {
        fill: #231815;
      }
    </style>
  </defs>
  <g id="_레이어_1-2" data-name="레이어 1">
    <path class="cls-1" d="M2.05,15.92H0V1.78h2.05V0h1.13v1.78h1.52V0h1.13v1.82c2.36.31,3.48,1.84,3.48,3.71s-1.07,2.64-2.3,2.97v.14c1.31.08,2.87,1.29,2.87,3.54,0,1.97-1.21,3.51-4.04,3.71v1.82h-1.13v-1.78h-1.52v1.78h-1.13v-1.78ZM7.64,5.55c0-1.23-.82-2.21-2.68-2.21H1.76v4.63h3.14c1.52,0,2.73-.94,2.73-2.42ZM8.18,12.15c0-1.45-1.15-2.66-2.97-2.66H1.76v4.86h3.36c2.21,0,3.07-.98,3.07-2.21Z"/>
  </g>
</svg>