<?xml version="1.0" encoding="UTF-8"?>
<svg id="_레이어_2" data-name="레이어 2" xmlns="http://www.w3.org/2000/svg" viewBox="0 0 23.58 13.47">
  <defs>
    <style>
      .cls-1 {
        fill: #231815;
      }
    </style>
  </defs>
  <g id="_레이어_1-2" data-name="레이어 1">
    <path class="cls-1" d="M3.73,0v.34c-.35,0-.59.04-.72.1-.22.11-.33.32-.33.65,0,.17.04.4.12.69.08.3.23.79.45,1.48l2.19,6.96,1.99-7.54c.09-.33.15-.62.2-.85.04-.23.07-.42.07-.57,0-.39-.12-.65-.35-.79-.14-.08-.36-.13-.68-.14v-.34h2.86v.34c-.3.06-.52.17-.66.34-.21.25-.43.77-.64,1.53l-3.1,11.25h-.21L1.47,2.47c-.29-.93-.53-1.51-.7-1.74-.18-.23-.43-.36-.77-.39v-.34h3.73ZM10.11,12.86c.57-.06.94-.18,1.11-.36s.25-.66.25-1.43V2.17c0-.74-.08-1.21-.25-1.42s-.54-.34-1.11-.38v-.37h4.14v.37c-.57.04-.94.16-1.11.38s-.25.69-.25,1.42v8.9c0,.77.08,1.25.25,1.43s.54.31,1.11.36v.37h-4.14v-.37ZM14.78,12.86c.57-.06.94-.18,1.11-.36s.25-.66.25-1.43V2.17c0-.74-.08-1.21-.25-1.42s-.54-.34-1.11-.38v-.37h4.14v.37c-.57.04-.94.16-1.11.38s-.25.69-.25,1.42v8.9c0,.77.08,1.25.25,1.43s.54.31,1.11.36v.37h-4.14v-.37ZM19.44,12.86c.57-.06.94-.18,1.11-.36s.25-.66.25-1.43V2.17c0-.74-.08-1.21-.25-1.42s-.54-.34-1.11-.38v-.37h4.14v.37c-.57.04-.94.16-1.11.38s-.25.69-.25,1.42v8.9c0,.77.08,1.25.25,1.43s.54.31,1.11.36v.37h-4.14v-.37Z"/>
  </g>
</svg>