<?xml version="1.0" encoding="UTF-8"?>
<svg id="_레이어_2" data-name="레이어 2" xmlns="http://www.w3.org/2000/svg" viewBox="0 0 20.71 13.82">
  <defs>
    <style>
      .cls-1 {
        fill: #231815;
      }
    </style>
  </defs>
  <g id="_레이어_1-2" data-name="레이어 1">
    <path class="cls-1" d="M3.15,4.56v.3c-.27.04-.46.09-.57.16-.11.07-.17.21-.17.43,0,.1.01.2.04.3s.06.23.12.42l1.64,4.91,1.39-4.33c.07-.21.13-.44.19-.67.06-.23.09-.41.09-.54,0-.25-.1-.44-.29-.55-.11-.06-.27-.1-.47-.12v-.3h2.22v.3c-.25.03-.44.13-.55.32-.11.19-.27.61-.49,1.28l-2.26,7.03c-.04.12-.08.21-.1.25-.03.05-.06.07-.11.07-.05,0-.1-.04-.13-.11-.04-.08-.08-.17-.12-.28L1.19,6.28c-.19-.58-.4-.97-.62-1.18-.13-.12-.32-.2-.57-.23v-.3h3.15ZM8.02,13.36c.56-.07.91-.18,1.05-.36.15-.17.22-.64.22-1.4v-4.66c0-.42-.02-.72-.07-.88-.08-.27-.24-.4-.49-.4-.06,0-.11,0-.17.02s-.21.07-.47.16v-.3l.34-.14c.91-.37,1.55-.65,1.91-.84.15-.08.24-.12.28-.12.01.05.02.09.02.15v7.01c0,.74.07,1.21.21,1.4.14.19.47.31.97.36v.27h-3.8v-.27ZM9.27.3c.16-.2.35-.3.58-.3s.42.1.57.3c.16.2.24.44.24.72s-.08.52-.24.71c-.16.2-.35.3-.57.3s-.42-.1-.58-.3c-.16-.2-.23-.44-.23-.71s.08-.52.23-.72ZM12.47,13.36c.56-.07.91-.18,1.05-.36.15-.17.22-.64.22-1.4v-4.66c0-.42-.02-.72-.07-.88-.08-.27-.24-.4-.49-.4-.06,0-.11,0-.17.02s-.21.07-.47.16v-.3l.34-.14c.91-.37,1.55-.65,1.91-.84.15-.08.24-.12.28-.12.01.05.02.09.02.15v7.01c0,.74.07,1.21.21,1.4.14.19.47.31.97.36v.27h-3.8v-.27ZM13.71.3c.16-.2.35-.3.58-.3s.42.1.57.3c.16.2.24.44.24.72s-.08.52-.24.71c-.16.2-.35.3-.57.3s-.42-.1-.58-.3c-.16-.2-.23-.44-.23-.71s.08-.52.23-.72ZM16.91,13.36c.56-.07.91-.18,1.05-.36.15-.17.22-.64.22-1.4v-4.66c0-.42-.02-.72-.07-.88-.08-.27-.24-.4-.49-.4-.06,0-.11,0-.17.02s-.21.07-.47.16v-.3l.34-.14c.91-.37,1.55-.65,1.91-.84.15-.08.24-.12.28-.12.01.05.02.09.02.15v7.01c0,.74.07,1.21.21,1.4.14.19.47.31.97.36v.27h-3.8v-.27ZM18.16.3c.16-.2.35-.3.58-.3s.42.1.57.3c.16.2.24.44.24.72s-.08.52-.24.71c-.16.2-.35.3-.57.3s-.42-.1-.58-.3c-.16-.2-.23-.44-.23-.71s.08-.52.23-.72Z"/>
  </g>
</svg>