<?xml version="1.0" encoding="UTF-8"?>
<svg id="_레이어_2" data-name="레이어 2" xmlns="http://www.w3.org/2000/svg" viewBox="0 0 17.6 14.14">
  <defs>
    <style>
      .cls-1 {
        fill: #231815;
      }
    </style>
  </defs>
  <g id="_레이어_1-2" data-name="레이어 1">
    <path class="cls-1" d="M2.13,7.85H.1v-1.56h1.6L0,0h1.78l1.6,6.29h2.79L7.81,0h1.95l1.64,6.29h2.81l1.58-6.29h1.8l-1.7,6.29h1.6v1.56h-2.03l-1.72,6.29h-1.82l-1.72-6.29h-2.83l-1.72,6.29h-1.84l-1.7-6.29ZM4.69,11.46h.14l.94-3.61h-1.99l.92,3.61ZM9.79,6.29l-.94-3.36h-.12l-.92,3.36h1.97ZM12.75,11.46h.14l.92-3.61h-1.99l.94,3.61Z"/>
  </g>
</svg>