<?xml version="1.0" encoding="UTF-8"?>
<svg id="_레이어_2" data-name="레이어 2" xmlns="http://www.w3.org/2000/svg" viewBox="0 0 9.24 8.97">
  <defs>
    <style>
      .cls-1 {
        fill: #231815;
      }
    </style>
  </defs>
  <g id="_레이어_1-2" data-name="레이어 1">
    <path class="cls-1" d="M4.29,0v.27c-.25,0-.46.04-.63.1-.17.06-.26.19-.26.39,0,.12.17.47.52,1.04.19.3.42.66.71,1.09.38-.52.66-.93.84-1.23.32-.48.48-.79.48-.94,0-.17-.07-.28-.21-.34s-.33-.1-.58-.12v-.27h3.14v.27c-.33.03-.64.12-.93.27-.29.15-.52.36-.69.61l-1.65,2.38,2.56,3.94c.33.51.61.84.85.99.23.15.5.23.79.24v.27h-4.03v-.27l.28-.02c.15-.01.28-.06.38-.14.1-.08.15-.18.15-.29,0-.12-.12-.4-.37-.82-.12-.21-.29-.5-.52-.86-.11-.18-.27-.43-.49-.74-.21-.32-.4-.59-.54-.81l-1.6,2.49c-.19.29-.31.49-.35.59-.04.1-.07.18-.07.24,0,.12.05.21.15.24.1.04.32.08.66.13v.27H0v-.27c.35-.07.61-.16.78-.27.17-.11.39-.37.67-.77l2.22-3.31L1.86,1.5c-.38-.57-.64-.9-.78-1.01-.14-.1-.46-.18-.94-.22v-.27h4.15Z"/>
  </g>
</svg>