<?xml version="1.0" encoding="UTF-8"?>
<svg id="_레이어_2" data-name="레이어 2" xmlns="http://www.w3.org/2000/svg" viewBox="0 0 14.52 18.88">
  <defs>
    <style>
      .cls-1 {
        fill: #231815;
      }
    </style>
  </defs>
  <g id="_레이어_1-2" data-name="레이어 1">
    <path class="cls-1" d="M7.26,0c.45.84,1,1.72,1.63,2.64.63.92,1.3,1.82,1.99,2.69.69.87,1.36,1.67,2,2.38.64.71,1.19,1.29,1.64,1.73-.45.44-1,1.02-1.63,1.73-.63.71-1.3,1.51-1.99,2.38-.69.87-1.36,1.77-2,2.69s-1.19,1.8-1.64,2.64c-.45-.84-1-1.72-1.63-2.64-.63-.92-1.3-1.82-1.99-2.69-.69-.87-1.36-1.67-2-2.38-.64-.71-1.19-1.29-1.64-1.73.45-.44,1-1.02,1.64-1.73.64-.71,1.31-1.51,2-2.38s1.36-1.77,1.99-2.69c.63-.92,1.18-1.8,1.63-2.64ZM13.4,9.44c-.36-.39-.8-.88-1.33-1.48s-1.08-1.26-1.66-1.99c-.58-.73-1.15-1.48-1.7-2.25-.55-.77-1.04-1.51-1.45-2.2-.41.69-.9,1.43-1.45,2.2-.55.77-1.12,1.52-1.7,2.25-.58.73-1.13,1.39-1.66,1.99-.53.6-.97,1.09-1.33,1.48.36.39.8.88,1.33,1.48.53.6,1.08,1.26,1.67,1.99s1.15,1.48,1.7,2.25,1.03,1.51,1.46,2.22c.41-.71.89-1.45,1.44-2.22.55-.77,1.11-1.52,1.69-2.25s1.13-1.39,1.66-1.99c.53-.6.97-1.09,1.33-1.48Z"/>
  </g>
</svg>