<?xml version="1.0" encoding="UTF-8"?>
<svg id="_레이어_2" data-name="레이어 2" xmlns="http://www.w3.org/2000/svg" viewBox="0 0 10.41 10.39">
  <defs>
    <style>
      .cls-1 {
        fill: #231815;
      }
    </style>
  </defs>
  <g id="_레이어_1-2" data-name="레이어 1">
    <path class="cls-1" d="M1.11,4.06c.74,0,1.11.47,1.11,1.07s-.35,1.04-1.11,1.04-1.11-.43-1.11-1.04.37-1.07,1.11-1.07ZM.94,8.34l3.09-3.14L.94,2.07l1.25-1.27,3.09,3.12,3.09-3.12,1.25,1.27-3.09,3.12,3.09,3.14-1.25,1.27-3.09-3.14-3.09,3.14-1.25-1.27ZM5.2,0c.72,0,1.11.47,1.11,1.07,0,.57-.39,1.05-1.11,1.05s-1.11-.49-1.11-1.05c0-.61.39-1.07,1.11-1.07ZM5.2,8.28c.72,0,1.11.47,1.11,1.05s-.39,1.05-1.11,1.05-1.11-.47-1.11-1.05.39-1.05,1.11-1.05ZM9.28,4.06c.72,0,1.13.47,1.13,1.07s-.41,1.04-1.13,1.04-1.13-.43-1.13-1.04.41-1.07,1.13-1.07Z"/>
  </g>
</svg>