<?xml version="1.0" encoding="UTF-8"?>
<svg id="_레이어_2" data-name="레이어 2" xmlns="http://www.w3.org/2000/svg" viewBox="0 0 8.16 17.79">
  <defs>
    <style>
      .cls-1 {
        fill: #231815;
      }
    </style>
  </defs>
  <g id="_레이어_1-2" data-name="레이어 1">
    <path class="cls-1" d="M8.16,1.23l-3.26,4.24c-1.52,1.99-2.46,2.89-2.46,4.98,0,.94.59,1.68,1.52,1.95l1.27.39c1.56.47,2.52,1.27,2.52,2.17s-.68,1.95-1.74,2.83l-1.02-.88c.57-.61.9-1.25.9-1.66,0-.37-.55-.74-1.43-1l-.86-.25c-1.82-.53-2.91-1.86-2.91-3.52,0-2.34,1-3.85,2.7-5.82l2.6-3.11H0V0h8.16v1.23Z"/>
  </g>
</svg>