<?xml version="1.0" encoding="UTF-8"?>
<svg id="_레이어_2" data-name="레이어 2" xmlns="http://www.w3.org/2000/svg" viewBox="0 0 15.41 15.43">
  <defs>
    <style>
      .cls-1 {
        fill: #231815;
      }
    </style>
  </defs>
  <g id="_레이어_1-2" data-name="레이어 1">
    <path class="cls-1" d="M0,7.71C0,3.46,3.46,0,7.7,0s7.71,3.46,7.71,7.71-3.46,7.71-7.71,7.71S0,11.97,0,7.71ZM13.93,7.71c0-3.42-2.81-6.21-6.23-6.21S1.48,4.3,1.48,7.71s2.79,6.21,6.21,6.21,6.23-2.79,6.23-6.21ZM5.96,10.8h-1.37v-4.88h-.02l-1.43.88v-1.19l1.52-.98h1.29v6.17ZM7.27,7.73c-.02-2.03.96-3.18,2.52-3.18s2.52,1.15,2.52,3.18-.96,3.2-2.52,3.2-2.54-1.19-2.52-3.2ZM10.92,7.73c0-1.39-.45-2.07-1.13-2.07s-1.11.68-1.13,2.07c0,1.39.45,2.07,1.13,2.07s1.13-.68,1.13-2.07Z"/>
  </g>
</svg>