<?xml version="1.0" encoding="UTF-8"?>
<svg id="_레이어_2" data-name="레이어 2" xmlns="http://www.w3.org/2000/svg" viewBox="0 0 15.41 15.43">
  <defs>
    <style>
      .cls-1 {
        fill: #231815;
      }
    </style>
  </defs>
  <g id="_레이어_1-2" data-name="레이어 1">
    <path class="cls-1" d="M0,7.71C0,3.46,3.46,0,7.7,0s7.71,3.46,7.71,7.71-3.46,7.71-7.71,7.71S0,11.97,0,7.71ZM13.93,7.71c0-3.42-2.81-6.21-6.23-6.21S1.48,4.3,1.48,7.71s2.79,6.21,6.21,6.21,6.23-2.79,6.23-6.21ZM5.23,9.3h1.33c.04.55.55.92,1.17.92.72,0,1.25-.53,1.25-1.25,0-.76-.55-1.27-1.29-1.29-.53,0-.9.2-1.09.59h-1.25l.39-3.95h4.16v1.11h-3.05l-.2,1.78h.08c.23-.33.74-.57,1.35-.57,1.27,0,2.21.96,2.19,2.29.02,1.39-1.04,2.38-2.54,2.38-1.43,0-2.46-.84-2.5-2.01Z"/>
  </g>
</svg>