<?xml version="1.0" encoding="UTF-8"?>
<svg id="_레이어_2" data-name="레이어 2" xmlns="http://www.w3.org/2000/svg" viewBox="0 0 15.41 14.67">
  <defs>
    <style>
      .cls-1 {
        fill: #231815;
      }
    </style>
  </defs>
  <g id="_레이어_1-2" data-name="레이어 1">
    <path class="cls-1" d="M0,4.67C.02,2.07,2.11,0,4.67,0c1.11,0,2.21.39,3.03,1.13.84-.74,1.93-1.13,3.07-1.13,2.56,0,4.63,2.07,4.65,4.67-.02,1.52-.66,2.95-1.95,4.26l-5.76,5.74L1.95,8.93C.66,7.62.02,6.19,0,4.67ZM13.93,4.67c-.02-1.76-1.45-3.16-3.16-3.16-.98,0-1.86.43-3.07,1.88-1.17-1.45-2.07-1.88-3.03-1.88-1.74,0-3.14,1.41-3.16,3.16.02,1.09.51,2.19,1.52,3.2l4.67,4.67,4.67-4.67c1.04-1.02,1.54-2.11,1.56-3.2Z"/>
  </g>
</svg>