<?xml version="1.0" encoding="UTF-8"?>
<svg id="_레이어_2" data-name="레이어 2" xmlns="http://www.w3.org/2000/svg" viewBox="0 0 14.57 14.57">
  <defs>
    <style>
      .cls-1 {
        fill: #231815;
      }
    </style>
  </defs>
  <g id="_레이어_1-2" data-name="레이어 1">
    <path class="cls-1" d="M0,7.29C0,3.24,3.28,0,7.29,0s7.29,3.24,7.29,7.29c.02,4.02-3.24,7.29-7.29,7.29S-.02,11.31,0,7.29ZM12.95,7.29c-.02-3.14-2.54-5.66-5.66-5.66S1.64,4.16,1.62,7.29c-.02,3.11,2.54,5.66,5.66,5.66s5.68-2.54,5.66-5.66ZM7.36,3.2c1.95,0,3.59,1.37,3.87,3.2h-1.7c-.2-.94-1.13-1.6-2.17-1.6-1.37,0-2.48,1.11-2.48,2.48s1.11,2.48,2.48,2.48c1.04,0,1.84-.66,2.03-1.6h1.68c-.25,1.84-1.76,3.2-3.71,3.2-2.27,0-4.1-1.82-4.1-4.08s1.84-4.08,4.1-4.08Z"/>
  </g>
</svg>