<?xml version="1.0" encoding="UTF-8"?>
<svg id="_레이어_2" data-name="레이어 2" xmlns="http://www.w3.org/2000/svg" viewBox="0 0 18.25 13.47">
  <defs>
    <style>
      .cls-1 {
        fill: #231815;
      }
    </style>
  </defs>
  <g id="_레이어_1-2" data-name="레이어 1">
    <path class="cls-1" d="M0,12.86c.73-.06,1.21-.18,1.42-.36s.33-.66.33-1.43V2.17c0-.74-.11-1.21-.33-1.42S.73.41,0,.37v-.37h5.33v.37c-.73.04-1.21.16-1.42.38s-.33.69-.33,1.42v8.9c0,.77.11,1.25.33,1.43s.69.31,1.42.36v.37H0v-.37ZM10.78,0v.34c-.45,0-.76.04-.92.1-.29.11-.43.32-.43.65,0,.17.05.4.15.69s.29.79.57,1.48l2.82,6.96,2.56-7.54c.11-.33.2-.62.26-.85s.09-.42.09-.57c0-.39-.15-.65-.45-.79-.18-.08-.47-.13-.87-.14v-.34h3.68v.34c-.38.06-.66.17-.84.34-.28.25-.55.77-.82,1.53l-3.99,11.25h-.27L7.88,2.47c-.38-.93-.68-1.51-.9-1.74-.23-.23-.55-.36-.99-.39v-.34h4.79Z"/>
  </g>
</svg>