<?xml version="1.0" encoding="UTF-8"?>
<svg id="_레이어_2" data-name="레이어 2" xmlns="http://www.w3.org/2000/svg" viewBox="0 0 15.41 15.43">
  <defs>
    <style>
      .cls-1 {
        fill: #231815;
      }
    </style>
  </defs>
  <g id="_레이어_1-2" data-name="레이어 1">
    <path class="cls-1" d="M0,7.71C0,3.46,3.46,0,7.7,0s7.71,3.46,7.71,7.71-3.46,7.71-7.71,7.71S0,11.97,0,7.71ZM13.93,7.71c0-3.42-2.81-6.21-6.23-6.21S1.48,4.3,1.48,7.71s2.79,6.21,6.21,6.21,6.23-2.79,6.23-6.21ZM5.98,10.8h-1.37v-4.88h-.04l-1.39.88v-1.19l1.5-.98h1.29v6.17ZM7.25,8.65l2.58-4.02h1.72v4h.76v1.09h-.76v1.07h-1.29v-1.07h-3.01v-1.07ZM10.27,8.63v-2.52h-.06l-1.6,2.48v.04h1.66Z"/>
  </g>
</svg>