<?xml version="1.0" encoding="UTF-8"?>
<svg id="_레이어_2" data-name="레이어 2" xmlns="http://www.w3.org/2000/svg" viewBox="0 0 15.41 15.43">
  <defs>
    <style>
      .cls-1 {
        fill: #231815;
      }
    </style>
  </defs>
  <g id="_레이어_1-2" data-name="레이어 1">
    <path class="cls-1" d="M0,7.71C0,3.46,3.46,0,7.7,0s7.71,3.46,7.71,7.71-3.46,7.71-7.71,7.71S0,11.97,0,7.71ZM13.93,7.71c0-3.42-2.81-6.21-6.23-6.21S1.48,4.3,1.48,7.71s2.79,6.21,6.21,6.21,6.23-2.79,6.23-6.21ZM6.11,10.8h-1.37v-4.88h-.04l-1.39.88v-1.19l1.5-.98h1.29v6.17ZM7.5,9.08h1.33c.02.45.45.78.98.78.61,0,1.04-.43,1.02-1.05.02-.62-.43-1.05-1.05-1.05-.43,0-.76.18-.92.49h-1.23l.31-3.57h3.85v1.13h-2.71l-.16,1.5h.04c.21-.33.68-.57,1.25-.57,1.11,0,1.97.86,1.95,2.03.02,1.25-.96,2.15-2.34,2.15s-2.29-.76-2.3-1.84Z"/>
  </g>
</svg>