<?xml version="1.0" encoding="UTF-8"?>
<svg id="_레이어_2" data-name="레이어 2" xmlns="http://www.w3.org/2000/svg" viewBox="0 0 21.62 13.47">
  <defs>
    <style>
      .cls-1 {
        fill: #231815;
      }
    </style>
  </defs>
  <g id="_레이어_1-2" data-name="레이어 1">
    <path class="cls-1" d="M4.26,0v.34c-.4,0-.67.04-.82.1-.25.11-.38.32-.38.65,0,.17.05.4.14.69.09.3.26.79.51,1.48l2.5,6.96,2.27-7.54c.1-.33.18-.62.23-.85.05-.23.08-.42.08-.57,0-.39-.13-.65-.4-.79-.16-.08-.41-.13-.77-.14v-.34h3.27v.34c-.34.06-.59.17-.75.34-.24.25-.49.77-.73,1.53l-3.54,11.25h-.24L1.68,2.47c-.33-.93-.6-1.51-.8-1.74-.2-.23-.49-.36-.88-.39v-.34h4.26ZM11.56,12.86c.65-.06,1.07-.18,1.27-.36.19-.18.29-.66.29-1.43V2.17c0-.74-.1-1.21-.29-1.42-.19-.21-.61-.34-1.27-.38v-.37h4.73v.37c-.65.04-1.07.16-1.27.38-.19.21-.29.69-.29,1.42v8.9c0,.77.1,1.25.29,1.43.19.18.62.31,1.27.36v.37h-4.73v-.37ZM16.89,12.86c.65-.06,1.07-.18,1.27-.36.19-.18.29-.66.29-1.43V2.17c0-.74-.1-1.21-.29-1.42-.19-.21-.61-.34-1.27-.38v-.37h4.73v.37c-.65.04-1.07.16-1.27.38-.19.21-.29.69-.29,1.42v8.9c0,.77.1,1.25.29,1.43.19.18.62.31,1.27.36v.37h-4.73v-.37Z"/>
  </g>
</svg>