<?xml version="1.0" encoding="UTF-8"?>
<svg id="_레이어_2" data-name="레이어 2" xmlns="http://www.w3.org/2000/svg" viewBox="0 0 16.17 7.66">
  <defs>
    <style>
      .cls-1 {
        fill: #231815;
      }
    </style>
  </defs>
  <g id="_레이어_1-2" data-name="레이어 1">
    <path class="cls-1" d="M7.27,1.54c.31.31.61.62.84.92.21-.29.43-.57.82-.92.78-.78,1.91-1.54,3.44-1.54,2.11,0,3.81,1.7,3.81,3.83s-1.7,3.83-3.81,3.83c-1.52,0-2.66-.76-3.44-1.5-.33-.33-.61-.64-.82-.96-.23.31-.53.62-.84.96-.78.74-1.91,1.5-3.42,1.5-2.15,0-3.85-1.7-3.85-3.83S1.7,0,3.85,0c1.5,0,2.64.76,3.42,1.54ZM3.85,6.04c.9,0,1.66-.47,2.27-1.07.43-.41.72-.78.98-1.13-.25-.33-.53-.72-.98-1.13-.59-.61-1.37-1.07-2.27-1.07-1.23,0-2.23,1-2.23,2.21s1,2.21,2.23,2.21ZM12.36,1.62c-.94,0-1.7.47-2.3,1.07-.49.47-.82.96-.98,1.13.25.35.57.72.98,1.13.62.61,1.37,1.07,2.3,1.07,1.21,0,2.21-.98,2.21-2.21s-1-2.21-2.21-2.21Z"/>
  </g>
</svg>