<?xml version="1.0" encoding="UTF-8"?>
<svg id="_레이어_2" data-name="레이어 2" xmlns="http://www.w3.org/2000/svg" viewBox="0 0 8.75 7.03">
  <defs>
    <style>
      .cls-1 {
        fill: #231815;
      }
    </style>
  </defs>
  <g id="_레이어_1-2" data-name="레이어 1">
    <path class="cls-1" d="M2.27.1C3.75.1,5.1,1.23,6.52,1.23c.88,0,1.64-.43,2.23-1.23v1.62c-.64.74-1.41,1.11-2.27,1.11-1.48,0-2.83-1.13-4.28-1.13-.86,0-1.62.43-2.21,1.23v-1.62C.62.49,1.41.1,2.27.1ZM2.27,4.3c1.48,0,2.83,1.13,4.26,1.13.88,0,1.64-.43,2.23-1.23v1.62c-.64.74-1.41,1.11-2.27,1.11-1.48,0-2.83-1.13-4.28-1.13-.86,0-1.62.43-2.21,1.23v-1.62c.62-.72,1.41-1.11,2.27-1.11Z"/>
  </g>
</svg>