<?xml version="1.0" encoding="UTF-8"?>
<svg id="_레이어_2" data-name="레이어 2" xmlns="http://www.w3.org/2000/svg" viewBox="0 0 15.41 15.43">
  <defs>
    <style>
      .cls-1 {
        fill: #231815;
      }
    </style>
  </defs>
  <g id="_레이어_1-2" data-name="레이어 1">
    <path class="cls-1" d="M0,7.71C0,3.46,3.46,0,7.7,0s7.71,3.46,7.71,7.71-3.46,7.71-7.71,7.71S0,11.97,0,7.71ZM13.93,7.71c0-3.42-2.81-6.21-6.23-6.21S1.48,4.3,1.48,7.71s2.79,6.21,6.21,6.21,6.23-2.79,6.23-6.21ZM5.29,10.14l2.46-2.32c.66-.64,1.02-1.02,1.02-1.58,0-.62-.49-1.02-1.13-1.02s-1.09.41-1.09,1.09h-1.31c0-1.33,1-2.19,2.42-2.19s2.42.84,2.42,2.01c0,.8-.39,1.43-1.8,2.71l-1.09,1.09v.06h2.99v1.11h-4.88v-.98Z"/>
  </g>
</svg>