<?xml version="1.0" encoding="UTF-8"?>
<svg id="_레이어_2" data-name="레이어 2" xmlns="http://www.w3.org/2000/svg" viewBox="0 0 13.74 13.23">
  <defs>
    <style>
      .cls-1 {
        fill: #231815;
      }
    </style>
  </defs>
  <g id="_레이어_1-2" data-name="레이어 1">
    <path class="cls-1" d="M0,12.86c.54-.06.94-.2,1.22-.42.28-.22.83-.85,1.66-1.87l3.09-3.82-2.19-3.21c-.95-1.4-1.62-2.27-2.01-2.61C1.37.58.86.4.21.37v-.37h6.02v.37c-.58.02-.96.06-1.13.12-.27.08-.4.27-.4.56,0,.18.06.4.19.65.07.13.16.28.27.45l2.06,2.99,2.24-2.73c.33-.4.55-.72.67-.96.07-.14.11-.27.11-.39,0-.29-.14-.49-.43-.59-.17-.06-.49-.09-.95-.1v-.37h4.74v.37c-.53.01-.95.1-1.24.25-.46.25-1.04.8-1.72,1.64l-2.89,3.63,3.79,5.49c.4.59.74.97,1.01,1.13.27.16.67.28,1.19.36v.37h-5.88v-.37c.57-.01.96-.06,1.18-.15.22-.09.33-.25.33-.49,0-.21-.15-.56-.44-1.04-.3-.49-1.12-1.71-2.46-3.68l-2.35,2.95c-.34.43-.58.75-.72.95-.21.32-.32.55-.32.71,0,.29.17.49.5.6.2.07.54.12,1.02.16v.37H0v-.37Z"/>
  </g>
</svg>