<?xml version="1.0" encoding="UTF-8"?>
<svg id="_레이어_2" data-name="레이어 2" xmlns="http://www.w3.org/2000/svg" viewBox="0 0 15.41 15.43">
  <defs>
    <style>
      .cls-1 {
        fill: #231815;
      }
    </style>
  </defs>
  <g id="_레이어_1-2" data-name="레이어 1">
    <path class="cls-1" d="M0,7.71C0,3.46,3.46,0,7.7,0s7.71,3.46,7.71,7.71-3.46,7.71-7.71,7.71S0,11.97,0,7.71ZM13.93,7.71c0-3.42-2.81-6.21-6.23-6.21S1.48,4.3,1.48,7.71s2.79,6.21,6.21,6.21,6.23-2.79,6.23-6.21ZM2.6,9.73l2.23-1.99c.55-.49.86-.86.86-1.33,0-.51-.41-.84-.94-.84-.57,0-.92.33-.94.92h-1.27c0-1.21.9-2.01,2.21-2.01s2.25.76,2.25,1.84c0,.72-.35,1.29-1.64,2.44l-.94.82v.04h2.66v1.11H2.6v-1ZM7.87,7.73c0-2.03.96-3.18,2.52-3.18s2.52,1.15,2.52,3.18-.94,3.2-2.52,3.2-2.52-1.19-2.52-3.2ZM11.5,7.73c0-1.39-.43-2.07-1.11-2.07s-1.11.68-1.13,2.07c0,1.39.45,2.07,1.13,2.07s1.13-.68,1.11-2.07Z"/>
  </g>
</svg>