<?xml version="1.0" encoding="UTF-8"?>
<svg id="_레이어_2" data-name="레이어 2" xmlns="http://www.w3.org/2000/svg" viewBox="0 0 12.68 14.14">
  <defs>
    <style>
      .cls-1 {
        fill: #231815;
      }
    </style>
  </defs>
  <g id="_레이어_1-2" data-name="레이어 1">
    <path class="cls-1" d="M12.68,4.16h-1.41v.33l-.02.41h1.43v1.52h-1.74c-.62,1.55-2.03,2.62-4.41,2.62h-3.03v5.1h-1.78v-7.71H0v-1.52h1.72v-.74H0v-1.52h1.72V0h4.77c2.45,0,3.88,1.06,4.47,2.64h1.72v1.52ZM9.06,2.64c-.46-.67-1.27-1.07-2.58-1.07h-2.99v1.07h5.57ZM9.51,4.9l.02-.41v-.33H3.5v.74h6.02ZM6.52,7.5c1.25,0,2.04-.41,2.5-1.07H3.5v1.07h3.03Z"/>
  </g>
</svg>