<?xml version="1.0" encoding="UTF-8"?>
<svg id="_레이어_2" data-name="레이어 2" xmlns="http://www.w3.org/2000/svg" viewBox="0 0 16.76 16.92">
  <defs>
    <style>
      .cls-1 {
        fill: #231815;
      }
    </style>
  </defs>
  <g id="_레이어_1-2" data-name="레이어 1">
    <path class="cls-1" d="M5.98,16.92v-.7c.14-.72.68-1.36.86-2.68.02-.06.02-.12.02-.18,0-.14-.06-.2-.16-.2-.08,0-.2.06-.34.18-.86.76-1.64,1.1-2.7,1.1-1.88,0-3.66-1.4-3.66-3.92,0-2.02,1.4-3.84,3.56-3.84.94,0,1.66.34,2.6.78.08.04.14.04.2.04.1,0,.14-.04.14-.12,0-.06-.02-.16-.12-.26-.94-.76-1.92-1.82-1.92-3.6,0-1.6,1.28-3.52,3.92-3.52,2.38,0,3.86,1.88,3.86,3.68s-.94,2.68-1.78,3.44c-.08.12-.12.22-.12.28,0,.08.06.12.14.12s.2-.02.32-.1c.66-.52,1.68-.9,2.58-.9,2.36,0,3.38,1.98,3.38,3.78,0,2.32-1.76,4.02-3.62,4.02-.94,0-2.08-.38-2.74-1-.1-.08-.18-.14-.24-.14-.1,0-.14.12-.14.32v.1c.06,1.34.64,1.88.76,2.62v.7h-4.8ZM9.3,15.86c-.3-.98-.42-2.42-.42-3.34,0-.76.16-1.3.58-1.3.26,0,.6.18,1.04.64.9.76,1.52,1.24,2.6,1.24s2.4-.96,2.4-2.72c0-1.62-.8-2.68-2.2-2.68-1.2,0-1.8.7-2.5,1-.18.1-.36.14-.54.14-.64,0-1.24-.54-1.24-1.26,0-.26.06-.52.22-.8.84-.94,1.76-1.16,1.76-3.06,0-1.36-1.16-2.5-2.54-2.5s-2.7.88-2.7,2.3c0,1.88,1.32,2.5,2.12,3.56.08.18.1.36.1.54,0,.7-.54,1.28-1.22,1.28-.12,0-.24-.02-.36-.06-.88-.22-1.34-1.02-2.82-1.02-1.18,0-2.28,1.12-2.28,2.68,0,1.92,1.2,2.68,2.4,2.68,1.08,0,1.96-.56,2.88-1.46.36-.32.64-.48.86-.48.36,0,.52.46.52,1.16,0,.96-.16,2.16-.56,3.46h1.9Z"/>
  </g>
</svg>