<?xml version="1.0" encoding="UTF-8"?>
<svg id="_레이어_2" data-name="레이어 2" xmlns="http://www.w3.org/2000/svg" viewBox="0 0 15.41 15.43">
  <defs>
    <style>
      .cls-1 {
        fill: #231815;
      }
    </style>
  </defs>
  <g id="_레이어_1-2" data-name="레이어 1">
    <path class="cls-1" d="M0,7.71C0,3.46,3.46,0,7.7,0s7.71,3.46,7.71,7.71-3.46,7.71-7.71,7.71S0,11.97,0,7.71ZM13.93,7.71c0-3.42-2.81-6.21-6.23-6.21S1.48,4.3,1.48,7.71s2.79,6.21,6.21,6.21,6.23-2.79,6.23-6.21ZM10.37,7.52c0,2.36-1.09,3.75-2.79,3.75-1.39,0-2.3-.86-2.44-2.03h1.31c.14.53.53.86,1.13.86.96,0,1.46-.86,1.46-2.27h-.08c-.31.59-.98.94-1.76.94-1.23,0-2.17-.92-2.15-2.21-.02-1.37,1.02-2.4,2.58-2.38,1.39,0,2.73.82,2.73,3.34ZM6.37,6.5c0,.7.53,1.27,1.25,1.27s1.29-.59,1.29-1.27-.55-1.23-1.27-1.25c-.72.02-1.27.57-1.27,1.25Z"/>
  </g>
</svg>