<?xml version="1.0" encoding="UTF-8"?>
<svg id="_레이어_2" data-name="레이어 2" xmlns="http://www.w3.org/2000/svg" viewBox="0 0 14.44 18.8">
  <defs>
    <style>
      .cls-1 {
        fill: #231815;
      }
    </style>
  </defs>
  <g id="_레이어_1-2" data-name="레이어 1">
    <path class="cls-1" d="M7.22,0c.45.84,1,1.72,1.63,2.63.63.91,1.29,1.81,1.98,2.68.69.87,1.35,1.66,1.98,2.37.63.71,1.18,1.28,1.63,1.72-.45.44-.99,1.01-1.62,1.72s-1.29,1.5-1.98,2.37c-.69.87-1.36,1.77-1.99,2.68-.63.91-1.18,1.79-1.63,2.63-.45-.84-1-1.72-1.63-2.63-.63-.91-1.29-1.81-1.98-2.68s-1.35-1.66-1.98-2.37c-.63-.71-1.18-1.28-1.63-1.72.45-.44,1-1.01,1.63-1.72.63-.71,1.29-1.5,1.98-2.37.69-.87,1.35-1.77,1.98-2.68.63-.91,1.18-1.79,1.63-2.63Z"/>
  </g>
</svg>