<?xml version="1.0" encoding="UTF-8"?>
<svg id="_레이어_2" data-name="레이어 2" xmlns="http://www.w3.org/2000/svg" viewBox="0 0 15.41 15.43">
  <defs>
    <style>
      .cls-1 {
        fill: #231815;
      }
    </style>
  </defs>
  <g id="_레이어_1-2" data-name="레이어 1">
    <path class="cls-1" d="M0,7.71C0,3.46,3.46,0,7.7,0s7.71,3.46,7.71,7.71-3.46,7.71-7.71,7.71S0,11.97,0,7.71ZM13.93,7.71c0-3.42-2.81-6.21-6.23-6.21S1.48,4.3,1.48,7.71s2.79,6.21,6.21,6.21,6.23-2.79,6.23-6.21ZM6.05,10.8h-1.37v-4.88h-.02l-1.41.88v-1.19l1.52-.98h1.27v6.17ZM7.36,9.04h1.37c.04.43.45.72,1.02.72s1-.33,1-.8-.43-.8-1.13-.82h-.57v-.98h.57c.61,0,1-.33,1-.8,0-.43-.33-.74-.86-.74s-.94.31-.96.74h-1.31c.02-1.07,1-1.82,2.27-1.82s2.17.78,2.17,1.74c0,.7-.47,1.19-1.17,1.31v.04c.92.1,1.43.66,1.41,1.43.02,1.05-1,1.82-2.4,1.82s-2.36-.76-2.38-1.84Z"/>
  </g>
</svg>