<?xml version="1.0" encoding="UTF-8"?>
<svg id="_레이어_2" data-name="레이어 2" xmlns="http://www.w3.org/2000/svg" viewBox="0 0 18.3 13.82">
  <defs>
    <style>
      .cls-1 {
        fill: #231815;
      }
    </style>
  </defs>
  <g id="_레이어_1-2" data-name="레이어 1">
    <path class="cls-1" d="M3.54,4.56v.3c-.3.04-.52.09-.65.16s-.19.21-.19.43c0,.1.01.2.04.3s.07.23.14.42l1.85,4.91,1.56-4.33c.08-.21.15-.44.22-.67s.1-.41.1-.54c0-.25-.11-.44-.32-.55-.13-.06-.3-.1-.53-.12v-.3h2.5v.3c-.29.03-.49.13-.62.32s-.31.61-.55,1.28l-2.54,7.03c-.05.12-.09.21-.12.25s-.07.07-.12.07c-.06,0-.11-.04-.15-.11s-.09-.17-.13-.28L1.34,6.28c-.22-.58-.45-.97-.69-1.18-.15-.12-.36-.2-.64-.23v-.3h3.54ZM9.03,13.36c.63-.07,1.02-.18,1.19-.36s.25-.64.25-1.4v-4.66c0-.42-.03-.72-.08-.88-.09-.27-.27-.4-.55-.4-.06,0-.13,0-.19.02s-.24.07-.53.16v-.3l.38-.14c1.03-.37,1.74-.65,2.14-.84.16-.08.27-.12.32-.12.01.05.02.09.02.15v7.01c0,.74.08,1.21.24,1.4s.53.31,1.09.36v.27h-4.27v-.27ZM10.42.3c.18-.2.39-.3.65-.3s.47.1.65.3c.18.2.27.44.27.72s-.09.52-.27.71c-.18.2-.39.3-.65.3s-.47-.1-.65-.3c-.18-.2-.26-.44-.26-.71s.09-.52.26-.72ZM14.03,13.36c.63-.07,1.02-.18,1.19-.36s.25-.64.25-1.4v-4.66c0-.42-.03-.72-.08-.88-.09-.27-.27-.4-.55-.4-.06,0-.13,0-.19.02s-.24.07-.53.16v-.3l.38-.14c1.03-.37,1.74-.65,2.14-.84.16-.08.27-.12.32-.12.01.05.02.09.02.15v7.01c0,.74.08,1.21.24,1.4s.53.31,1.09.36v.27h-4.27v-.27ZM15.43.3c.18-.2.39-.3.65-.3s.47.1.65.3c.18.2.27.44.27.72s-.09.52-.27.71c-.18.2-.39.3-.65.3s-.47-.1-.65-.3c-.18-.2-.26-.44-.26-.71s.09-.52.26-.72Z"/>
  </g>
</svg>