<?xml version="1.0" encoding="UTF-8"?>
<svg id="_레이어_2" data-name="레이어 2" xmlns="http://www.w3.org/2000/svg" viewBox="0 0 8.05 18.09">
  <defs>
    <style>
      .cls-1 {
        fill: #231815;
      }
    </style>
  </defs>
  <g id="_레이어_1-2" data-name="레이어 1">
    <path class="cls-1" d="M5.23,1.56c-1.68,0-2.68.68-2.68,1.91s1.09,1.97,2.97,1.97h1.37v1.56h-1.37c-2.32,0-3.57,1-3.57,3.01,0,1.46.86,2.46,2.5,2.85l1.07.25c1.82.41,2.52.96,2.52,1.99-.02.94-.68,2.07-1.72,2.97l-1.11-.84c.84-.9.98-1.33.98-1.66,0-.59-.37-.84-1.43-1.05l-.59-.14c-2.87-.61-4.18-1.91-4.18-4.18,0-2.07,1.03-3.43,2.95-4.02-1.46-.53-2.34-1.54-2.34-2.89C.61,1.33,2.46,0,5.2,0c.96,0,1.89.16,2.5.39l-.27,1.52c-.9-.25-1.5-.35-2.19-.35Z"/>
  </g>
</svg>