<?xml version="1.0" encoding="UTF-8"?>
<svg id="_레이어_2" data-name="레이어 2" xmlns="http://www.w3.org/2000/svg" viewBox="0 0 8.96 18.32">
  <defs>
    <style>
      .cls-1 {
        fill: #231815;
      }
    </style>
  </defs>
  <g id="_레이어_1-2" data-name="레이어 1">
    <path class="cls-1" d="M8.34,3.73c0,1.04-.45,2.17-1.41,2.91,1.4.74,2.03,2.23,2.03,3.63,0,2.4-1.84,4.26-4.34,4.26-1.04,0-2.07-.31-2.83-1.37l-.12.06v5.1H0V3.85C0,1.62,1.78,0,4.22,0c2.62,0,4.12,1.86,4.12,3.73ZM4.41,12.97c1.78,0,2.87-1.25,2.87-2.71,0-1.37-1-2.66-2.52-2.66h-1.35v-1.54h.78c1.58,0,2.5-1.13,2.5-2.3,0-1.27-1.09-2.19-2.48-2.19s-2.54.92-2.54,2.29v6.62c0,1.35,1.04,2.5,2.73,2.5Z"/>
  </g>
</svg>