<?xml version="1.0" encoding="UTF-8"?>
<svg id="_레이어_2" data-name="레이어 2" xmlns="http://www.w3.org/2000/svg" viewBox="0 0 18.25 13.23">
  <defs>
    <style>
      .cls-1 {
        fill: #231815;
      }
    </style>
  </defs>
  <g id="_레이어_1-2" data-name="레이어 1">
    <path class="cls-1" d="M0,12.86c.73-.06,1.21-.18,1.42-.36s.33-.66.33-1.43V2.17c0-.74-.11-1.21-.33-1.42S.73.41,0,.37v-.37h5.33v.37c-.73.04-1.21.16-1.42.38s-.33.69-.33,1.42v8.9c0,.77.11,1.25.33,1.43s.69.31,1.42.36v.37H0v-.37ZM5.89,12.86c.48-.06.85-.2,1.1-.42.25-.22.75-.85,1.49-1.87l2.78-3.82-1.97-3.21c-.86-1.4-1.46-2.27-1.81-2.61-.35-.34-.81-.53-1.39-.55v-.37h5.42v.37c-.52.02-.86.06-1.02.12-.24.08-.36.27-.36.56,0,.18.06.4.17.65.06.13.14.28.25.45l1.86,2.99,2.02-2.73c.3-.4.5-.72.6-.96.06-.14.1-.27.1-.39,0-.29-.13-.49-.38-.59-.16-.06-.44-.09-.86-.1v-.37h4.26v.37c-.48.01-.85.1-1.12.25-.42.25-.93.8-1.55,1.64l-2.6,3.63,3.41,5.49c.36.59.67.97.91,1.13.24.16.6.28,1.07.36v.37h-5.29v-.37c.51-.01.86-.06,1.06-.15.2-.09.3-.25.3-.49,0-.21-.13-.56-.4-1.04-.27-.49-1-1.71-2.21-3.68l-2.11,2.95c-.31.43-.52.75-.65.95-.19.32-.29.55-.29.71,0,.29.15.49.45.6.18.07.49.12.92.16v.37h-4.15v-.37Z"/>
  </g>
</svg>