<?xml version="1.0" encoding="UTF-8"?>
<svg id="_레이어_2" data-name="레이어 2" xmlns="http://www.w3.org/2000/svg" viewBox="0 0 14.75 13.63">
  <defs>
    <style>
      .cls-1 {
        fill: #231815;
      }
    </style>
  </defs>
  <g id="_레이어_1-2" data-name="레이어 1">
    <path class="cls-1" d="M0,13.36c.7-.07,1.14-.18,1.32-.36.18-.17.27-.64.27-1.4v-4.66c0-.42-.03-.72-.09-.88-.1-.27-.3-.4-.62-.4-.07,0-.14,0-.21.02s-.26.07-.59.16v-.3l.42-.14c1.14-.37,1.93-.65,2.38-.84.18-.08.3-.12.35-.12.01.05.02.09.02.15v7.01c0,.74.09,1.21.27,1.4.18.19.58.31,1.22.36v.27H0v-.27ZM1.55.3c.2-.2.44-.3.72-.3s.52.1.72.3c.2.2.3.44.3.72s-.1.52-.3.71c-.2.2-.44.3-.72.3s-.53-.1-.72-.3c-.2-.2-.29-.44-.29-.71s.1-.52.29-.72ZM9.79,4.66v.27c-.25,0-.46.04-.63.1-.17.06-.26.19-.26.39,0,.12.17.47.52,1.04.19.3.42.66.71,1.09.38-.52.66-.93.85-1.23.32-.48.48-.79.48-.94,0-.17-.07-.28-.21-.34s-.33-.1-.58-.12v-.27h3.14v.27c-.33.03-.64.12-.93.27-.29.15-.52.36-.69.61l-1.65,2.38,2.56,3.94c.33.51.61.84.84.99.23.15.5.23.8.24v.27h-4.03v-.27l.28-.02c.15-.01.27-.06.38-.14.1-.08.15-.18.15-.29,0-.12-.12-.4-.37-.82-.12-.21-.29-.5-.52-.86-.11-.18-.27-.43-.49-.74-.21-.32-.39-.59-.54-.81l-1.6,2.49c-.19.29-.31.49-.35.59-.05.1-.07.18-.07.24,0,.12.05.21.15.24.1.04.32.08.66.13v.27h-2.89v-.27c.35-.07.61-.16.78-.27.17-.11.39-.37.67-.77l2.22-3.31-1.82-2.84c-.38-.57-.64-.9-.78-1.01-.14-.1-.46-.18-.94-.22v-.27h4.15Z"/>
  </g>
</svg>