<?xml version="1.0" encoding="UTF-8"?>
<svg id="_레이어_2" data-name="레이어 2" xmlns="http://www.w3.org/2000/svg" viewBox="0 0 16.7 17.18">
  <defs>
    <style>
      .cls-1 {
        fill: #231815;
      }
    </style>
  </defs>
  <g id="_레이어_1-2" data-name="레이어 1">
    <path class="cls-1" d="M10.66,17.18h-4.7v-.4c.54-.76,1.88-2.7,1.88-5.08,0-.86-.28-.96-.56-.94-.12,1.68-1.58,3.2-3.64,3.2-2.42,0-3.64-1.82-3.64-3.66s1.2-3.66,3.64-3.66c.84,0,1.96.3,2.58.98.34,0,.54-.2.6-.5-1.52-.58-2.28-2-2.28-3.44,0-1.86,1.26-3.68,3.76-3.68s3.78,1.88,3.78,3.72c0,1.44-.78,2.88-2.32,3.36-.02.34.32.68.54.68.64-.58,1.44-1.12,2.72-1.12,2.46,0,3.68,1.8,3.68,3.66s-1.2,3.64-3.64,3.64c-1.5,0-3.3-.78-3.66-3.24-.36.06-.62.28-.62,1.18,0,1.06.52,3.16,1.88,4.98v.32Z"/>
  </g>
</svg>