<?xml version="1.0" encoding="UTF-8"?>
<svg id="_레이어_2" data-name="레이어 2" xmlns="http://www.w3.org/2000/svg" viewBox="0 0 8.83 14.24">
  <defs>
    <style>
      .cls-1 {
        fill: #231815;
      }
    </style>
  </defs>
  <g id="_레이어_1-2" data-name="레이어 1">
    <path class="cls-1" d="M4.43,14.24c-2.66,0-4.43-1.99-4.43-6.31v-1.72C0,1.89,1.76,0,4.41,0s4.41,1.89,4.41,6.21v1.72c0,4.32-1.72,6.31-4.39,6.31ZM4.41,1.5c-1.6,0-2.73,1.56-2.73,4.39v.47h5.43v-.47c0-2.83-1.09-4.39-2.7-4.39ZM4.43,12.73c1.62,0,2.68-1.68,2.68-4.51v-.29H1.68v.29c0,2.83,1.17,4.51,2.75,4.51Z"/>
  </g>
</svg>