<?xml version="1.0" encoding="UTF-8"?>
<svg id="_레이어_2" data-name="레이어 2" xmlns="http://www.w3.org/2000/svg" viewBox="0 0 15.86 13.63">
  <defs>
    <style>
      .cls-1 {
        fill: #231815;
      }
    </style>
  </defs>
  <g id="_레이어_1-2" data-name="레이어 1">
    <path class="cls-1" d="M0,13.36c.7-.07,1.14-.18,1.32-.36.18-.17.27-.64.27-1.4v-4.66c0-.42-.03-.72-.09-.88-.1-.27-.3-.4-.62-.4-.07,0-.14,0-.21.02s-.26.07-.59.16v-.3l.42-.14c1.14-.37,1.93-.65,2.38-.84.18-.08.3-.12.35-.12.01.05.02.09.02.15v7.01c0,.74.09,1.21.27,1.4.18.19.58.31,1.22.36v.27H0v-.27ZM1.55.3c.2-.2.44-.3.72-.3s.52.1.72.3c.2.2.3.44.3.72s-.1.52-.3.71c-.2.2-.44.3-.72.3s-.53-.1-.72-.3c-.2-.2-.29-.44-.29-.71s.1-.52.29-.72ZM5.56,13.36c.7-.07,1.14-.18,1.32-.36.18-.17.27-.64.27-1.4v-4.66c0-.42-.03-.72-.09-.88-.1-.27-.3-.4-.62-.4-.07,0-.14,0-.21.02s-.26.07-.59.16v-.3l.42-.14c1.14-.37,1.93-.65,2.38-.84.18-.08.3-.12.35-.12.01.05.02.09.02.15v7.01c0,.74.09,1.21.27,1.4.18.19.58.31,1.22.36v.27h-4.75v-.27ZM7.11.3c.2-.2.44-.3.72-.3s.52.1.72.3c.2.2.3.44.3.72s-.1.52-.3.71c-.2.2-.44.3-.72.3s-.53-.1-.72-.3c-.2-.2-.29-.44-.29-.71s.1-.52.29-.72ZM11.11,13.36c.7-.07,1.14-.18,1.32-.36.18-.17.27-.64.27-1.4v-4.66c0-.42-.03-.72-.09-.88-.1-.27-.3-.4-.62-.4-.07,0-.14,0-.21.02s-.26.07-.59.16v-.3l.42-.14c1.14-.37,1.93-.65,2.38-.84.18-.08.3-.12.35-.12.01.05.02.09.02.15v7.01c0,.74.09,1.21.27,1.4.18.19.58.31,1.22.36v.27h-4.75v-.27ZM12.67.3c.2-.2.44-.3.72-.3s.52.1.72.3c.2.2.3.44.3.72s-.1.52-.3.71c-.2.2-.44.3-.72.3s-.53-.1-.72-.3c-.2-.2-.29-.44-.29-.71s.1-.52.29-.72Z"/>
  </g>
</svg>