<?xml version="1.0" encoding="UTF-8"?>
<svg id="_레이어_2" data-name="레이어 2" xmlns="http://www.w3.org/2000/svg" viewBox="0 0 13.58 17.3">
  <defs>
    <style>
      .cls-1 {
        fill: #231815;
      }
    </style>
  </defs>
  <g id="_레이어_1-2" data-name="레이어 1">
    <path class="cls-1" d="M4.18,17.3v-.6c.56-1.1,1.1-2.5,1.1-3.2-.74.44-1.66.8-2.42.8-.84,0-2.86-.64-2.86-3.5C0,9.06,1.6,6.68,6.62,0c5.54,6.6,6.96,9.12,6.96,11s-1.16,3.1-3.08,3.1c-.7,0-1.5-.26-2.14-.68.02.9.38,1.86,1.14,3.22v.66h-5.32ZM7.88,16.1v-.22c-.48-.86-.74-1.86-.78-2.78,0-.78.34-1.14.86-1.14h.04c.4.04,1.4.94,2.44.94.64,0,1.82-.38,1.82-1.96,0-2.58-2.72-5.64-5.6-9.04C5.26,3.9,1.3,8.2,1.3,10.7c0,1.42.54,2.4,1.56,2.4.72,0,1.78-.62,2.64-1.16h.18c.58,0,.82.26.82,1.02,0,.36-.08,1.36-.7,2.98v.16h2.08Z"/>
  </g>
</svg>