<?xml version="1.0" encoding="UTF-8"?>
<svg id="_레이어_2" data-name="레이어 2" xmlns="http://www.w3.org/2000/svg" viewBox="0 0 12.09 17.7">
  <defs>
    <style>
      .cls-1 {
        fill: #231815;
      }
    </style>
  </defs>
  <g id="_레이어_1-2" data-name="레이어 1">
    <path class="cls-1" d="M6.74,1.6c2.72.21,4.78,2.02,5.27,4.59h-1.82c-.55-1.65-1.74-2.74-3.46-2.95v5.59h5.35v1.52c0,3.36-2.22,5.57-5.35,5.74v1.6h-1.15v-1.62c-3.37-.33-5.59-3.05-5.59-7.23S2.28,1.9,5.59,1.6V0h1.15v1.6ZM5.59,14.41V3.26c-2.21.29-3.89,2.24-3.89,5.59s1.63,5.23,3.89,5.57ZM10.37,10.37h-3.63v4.08c2.16-.18,3.59-1.73,3.63-4.08Z"/>
  </g>
</svg>