<?xml version="1.0" encoding="UTF-8"?>
<svg id="_레이어_2" data-name="레이어 2" xmlns="http://www.w3.org/2000/svg" viewBox="0 0 10.51 10.96">
  <defs>
    <style>
      .cls-1 {
        fill: #231815;
      }
    </style>
  </defs>
  <g id="_레이어_1-2" data-name="레이어 1">
    <path class="cls-1" d="M0,5.43C0,2.25,1.88,0,4.51,0c1.93,0,3.03,1.19,3.69,2.89h.02l.59-2.75h1.56l-1.21,5.29,1.35,5.31h-1.56l-.64-2.66h-.02c-.7,1.68-1.93,2.89-3.87,2.87-2.68-.02-4.41-2.3-4.41-5.53ZM4.41,9.45c2.03,0,2.93-2.6,3.24-3.98l.02-.04-.02-.02c-.27-1.35-1.04-3.91-3.12-3.91-1.66,0-2.85,1.62-2.85,3.96s1.09,3.98,2.73,3.98Z"/>
  </g>
</svg>