<?xml version="1.0" encoding="UTF-8"?>
<svg id="_레이어_2" data-name="레이어 2" xmlns="http://www.w3.org/2000/svg" viewBox="0 0 8.75 10.94">
  <defs>
    <style>
      .cls-1 {
        fill: #231815;
      }
    </style>
  </defs>
  <g id="_레이어_1-2" data-name="레이어 1">
    <path class="cls-1" d="M2.09,5.43C.53,5,.2,3.98.2,3.12.2,1.15,1.86,0,4.28,0s4,1.15,4.28,3.07h-1.76c-.21-.94-1.11-1.58-2.52-1.58s-2.36.68-2.36,1.64c0,.88.74,1.45,2.27,1.45h1.27v1.43h-1.27c-1.46,0-2.4.78-2.4,1.78s1.04,1.64,2.62,1.64,2.32-.57,2.6-1.76h1.76c-.23,1.99-1.93,3.28-4.43,3.28S0,9.71,0,7.87c0-.88.41-1.97,2.09-2.44Z"/>
  </g>
</svg>