<?xml version="1.0" encoding="UTF-8"?>
<svg id="_레이어_2" data-name="레이어 2" xmlns="http://www.w3.org/2000/svg" viewBox="0 0 14.14 17.14">
  <defs>
    <style>
      .cls-1 {
        fill: #231815;
      }
    </style>
  </defs>
  <g id="_레이어_1-2" data-name="레이어 1">
    <path class="cls-1" d="M4.46,17.14v-.32c1.16-1.68,2.04-4.04,2.04-4.64,0-.18-.08-.3-.2-.3-.1,0-.24.1-.38.34-.7,1.54-1.7,2.08-2.96,2.08s-2.96-.9-2.96-3.24C0,8.46,3.28,3.84,6.94,0c4.06,4.02,7.2,8.44,7.2,11,0,1.82-1.34,3.32-3.08,3.32-.96,0-2.34-.56-2.94-2.12-.1-.22-.24-.32-.34-.32-.14,0-.24.14-.24.32,0,.36.66,2.64,1.84,4.64v.3h-4.92Z"/>
  </g>
</svg>