<svg width="20" height="20" viewBox="0 0 20 20" fill="none" xmlns="http://www.w3.org/2000/svg">
<mask id="mask0_2615_3627" style="mask-type:alpha" maskUnits="userSpaceOnUse" x="0" y="0" width="20" height="20">
<rect width="20" height="20" fill="#D9D9D9"/>
</mask>
<g mask="url(#mask0_2615_3627)">
<path d="M5.08492 14.226C5.83492 13.7143 6.61701 13.334 7.43117 13.0849C8.2452 12.836 9.10256 12.7116 10.0033 12.7116C10.9039 12.7116 11.7613 12.836 12.5753 13.0849C13.3895 13.334 14.1716 13.7143 14.9216 14.226C15.4396 13.6565 15.8328 13.0112 16.101 12.2901C16.3692 11.569 16.5033 10.8067 16.5033 10.0033C16.5033 8.20228 15.8697 6.66867 14.6026 5.40242C13.3355 4.13631 11.8008 3.50326 9.99846 3.50326C8.1961 3.50326 6.66298 4.13631 5.39909 5.40242C4.1352 6.66867 3.50326 8.20228 3.50326 10.0033C3.50326 10.8067 3.63735 11.569 3.90555 12.2901C4.17374 13.0112 4.56687 13.6565 5.08492 14.226ZM10.0035 11.2949C9.22874 11.2949 8.56978 11.0234 8.02659 10.4803C7.48325 9.93714 7.21159 9.27819 7.21159 8.50346C7.21159 7.72874 7.48312 7.06978 8.02617 6.52659C8.56937 5.98326 9.22832 5.71159 10.003 5.71159C10.7778 5.71159 11.4367 5.98312 11.9799 6.52617C12.5233 7.06937 12.7949 7.72832 12.7949 8.50305C12.7949 9.27777 12.5234 9.93673 11.9803 10.4799C11.4371 11.0233 10.7782 11.2949 10.0035 11.2949ZM10.0091 17.5866C8.96145 17.5866 7.97687 17.3903 7.05534 16.9976C6.13381 16.605 5.32721 16.0628 4.63555 15.371C3.94374 14.6793 3.40152 13.873 3.00888 12.952C2.61624 12.0312 2.41992 11.0451 2.41992 9.99367C2.41992 8.94242 2.61624 7.95951 3.00888 7.04492C3.40152 6.13034 3.94374 5.32721 4.63555 4.63555C5.32721 3.94374 6.13353 3.40152 7.05451 3.00888C7.97534 2.61624 8.96145 2.41992 10.0128 2.41992C11.0641 2.41992 12.047 2.61624 12.9616 3.00888C13.8762 3.40152 14.6793 3.94374 15.371 4.63555C16.0628 5.32721 16.605 6.13187 16.9976 7.0495C17.3903 7.96728 17.5866 8.94992 17.5866 9.99742C17.5866 11.0451 17.3903 12.0296 16.9976 12.9512C16.605 13.8727 16.0628 14.6793 15.371 15.371C14.6793 16.0628 13.8746 16.605 12.957 16.9976C12.0392 17.3903 11.0566 17.5866 10.0091 17.5866ZM10.0033 16.5033C10.7414 16.5033 11.4666 16.3753 12.1787 16.1195C12.8908 15.8635 13.5385 15.4974 14.1218 15.021C13.5246 14.6299 12.878 14.3278 12.182 14.1147C11.4859 13.9015 10.7596 13.7949 10.0033 13.7949C9.24687 13.7949 8.51583 13.8967 7.81013 14.1001C7.10444 14.3037 6.46263 14.6107 5.88471 15.021C6.46805 15.4974 7.11576 15.8635 7.82784 16.1195C8.53992 16.3753 9.26506 16.5033 10.0033 16.5033ZM10.0033 10.2116C10.4734 10.2116 10.8756 10.0444 11.2099 9.70992C11.5444 9.37562 11.7116 8.97339 11.7116 8.50326C11.7116 8.03312 11.5444 7.63089 11.2099 7.29659C10.8756 6.96214 10.4734 6.79492 10.0033 6.79492C9.53312 6.79492 9.13089 6.96214 8.79659 7.29659C8.46214 7.63089 8.29492 8.03312 8.29492 8.50326C8.29492 8.97339 8.46214 9.37562 8.79659 9.70992C9.13089 10.0444 9.53312 10.2116 10.0033 10.2116Z" fill="#1C1B1F"/>
</g>
</svg>
