<svg width="20" height="20" viewBox="0 0 20 20" fill="none" xmlns="http://www.w3.org/2000/svg">
<mask id="mask0_10_5987" style="mask-type:alpha" maskUnits="userSpaceOnUse" x="0" y="0" width="20" height="20">
<rect width="20" height="20" fill="#D9D9D9"/>
</mask>
<g mask="url(#mask0_10_5987)">
<path d="M9.54167 10.625H6.04167C5.88819 10.625 5.75958 10.5735 5.65583 10.4704C5.55194 10.3674 5.5 10.2397 5.5 10.0875C5.5 9.93514 5.55194 9.80611 5.65583 9.70042C5.75958 9.59458 5.88819 9.54167 6.04167 9.54167H9.54167V6.04167C9.54167 5.88819 9.59319 5.75958 9.69625 5.65583C9.79931 5.55194 9.92694 5.5 10.0792 5.5C10.2315 5.5 10.3606 5.55194 10.4663 5.65583C10.5721 5.75958 10.625 5.88819 10.625 6.04167V9.54167H14.125C14.2785 9.54167 14.4071 9.59319 14.5108 9.69625C14.6147 9.79931 14.6667 9.92694 14.6667 10.0792C14.6667 10.2315 14.6147 10.3606 14.5108 10.4663C14.4071 10.5721 14.2785 10.625 14.125 10.625H10.625V14.125C10.625 14.2785 10.5735 14.4071 10.4704 14.5108C10.3674 14.6147 10.2397 14.6667 10.0875 14.6667C9.93514 14.6667 9.80611 14.6147 9.70042 14.5108C9.59458 14.4071 9.54167 14.2785 9.54167 14.125V10.625Z" fill="#1C1B1F"/>
</g>
</svg>
