<svg width="20" height="20" viewBox="0 0 20 20" fill="none" xmlns="http://www.w3.org/2000/svg">
<mask id="mask0_2618_3340" style="mask-type:alpha" maskUnits="userSpaceOnUse" x="0" y="0" width="20" height="20">
<rect width="20" height="20" fill="#D9D9D9"/>
</mask>
<g mask="url(#mask0_2618_3340)">
<path d="M9.42405 10.5759V13.4557C9.42405 13.6192 9.47877 13.756 9.5882 13.8662C9.69748 13.9765 9.8332 14.0316 9.99535 14.0316C10.1575 14.0316 10.2948 13.9765 10.4072 13.8662C10.5197 13.756 10.5759 13.6192 10.5759 13.4557V10.5759H13.4557C13.6192 10.5759 13.756 10.5212 13.8662 10.4118C13.9765 10.3025 14.0316 10.1668 14.0316 10.0047C14.0316 9.8425 13.9765 9.70523 13.8662 9.59285C13.756 9.48032 13.6192 9.42405 13.4557 9.42405H10.5759V6.5443C10.5759 6.38082 10.5212 6.244 10.4118 6.13383C10.3025 6.02351 10.1668 5.96835 10.0047 5.96835C9.8425 5.96835 9.70523 6.02351 9.59285 6.13383C9.48032 6.244 9.42405 6.38082 9.42405 6.5443V9.42405H6.5443C6.38082 9.42405 6.244 9.47877 6.13383 9.5882C6.02351 9.69748 5.96835 9.8332 5.96835 9.99535C5.96835 10.1575 6.02351 10.2948 6.13383 10.4072C6.244 10.5197 6.38082 10.5759 6.5443 10.5759H9.42405ZM4.42459 17C4.02571 17 3.68855 16.8623 3.41313 16.5869C3.13771 16.3114 3 15.9743 3 15.5754V4.42459C3 4.02571 3.13771 3.68856 3.41313 3.41313C3.68855 3.13771 4.02571 3 4.42459 3H15.5754C15.9743 3 16.3114 3.13771 16.5869 3.41313C16.8623 3.68856 17 4.02571 17 4.42459V15.5754C17 15.9743 16.8623 16.3114 16.5869 16.5869C16.3114 16.8623 15.9743 17 15.5754 17H4.42459ZM4.42459 15.8481H15.5754C15.6436 15.8481 15.7061 15.8197 15.7628 15.7628C15.8197 15.7061 15.8481 15.6436 15.8481 15.5754V4.42459C15.8481 4.35636 15.8197 4.29389 15.7628 4.23718C15.7061 4.18033 15.6436 4.1519 15.5754 4.1519H4.42459C4.35636 4.1519 4.29389 4.18033 4.23718 4.23718C4.18033 4.29389 4.1519 4.35636 4.1519 4.42459V15.5754C4.1519 15.6436 4.18033 15.7061 4.23718 15.7628C4.29389 15.8197 4.35636 15.8481 4.42459 15.8481Z" fill="#1C1B1F"/>
</g>
</svg>
