<svg width="20" height="20" viewBox="0 0 20 20" fill="none" xmlns="http://www.w3.org/2000/svg">
<mask id="mask0_15_6403" style="mask-type:alpha" maskUnits="userSpaceOnUse" x="0" y="0" width="20" height="20">
<rect width="20" height="20" fill="#D9D9D9"/>
</mask>
<g mask="url(#mask0_15_6403)">
<path d="M11.0175 15.4998H15.7434C15.8182 15.4998 15.8797 15.4758 15.9278 15.4278C15.9758 15.3797 15.9998 15.3182 15.9998 15.2434V4.7563C15.9998 4.68143 15.9758 4.61998 15.9278 4.57192C15.8797 4.52387 15.8182 4.49984 15.7434 4.49984H11.0175V15.4998ZM5.2563 16.5832C4.88782 16.5832 4.57241 16.4523 4.31005 16.1907C4.04768 15.929 3.9165 15.6145 3.9165 15.2471V14.4988C3.9165 14.3459 3.96803 14.2165 4.07109 14.1107C4.17414 14.0047 4.30178 13.9517 4.454 13.9517C4.60637 13.9517 4.73539 14.0037 4.84109 14.1075C4.94692 14.2113 4.99984 14.3399 4.99984 14.4934V15.2434C4.99984 15.3182 5.02387 15.3797 5.07192 15.4278C5.11998 15.4758 5.18143 15.4998 5.2563 15.4998H9.93421V4.49984H5.2563C5.18143 4.49984 5.11998 4.52387 5.07192 4.57192C5.02387 4.61998 4.99984 4.68143 4.99984 4.7563V5.50192C4.99984 5.65414 4.94831 5.78317 4.84525 5.889C4.7422 5.99498 4.61456 6.04796 4.46234 6.04796C4.30998 6.04796 4.18095 5.99581 4.07525 5.8915C3.96942 5.78734 3.9165 5.65817 3.9165 5.504V4.75192C3.9165 4.3822 4.04768 4.0672 4.31005 3.80692C4.57241 3.54664 4.88782 3.4165 5.2563 3.4165H15.7434C16.1119 3.4165 16.4273 3.54768 16.6896 3.81005C16.952 4.07241 17.0832 4.38782 17.0832 4.7563V15.2434C17.0832 15.6119 16.952 15.9273 16.6896 16.1896C16.4273 16.452 16.1119 16.5832 15.7434 16.5832H5.2563ZM4.46234 12.2915C4.30998 12.2915 4.18095 12.2396 4.07525 12.1357C3.96942 12.0319 3.9165 11.9033 3.9165 11.7498V10.5415H2.70817C2.5547 10.5415 2.42609 10.49 2.32234 10.3869C2.21845 10.2839 2.1665 10.1562 2.1665 10.004C2.1665 9.85164 2.21845 9.72261 2.32234 9.61692C2.42609 9.51109 2.5547 9.45817 2.70817 9.45817H3.9165V8.24984C3.9165 8.09636 3.96803 7.96775 4.07109 7.864C4.17414 7.76011 4.30178 7.70817 4.454 7.70817C4.60637 7.70817 4.73539 7.76011 4.84109 7.864C4.94692 7.96775 4.99984 8.09636 4.99984 8.24984V9.45817H6.20817C6.36164 9.45817 6.49032 9.5097 6.59421 9.61275C6.69796 9.71581 6.74984 9.84345 6.74984 9.99567C6.74984 10.148 6.69796 10.2771 6.59421 10.3828C6.49032 10.4886 6.36164 10.5415 6.20817 10.5415H4.99984V11.7498C4.99984 11.9033 4.94831 12.0319 4.84525 12.1357C4.7422 12.2396 4.61456 12.2915 4.46234 12.2915Z" fill="#1C1B1F"/>
</g>
</svg>
