<svg width="20" height="20" viewBox="0 0 20 20" fill="none" xmlns="http://www.w3.org/2000/svg">
<mask id="mask0_15_6412" style="mask-type:alpha" maskUnits="userSpaceOnUse" x="0" y="0" width="20" height="20">
<rect width="20" height="20" fill="#D9D9D9"/>
</mask>
<g mask="url(#mask0_15_6412)">
<path d="M8.98213 4.49984H4.2563C4.18143 4.49984 4.11998 4.52387 4.07192 4.57192C4.02387 4.61998 3.99984 4.68143 3.99984 4.7563V15.2434C3.99984 15.3182 4.02387 15.3797 4.07192 15.4278C4.11998 15.4758 4.18143 15.4998 4.2563 15.4998H8.98213V4.49984ZM4.2563 16.5832C3.88782 16.5832 3.57241 16.452 3.31005 16.1896C3.04768 15.9273 2.9165 15.6119 2.9165 15.2434V4.7563C2.9165 4.38782 3.04768 4.07241 3.31005 3.81005C3.57241 3.54768 3.88782 3.4165 4.2563 3.4165H14.7434C15.1119 3.4165 15.4273 3.54734 15.6896 3.809C15.952 4.07067 16.0832 4.38518 16.0832 4.75255V5.50088C16.0832 5.6538 16.0316 5.78317 15.9286 5.889C15.8255 5.99498 15.6979 6.04796 15.5457 6.04796C15.3933 6.04796 15.2643 5.99602 15.1586 5.89213C15.0528 5.78838 14.9998 5.65977 14.9998 5.5063V4.7563C14.9998 4.68143 14.9758 4.61998 14.9278 4.57192C14.8797 4.52387 14.8182 4.49984 14.7434 4.49984H10.0655V15.4998H14.7434C14.8182 15.4998 14.8797 15.4758 14.9278 15.4278C14.9758 15.3797 14.9998 15.3182 14.9998 15.2434V14.4978C14.9998 14.3455 15.0514 14.2165 15.1544 14.1107C15.2575 14.0047 15.3851 13.9517 15.5373 13.9517C15.6897 13.9517 15.8187 14.0039 15.9244 14.1082C16.0303 14.2123 16.0832 14.3415 16.0832 14.4957V15.2478C16.0832 15.6175 15.952 15.9325 15.6896 16.1928C15.4273 16.453 15.1119 16.5832 14.7434 16.5832H4.2563ZM15.5457 12.2915C15.3933 12.2915 15.2643 12.2396 15.1586 12.1357C15.0528 12.0319 14.9998 11.9033 14.9998 11.7498V10.5415H13.7915C13.638 10.5415 13.5094 10.49 13.4055 10.3869C13.3017 10.2839 13.2498 10.1562 13.2498 10.004C13.2498 9.85164 13.3017 9.72261 13.4055 9.61692C13.5094 9.51109 13.638 9.45817 13.7915 9.45817H14.9998V8.24984C14.9998 8.09636 15.0514 7.96775 15.1544 7.864C15.2575 7.76011 15.3851 7.70817 15.5373 7.70817C15.6897 7.70817 15.8187 7.76011 15.9244 7.864C16.0303 7.96775 16.0832 8.09636 16.0832 8.24984V9.45817H17.2915C17.445 9.45817 17.5736 9.5097 17.6773 9.61275C17.7812 9.71581 17.8332 9.84345 17.8332 9.99567C17.8332 10.148 17.7812 10.2771 17.6773 10.3828C17.5736 10.4886 17.445 10.5415 17.2915 10.5415H16.0832V11.7498C16.0832 11.9033 16.0316 12.0319 15.9286 12.1357C15.8255 12.2396 15.6979 12.2915 15.5457 12.2915Z" fill="#1C1B1F"/>
</g>
</svg>
