<svg width="20" height="20" viewBox="0 0 20 20" fill="none" xmlns="http://www.w3.org/2000/svg">
<mask id="mask0_15_6419" style="mask-type:alpha" maskUnits="userSpaceOnUse" x="0" y="0" width="20" height="20">
<rect width="20" height="20" fill="#D9D9D9"/>
</mask>
<g mask="url(#mask0_15_6419)">
<path d="M4.49984 11.0175V15.7434C4.49984 15.8182 4.52387 15.8797 4.57192 15.9278C4.61998 15.9758 4.68143 15.9998 4.7563 15.9998H15.2434C15.3182 15.9998 15.3797 15.9758 15.4278 15.9278C15.4758 15.8797 15.4998 15.8182 15.4998 15.7434V11.0175H4.49984ZM4.7563 17.0832C4.38782 17.0832 4.07241 16.952 3.81005 16.6896C3.54768 16.4273 3.4165 16.1119 3.4165 15.7434V5.2563C3.4165 4.88782 3.54734 4.57241 3.809 4.31005C4.07067 4.04768 4.38518 3.9165 4.75255 3.9165H5.50088C5.6538 3.9165 5.78317 3.96803 5.889 4.07109C5.99498 4.17414 6.04796 4.30178 6.04796 4.454C6.04796 4.60636 5.99602 4.73539 5.89213 4.84109C5.78838 4.94692 5.65977 4.99984 5.5063 4.99984H4.7563C4.68143 4.99984 4.61998 5.02387 4.57192 5.07192C4.52387 5.11998 4.49984 5.18143 4.49984 5.2563V9.93421H15.4998V5.2563C15.4998 5.18143 15.4758 5.11998 15.4278 5.07192C15.3797 5.02387 15.3182 4.99984 15.2434 4.99984H14.4978C14.3455 4.99984 14.2165 4.94831 14.1107 4.84525C14.0047 4.7422 13.9517 4.61456 13.9517 4.46234C13.9517 4.30998 14.0039 4.18095 14.1082 4.07525C14.2123 3.96942 14.3415 3.9165 14.4957 3.9165H15.2478C15.6175 3.9165 15.9325 4.04768 16.1928 4.31005C16.453 4.57241 16.5832 4.88782 16.5832 5.2563V15.7434C16.5832 16.1119 16.452 16.4273 16.1896 16.6896C15.9273 16.952 15.6119 17.0832 15.2434 17.0832H4.7563ZM9.45817 4.99984H8.24984C8.09636 4.99984 7.96775 4.94831 7.864 4.84525C7.76012 4.7422 7.70817 4.61456 7.70817 4.46234C7.70817 4.30998 7.76012 4.18095 7.864 4.07525C7.96775 3.96942 8.09636 3.9165 8.24984 3.9165H9.45817V2.70817C9.45817 2.5547 9.5097 2.42609 9.61275 2.32234C9.71581 2.21845 9.84345 2.1665 9.99567 2.1665C10.148 2.1665 10.2771 2.21845 10.3828 2.32234C10.4886 2.42609 10.5415 2.5547 10.5415 2.70817V3.9165H11.7498C11.9033 3.9165 12.0319 3.96803 12.1357 4.07109C12.2396 4.17414 12.2915 4.30178 12.2915 4.454C12.2915 4.60636 12.2396 4.73539 12.1357 4.84109C12.0319 4.94692 11.9033 4.99984 11.7498 4.99984H10.5415V6.20817C10.5415 6.36164 10.49 6.49032 10.3869 6.59421C10.2839 6.69796 10.1562 6.74984 10.004 6.74984C9.85164 6.74984 9.72261 6.69796 9.61692 6.59421C9.51109 6.49032 9.45817 6.36164 9.45817 6.20817V4.99984Z" fill="#1C1B1F"/>
</g>
</svg>
