<svg width="20" height="20" viewBox="0 0 20 20" fill="none" xmlns="http://www.w3.org/2000/svg">
<mask id="mask0_15_6426" style="mask-type:alpha" maskUnits="userSpaceOnUse" x="0" y="0" width="20" height="20">
<rect width="20" height="20" fill="#D9D9D9"/>
</mask>
<g mask="url(#mask0_15_6426)">
<path d="M15.4998 8.98213V4.2563C15.4998 4.18143 15.4758 4.11998 15.4278 4.07192C15.3797 4.02387 15.3182 3.99984 15.2434 3.99984H4.7563C4.68143 3.99984 4.61998 4.02387 4.57192 4.07192C4.52387 4.11998 4.49984 4.18143 4.49984 4.2563V8.98213H15.4998ZM4.75192 16.0832C4.3822 16.0832 4.0672 15.952 3.80692 15.6896C3.54664 15.4273 3.4165 15.1119 3.4165 14.7434V4.2563C3.4165 3.88782 3.54768 3.57241 3.81005 3.31005C4.07241 3.04768 4.38782 2.9165 4.7563 2.9165H15.2434C15.6119 2.9165 15.9273 3.04768 16.1896 3.31005C16.452 3.57241 16.5832 3.88782 16.5832 4.2563V14.7434C16.5832 15.1119 16.4523 15.4273 16.1907 15.6896C15.929 15.952 15.6145 16.0832 15.2471 16.0832H14.4988C14.3459 16.0832 14.2165 16.0316 14.1107 15.9286C14.0047 15.8255 13.9517 15.6979 13.9517 15.5457C13.9517 15.3933 14.0037 15.2643 14.1075 15.1586C14.2113 15.0528 14.3399 14.9998 14.4934 14.9998H15.2434C15.3182 14.9998 15.3797 14.9758 15.4278 14.9278C15.4758 14.8797 15.4998 14.8182 15.4998 14.7434V10.0655H4.49984V14.7434C4.49984 14.8182 4.52387 14.8797 4.57192 14.9278C4.61998 14.9758 4.68143 14.9998 4.7563 14.9998H5.50192C5.65414 14.9998 5.78317 15.0514 5.889 15.1544C5.99498 15.2575 6.04796 15.3851 6.04796 15.5373C6.04796 15.6897 5.99581 15.8187 5.8915 15.9244C5.78734 16.0303 5.65817 16.0832 5.504 16.0832H4.75192ZM10.004 17.8332C9.85164 17.8332 9.72261 17.7812 9.61692 17.6773C9.51109 17.5736 9.45817 17.445 9.45817 17.2915V16.0832H8.24984C8.09636 16.0832 7.96775 16.0316 7.864 15.9286C7.76012 15.8255 7.70817 15.6979 7.70817 15.5457C7.70817 15.3933 7.76012 15.2643 7.864 15.1586C7.96775 15.0528 8.09636 14.9998 8.24984 14.9998H9.45817V13.7915C9.45817 13.638 9.5097 13.5094 9.61275 13.4055C9.71581 13.3017 9.84345 13.2498 9.99567 13.2498C10.148 13.2498 10.2771 13.3017 10.3828 13.4055C10.4886 13.5094 10.5415 13.638 10.5415 13.7915V14.9998H11.7498C11.9033 14.9998 12.0319 15.0514 12.1357 15.1544C12.2396 15.2575 12.2915 15.3851 12.2915 15.5373C12.2915 15.6897 12.2396 15.8187 12.1357 15.9244C12.0319 16.0303 11.9033 16.0832 11.7498 16.0832H10.5415V17.2915C10.5415 17.445 10.49 17.5736 10.3869 17.6773C10.2839 17.7812 10.1562 17.8332 10.004 17.8332Z" fill="#1C1B1F"/>
</g>
</svg>
