<svg width="20" height="20" viewBox="0 0 20 20" fill="none" xmlns="http://www.w3.org/2000/svg">
<mask id="mask0_20_4950" style="mask-type:alpha" maskUnits="userSpaceOnUse" x="0" y="0" width="20" height="20">
<rect width="20" height="20" fill="#D9D9D9"/>
</mask>
<g mask="url(#mask0_20_4950)">
<path d="M3.28335 17.5832C3.13085 17.5832 3.00168 17.5313 2.89585 17.4275C2.79015 17.3239 2.7373 17.1953 2.7373 17.0415V2.95817C2.7373 2.80442 2.78869 2.67574 2.89147 2.57213C2.99439 2.46838 3.1221 2.4165 3.2746 2.4165C3.4271 2.4165 3.55619 2.46838 3.66189 2.57213C3.76772 2.67574 3.82064 2.80442 3.82064 2.95817V17.0415C3.82064 17.1953 3.76918 17.3239 3.66626 17.4275C3.56349 17.5313 3.43585 17.5832 3.28335 17.5832ZM6.36064 13.7113C6.14161 13.7113 5.95355 13.6328 5.79647 13.4759C5.63953 13.3188 5.56105 13.1307 5.56105 12.9117C5.56105 12.6927 5.63953 12.5046 5.79647 12.3475C5.95355 12.1906 6.14161 12.1121 6.36064 12.1121H11.4631C11.6822 12.1121 11.8702 12.1906 12.0273 12.3475C12.1842 12.5046 12.2627 12.6927 12.2627 12.9117C12.2627 13.1307 12.1842 13.3188 12.0273 13.4759C11.8702 13.6328 11.6822 13.7113 11.4631 13.7113H6.36064ZM6.36064 7.88755C6.14161 7.88755 5.95355 7.80907 5.79647 7.65213C5.63953 7.49505 5.56105 7.30699 5.56105 7.08796C5.56105 6.86893 5.63953 6.68088 5.79647 6.5238C5.95355 6.36685 6.14161 6.28838 6.36064 6.28838H16.4631C16.6822 6.28838 16.8702 6.36685 17.0273 6.5238C17.1842 6.68088 17.2627 6.86893 17.2627 7.08796C17.2627 7.30699 17.1842 7.49505 17.0273 7.65213C16.8702 7.80907 16.6822 7.88755 16.4631 7.88755H6.36064Z" fill="#1C1B1F"/>
</g>
</svg>
