<svg width="20" height="20" viewBox="0 0 20 20" fill="none" xmlns="http://www.w3.org/2000/svg">
<mask id="mask0_20_4978" style="mask-type:alpha" maskUnits="userSpaceOnUse" x="0" y="0" width="20" height="20">
<rect width="20" height="20" fill="#D9D9D9"/>
</mask>
<g mask="url(#mask0_20_4978)">
<path d="M2.95817 17.3751C2.80442 17.3751 2.67574 17.3236 2.57213 17.2207C2.46838 17.118 2.4165 16.9903 2.4165 16.8378C2.4165 16.6853 2.46838 16.5561 2.57213 16.4503C2.67574 16.3446 2.80442 16.2918 2.95817 16.2918H17.0415C17.1953 16.2918 17.3239 16.3432 17.4275 16.4459C17.5313 16.5489 17.5832 16.6766 17.5832 16.8291C17.5832 16.9816 17.5313 17.1107 17.4275 17.2164C17.3239 17.3222 17.1953 17.3751 17.0415 17.3751H2.95817ZM7.08796 14.5514C6.86893 14.5514 6.68088 14.4728 6.5238 14.3157C6.36685 14.1586 6.28838 13.9707 6.28838 13.7518V3.41677C6.28838 3.19774 6.36685 3.00976 6.5238 2.85281C6.68088 2.69573 6.86893 2.61719 7.08796 2.61719C7.30699 2.61719 7.49505 2.69573 7.65213 2.85281C7.80907 3.00976 7.88755 3.19774 7.88755 3.41677V13.7518C7.88755 13.9707 7.80907 14.1586 7.65213 14.3157C7.49505 14.4728 7.30699 14.5514 7.08796 14.5514ZM12.9117 14.5514C12.6927 14.5514 12.5046 14.4728 12.3475 14.3157C12.1906 14.1586 12.1121 13.9707 12.1121 13.7518V8.41677C12.1121 8.19774 12.1906 8.00976 12.3475 7.85281C12.5046 7.69573 12.6927 7.61719 12.9117 7.61719C13.1307 7.61719 13.3188 7.69573 13.4759 7.85281C13.6328 8.00976 13.7113 8.19774 13.7113 8.41677V13.7518C13.7113 13.9707 13.6328 14.1586 13.4759 14.3157C13.3188 14.4728 13.1307 14.5514 12.9117 14.5514Z" fill="#1C1B1F"/>
</g>
</svg>
