<svg width="20" height="20" viewBox="0 0 20 20" fill="none" xmlns="http://www.w3.org/2000/svg">
<mask id="mask0_20_4985" style="mask-type:alpha" maskUnits="userSpaceOnUse" x="0" y="0" width="20" height="20">
<rect width="20" height="20" fill="#D9D9D9"/>
</mask>
<g mask="url(#mask0_20_4985)">
<path d="M9.45817 17.0415V13.2113H6.4663C6.24727 13.2113 6.05921 13.1328 5.90213 12.9759C5.74505 12.8188 5.6665 12.6307 5.6665 12.4117C5.6665 12.1927 5.74505 12.0046 5.90213 11.8475C6.05921 11.6906 6.24727 11.6121 6.4663 11.6121H9.45817V7.88755H4.2163C3.99727 7.88755 3.80921 7.80907 3.65213 7.65213C3.49505 7.49505 3.4165 7.30699 3.4165 7.08796C3.4165 6.86893 3.49505 6.68088 3.65213 6.5238C3.80921 6.36685 3.99727 6.28838 4.2163 6.28838H9.45817V2.95817C9.45817 2.8047 9.5097 2.67609 9.61275 2.57234C9.71581 2.46845 9.84345 2.4165 9.99567 2.4165C10.148 2.4165 10.2771 2.46845 10.3828 2.57234C10.4886 2.67609 10.5415 2.8047 10.5415 2.95817V6.28838H15.7834C16.0024 6.28838 16.1905 6.36685 16.3475 6.5238C16.5046 6.68088 16.5832 6.86893 16.5832 7.08796C16.5832 7.30699 16.5046 7.49505 16.3475 7.65213C16.1905 7.80907 16.0024 7.88755 15.7834 7.88755H10.5415V11.6121H13.5334C13.7524 11.6121 13.9405 11.6906 14.0975 11.8475C14.2546 12.0046 14.3332 12.1927 14.3332 12.4117C14.3332 12.6307 14.2546 12.8188 14.0975 12.9759C13.9405 13.1328 13.7524 13.2113 13.5334 13.2113H10.5415V17.0415C10.5415 17.195 10.49 17.3236 10.3869 17.4273C10.2839 17.5312 10.1562 17.5832 10.004 17.5832C9.85164 17.5832 9.72261 17.5312 9.61692 17.4273C9.51109 17.3236 9.45817 17.195 9.45817 17.0415Z" fill="#1C1B1F"/>
</g>
</svg>
