<svg width="20" height="20" viewBox="0 0 20 20" fill="none" xmlns="http://www.w3.org/2000/svg">
<mask id="mask0_20_4971" style="mask-type:alpha" maskUnits="userSpaceOnUse" x="0" y="0" width="20" height="20">
<rect width="20" height="20" fill="#D9D9D9"/>
</mask>
<g mask="url(#mask0_20_4971)">
<path d="M7.08796 17.3751C6.86893 17.3751 6.68088 17.2966 6.5238 17.1395C6.36685 16.9824 6.28838 16.7943 6.28838 16.5753V6.24052C6.28838 6.02149 6.36685 5.83344 6.5238 5.67635C6.68088 5.51941 6.86893 5.44094 7.08796 5.44094C7.30699 5.44094 7.49505 5.51941 7.65213 5.67635C7.80907 5.83344 7.88755 6.02149 7.88755 6.24052V16.5753C7.88755 16.7943 7.80907 16.9824 7.65213 17.1395C7.49505 17.2966 7.30699 17.3751 7.08796 17.3751ZM12.9117 12.3751C12.6927 12.3751 12.5046 12.2966 12.3475 12.1395C12.1906 11.9824 12.1121 11.7943 12.1121 11.5753V6.24052C12.1121 6.02149 12.1906 5.83344 12.3475 5.67635C12.5046 5.51941 12.6927 5.44094 12.9117 5.44094C13.1307 5.44094 13.3188 5.51941 13.4759 5.67635C13.6328 5.83344 13.7113 6.02149 13.7113 6.24052V11.5753C13.7113 11.7943 13.6328 11.9824 13.4759 12.1395C13.3188 12.2966 13.1307 12.3751 12.9117 12.3751ZM2.95817 3.70052C2.80442 3.70052 2.67574 3.64906 2.57213 3.54615C2.46838 3.44337 2.4165 3.31573 2.4165 3.16323C2.4165 3.01073 2.46838 2.88156 2.57213 2.77573C2.67574 2.67003 2.80442 2.61719 2.95817 2.61719H17.0415C17.1953 2.61719 17.3239 2.66858 17.4275 2.77135C17.5313 2.87427 17.5832 3.00198 17.5832 3.15448C17.5832 3.30698 17.5313 3.43608 17.4275 3.54177C17.3239 3.6476 17.1953 3.70052 17.0415 3.70052H2.95817Z" fill="#1C1B1F"/>
</g>
</svg>
