<svg width="20" height="20" viewBox="0 0 20 20" fill="none" xmlns="http://www.w3.org/2000/svg">
<mask id="mask0_20_4957" style="mask-type:alpha" maskUnits="userSpaceOnUse" x="0" y="0" width="20" height="20">
<rect width="20" height="20" fill="#D9D9D9"/>
</mask>
<g mask="url(#mask0_20_4957)">
<path d="M16.7254 17.5832C16.5729 17.5832 16.4438 17.5313 16.3381 17.4275C16.2323 17.3239 16.1794 17.1953 16.1794 17.0415V2.95817C16.1794 2.80442 16.2308 2.67574 16.3338 2.57213C16.4365 2.46838 16.5642 2.4165 16.7167 2.4165C16.8692 2.4165 16.9983 2.46838 17.1042 2.57213C17.2099 2.67574 17.2627 2.80442 17.2627 2.95817V17.0415C17.2627 17.1953 17.2113 17.3239 17.1086 17.4275C17.0056 17.5313 16.8779 17.5832 16.7254 17.5832ZM8.53689 13.7113C8.31786 13.7113 8.12981 13.6328 7.97272 13.4759C7.81578 13.3188 7.73731 13.1307 7.73731 12.9117C7.73731 12.6927 7.81578 12.5046 7.97272 12.3475C8.12981 12.1906 8.31786 12.1121 8.53689 12.1121H13.6394C13.8584 12.1121 14.0465 12.1906 14.2036 12.3475C14.3605 12.5046 14.439 12.6927 14.439 12.9117C14.439 13.1307 14.3605 13.3188 14.2036 13.4759C14.0465 13.6328 13.8584 13.7113 13.6394 13.7113H8.53689ZM3.53689 7.88755C3.31786 7.88755 3.1298 7.80907 2.97272 7.65213C2.81578 7.49505 2.7373 7.30699 2.7373 7.08796C2.7373 6.86893 2.81578 6.68088 2.97272 6.5238C3.1298 6.36685 3.31786 6.28838 3.53689 6.28838H13.6394C13.8584 6.28838 14.0465 6.36685 14.2036 6.5238C14.3605 6.68088 14.439 6.86893 14.439 7.08796C14.439 7.30699 14.3605 7.49505 14.2036 7.65213C14.0465 7.80907 13.8584 7.88755 13.6394 7.88755H3.53689Z" fill="#1C1B1F"/>
</g>
</svg>
