<svg width="20" height="20" viewBox="0 0 20 20" fill="none" xmlns="http://www.w3.org/2000/svg">
<mask id="mask0_20_4964" style="mask-type:alpha" maskUnits="userSpaceOnUse" x="0" y="0" width="20" height="20">
<rect width="20" height="20" fill="#D9D9D9"/>
</mask>
<g mask="url(#mask0_20_4964)">
<path d="M7.04796 16.5832C6.82893 16.5832 6.64088 16.5046 6.4838 16.3475C6.32671 16.1905 6.24817 16.0024 6.24817 15.7834V10.5415H2.95817C2.8047 10.5415 2.67609 10.49 2.57234 10.3869C2.46845 10.2839 2.4165 10.1562 2.4165 10.004C2.4165 9.85164 2.46845 9.72261 2.57234 9.61692C2.67609 9.51109 2.8047 9.45817 2.95817 9.45817H6.24817V4.2163C6.24817 3.99727 6.32671 3.80921 6.4838 3.65213C6.64088 3.49505 6.82893 3.4165 7.04796 3.4165C7.26699 3.4165 7.45498 3.49505 7.61192 3.65213C7.769 3.80921 7.84755 3.99727 7.84755 4.2163V9.45817H11.6521V6.4663C11.6521 6.24727 11.7307 6.05921 11.8878 5.90213C12.0447 5.74505 12.2327 5.6665 12.4517 5.6665C12.6707 5.6665 12.8588 5.74505 13.0159 5.90213C13.173 6.05921 13.2515 6.24727 13.2515 6.4663V9.45817H17.0415C17.195 9.45817 17.3236 9.5097 17.4273 9.61275C17.5312 9.71581 17.5832 9.84345 17.5832 9.99567C17.5832 10.148 17.5312 10.2771 17.4273 10.3828C17.3236 10.4886 17.195 10.5415 17.0415 10.5415H13.2515V13.5334C13.2515 13.7524 13.173 13.9405 13.0159 14.0975C12.8588 14.2546 12.6707 14.3332 12.4517 14.3332C12.2327 14.3332 12.0447 14.2546 11.8878 14.0975C11.7307 13.9405 11.6521 13.7524 11.6521 13.5334V10.5415H7.84755V15.7834C7.84755 16.0024 7.769 16.1905 7.61192 16.3475C7.45498 16.5046 7.26699 16.5832 7.04796 16.5832Z" fill="#1C1B1F"/>
</g>
</svg>
