<svg width="20" height="20" viewBox="0 0 20 20" fill="none" xmlns="http://www.w3.org/2000/svg">
<mask id="mask0_213_18697" style="mask-type:alpha" maskUnits="userSpaceOnUse" x="0" y="0" width="20" height="20">
<rect width="20" height="20" fill="#D9D9D9"/>
</mask>
<g mask="url(#mask0_213_18697)">
<path d="M10.2084 10.9373L14.7036 7.99984L10.2084 5.06234V10.9373ZM13.9184 15.2755H15.0994C15.1058 15.5287 15.0164 15.7568 14.8311 15.9598C14.6457 16.1628 14.429 16.2797 14.1811 16.3107L5.09632 17.559C4.73618 17.604 4.40819 17.5127 4.11236 17.285C3.81639 17.0575 3.64326 16.7637 3.59298 16.4036L2.42486 7.97109C2.37458 7.59859 2.46243 7.26345 2.6884 6.96567C2.91437 6.66789 3.2143 6.49657 3.58819 6.45171L4.72444 6.33796V7.44213L3.75653 7.54317C3.68166 7.54845 3.62291 7.57914 3.58028 7.63525C3.5375 7.69137 3.52146 7.75678 3.53215 7.8315L4.65548 16.2434C4.66618 16.3182 4.69826 16.377 4.75173 16.4196C4.80507 16.4624 4.86916 16.4784 4.94403 16.4678L13.9184 15.2755ZM7.56423 13.7755C7.14326 13.7755 6.81472 13.6574 6.57861 13.4213C6.3425 13.1852 6.22444 12.8566 6.22444 12.4357V3.7563C6.22444 3.33532 6.3425 3.00678 6.57861 2.77067C6.81472 2.53456 7.14326 2.4165 7.56423 2.4165H16.2436C16.6646 2.4165 16.9931 2.53456 17.2292 2.77067C17.4653 3.00678 17.5834 3.33532 17.5834 3.7563V12.4357C17.5834 12.8566 17.4653 13.1852 17.2292 13.4213C16.9931 13.6574 16.6646 13.7755 16.2436 13.7755H7.56423ZM7.56423 12.6921H16.2436C16.3185 12.6921 16.3799 12.6681 16.428 12.62C16.476 12.572 16.5001 12.5105 16.5001 12.4357V3.7563C16.5001 3.68143 16.476 3.61998 16.428 3.57192C16.3799 3.52387 16.3185 3.49984 16.2436 3.49984H7.56423C7.48937 3.49984 7.42791 3.52387 7.37986 3.57192C7.3318 3.61998 7.30778 3.68143 7.30778 3.7563V12.4357C7.30778 12.5105 7.3318 12.572 7.37986 12.62C7.42791 12.6681 7.48937 12.6921 7.56423 12.6921Z" fill="#1C1B1F"/>
</g>
</svg>
