<svg width="20" height="20" viewBox="0 0 20 20" fill="none" xmlns="http://www.w3.org/2000/svg">
<mask id="mask0_2622_3691" style="mask-type:alpha" maskUnits="userSpaceOnUse" x="0" y="0" width="20" height="20">
<rect width="20" height="20" fill="#D9D9D9"/>
</mask>
<g mask="url(#mask0_2622_3691)">
<path d="M6.875 10.7498L10.546 14.4209C10.6959 14.5707 10.7708 14.7464 10.7708 14.9478C10.7708 15.1491 10.6944 15.3296 10.5417 15.489C10.3889 15.6351 10.2118 15.7082 10.0104 15.7082C9.80903 15.7082 9.63326 15.633 9.48313 15.4828L4.52917 10.5225C4.45417 10.4474 4.39931 10.366 4.36458 10.2784C4.32986 10.1907 4.3125 10.0968 4.3125 9.9965C4.3125 9.89637 4.32986 9.80241 4.36458 9.71463C4.39931 9.62699 4.45139 9.54845 4.52083 9.479L9.47917 4.52067C9.63194 4.36789 9.81021 4.2915 10.014 4.2915C10.2176 4.2915 10.3935 4.36789 10.5417 4.52067C10.6944 4.66887 10.7708 4.84477 10.7708 5.04838C10.7708 5.25213 10.6956 5.42928 10.545 5.57984L6.875 9.24984H15.2504C15.4628 9.24984 15.6408 9.3213 15.7846 9.46421C15.9282 9.60713 16 9.78421 16 9.99546C16 10.2067 15.9282 10.3853 15.7846 10.5311C15.6408 10.6769 15.4628 10.7498 15.2504 10.7498H6.875Z" fill="#1C1B1F"/>
</g>
</svg>
