<svg width="20" height="20" viewBox="0 0 20 20" fill="none" xmlns="http://www.w3.org/2000/svg">
<mask id="mask0_2615_3723" style="mask-type:alpha" maskUnits="userSpaceOnUse" x="0" y="0" width="20" height="20">
<rect width="20" height="20" fill="#D9D9D9"/>
</mask>
<g mask="url(#mask0_2615_3723)">
<path d="M13.125 10.4583H4.74958C4.53722 10.4583 4.35917 10.3869 4.21542 10.244C4.07181 10.101 4 9.92396 4 9.71271C4 9.50146 4.07181 9.32292 4.21542 9.17708C4.35917 9.03125 4.53722 8.95833 4.74958 8.95833H13.125L9.45396 5.28729C9.3041 5.13743 9.22917 4.96181 9.22917 4.76042C9.22917 4.55903 9.30556 4.37861 9.45833 4.21917C9.61111 4.07306 9.78819 4 9.98958 4C10.191 4 10.3667 4.07514 10.5169 4.22542L15.4708 9.18563C15.5458 9.26076 15.6007 9.34215 15.6354 9.42979C15.6701 9.51743 15.6875 9.61139 15.6875 9.71167C15.6875 9.81181 15.6701 9.90576 15.6354 9.99354C15.6007 10.0812 15.5486 10.1597 15.4792 10.2292L10.5208 15.1875C10.3681 15.3403 10.1944 15.4132 10 15.4062C9.80556 15.3993 9.63194 15.3228 9.47917 15.1767C9.32639 15.0172 9.25 14.8356 9.25 14.6319C9.25 14.4283 9.32639 14.2524 9.47917 14.1042L13.125 10.4583Z" fill="#1C1B1F"/>
</g>
</svg>
