<svg width="20" height="20" viewBox="0 0 20 20" fill="none" xmlns="http://www.w3.org/2000/svg">
<mask id="mask0_2622_3990" style="mask-type:alpha" maskUnits="userSpaceOnUse" x="0" y="0" width="20" height="20">
<rect width="20" height="20" fill="#D9D9D9"/>
</mask>
<g mask="url(#mask0_2622_3990)">
<path d="M7.84577 10L12.7562 5.35165C12.9187 5.1978 13 5.01099 13 4.79121C13 4.57143 12.9187 4.38462 12.7562 4.23077C12.5937 4.07692 12.3964 4 12.1642 4C11.932 4 11.7347 4.07692 11.5721 4.23077L6.36567 9.15934C6.23798 9.28022 6.14511 9.41209 6.08706 9.55495C6.02902 9.6978 6 9.84615 6 10C6 10.1538 6.02902 10.3022 6.08706 10.4451C6.14511 10.5879 6.23798 10.7198 6.36567 10.8407L11.5721 15.7692C11.7347 15.9231 11.932 16 12.1642 16C12.3964 16 12.5937 15.9231 12.7562 15.7692C12.9187 15.6154 13 15.4286 13 15.2088C13 14.989 12.9187 14.8022 12.7562 14.6484L7.84577 10Z" fill="#1C1B1F"/>
</g>
</svg>
