<svg width="20" height="20" viewBox="0 0 20 20" fill="none" xmlns="http://www.w3.org/2000/svg">
<mask id="mask0_412_25425" style="mask-type:alpha" maskUnits="userSpaceOnUse" x="0" y="0" width="20" height="20">
<rect width="20" height="20" fill="#D9D9D9"/>
</mask>
<g mask="url(#mask0_412_25425)">
<path d="M10.0013 17.5832C8.96185 17.5832 7.98123 17.3858 7.05942 16.9911C6.13761 16.5964 5.33081 16.0532 4.639 15.3617C3.9472 14.6702 3.4038 13.8637 3.0088 12.9423C2.61393 12.0209 2.4165 11.0406 2.4165 10.0013C2.4165 8.94796 2.61387 7.96386 3.00859 7.049C3.40331 6.13414 3.94643 5.33081 4.63796 4.639C5.32949 3.9472 6.13595 3.4038 7.05734 3.0088C7.97873 2.61393 8.95907 2.4165 9.99838 2.4165C11.0517 2.4165 12.0358 2.61386 12.9507 3.00859C13.8655 3.40331 14.6689 3.94643 15.3607 4.63796C16.0525 5.32949 16.5959 6.13248 16.9909 7.04692C17.3857 7.96137 17.5832 8.94518 17.5832 9.99838C17.5832 11.0378 17.3858 12.0184 16.9911 12.9403C16.5964 13.8621 16.0532 14.6689 15.3617 15.3607C14.6702 16.0525 13.8672 16.5959 12.9528 16.9909C12.0383 17.3857 11.0545 17.5832 10.0013 17.5832ZM9.99984 16.4998C10.7955 16.4998 11.5484 16.3641 12.2586 16.0928C12.9686 15.8214 13.6094 15.4421 14.1809 14.955L5.04463 5.8188C4.56282 6.39032 4.18491 7.03109 3.91088 7.74109C3.63685 8.45123 3.49984 9.20414 3.49984 9.99984C3.49984 11.8054 4.13178 13.3401 5.39567 14.604C6.65956 15.8679 8.19428 16.4998 9.99984 16.4998ZM14.955 14.1809C15.4421 13.6094 15.8214 12.9686 16.0928 12.2586C16.3641 11.5484 16.4998 10.7955 16.4998 9.99984C16.4998 8.19428 15.8679 6.65956 14.604 5.39567C13.3401 4.13178 11.8054 3.49984 9.99984 3.49984C9.2022 3.49984 8.44748 3.63421 7.73567 3.90296C7.024 4.17157 6.38505 4.55213 5.8188 5.04463L14.955 14.1809Z" fill="#1C1B1F"/>
</g>
</svg>
