<svg width="20" height="20" viewBox="0 0 20 20" fill="none" xmlns="http://www.w3.org/2000/svg">
<mask id="mask0_543_26814" style="mask-type:alpha" maskUnits="userSpaceOnUse" x="0" y="0" width="20" height="20">
<rect width="20" height="20" fill="#D9D9D9"/>
</mask>
<g mask="url(#mask0_543_26814)">
<path d="M15.9893 15.4039C16.1552 15.4039 16.2956 15.46 16.4108 15.5722C16.5259 15.6845 16.5835 15.8235 16.5835 15.9893C16.5835 16.1552 16.5274 16.2956 16.4152 16.4108C16.3029 16.5259 16.1639 16.5835 15.9981 16.5835C15.8322 16.5835 15.6918 16.5274 15.5766 16.4152C15.4615 16.3029 15.4039 16.1639 15.4039 15.9981C15.4039 15.8322 15.46 15.6918 15.5722 15.5766C15.6845 15.4615 15.8235 15.4039 15.9893 15.4039ZM12.9927 15.4039C13.1585 15.4039 13.2989 15.46 13.4139 15.5722C13.5291 15.6845 13.5866 15.8235 13.5866 15.9893C13.5866 16.1552 13.5306 16.2956 13.4185 16.4108C13.3063 16.5259 13.1672 16.5835 13.0014 16.5835C12.8356 16.5835 12.6951 16.5274 12.58 16.4152C12.4648 16.3029 12.4072 16.1639 12.4072 15.9981C12.4072 15.8322 12.4634 15.6918 12.5756 15.5766C12.6877 15.4615 12.8267 15.4039 12.9927 15.4039ZM9.99579 15.4039C10.1616 15.4039 10.3021 15.46 10.4172 15.5722C10.5324 15.6845 10.59 15.8235 10.59 15.9893C10.59 16.1552 10.5338 16.2956 10.4216 16.4108C10.3094 16.5259 10.1704 16.5835 10.0045 16.5835C9.8387 16.5835 9.69822 16.5274 9.58308 16.4152C9.46794 16.3029 9.41037 16.1639 9.41037 15.9981C9.41037 15.8322 9.46648 15.6918 9.5787 15.5766C9.69093 15.4615 9.82995 15.4039 9.99579 15.4039ZM6.99891 15.4039C7.16475 15.4039 7.30523 15.46 7.42037 15.5722C7.53551 15.6845 7.59308 15.8235 7.59308 15.9893C7.59308 16.1552 7.53697 16.2956 7.42475 16.4108C7.31266 16.5259 7.17363 16.5835 7.00766 16.5835C6.84183 16.5835 6.70141 16.5274 6.58641 16.4152C6.47127 16.3029 6.4137 16.1639 6.4137 15.9981C6.4137 15.8322 6.46975 15.6918 6.58183 15.5766C6.69405 15.4615 6.83308 15.4039 6.99891 15.4039ZM4.00224 15.4039C4.16808 15.4039 4.30857 15.46 4.4237 15.5722C4.53884 15.6845 4.59641 15.8235 4.59641 15.9893C4.59641 16.1552 4.5403 16.2956 4.42808 16.4108C4.31586 16.5259 4.17683 16.5835 4.011 16.5835C3.84516 16.5835 3.70468 16.5274 3.58954 16.4152C3.4744 16.3029 3.41683 16.1639 3.41683 15.9981C3.41683 15.8322 3.47294 15.6918 3.58516 15.5766C3.69739 15.4615 3.83641 15.4039 4.00224 15.4039ZM15.9893 12.4072C16.1552 12.4072 16.2956 12.4634 16.4108 12.5756C16.5259 12.6877 16.5835 12.8267 16.5835 12.9927C16.5835 13.1585 16.5274 13.2989 16.4152 13.4139C16.3029 13.5291 16.1639 13.5866 15.9981 13.5866C15.8322 13.5866 15.6918 13.5306 15.5766 13.4185C15.4615 13.3063 15.4039 13.1672 15.4039 13.0014C15.4039 12.8356 15.46 12.6951 15.5722 12.58C15.6845 12.4648 15.8235 12.4072 15.9893 12.4072ZM4.00224 12.4072C4.16808 12.4072 4.30857 12.4634 4.4237 12.5756C4.53884 12.6877 4.59641 12.8267 4.59641 12.9927C4.59641 13.1585 4.5403 13.2989 4.42808 13.4139C4.31586 13.5291 4.17683 13.5866 4.011 13.5866C3.84516 13.5866 3.70468 13.5306 3.58954 13.4185C3.4744 13.3063 3.41683 13.1672 3.41683 13.0014C3.41683 12.8356 3.47294 12.6951 3.58516 12.58C3.69739 12.4648 3.83641 12.4072 4.00224 12.4072ZM15.9893 9.41037C16.1552 9.41037 16.2956 9.46648 16.4108 9.5787C16.5259 9.69093 16.5835 9.82995 16.5835 9.99579C16.5835 10.1616 16.5274 10.3021 16.4152 10.4172C16.3029 10.5324 16.1639 10.59 15.9981 10.59C15.8322 10.59 15.6918 10.5338 15.5766 10.4216C15.4615 10.3094 15.4039 10.1704 15.4039 10.0045C15.4039 9.8387 15.46 9.69822 15.5722 9.58308C15.6845 9.46794 15.8235 9.41037 15.9893 9.41037ZM4.00224 9.41037C4.16808 9.41037 4.30857 9.46648 4.4237 9.5787C4.53884 9.69093 4.59641 9.82995 4.59641 9.99579C4.59641 10.1616 4.5403 10.3021 4.42808 10.4172C4.31586 10.5324 4.17683 10.59 4.011 10.59C3.84516 10.59 3.70468 10.5338 3.58954 10.4216C3.4744 10.3094 3.41683 10.1704 3.41683 10.0045C3.41683 9.8387 3.47294 9.69822 3.58516 9.58308C3.69739 9.46794 3.83641 9.41037 4.00224 9.41037ZM15.9893 6.4137C16.1552 6.4137 16.2956 6.46975 16.4108 6.58183C16.5259 6.69405 16.5835 6.83308 16.5835 6.99891C16.5835 7.16475 16.5274 7.30523 16.4152 7.42037C16.3029 7.53551 16.1639 7.59308 15.9981 7.59308C15.8322 7.59308 15.6918 7.53697 15.5766 7.42475C15.4615 7.31266 15.4039 7.17363 15.4039 7.00766C15.4039 6.84183 15.46 6.70141 15.5722 6.58641C15.6845 6.47127 15.8235 6.4137 15.9893 6.4137ZM4.00224 6.4137C4.16808 6.4137 4.30857 6.46975 4.4237 6.58183C4.53884 6.69405 4.59641 6.83308 4.59641 6.99891C4.59641 7.16475 4.5403 7.30523 4.42808 7.42037C4.31586 7.53551 4.17683 7.59308 4.011 7.59308C3.84516 7.59308 3.70468 7.53697 3.58954 7.42475C3.4744 7.31266 3.41683 7.17363 3.41683 7.00766C3.41683 6.84183 3.47294 6.70141 3.58516 6.58641C3.69739 6.47127 3.83641 6.4137 4.00224 6.4137ZM16.0418 3.41683C16.1953 3.41683 16.3239 3.46836 16.4277 3.57141C16.5316 3.67447 16.5835 3.80211 16.5835 3.95433C16.5835 4.10669 16.5316 4.23572 16.4277 4.34141C16.3239 4.44725 16.1953 4.50016 16.0418 4.50016L3.9585 4.50016C3.80502 4.50016 3.67641 4.44864 3.57266 4.34558C3.46877 4.24252 3.41683 4.11489 3.41683 3.96266C3.41683 3.8103 3.46877 3.68127 3.57266 3.57558C3.67641 3.46975 3.80502 3.41683 3.9585 3.41683L16.0418 3.41683Z" fill="#1C1B1F"/>
</g>
</svg>
