<svg width="20" height="20" viewBox="0 0 20 20" fill="none" xmlns="http://www.w3.org/2000/svg">
<mask id="mask0_543_26818" style="mask-type:alpha" maskUnits="userSpaceOnUse" x="0" y="0" width="20" height="20">
<rect width="20" height="20" fill="#D9D9D9"/>
</mask>
<g mask="url(#mask0_543_26818)">
<path d="M4.59609 15.989C4.59609 16.1548 4.53998 16.2953 4.42775 16.4105C4.31553 16.5256 4.1765 16.5832 4.01067 16.5832C3.84484 16.5832 3.70435 16.5271 3.58921 16.4148C3.47407 16.3026 3.4165 16.1636 3.4165 15.9978C3.4165 15.8319 3.47262 15.6914 3.58484 15.5763C3.69706 15.4612 3.83609 15.4036 4.00192 15.4036C4.16775 15.4036 4.30824 15.4597 4.42338 15.5719C4.53852 15.6841 4.59609 15.8232 4.59609 15.989ZM4.59609 12.9923C4.59609 13.1582 4.53998 13.2986 4.42775 13.4136C4.31553 13.5287 4.1765 13.5863 4.01067 13.5863C3.84484 13.5863 3.70435 13.5303 3.58921 13.4182C3.47407 13.3059 3.4165 13.1669 3.4165 13.0011C3.4165 12.8353 3.47262 12.6948 3.58484 12.5796C3.69706 12.4645 3.83609 12.4069 4.00192 12.4069C4.16775 12.4069 4.30824 12.463 4.42338 12.5753C4.53852 12.6873 4.59609 12.8264 4.59609 12.9923ZM4.59609 9.99546C4.59609 10.1613 4.53998 10.3018 4.42775 10.4169C4.31553 10.5321 4.1765 10.5896 4.01067 10.5896C3.84484 10.5896 3.70435 10.5335 3.58921 10.4213C3.47407 10.3091 3.4165 10.17 3.4165 10.0042C3.4165 9.83838 3.47262 9.69789 3.58484 9.58275C3.69706 9.46762 3.83609 9.41005 4.00192 9.41005C4.16775 9.41005 4.30824 9.46616 4.42338 9.57838C4.53852 9.6906 4.59609 9.82963 4.59609 9.99546ZM4.59609 6.99859C4.59609 7.16442 4.53998 7.30491 4.42775 7.42005C4.31553 7.53518 4.1765 7.59275 4.01067 7.59275C3.84484 7.59275 3.70435 7.53664 3.58921 7.42442C3.47407 7.31234 3.4165 7.17331 3.4165 7.00734C3.4165 6.8415 3.47262 6.70109 3.58484 6.58609C3.69706 6.47095 3.83609 6.41338 4.00192 6.41338C4.16775 6.41338 4.30824 6.46942 4.42338 6.5815C4.53852 6.69373 4.59609 6.83275 4.59609 6.99859ZM4.59609 4.00192C4.59609 4.16775 4.53998 4.30824 4.42775 4.42338C4.31553 4.53852 4.1765 4.59609 4.01067 4.59609C3.84484 4.59609 3.70435 4.53998 3.58921 4.42775C3.47407 4.31553 3.4165 4.1765 3.4165 4.01067C3.4165 3.84484 3.47262 3.70435 3.58484 3.58921C3.69706 3.47407 3.83609 3.4165 4.00192 3.4165C4.16775 3.4165 4.30824 3.47262 4.42338 3.58484C4.53852 3.69706 4.59609 3.83609 4.59609 4.00192ZM7.59275 15.989C7.59275 16.1548 7.53664 16.2953 7.42442 16.4105C7.31234 16.5256 7.17331 16.5832 7.00734 16.5832C6.8415 16.5832 6.70109 16.5271 6.58609 16.4148C6.47095 16.3026 6.41338 16.1636 6.41338 15.9978C6.41338 15.8319 6.46942 15.6914 6.5815 15.5763C6.69373 15.4612 6.83275 15.4036 6.99859 15.4036C7.16442 15.4036 7.30491 15.4597 7.42005 15.5719C7.53518 15.6841 7.59275 15.8232 7.59275 15.989ZM7.59275 4.00192C7.59275 4.16775 7.53664 4.30824 7.42442 4.42338C7.31234 4.53852 7.17331 4.59609 7.00734 4.59609C6.8415 4.59609 6.70109 4.53998 6.58609 4.42775C6.47095 4.31553 6.41338 4.1765 6.41338 4.01067C6.41338 3.84484 6.46942 3.70435 6.5815 3.58921C6.69373 3.47407 6.83275 3.4165 6.99859 3.4165C7.16442 3.4165 7.30491 3.47262 7.42005 3.58484C7.53518 3.69706 7.59275 3.83609 7.59275 4.00192ZM10.5896 15.989C10.5896 16.1548 10.5335 16.2953 10.4213 16.4105C10.3091 16.5256 10.17 16.5832 10.0042 16.5832C9.83838 16.5832 9.69789 16.5271 9.58275 16.4148C9.46762 16.3026 9.41005 16.1636 9.41005 15.9978C9.41005 15.8319 9.46616 15.6914 9.57838 15.5763C9.6906 15.4612 9.82963 15.4036 9.99546 15.4036C10.1613 15.4036 10.3018 15.4597 10.4169 15.5719C10.5321 15.6841 10.5896 15.8232 10.5896 15.989ZM10.5896 4.00192C10.5896 4.16775 10.5335 4.30824 10.4213 4.42338C10.3091 4.53852 10.17 4.59609 10.0042 4.59609C9.83838 4.59609 9.69789 4.53998 9.58275 4.42775C9.46762 4.31553 9.41005 4.1765 9.41005 4.01067C9.41005 3.84484 9.46616 3.70435 9.57838 3.58921C9.6906 3.47407 9.82963 3.4165 9.99546 3.4165C10.1613 3.4165 10.3018 3.47262 10.4169 3.58484C10.5321 3.69706 10.5896 3.83609 10.5896 4.00192ZM13.5863 15.989C13.5863 16.1548 13.5303 16.2953 13.4182 16.4105C13.3059 16.5256 13.1669 16.5832 13.0011 16.5832C12.8353 16.5832 12.6948 16.5271 12.5796 16.4148C12.4645 16.3026 12.4069 16.1636 12.4069 15.9978C12.4069 15.8319 12.463 15.6914 12.5753 15.5763C12.6873 15.4612 12.8264 15.4036 12.9923 15.4036C13.1582 15.4036 13.2986 15.4597 13.4136 15.5719C13.5287 15.6841 13.5863 15.8232 13.5863 15.989ZM13.5863 4.00192C13.5863 4.16775 13.5303 4.30824 13.4182 4.42338C13.3059 4.53852 13.1669 4.59609 13.0011 4.59609C12.8353 4.59609 12.6948 4.53998 12.5796 4.42775C12.4645 4.31553 12.4069 4.1765 12.4069 4.01067C12.4069 3.84484 12.463 3.70435 12.5753 3.58921C12.6873 3.47407 12.8264 3.4165 12.9923 3.4165C13.1582 3.4165 13.2986 3.47262 13.4136 3.58484C13.5287 3.69706 13.5863 3.83609 13.5863 4.00192ZM16.5832 16.0415C16.5832 16.195 16.5316 16.3236 16.4286 16.4273C16.3255 16.5312 16.1979 16.5832 16.0457 16.5832C15.8933 16.5832 15.7643 16.5312 15.6586 16.4273C15.5528 16.3236 15.4998 16.195 15.4998 16.0415L15.4998 3.95817C15.4998 3.8047 15.5514 3.67609 15.6544 3.57234C15.7575 3.46845 15.8851 3.4165 16.0373 3.4165C16.1897 3.4165 16.3187 3.46845 16.4244 3.57234C16.5303 3.67609 16.5832 3.8047 16.5832 3.95817L16.5832 16.0415Z" fill="#1C1B1F"/>
</g>
</svg>
