<svg width="20" height="20" viewBox="0 0 20 20" fill="none" xmlns="http://www.w3.org/2000/svg">
<mask id="mask0_577_24774" style="mask-type:alpha" maskUnits="userSpaceOnUse" x="0" y="0" width="20" height="20">
<rect width="20" height="20" fill="#D9D9D9"/>
</mask>
<g mask="url(#mask0_577_24774)">
<path d="M3.95817 13.6122C3.8047 13.6122 3.67609 13.6636 3.57234 13.7666C3.46845 13.8696 3.4165 13.9973 3.4165 14.1497C3.4165 14.3019 3.46845 14.4309 3.57234 14.5368C3.67609 14.6425 3.8047 14.6953 3.95817 14.6953H16.0415C16.195 14.6953 16.3236 14.6439 16.4273 14.5409C16.5312 14.4379 16.5832 14.3102 16.5832 14.1578C16.5832 14.0056 16.5312 13.8766 16.4273 13.7707C16.3236 13.665 16.195 13.6122 16.0415 13.6122H3.95817Z" fill="#1C1B1F"/>
<path d="M6.1588 5.45887C6.26463 5.35596 6.39421 5.3045 6.54755 5.3045H13.6255C13.7787 5.3045 13.9071 5.35735 14.0109 5.46304C14.1146 5.56887 14.1665 5.6979 14.1665 5.85012C14.1665 6.00249 14.1135 6.13019 14.0075 6.23325C13.9017 6.33617 13.7721 6.38762 13.6188 6.38762H6.54088C6.38769 6.38762 6.25921 6.33478 6.15546 6.22908C6.05171 6.12325 5.99984 5.99422 5.99984 5.842C5.99984 5.68964 6.05282 5.56193 6.1588 5.45887Z" fill="#1C1B1F"/>
<path d="M6.1588 9.61283C6.26463 9.50978 6.39421 9.45825 6.54755 9.45825H13.6255C13.7787 9.45825 13.9071 9.51117 14.0109 9.617C14.1146 9.72269 14.1665 9.85172 14.1665 10.0041C14.1665 10.1563 14.1135 10.2839 14.0075 10.387C13.9017 10.4901 13.7721 10.5416 13.6188 10.5416H6.54088C6.38769 10.5416 6.25921 10.4887 6.15546 10.3828C6.05171 10.2771 5.99984 10.1481 5.99984 9.99575C5.99984 9.84353 6.05282 9.71589 6.1588 9.61283Z" fill="#1C1B1F"/>
</g>
</svg>
