<svg width="20" height="20" viewBox="0 0 20 20" fill="none" xmlns="http://www.w3.org/2000/svg">
<mask id="mask0_577_24773" style="mask-type:alpha" maskUnits="userSpaceOnUse" x="0" y="0" width="20" height="20">
<rect width="20" height="20" fill="#D9D9D9"/>
</mask>
<g mask="url(#mask0_577_24773)">
<path d="M8.96421 5.30448C8.81088 5.30448 8.6813 5.35594 8.57546 5.45885C8.46949 5.56191 8.4165 5.68962 8.4165 5.84198C8.4165 5.9942 8.46838 6.12323 8.57213 6.22906C8.67588 6.33476 8.80435 6.3876 8.95755 6.3876H16.0355C16.1888 6.3876 16.3184 6.33615 16.4242 6.23323C16.5302 6.13017 16.5832 6.00246 16.5832 5.8501C16.5832 5.69788 16.5313 5.56885 16.4275 5.46302C16.3238 5.35733 16.1953 5.30448 16.0421 5.30448H8.96421ZM8.96421 9.45823C8.81088 9.45823 8.6813 9.50976 8.57546 9.61281C8.46949 9.71587 8.4165 9.84351 8.4165 9.99573C8.4165 10.1481 8.46838 10.2771 8.57213 10.3828C8.67588 10.4886 8.80435 10.5416 8.95755 10.5416H16.0355C16.1888 10.5416 16.3184 10.49 16.4242 10.387C16.5302 10.2839 16.5832 10.1563 16.5832 10.0041C16.5832 9.8517 16.5313 9.72267 16.4275 9.61698C16.3238 9.51115 16.1953 9.45823 16.0421 9.45823H8.96421ZM3.95817 13.6122C3.8047 13.6122 3.67609 13.6636 3.57234 13.7666C3.46845 13.8696 3.4165 13.9973 3.4165 14.1497C3.4165 14.3019 3.46845 14.4309 3.57234 14.5368C3.67609 14.6425 3.8047 14.6953 3.95817 14.6953H16.0415C16.195 14.6953 16.3236 14.6439 16.4273 14.5409C16.5312 14.4379 16.5832 14.3102 16.5832 14.1578C16.5832 14.0056 16.5312 13.8766 16.4273 13.7707C16.3236 13.665 16.195 13.6122 16.0415 13.6122H3.95817Z" fill="#1C1B1F"/>
</g>
</svg>
