<svg width="20" height="20" viewBox="0 0 20 20" fill="none" xmlns="http://www.w3.org/2000/svg">
<mask id="mask0_577_24775" style="mask-type:alpha" maskUnits="userSpaceOnUse" x="0" y="0" width="20" height="20">
<rect width="20" height="20" fill="#D9D9D9"/>
</mask>
<g mask="url(#mask0_577_24775)">
<path d="M11.0355 5.30448C11.1888 5.30448 11.3184 5.35594 11.4242 5.45885C11.5302 5.56191 11.5832 5.68962 11.5832 5.84198C11.5832 5.9942 11.5313 6.12323 11.4275 6.22906C11.3238 6.33476 11.1953 6.3876 11.0421 6.3876H3.96421C3.81088 6.3876 3.6813 6.33615 3.57546 6.23323C3.46949 6.13017 3.4165 6.00246 3.4165 5.8501C3.4165 5.69788 3.46838 5.56885 3.57213 5.46302C3.67588 5.35733 3.80435 5.30448 3.95755 5.30448H11.0355ZM11.0355 9.45823C11.1888 9.45823 11.3184 9.50976 11.4242 9.61281C11.5302 9.71587 11.5832 9.84351 11.5832 9.99573C11.5832 10.1481 11.5313 10.2771 11.4275 10.3828C11.3238 10.4886 11.1953 10.5416 11.0421 10.5416H3.96421C3.81088 10.5416 3.6813 10.49 3.57546 10.387C3.46949 10.2839 3.4165 10.1563 3.4165 10.0041C3.4165 9.8517 3.46838 9.72267 3.57213 9.61698C3.67588 9.51115 3.80435 9.45823 3.95755 9.45823H11.0355ZM16.0415 13.6122C16.195 13.6122 16.3236 13.6636 16.4273 13.7666C16.5312 13.8696 16.5832 13.9973 16.5832 14.1497C16.5832 14.3019 16.5312 14.4309 16.4273 14.5368C16.3236 14.6425 16.195 14.6953 16.0415 14.6953H3.95817C3.8047 14.6953 3.67609 14.6439 3.57234 14.5409C3.46845 14.4379 3.4165 14.3102 3.4165 14.1578C3.4165 14.0056 3.46845 13.8766 3.57234 13.7707C3.67609 13.665 3.8047 13.6122 3.95817 13.6122H16.0415Z" fill="#1C1B1F"/>
</g>
</svg>
