<svg width="20" height="20" viewBox="0 0 20 20" fill="none" xmlns="http://www.w3.org/2000/svg">
<mask id="mask0_160_22495" style="mask-type:alpha" maskUnits="userSpaceOnUse" x="0" y="0" width="20" height="20">
<rect width="20" height="20" fill="#D9D9D9"/>
</mask>
<g mask="url(#mask0_160_22495)">
<path d="M4.49984 6.91963V15.2434C4.49984 15.3182 4.52387 15.3797 4.57192 15.4278C4.61998 15.4758 4.68143 15.4998 4.7563 15.4998H15.2434C15.3182 15.4998 15.3797 15.4758 15.4278 15.4278C15.4758 15.3797 15.4998 15.3182 15.4998 15.2434V6.91963H12.5832V11.3261C12.5832 11.5816 12.4777 11.7746 12.2667 11.905C12.0557 12.0355 11.8385 12.0435 11.615 11.9292L9.99755 11.1248L8.38005 11.9292C8.15657 12.0435 7.94011 12.0355 7.73067 11.905C7.52123 11.7746 7.4165 11.5816 7.4165 11.3261V6.91963H4.49984ZM4.7563 16.5832C4.38657 16.5832 4.07081 16.4523 3.809 16.1907C3.54734 15.9289 3.4165 15.6131 3.4165 15.2434V6.02546C3.4165 5.84713 3.45032 5.67699 3.51796 5.51505C3.58546 5.35324 3.68678 5.20393 3.82192 5.06713L5.07525 3.79796C5.21192 3.66116 5.3581 3.56338 5.5138 3.50463C5.66949 3.44588 5.8347 3.4165 6.00942 3.4165H13.9742C14.1489 3.4165 14.3155 3.44588 14.4738 3.50463C14.6321 3.56338 14.7797 3.66116 14.9165 3.79796L16.1778 5.08317C16.3129 5.21998 16.4142 5.3706 16.4817 5.53505C16.5494 5.69963 16.5832 5.87116 16.5832 6.04963V15.2434C16.5832 15.6131 16.4523 15.9289 16.1907 16.1907C15.9289 16.4523 15.6131 16.5832 15.2434 16.5832H4.7563ZM4.61692 5.8365H15.3748L14.1744 4.58796C14.1478 4.5613 14.1171 4.53991 14.0823 4.5238C14.0476 4.50782 14.0116 4.49984 13.9742 4.49984H6.01755C5.98018 4.49984 5.94407 4.50782 5.90921 4.5238C5.87449 4.53991 5.8438 4.5613 5.81713 4.58796L4.61692 5.8365ZM8.49984 6.91963V10.6505L9.99984 9.90046L11.4998 10.6505V6.91963H8.49984Z" fill="#1C1B1F"/>
</g>
</svg>
