<svg width="20" height="20" viewBox="0 0 20 20" fill="none" xmlns="http://www.w3.org/2000/svg">
<mask id="mask0_614_26778" style="mask-type:alpha" maskUnits="userSpaceOnUse" x="0" y="0" width="20" height="20">
<rect width="20" height="20" fill="#D9D9D9"/>
</mask>
<g mask="url(#mask0_614_26778)">
<path d="M3.4165 10.4998V4.75067C3.4165 4.37511 3.54845 4.05887 3.81234 3.80192C4.07623 3.54498 4.39088 3.4165 4.7563 3.4165H9.24984V10.4998H3.4165ZM10.7498 3.4165H15.2434C15.6185 3.4165 15.9356 3.54602 16.1946 3.80505C16.4537 4.06407 16.5832 4.38206 16.5832 4.759V7.99984H10.7498V3.4165ZM10.7498 16.5832V9.49984H16.5832V15.2434C16.5832 15.6088 16.4537 15.9234 16.1946 16.1873C15.9356 16.4512 15.6185 16.5832 15.2434 16.5832H10.7498ZM3.4165 11.9998H9.24984V16.5832H4.7563C4.39088 16.5832 4.07623 16.4512 3.81234 16.1873C3.54845 15.9234 3.4165 15.6079 3.4165 15.2407V11.9998ZM4.49984 9.4165H8.1665V4.49984H4.7563C4.68143 4.49984 4.61998 4.52387 4.57192 4.57192C4.52387 4.61998 4.49984 4.68143 4.49984 4.7563V9.4165ZM11.8332 6.9165H15.4998V4.7563C15.4998 4.68143 15.4758 4.61998 15.4278 4.57192C15.3797 4.52387 15.3182 4.49984 15.2434 4.49984H11.8332V6.9165ZM11.8332 10.5832V15.4998H15.2434C15.3182 15.4998 15.3797 15.4758 15.4278 15.4278C15.4758 15.3797 15.4998 15.3182 15.4998 15.2434V10.5832H11.8332ZM4.49984 13.0832V15.2434C4.49984 15.3182 4.52387 15.3797 4.57192 15.4278C4.61998 15.4758 4.68143 15.4998 4.7563 15.4998H8.1665V13.0832H4.49984Z" fill="#1C1B1F"/>
</g>
</svg>
