<svg width="20" height="20" viewBox="0 0 20 20" fill="none" xmlns="http://www.w3.org/2000/svg">
<mask id="mask0_2622_3330" style="mask-type:alpha" maskUnits="userSpaceOnUse" x="0" y="0" width="20" height="20">
<rect width="20" height="20" fill="#D9D9D9"/>
</mask>
<g mask="url(#mask0_2622_3330)">
<path d="M4.42459 18C4.02571 18 3.68855 17.8617 3.41313 17.585C3.13771 17.3084 3 16.9786 3 16.5955V5.60181C3 5.21874 3.13771 4.88889 3.41313 4.61225C3.68855 4.33561 4.02571 4.19729 4.42459 4.19729H6.36022V2.58443C6.36022 2.41772 6.41634 2.2786 6.52858 2.16707C6.64081 2.05569 6.78081 2 6.94858 2C7.11649 2 7.25804 2.05569 7.37323 2.16707C7.48857 2.2786 7.54623 2.41772 7.54623 2.58443V4.19729H12.4879V2.56783C12.4879 2.40666 12.5425 2.27169 12.6518 2.16292C12.7612 2.05431 12.897 2 13.0592 2C13.2213 2 13.3586 2.05431 13.471 2.16292C13.5835 2.27169 13.6398 2.40666 13.6398 2.56783V4.19729H15.5754C15.9743 4.19729 16.3114 4.33561 16.5869 4.61225C16.8623 4.88889 17 5.21874 17 5.60181V16.5955C17 16.9786 16.8623 17.3084 16.5869 17.585C16.3114 17.8617 15.9743 18 15.5754 18H4.42459ZM4.42459 16.8643H15.5754C15.6436 16.8643 15.7061 16.8363 15.7628 16.7803C15.8197 16.7243 15.8481 16.6628 15.8481 16.5955V9.27088H4.1519V16.5955C4.1519 16.6628 4.18033 16.7243 4.23718 16.7803C4.29389 16.8363 4.35636 16.8643 4.42459 16.8643ZM4.1519 8.13521H15.8481V5.60181C15.8481 5.53454 15.8197 5.47295 15.7628 5.41704C15.7061 5.36099 15.6436 5.33296 15.5754 5.33296H4.42459C4.35636 5.33296 4.29389 5.36099 4.23718 5.41704C4.18033 5.47295 4.1519 5.53454 4.1519 5.60181V8.13521Z" fill="#1C1B1F"/>
</g>
</svg>
