<svg width="20" height="20" viewBox="0 0 20 20" fill="none" xmlns="http://www.w3.org/2000/svg">
<mask id="mask0_9_5704" style="mask-type:alpha" maskUnits="userSpaceOnUse" x="0" y="0" width="20" height="20">
<rect width="20" height="20" fill="#D9D9D9"/>
</mask>
<g mask="url(#mask0_9_5704)">
<path d="M10.0002 10.8783L12.561 13.4393C12.6764 13.5546 12.8215 13.6136 12.9962 13.6164C13.1708 13.6191 13.3185 13.56 13.4393 13.4393C13.56 13.3185 13.6204 13.1721 13.6204 13.0002C13.6204 12.8282 13.56 12.6818 13.4393 12.561L10.8783 10.0002L13.4393 7.43933C13.5546 7.32391 13.6136 7.17884 13.6164 7.00412C13.6191 6.82954 13.56 6.68183 13.4393 6.561C13.3185 6.4403 13.1721 6.37995 13.0002 6.37995C12.8282 6.37995 12.6818 6.4403 12.561 6.561L10.0002 9.12204L7.43933 6.561C7.32391 6.44572 7.17884 6.38669 7.00412 6.38391C6.82954 6.38127 6.68183 6.4403 6.561 6.561C6.4403 6.68183 6.37995 6.82822 6.37995 7.00016C6.37995 7.17211 6.4403 7.3185 6.561 7.43933L9.12204 10.0002L6.561 12.561C6.44572 12.6764 6.38669 12.8215 6.38391 12.9962C6.38127 13.1708 6.4403 13.3185 6.561 13.4393C6.68183 13.56 6.82822 13.6204 7.00016 13.6204C7.17211 13.6204 7.3185 13.56 7.43933 13.4393L10.0002 10.8783ZM10.0016 17.9168C8.90662 17.9168 7.87738 17.7091 6.91391 17.2935C5.95044 16.8779 5.11238 16.314 4.39975 15.6016C3.68711 14.8893 3.12287 14.0516 2.70704 13.0885C2.29134 12.1254 2.0835 11.0965 2.0835 10.0016C2.0835 8.90662 2.29127 7.87738 2.70683 6.91391C3.12238 5.95044 3.68634 5.11238 4.3987 4.39975C5.11107 3.68711 5.94877 3.12287 6.91183 2.70704C7.87489 2.29134 8.90384 2.0835 9.9987 2.0835C11.0937 2.0835 12.1229 2.29127 13.0864 2.70683C14.0499 3.12238 14.8879 3.68634 15.6006 4.3987C16.3132 5.11107 16.8775 5.94877 17.2933 6.91183C17.709 7.87489 17.9168 8.90384 17.9168 9.9987C17.9168 11.0937 17.7091 12.1229 17.2935 13.0864C16.8779 14.0499 16.314 14.8879 15.6016 15.6006C14.8893 16.3132 14.0516 16.8775 13.0885 17.2933C12.1254 17.709 11.0965 17.9168 10.0016 17.9168Z" fill="#1C1B1F"/>
</g>
</svg>
