<svg width="20" height="20" viewBox="0 0 20 20" fill="none" xmlns="http://www.w3.org/2000/svg">
<mask id="mask0_50_7914" style="mask-type:alpha" maskUnits="userSpaceOnUse" x="0" y="0" width="20" height="20">
<rect width="20" height="20" fill="#D9D9D9"/>
</mask>
<g mask="url(#mask0_50_7914)">
<path d="M15.676 17C16.092 17 16.4167 16.8745 16.65 16.6234C16.8833 16.3724 17 16.023 17 15.5754L17 4.42459C17 3.97697 16.8833 3.62764 16.65 3.37658C16.4167 3.12553 16.092 3 15.676 3L15.435 3C15.019 3 14.6943 3.12553 14.4609 3.37658C14.2276 3.62764 14.1109 3.97697 14.1109 4.42459L14.1109 15.5754C14.1109 16.023 14.2276 16.3724 14.4609 16.6234C14.6943 16.8745 15.019 17 15.435 17L15.676 17ZM11.4665 17C11.8825 17 12.2072 16.8745 12.4405 16.6234C12.6739 16.3724 12.7905 16.023 12.7905 15.5754L12.7905 4.42459C12.7905 3.97697 12.6739 3.62764 12.4405 3.37658C12.2072 3.12553 11.8825 3 11.4665 3L4.32403 3C3.90801 3 3.58333 3.12553 3.35 3.37658C3.11667 3.62764 3 3.97697 3 4.42459L3 15.5754C3 16.023 3.11667 16.3724 3.35 16.6234C3.58333 16.8745 3.90801 17 4.32403 17L11.4665 17ZM11.4665 15.8481L4.32403 15.8481C4.25005 15.8481 4.18931 15.8226 4.14182 15.7715C4.09433 15.7204 4.07059 15.655 4.07059 15.5754L4.07059 4.42459C4.07059 4.34499 4.09433 4.27964 4.14182 4.22854C4.18931 4.17745 4.25005 4.1519 4.32403 4.1519L11.4665 4.1519C11.5405 4.1519 11.6012 4.17745 11.6487 4.22855C11.6962 4.27964 11.7199 4.34499 11.7199 4.42459L11.7199 15.5754C11.7199 15.655 11.6962 15.7204 11.6487 15.7715C11.6012 15.8226 11.5405 15.8481 11.4665 15.8481Z" fill="#1C1B1F"/>
</g>
</svg>
