<svg width="20" height="20" viewBox="0 0 20 20" fill="none" xmlns="http://www.w3.org/2000/svg">
<mask id="mask0_23_7366" style="mask-type:alpha" maskUnits="userSpaceOnUse" x="0" y="0" width="20" height="20">
<rect width="20" height="20" fill="#D9D9D9"/>
</mask>
<g mask="url(#mask0_23_7366)">
<path d="M16.5832 4.25613C16.5832 3.83516 16.4651 3.50662 16.229 3.27051C15.9929 3.0344 15.6644 2.91634 15.2434 2.91634H4.7563C4.33532 2.91634 4.00678 3.0344 3.77067 3.27051C3.53456 3.50662 3.4165 3.83516 3.4165 4.25613L3.4165 4.5C3.4165 4.92097 3.53456 5.24951 3.77067 5.48562C4.00678 5.72173 4.33532 5.83979 4.7563 5.83979H15.2434C15.6644 5.83979 15.9929 5.72174 16.229 5.48562C16.4651 5.24951 16.5832 4.92097 16.5832 4.5L16.5832 4.25613ZM16.5832 8.51572C16.5832 8.09474 16.4651 7.7662 16.229 7.53009C15.9929 7.29398 15.6644 7.17592 15.2434 7.17592L4.7563 7.17592C4.33532 7.17592 4.00678 7.29398 3.77067 7.53009C3.53456 7.7662 3.4165 8.09474 3.4165 8.51571L3.4165 15.7432C3.4165 16.1642 3.53456 16.4927 3.77067 16.7288C4.00678 16.965 4.33532 17.083 4.7563 17.083L15.2434 17.083C15.6644 17.083 15.9929 16.965 16.229 16.7288C16.4651 16.4927 16.5832 16.1642 16.5832 15.7432V8.51572ZM15.4998 8.51572V15.7432C15.4998 15.8181 15.4758 15.8795 15.4278 15.9276C15.3797 15.9756 15.3182 15.9997 15.2434 15.9997L4.7563 15.9997C4.68143 15.9997 4.61998 15.9756 4.57192 15.9276C4.52387 15.8795 4.49984 15.8181 4.49984 15.7432L4.49984 8.51572C4.49984 8.44085 4.52387 8.3794 4.57192 8.33134C4.61998 8.28329 4.68143 8.25926 4.7563 8.25926H15.2434C15.3182 8.25926 15.3797 8.28329 15.4278 8.33134C15.4758 8.3794 15.4998 8.44085 15.4998 8.51572Z" fill="#1C1B1F"/>
</g>
</svg>
