<svg width="20" height="20" viewBox="0 0 20 20" fill="none" xmlns="http://www.w3.org/2000/svg">
<mask id="mask0_50_7907" style="mask-type:alpha" maskUnits="userSpaceOnUse" x="0" y="0" width="20" height="20">
<rect width="20" height="20" fill="#D9D9D9"/>
</mask>
<g mask="url(#mask0_50_7907)">
<path d="M4.32403 17C3.90801 17 3.58333 16.8745 3.35 16.6234C3.11667 16.3724 3 16.023 3 15.5754L3 4.42459C3 3.97697 3.11666 3.62764 3.35 3.37658C3.58333 3.12553 3.90801 3 4.32403 3L4.56503 3C4.98105 3 5.30572 3.12553 5.53906 3.37658C5.77239 3.62764 5.88906 3.97697 5.88906 4.42459L5.88906 15.5754C5.88906 16.023 5.77239 16.3724 5.53906 16.6234C5.30572 16.8745 4.98105 17 4.56503 17L4.32403 17ZM8.5335 17C8.11748 17 7.7928 16.8745 7.55947 16.6234C7.32614 16.3724 7.20947 16.023 7.20947 15.5754L7.20947 4.42459C7.20947 3.97697 7.32614 3.62764 7.55947 3.37658C7.7928 3.12553 8.11748 3 8.5335 3L15.676 3C16.092 3 16.4167 3.12553 16.65 3.37658C16.8833 3.62764 17 3.97697 17 4.42459L17 15.5754C17 16.023 16.8833 16.3724 16.65 16.6234C16.4167 16.8745 16.092 17 15.676 17L8.5335 17ZM8.5335 15.8481L15.676 15.8481C15.75 15.8481 15.8107 15.8226 15.8582 15.7715C15.9057 15.7204 15.9294 15.655 15.9294 15.5754L15.9294 4.42459C15.9294 4.34499 15.9057 4.27964 15.8582 4.22854C15.8107 4.17745 15.75 4.1519 15.676 4.1519L8.5335 4.1519C8.45952 4.1519 8.39878 4.17745 8.35129 4.22855C8.3038 4.27964 8.28006 4.34499 8.28006 4.42459L8.28006 15.5754C8.28006 15.655 8.3038 15.7204 8.35129 15.7715C8.39878 15.8226 8.45952 15.8481 8.5335 15.8481Z" fill="#1C1B1F"/>
</g>
</svg>
