<svg width="20" height="20" viewBox="0 0 20 20" fill="none" xmlns="http://www.w3.org/2000/svg">
<mask id="mask0_23_7315" style="mask-type:alpha" maskUnits="userSpaceOnUse" x="0" y="0" width="20" height="20">
<rect width="20" height="20" fill="#D9D9D9"/>
</mask>
<g mask="url(#mask0_23_7315)">
<path d="M16.5832 15.7434C16.5832 16.1644 16.4651 16.4929 16.229 16.729C15.9929 16.9651 15.6644 17.0832 15.2434 17.0832H4.7563C4.33532 17.0832 4.00678 16.9651 3.77067 16.729C3.53456 16.4929 3.4165 16.1644 3.4165 15.7434L3.4165 15.3398C3.4165 14.9188 3.53456 14.5903 3.77067 14.3542C4.00678 14.1181 4.33532 14 4.7563 14H15.2434C15.6644 14 15.9929 14.1181 16.229 14.3542C16.4651 14.5903 16.5832 14.9188 16.5832 15.3398L16.5832 15.7434ZM16.5832 11.4838C16.5832 11.9048 16.4651 12.2333 16.229 12.4694C15.9929 12.7055 15.6644 12.8236 15.2434 12.8236L4.7563 12.8236C4.33532 12.8236 4.00678 12.7055 3.77067 12.4694C3.53456 12.2333 3.4165 11.9048 3.4165 11.4838L3.4165 4.2563C3.4165 3.83532 3.53456 3.50678 3.77067 3.27067C4.00678 3.03456 4.33532 2.9165 4.7563 2.9165L15.2434 2.9165C15.6644 2.9165 15.9929 3.03456 16.229 3.27067C16.4651 3.50678 16.5832 3.83532 16.5832 4.2563V11.4838ZM15.4998 11.4838V4.2563C15.4998 4.18143 15.4758 4.11998 15.4278 4.07192C15.3797 4.02386 15.3182 3.99984 15.2434 3.99984L4.7563 3.99984C4.68143 3.99984 4.61998 4.02387 4.57192 4.07192C4.52387 4.11998 4.49984 4.18143 4.49984 4.2563L4.49984 11.4838C4.49984 11.5587 4.52387 11.6201 4.57192 11.6682C4.61998 11.7162 4.68143 11.7403 4.7563 11.7403H15.2434C15.3182 11.7403 15.3797 11.7162 15.4278 11.6682C15.4758 11.6201 15.4998 11.5587 15.4998 11.4838Z" fill="#1C1B1F"/>
</g>
</svg>
