<svg width="20" height="20" viewBox="0 0 20 20" fill="none" xmlns="http://www.w3.org/2000/svg">
<mask id="mask0_2615_3322" style="mask-type:alpha" maskUnits="userSpaceOnUse" x="0" y="0" width="20" height="20">
<rect width="20" height="20" fill="#D9D9D9"/>
</mask>
<g mask="url(#mask0_2615_3322)">
<path d="M6.53118 7.28995L8.94536 3.32445C9.00779 3.21375 9.08972 3.13196 9.19114 3.0791C9.29271 3.02637 9.39982 3 9.51249 3C9.62516 3 9.73228 3.02637 9.83384 3.0791C9.93527 3.13196 10.0172 3.21375 10.0796 3.32445L12.4938 7.28995C12.5562 7.39851 12.5874 7.51244 12.5874 7.63176C12.5874 7.75094 12.5562 7.86003 12.4938 7.95904C12.4312 8.05629 12.3555 8.13465 12.2665 8.19411C12.1774 8.25356 12.0649 8.28329 11.9291 8.28329H7.09588C6.95951 8.28329 6.84657 8.25323 6.75706 8.1931C6.66755 8.13297 6.59225 8.05428 6.53118 7.95702C6.46875 7.86003 6.43754 7.75229 6.43754 7.63378C6.43754 7.51527 6.46875 7.40066 6.53118 7.28995ZM13.9001 17C13.0354 17 12.3026 16.7015 11.7016 16.1045C11.1006 15.5075 10.8001 14.7796 10.8001 13.9207C10.8001 13.0618 11.1006 12.3339 11.7016 11.7369C12.3026 11.1399 13.0354 10.8414 13.9001 10.8414C14.7647 10.8414 15.4975 11.1399 16.0985 11.7369C16.6995 12.3339 17 13.0618 17 13.9207C17 14.7796 16.6995 15.5075 16.0985 16.1045C15.4975 16.7015 14.7647 17 13.9001 17ZM3 15.8676V11.9782C3 11.7946 3.0625 11.6399 3.18749 11.5141C3.31261 11.3885 3.4676 11.3257 3.65245 11.3257H7.56795C7.75279 11.3257 7.90852 11.3877 8.03514 11.5119C8.16162 11.6362 8.22486 11.7902 8.22486 11.9738V15.8632C8.22486 16.0468 8.16237 16.2015 8.03738 16.3273C7.91225 16.4529 7.75726 16.5157 7.57242 16.5157H3.65692C3.47207 16.5157 3.31634 16.4537 3.18972 16.3295C3.06324 16.2052 3 16.0513 3 15.8676ZM13.8952 15.951C14.4661 15.951 14.9503 15.7552 15.3478 15.3636C15.7452 14.972 15.9439 14.4927 15.9439 13.9255C15.9439 13.3584 15.7468 12.8775 15.3526 12.4826C14.9584 12.0878 14.4759 11.8904 13.9049 11.8904C13.334 11.8904 12.8498 12.0862 12.4524 12.4778C12.0549 12.8694 11.8562 13.3487 11.8562 13.9159C11.8562 14.483 12.0533 14.964 12.4475 15.3588C12.8417 15.7536 13.3243 15.951 13.8952 15.951ZM4.05606 15.4667H7.1688V12.3747H4.05606V15.4667ZM7.79687 7.23426H11.2281L9.51249 4.44814L7.79687 7.23426Z" fill="#1C1B1F"/>
</g>
</svg>
