<svg width="20" height="20" viewBox="0 0 20 20" fill="none" xmlns="http://www.w3.org/2000/svg">
<mask id="mask0_2619_3580" style="mask-type:alpha" maskUnits="userSpaceOnUse" x="0" y="0" width="20" height="20">
<rect width="20" height="20" fill="#D9D9D9"/>
</mask>
<g mask="url(#mask0_2619_3580)">
<path d="M7.89419 12.6962L14.9502 6.17344C15.0707 6.06058 15.2119 6.00279 15.3737 6.00009C15.5354 5.99739 15.6802 6.05517 15.8081 6.17344C15.936 6.29171 16 6.42307 16 6.56753C16 6.71213 15.939 6.84079 15.8171 6.95351L8.4325 13.7899C8.28224 13.93 8.10704 14 7.90689 14C7.7066 14 7.53063 13.93 7.37898 13.7899L4.19208 10.8438C4.07015 10.731 4.00625 10.6015 4.0004 10.4553C3.9944 10.3093 4.05537 10.1771 4.1833 10.0589C4.31124 9.94059 4.45404 9.88145 4.61169 9.88145C4.76934 9.88145 4.90959 9.94059 5.03245 10.0589L7.89419 12.6962Z" fill="#1C1B1F"/>
</g>
</svg>
