<svg width="20" height="20" viewBox="0 0 20 20" fill="none" xmlns="http://www.w3.org/2000/svg">
<mask id="mask0_23_5689" style="mask-type:alpha" maskUnits="userSpaceOnUse" x="0" y="0" width="20" height="20">
<rect width="20" height="20" fill="#D9D9D9"/>
</mask>
<g mask="url(#mask0_23_5689)">
<path d="M8.9213 11.1639L7.52713 9.79033C7.41171 9.67505 7.28748 9.61602 7.15442 9.61324C7.0215 9.6106 6.89463 9.66963 6.7738 9.79033C6.6531 9.91116 6.59275 10.0402 6.59275 10.1774C6.59275 10.3146 6.6531 10.4437 6.7738 10.5645L8.4565 12.2472C8.59331 12.3839 8.74824 12.4522 8.9213 12.4522C9.09435 12.4522 9.24928 12.3839 9.38609 12.2472L13.2098 8.42345C13.3251 8.30803 13.3841 8.18033 13.3869 8.04033C13.3896 7.90046 13.3305 7.77012 13.2098 7.64928C13.089 7.52859 12.9634 7.46824 12.8332 7.46824C12.7029 7.46824 12.5773 7.52859 12.4565 7.64928L8.9213 11.1639ZM10.0013 17.5837C8.96185 17.5837 7.98123 17.3863 7.05942 16.9916C6.13761 16.5969 5.33081 16.0537 4.639 15.3622C3.9472 14.6707 3.4038 13.8642 3.0088 12.9428C2.61393 12.0214 2.4165 11.0411 2.4165 10.0018C2.4165 8.94845 2.61387 7.96435 3.00859 7.04949C3.40331 6.13463 3.94643 5.3313 4.63796 4.63949C5.32949 3.94769 6.13595 3.40428 7.05734 3.00928C7.97873 2.61442 8.95907 2.41699 9.99838 2.41699C11.0517 2.41699 12.0358 2.61435 12.9507 3.00908C13.8655 3.4038 14.6689 3.94692 15.3607 4.63845C16.0525 5.32998 16.5959 6.13296 16.9909 7.04741C17.3857 7.96185 17.5832 8.94567 17.5832 9.99887C17.5832 11.0383 17.3858 12.0189 16.9911 12.9407C16.5964 13.8625 16.0532 14.6694 15.3617 15.3612C14.6702 16.053 13.8672 16.5964 12.9528 16.9914C12.0383 17.3862 11.0545 17.5837 10.0013 17.5837Z" fill="#1C1B1F"/>
</g>
</svg>
