<svg width="20" height="20" viewBox="0 0 20 20" fill="none" xmlns="http://www.w3.org/2000/svg">
<mask id="mask0_23_5682" style="mask-type:alpha" maskUnits="userSpaceOnUse" x="0" y="0" width="20" height="20">
<rect width="20" height="20" fill="#D9D9D9"/>
</mask>
<g mask="url(#mask0_23_5682)">
<path d="M8.93734 11.1634L7.54317 9.78984C7.42775 9.67456 7.30352 9.61553 7.17046 9.61275C7.03755 9.61012 6.91067 9.66914 6.78984 9.78984C6.66914 9.91067 6.6088 10.0397 6.6088 10.1769C6.6088 10.3141 6.66914 10.4432 6.78984 10.564L8.47255 12.2467C8.60935 12.3834 8.76428 12.4517 8.93734 12.4517C9.11039 12.4517 9.26532 12.3834 9.40213 12.2467L13.2259 8.42296C13.3412 8.30755 13.4002 8.17984 13.403 8.03984C13.4056 7.89998 13.3466 7.76963 13.2259 7.6488C13.105 7.5281 12.9795 7.46775 12.8492 7.46775C12.7189 7.46775 12.5934 7.5281 12.4725 7.6488L8.93734 11.1634ZM4.7563 16.5832C4.37699 16.5832 4.05887 16.4547 3.80192 16.1978C3.54498 15.9408 3.4165 15.6227 3.4165 15.2434V4.7563C3.4165 4.37699 3.54498 4.05887 3.80192 3.80192C4.05887 3.54498 4.37699 3.4165 4.7563 3.4165H15.2434C15.6227 3.4165 15.9408 3.54498 16.1978 3.80192C16.4547 4.05887 16.5832 4.37699 16.5832 4.7563V15.2434C16.5832 15.6227 16.4547 15.9408 16.1978 16.1978C15.9408 16.4547 15.6227 16.5832 15.2434 16.5832H4.7563Z" fill="#1C1B1F"/>
</g>
</svg>
