<svg width="24" height="24" viewBox="0 0 24 24" fill="none" xmlns="http://www.w3.org/2000/svg">
<g clip-path="url(#clip0_617_28315)">
<g clip-path="url(#clip1_617_28315)">
<rect y="-4" width="24" height="32" rx="4" fill="#F5F5F5"/>
<mask id="mask0_617_28315" style="mask-type:alpha" maskUnits="userSpaceOnUse" x="2" y="2" width="20" height="20">
<rect x="2" y="2" width="20" height="20" fill="#D9D9D9"/>
</mask>
<g mask="url(#mask0_617_28315)">
<path d="M12.0096 14.0192C11.4514 14.0192 10.9769 13.8238 10.586 13.4329C10.1953 13.0422 10 12.5678 10 12.0096C10 11.4513 10.1953 10.9767 10.586 10.586C10.9769 10.1953 11.4514 10 12.0096 10C12.5678 10 13.0423 10.1953 13.4331 10.586C13.8238 10.9767 14.0192 11.4513 14.0192 12.0096C14.0192 12.5678 13.8238 13.0422 13.4331 13.4329C13.0423 13.8238 12.5678 14.0192 12.0096 14.0192Z" fill="#AEAEAE"/>
</g>
</g>
</g>
<defs>
<clipPath id="clip0_617_28315">
<path d="M0 0H24V24H0V0Z" fill="white"/>
</clipPath>
<clipPath id="clip1_617_28315">
<rect y="-4" width="24" height="32" rx="4" fill="white"/>
</clipPath>
</defs>
</svg>
