<svg width="20" height="20" viewBox="0 0 20 20" fill="none" xmlns="http://www.w3.org/2000/svg">
<mask id="mask0_9_5738" style="mask-type:alpha" maskUnits="userSpaceOnUse" x="0" y="0" width="20" height="20">
<rect width="20" height="20" fill="#D9D9D9"/>
</mask>
<g mask="url(#mask0_9_5738)">
<path d="M10.0002 10.8863L6.46166 14.4246C6.34096 14.5455 6.19464 14.6045 6.0227 14.6017C5.85061 14.5991 5.70423 14.5374 5.58353 14.4167C5.46284 14.296 5.40249 14.1483 5.40249 13.9736C5.40249 13.7989 5.46284 13.6512 5.58353 13.5305L9.11395 10L5.57561 6.48233C5.45478 6.36164 5.39575 6.21393 5.39853 6.03921C5.40117 5.86462 5.46284 5.71698 5.58353 5.59629C5.70423 5.47546 5.85193 5.41504 6.02666 5.41504C6.20138 5.41504 6.34909 5.47546 6.46978 5.59629L10.0002 9.13462L13.5179 5.59629C13.6386 5.47546 13.7849 5.41504 13.9569 5.41504C14.1289 5.41504 14.2753 5.47546 14.396 5.59629C14.5253 5.72546 14.59 5.87525 14.59 6.04566C14.59 6.21608 14.5253 6.36164 14.396 6.48233L10.8656 10L14.4039 13.5386C14.5248 13.6593 14.5852 13.8056 14.5852 13.9775C14.5852 14.1496 14.5248 14.296 14.4039 14.4167C14.2748 14.546 14.125 14.6107 13.9546 14.6107C13.7842 14.6107 13.6386 14.546 13.5179 14.4167L10.0002 10.8863Z" fill="#1C1B1F"/>
</g>
</svg>
