<svg width="20" height="20" viewBox="0 0 20 20" fill="none" xmlns="http://www.w3.org/2000/svg">
<mask id="mask0_2622_6573" style="mask-type:alpha" maskUnits="userSpaceOnUse" x="0" y="0" width="20" height="20">
<rect width="20" height="20" fill="#D9D9D9"/>
</mask>
<g mask="url(#mask0_2622_6573)">
<path d="M8.94525 12.2292L7.88921 11.1731C7.77921 11.0631 7.65157 11.0067 7.5063 11.004C7.36102 11.0013 7.23067 11.0577 7.11525 11.1731C6.99984 11.2885 6.94213 11.4162 6.94213 11.556C6.94213 11.696 6.99984 11.8238 7.11525 11.9392L8.47255 13.2885C8.60935 13.4252 8.76428 13.4935 8.93734 13.4935C9.11039 13.4935 9.26532 13.4252 9.40213 13.2885L12.5303 10.1602C12.6403 10.0502 12.6966 9.92521 12.6994 9.78521C12.7021 9.64535 12.6457 9.51771 12.5303 9.40229C12.4148 9.28688 12.2885 9.22917 12.1513 9.22917C12.0141 9.22917 11.8878 9.28688 11.7723 9.40229L8.94525 12.2292ZM4.99984 16.1667C4.00095 16.1667 3.154 15.8151 2.459 15.1121C1.764 14.4092 1.4165 13.5583 1.4165 12.5594C1.4165 11.5678 1.77762 10.7134 2.49984 9.99604C3.22206 9.27854 4.08261 8.93049 5.0815 8.95188C5.32081 7.8034 5.89511 6.85764 6.80442 6.11458C7.71359 5.37153 8.77873 5 9.99984 5C11.3129 5 12.4571 5.44257 13.4325 6.32771C14.408 7.21285 14.9582 8.29806 15.0832 9.58333V10H15.3396C16.2317 9.95722 16.9953 10.2374 17.6305 10.8406C18.2656 11.4437 18.5832 12.1913 18.5832 13.0833C18.5832 13.9433 18.2843 14.6722 17.6865 15.27C17.0887 15.8678 16.3598 16.1667 15.4998 16.1667H4.99984ZM4.99984 15.0833H15.4998C16.0554 15.0833 16.5276 14.8889 16.9165 14.5C17.3054 14.1111 17.4998 13.6389 17.4998 13.0833C17.4998 12.5278 17.3054 12.0556 16.9165 11.6667C16.5276 11.2778 16.0554 11.0833 15.4998 11.0833H14.1248L13.9998 9.72917C13.9026 8.70139 13.4721 7.83681 12.7082 7.13542C11.9443 6.43403 11.0415 6.08333 9.99984 6.08333C9.11095 6.08333 8.31581 6.35069 7.61442 6.88542C6.91303 7.42014 6.43734 8.125 6.18734 9L5.89567 10.0208L4.83317 10.0833C4.1665 10.125 3.61095 10.3854 3.1665 10.8646C2.72206 11.3438 2.49984 11.9167 2.49984 12.5833C2.49984 13.2778 2.74289 13.8681 3.229 14.3542C3.71512 14.8403 4.30539 15.0833 4.99984 15.0833Z" fill="#1C1B1F"/>
</g>
</svg>
