<svg width="20" height="20" viewBox="0 0 20 20" fill="none" xmlns="http://www.w3.org/2000/svg">
<mask id="mask0_362_29920" style="mask-type:alpha" maskUnits="userSpaceOnUse" x="0" y="0" width="20" height="20">
<rect width="20" height="20" fill="#D9D9D9"/>
</mask>
<g mask="url(#mask0_362_29920)">
<path d="M7.05755 9.99984L8.43088 8.6265C8.55477 8.50248 8.6181 8.35741 8.62088 8.1913C8.62352 8.02518 8.56018 7.87748 8.43088 7.74817C8.30157 7.619 8.1531 7.55442 7.98546 7.55442C7.81768 7.55442 7.66914 7.619 7.53984 7.74817L5.81546 9.47255C5.73755 9.5506 5.68255 9.63289 5.65046 9.71942C5.61838 9.80595 5.60234 9.89942 5.60234 9.99984C5.60234 10.1003 5.61838 10.1937 5.65046 10.2803C5.68255 10.3668 5.73755 10.4491 5.81546 10.5271L7.54796 12.2594C7.67185 12.3833 7.819 12.4466 7.98942 12.4494C8.15984 12.4521 8.3097 12.3887 8.439 12.2594C8.56817 12.1301 8.63275 11.9837 8.63275 11.8203C8.63275 11.6569 8.56817 11.5106 8.439 11.3813L7.05755 9.99984ZM12.9421 9.99984L11.5607 11.3813C11.4368 11.5052 11.3735 11.6502 11.3709 11.8163C11.3682 11.9824 11.4315 12.1301 11.5607 12.2594C11.69 12.3887 11.8385 12.4534 12.0063 12.4534C12.1739 12.4534 12.3224 12.3887 12.4517 12.2594L14.1842 10.5271C14.2621 10.4491 14.3171 10.3668 14.3492 10.2803C14.3813 10.1937 14.3973 10.1003 14.3973 9.99984C14.3973 9.89942 14.3813 9.80595 14.3492 9.71942C14.3171 9.63289 14.2621 9.5506 14.1842 9.47255L12.4517 7.74025C12.3898 7.67831 12.32 7.63185 12.2425 7.60088C12.1652 7.56991 12.0878 7.55442 12.0103 7.55442C11.9328 7.55442 11.8539 7.56991 11.7738 7.60088C11.6938 7.63185 11.6228 7.67831 11.5607 7.74025C11.4315 7.86956 11.3669 8.01595 11.3669 8.17942C11.3669 8.34275 11.4315 8.48907 11.5607 8.61838L12.9421 9.99984ZM4.42296 17.0832C4.00199 17.0832 3.64567 16.9373 3.354 16.6457C3.06234 16.354 2.9165 15.9977 2.9165 15.5767V4.42296C2.9165 4.00199 3.06234 3.64567 3.354 3.354C3.64567 3.06234 4.00199 2.9165 4.42296 2.9165H15.5767C15.9977 2.9165 16.354 3.06234 16.6457 3.354C16.9373 3.64567 17.0832 4.00199 17.0832 4.42296V15.5767C17.0832 15.9977 16.9373 16.354 16.6457 16.6457C16.354 16.9373 15.9977 17.0832 15.5767 17.0832H4.42296ZM4.42296 15.8332H15.5767C15.6409 15.8332 15.6996 15.8064 15.753 15.753C15.8064 15.6996 15.8332 15.6409 15.8332 15.5767V4.42296C15.8332 4.3588 15.8064 4.30005 15.753 4.24671C15.6996 4.19324 15.6409 4.1665 15.5767 4.1665H4.42296C4.3588 4.1665 4.30005 4.19324 4.24671 4.24671C4.19324 4.30005 4.1665 4.3588 4.1665 4.42296V15.5767C4.1665 15.6409 4.19324 15.6996 4.24671 15.753C4.30005 15.8064 4.3588 15.8332 4.42296 15.8332Z" fill="#1C1B1F"/>
</g>
</svg>
