<svg width="20" height="20" viewBox="0 0 20 20" fill="none" xmlns="http://www.w3.org/2000/svg">
<mask id="mask0_20_4841" style="mask-type:alpha" maskUnits="userSpaceOnUse" x="0" y="0" width="20" height="20">
<rect width="20" height="20" fill="#D9D9D9"/>
</mask>
<g mask="url(#mask0_20_4841)">
<path d="M8.02231 9.58315L9.12501 10.6857C9.23501 10.7958 9.29265 10.9235 9.29793 11.0688C9.30335 11.2141 9.24897 11.3444 9.13481 11.4598C9.01286 11.5751 8.88189 11.6314 8.74189 11.6288C8.60203 11.6261 8.47237 11.5652 8.35293 11.4459L6.96106 10.0538C6.82036 9.91308 6.75001 9.75496 6.75001 9.5794C6.75001 9.40371 6.81835 9.25002 6.95501 9.11836L8.35251 7.72107C8.46682 7.60676 8.59529 7.5469 8.73793 7.54148C8.88057 7.5362 9.01286 7.5912 9.13481 7.70648C9.24897 7.8219 9.30474 7.95093 9.3021 8.09357C9.29932 8.2362 9.24029 8.36523 9.12501 8.48065L8.02231 9.58315ZM12.3494 9.58315L11.2467 8.48065C11.1367 8.37051 11.079 8.2428 11.0738 8.09752C11.0683 7.95225 11.1227 7.8219 11.2369 7.70648C11.3588 7.5912 11.4898 7.53488 11.6298 7.53752C11.7697 7.54016 11.8993 7.60114 12.0188 7.72044L13.4106 9.11252C13.5513 9.25322 13.6217 9.41134 13.6217 9.5869C13.6217 9.76259 13.5533 9.91627 13.4167 10.0479L12.0192 11.4452C11.9049 11.5595 11.7799 11.6159 11.6442 11.6144C11.5085 11.6127 11.3797 11.5543 11.2577 11.439C11.1436 11.3236 11.0878 11.1945 11.0904 11.0519C11.0932 10.9093 11.1547 10.7779 11.2748 10.6577L12.3494 9.58315Z" fill="#1C1B1F"/>
<path d="M5.08979 16.1667C4.71465 16.1667 4.39757 16.0372 4.13854 15.7781C3.87951 15.5191 3.75 15.202 3.75 14.8269V4.33979C3.75 3.97437 3.87951 3.65972 4.13854 3.39583C4.39757 3.13194 4.71465 3 5.08979 3H7.57688C7.94229 3 8.25694 3.13194 8.52083 3.39583C8.78472 3.65972 8.91667 3.97437 8.91667 4.33979V5.67C8.91667 5.82111 8.86514 5.94785 8.76208 6.05021C8.65903 6.15243 8.53132 6.20354 8.37896 6.20354C8.22674 6.20354 8.09771 6.1516 7.99188 6.04771C7.88618 5.94396 7.83333 5.81535 7.83333 5.66188V4.33979C7.83333 4.27562 7.8066 4.21687 7.75313 4.16354C7.69979 4.11007 7.64104 4.08333 7.57688 4.08333H5.08979C5.02562 4.08333 4.96688 4.11007 4.91354 4.16354C4.86007 4.21687 4.83333 4.27562 4.83333 4.33979V14.8269C4.83333 14.891 4.86007 14.9498 4.91354 15.0031C4.96688 15.0566 5.02562 15.0833 5.08979 15.0833H7.57688C7.64104 15.0833 7.69979 15.0553 7.75313 14.9992C7.8066 14.9431 7.83333 14.8856 7.83333 14.8269V13.5048C7.83333 13.3513 7.88486 13.2227 7.98792 13.119C8.09083 13.0151 8.21847 12.9631 8.37083 12.9631C8.52319 12.9631 8.65222 13.0151 8.75792 13.119C8.86375 13.2227 8.91667 13.3513 8.91667 13.5048V14.8269C8.91667 15.202 8.78472 15.5191 8.52083 15.7781C8.25694 16.0372 7.94229 16.1667 7.57688 16.1667H5.08979ZM12.5769 16.1667C12.2017 16.1667 11.8847 16.0372 11.6256 15.7781C11.3666 15.5191 11.2371 15.202 11.2371 14.8269V13.4967C11.2371 13.3456 11.2886 13.2188 11.3917 13.1165C11.4947 13.0142 11.6224 12.9631 11.7748 12.9631C11.927 12.9631 12.056 13.0151 12.1619 13.119C12.2676 13.2227 12.3204 13.3513 12.3204 13.5048V14.8269C12.3204 14.891 12.3472 14.9498 12.4006 15.0031C12.454 15.0566 12.5127 15.0833 12.5769 15.0833H15.064C15.1281 15.0833 15.1869 15.0566 15.2402 15.0031C15.2937 14.9498 15.3204 14.891 15.3204 14.8269V4.33979C15.3204 4.27562 15.2937 4.21687 15.2402 4.16354C15.1869 4.11007 15.1281 4.08333 15.064 4.08333H12.5769C12.5127 4.08333 12.454 4.11007 12.4006 4.16354C12.3472 4.21687 12.3204 4.27562 12.3204 4.33979V5.67C12.3204 5.82111 12.2689 5.94785 12.1658 6.05021C12.0629 6.15243 11.9353 6.20354 11.7829 6.20354C11.6306 6.20354 11.5015 6.1516 11.3958 6.04771C11.29 5.94396 11.2371 5.81535 11.2371 5.66188V4.33979C11.2371 3.97437 11.3666 3.65972 11.6256 3.39583C11.8847 3.13194 12.2017 3 12.5769 3H15.064C15.4294 3 15.744 3.13194 16.0079 3.39583C16.2718 3.65972 16.4038 3.97437 16.4038 4.33979V14.8269C16.4038 15.202 16.2718 15.5191 16.0079 15.7781C15.744 16.0372 15.4294 16.1667 15.064 16.1667H12.5769Z" fill="#1C1B1F"/>
</g>
</svg>
