<svg width="20" height="20" viewBox="0 0 20 20" fill="none" xmlns="http://www.w3.org/2000/svg">
<mask id="mask0_619_28228" style="mask-type:alpha" maskUnits="userSpaceOnUse" x="0" y="0" width="20" height="20">
<rect width="20" height="20" fill="#D9D9D9"/>
</mask>
<g mask="url(#mask0_619_28228)">
<path d="M5.74984 11.7915H14.2498C14.4036 11.7915 14.5323 11.74 14.6359 11.6371C14.7396 11.5344 14.7915 11.4067 14.7915 11.2542C14.7915 11.1017 14.7396 10.9726 14.6359 10.8669C14.5323 10.7611 14.4036 10.7082 14.2498 10.7082H5.74984C5.59609 10.7082 5.46741 10.7596 5.3638 10.8625C5.26005 10.9653 5.20817 11.093 5.20817 11.2455C5.20817 11.398 5.26005 11.5271 5.3638 11.6328C5.46741 11.7386 5.59609 11.7915 5.74984 11.7915ZM5.74984 9.0415H14.2498C14.4036 9.0415 14.5323 8.99005 14.6359 8.88713C14.7396 8.78435 14.7915 8.65671 14.7915 8.50421C14.7915 8.35171 14.7396 8.22261 14.6359 8.11692C14.5323 8.01109 14.4036 7.95817 14.2498 7.95817H5.74984C5.59609 7.95817 5.46741 8.00963 5.3638 8.11255C5.26005 8.21532 5.20817 8.34296 5.20817 8.49546C5.20817 8.64796 5.26005 8.77706 5.3638 8.88275C5.46741 8.98859 5.59609 9.0415 5.74984 9.0415ZM5.74984 6.2915H14.2498C14.4036 6.2915 14.5323 6.24005 14.6359 6.13713C14.7396 6.03435 14.7915 5.90671 14.7915 5.75421C14.7915 5.60171 14.7396 5.47262 14.6359 5.36692C14.5323 5.26109 14.4036 5.20817 14.2498 5.20817H5.74984C5.59609 5.20817 5.46741 5.25963 5.3638 5.36255C5.26005 5.46532 5.20817 5.59296 5.20817 5.74546C5.20817 5.89796 5.26005 6.02706 5.3638 6.13275C5.46741 6.23859 5.59609 6.2915 5.74984 6.2915ZM3.7563 14.5832C3.38116 14.5832 3.06407 14.4537 2.80505 14.1946C2.54602 13.9356 2.4165 13.6185 2.4165 13.2434V3.7563C2.4165 3.38116 2.54602 3.06407 2.80505 2.80505C3.06407 2.54602 3.38116 2.4165 3.7563 2.4165H16.2434C16.6185 2.4165 16.9356 2.54602 17.1946 2.80505C17.4537 3.06407 17.5832 3.38116 17.5832 3.7563V15.5863C17.5832 15.8849 17.4464 16.0915 17.173 16.2061C16.8994 16.3207 16.6571 16.2725 16.4461 16.0615L14.9678 14.5832H3.7563ZM15.4165 13.4998L16.4998 14.5913V3.7563C16.4998 3.69213 16.4731 3.63338 16.4196 3.58005C16.3663 3.52657 16.3075 3.49984 16.2434 3.49984H3.7563C3.69213 3.49984 3.63338 3.52657 3.58005 3.58005C3.52657 3.63338 3.49984 3.69213 3.49984 3.7563V13.2434C3.49984 13.3075 3.52657 13.3663 3.58005 13.4196C3.63338 13.4731 3.69213 13.4998 3.7563 13.4998H15.4165Z" fill="#1C1B1F"/>
</g>
</svg>
