<svg width="48" height="34" viewBox="0 0 48 34" fill="none" xmlns="http://www.w3.org/2000/svg">
<rect x="0.5" y="0.5" width="47" height="33" rx="1.5" fill="white"/>
<rect x="0.5" y="0.5" width="47" height="33" rx="1.5" stroke="#E5E2E1"/>
<mask id="mask0_208_17463" style="mask-type:alpha" maskUnits="userSpaceOnUse" x="4" y="2" width="12" height="12">
<rect x="4" y="2" width="12" height="12" fill="#D9D9D9"/>
</mask>
<g mask="url(#mask0_208_17463)">
<path d="M10.1899 11.4557H11.1772V4.5443H8.36709V5.53165H10.1899V11.4557ZM5.22108 14C4.87918 14 4.59019 13.882 4.35411 13.6459C4.11804 13.4098 4 13.1208 4 12.7789V3.22108C4 2.87918 4.11804 2.59019 4.35411 2.35411C4.59019 2.11804 4.87918 2 5.22108 2H14.7789C15.1208 2 15.4098 2.11804 15.6459 2.35411C15.882 2.59019 16 2.87918 16 3.22108V12.7789C16 13.1208 15.882 13.4098 15.6459 13.6459C15.4098 13.882 15.1208 14 14.7789 14H5.22108Z" fill="#ACACAC"/>
</g>
<mask id="mask1_208_17463" style="mask-type:alpha" maskUnits="userSpaceOnUse" x="18" y="2" width="12" height="12">
<rect x="18" y="2" width="12" height="12" fill="#D9D9D9"/>
</mask>
<g mask="url(#mask1_208_17463)">
<path d="M21.9114 11.4557H24.8675C25.2094 11.4557 25.4984 11.3377 25.7345 11.1016C25.9706 10.8655 26.0886 10.5765 26.0886 10.2346V8.80905C26.0886 8.57057 26.0146 8.37975 25.8666 8.23658C25.7185 8.09342 25.552 8.01456 25.3671 8C25.552 7.98544 25.7185 7.90658 25.8666 7.76342C26.0146 7.62025 26.0886 7.42943 26.0886 7.19095V5.76538C26.0886 5.42348 25.9706 5.13449 25.7345 4.89842C25.4984 4.66234 25.2094 4.5443 24.8675 4.5443H21.9114V5.53165H24.8675C24.9358 5.53165 24.9918 5.55354 25.0356 5.59734C25.0794 5.64114 25.1013 5.69715 25.1013 5.76538V7.2726C25.1013 7.34082 25.0794 7.39684 25.0356 7.44063C24.9918 7.48443 24.9358 7.50633 24.8675 7.50633H23.1325V8.49367H24.8675C24.9358 8.49367 24.9918 8.51557 25.0356 8.55937C25.0794 8.60316 25.1013 8.65918 25.1013 8.72741V10.2346C25.1013 10.3028 25.0794 10.3589 25.0356 10.4027C24.9918 10.4465 24.9358 10.4684 24.8675 10.4684H21.9114V11.4557ZM19.2211 14C18.8792 14 18.5902 13.882 18.3541 13.6459C18.118 13.4098 18 13.1208 18 12.7789V3.22108C18 2.87918 18.118 2.59019 18.3541 2.35411C18.5902 2.11804 18.8792 2 19.2211 2H28.7789C29.1208 2 29.4098 2.11804 29.6459 2.35411C29.882 2.59019 30 2.87918 30 3.22108V12.7789C30 13.1208 29.882 13.4098 29.6459 13.6459C29.4098 13.882 29.1208 14 28.7789 14H19.2211Z" fill="#ACACAC"/>
</g>
<mask id="mask2_208_17463" style="mask-type:alpha" maskUnits="userSpaceOnUse" x="32" y="2" width="12" height="12">
<rect x="32" y="2" width="12" height="12" fill="#D9D9D9"/>
</mask>
<g mask="url(#mask2_208_17463)">
<path d="M35.9114 11.4557H38.8675C39.2094 11.4557 39.4984 11.3377 39.7345 11.1016C39.9706 10.8655 40.0886 10.5765 40.0886 10.2346V8.72741C40.0886 8.38551 39.9706 8.09652 39.7345 7.86044C39.4984 7.62437 39.2094 7.50633 38.8675 7.50633H36.8987V5.53165H40.0886V4.5443H35.9114V8.49367H38.8675C38.9358 8.49367 38.9918 8.51557 39.0356 8.55937C39.0794 8.60316 39.1013 8.65918 39.1013 8.72741V10.2346C39.1013 10.3028 39.0794 10.3589 39.0356 10.4027C38.9918 10.4465 38.9358 10.4684 38.8675 10.4684H35.9114V11.4557ZM33.2211 14C32.8792 14 32.5902 13.882 32.3541 13.6459C32.118 13.4098 32 13.1208 32 12.7789V3.22108C32 2.87918 32.118 2.59019 32.3541 2.35411C32.5902 2.11804 32.8792 2 33.2211 2H42.7789C43.1208 2 43.4098 2.11804 43.6459 2.35411C43.882 2.59019 44 2.87918 44 3.22108V12.7789C44 13.1208 43.882 13.4098 43.6459 13.6459C43.4098 13.882 43.1208 14 42.7789 14H33.2211Z" fill="#ACACAC"/>
</g>
<mask id="mask3_208_17463" style="mask-type:alpha" maskUnits="userSpaceOnUse" x="4" y="20" width="12" height="12">
<rect x="4" y="20" width="12" height="12" fill="#D9D9D9"/>
</mask>
<g mask="url(#mask3_208_17463)">
<path d="M7.91139 29.4557H12.0886V28.4684H8.89873V26.7274C8.89873 26.6592 8.92063 26.6032 8.96443 26.5594C9.00823 26.5156 9.06424 26.4937 9.13247 26.4937H10.8675C11.2094 26.4937 11.4984 26.3756 11.7345 26.1396C11.9706 25.9035 12.0886 25.6145 12.0886 25.2726V23.7654C12.0886 23.4235 11.9706 23.1345 11.7345 22.8984C11.4984 22.6623 11.2094 22.5443 10.8675 22.5443H7.91139V23.5316H10.8675C10.9358 23.5316 10.9918 23.5535 11.0356 23.5973C11.0794 23.6411 11.1013 23.6972 11.1013 23.7654V25.2726C11.1013 25.3408 11.0794 25.3968 11.0356 25.4406C10.9918 25.4844 10.9358 25.5063 10.8675 25.5063H9.13247C8.79057 25.5063 8.50158 25.6244 8.26551 25.8604C8.02943 26.0965 7.91139 26.3855 7.91139 26.7274V29.4557ZM5.22108 32C4.87918 32 4.59019 31.882 4.35411 31.6459C4.11804 31.4098 4 31.1208 4 30.7789V21.2211C4 20.8792 4.11804 20.5902 4.35411 20.3541C4.59019 20.118 4.87918 20 5.22108 20H14.7789C15.1208 20 15.4098 20.118 15.6459 20.3541C15.882 20.5902 16 20.8792 16 21.2211V30.7789C16 31.1208 15.882 31.4098 15.6459 31.6459C15.4098 31.882 15.1208 32 14.7789 32H5.22108Z" fill="#ACACAC"/>
</g>
<mask id="mask4_208_17463" style="mask-type:alpha" maskUnits="userSpaceOnUse" x="18" y="20" width="12" height="12">
<rect x="18" y="20" width="12" height="12" fill="#D9D9D9"/>
</mask>
<g mask="url(#mask4_208_17463)">
<path d="M25.1013 29.4557H26.0886V22.5443H25.1013V25.7342H22.8987V22.5443H21.9114V26.7215H25.1013V29.4557ZM19.2211 32C18.8792 32 18.5902 31.882 18.3541 31.6459C18.118 31.4098 18 31.1208 18 30.7789V21.2211C18 20.8792 18.118 20.5902 18.3541 20.3541C18.5902 20.118 18.8792 20 19.2211 20H28.7789C29.1208 20 29.4098 20.118 29.6459 20.3541C29.882 20.5902 30 20.8792 30 21.2211V30.7789C30 31.1208 29.882 31.4098 29.6459 31.6459C29.4098 31.882 29.1208 32 28.7789 32H19.2211Z" fill="#ACACAC"/>
</g>
</svg>
