<svg width="48" height="34" viewBox="0 0 48 34" fill="none" xmlns="http://www.w3.org/2000/svg">
<rect x="0.5" y="0.5" width="47" height="33" rx="1.5" fill="white"/>
<rect x="0.5" y="0.5" width="47" height="33" rx="1.5" stroke="#E5E2E1"/>
<mask id="mask0_208_17394" style="mask-type:alpha" maskUnits="userSpaceOnUse" x="4" y="4" width="12" height="12">
<rect x="4" y="4" width="12" height="12" fill="#D9D9D9"/>
</mask>
<g mask="url(#mask0_208_17394)">
<path d="M10.1899 13.4557H11.1772V6.5443H8.36709V7.53165H10.1899V13.4557ZM5.22108 16C4.87918 16 4.59019 15.882 4.35411 15.6459C4.11804 15.4098 4 15.1208 4 14.7789V5.22108C4 4.87918 4.11804 4.59019 4.35411 4.35411C4.59019 4.11804 4.87918 4 5.22108 4H14.7789C15.1208 4 15.4098 4.11804 15.6459 4.35411C15.882 4.59019 16 4.87918 16 5.22108V14.7789C16 15.1208 15.882 15.4098 15.6459 15.6459C15.4098 15.882 15.1208 16 14.7789 16H5.22108Z" fill="#ACACAC"/>
</g>
<mask id="mask1_208_17394" style="mask-type:alpha" maskUnits="userSpaceOnUse" x="18" y="4" width="12" height="12">
<rect x="18" y="4" width="12" height="12" fill="#D9D9D9"/>
</mask>
<g mask="url(#mask1_208_17394)">
<path d="M21.9114 13.4557H26.0886V12.4684H22.8987V10.7274C22.8987 10.6592 22.9206 10.6032 22.9644 10.5594C23.0082 10.5156 23.0642 10.4937 23.1325 10.4937H24.8675C25.2094 10.4937 25.4984 10.3756 25.7345 10.1396C25.9706 9.90348 26.0886 9.61449 26.0886 9.2726V7.76538C26.0886 7.42348 25.9706 7.13449 25.7345 6.89842C25.4984 6.66234 25.2094 6.5443 24.8675 6.5443H21.9114V7.53165H24.8675C24.9358 7.53165 24.9918 7.55354 25.0356 7.59734C25.0794 7.64114 25.1013 7.69715 25.1013 7.76538V9.2726C25.1013 9.34082 25.0794 9.39684 25.0356 9.44063C24.9918 9.48443 24.9358 9.50633 24.8675 9.50633H23.1325C22.7906 9.50633 22.5016 9.62437 22.2655 9.86044C22.0294 10.0965 21.9114 10.3855 21.9114 10.7274V13.4557ZM19.2211 16C18.8792 16 18.5902 15.882 18.3541 15.6459C18.118 15.4098 18 15.1208 18 14.7789V5.22108C18 4.87918 18.118 4.59019 18.3541 4.35411C18.5902 4.11804 18.8792 4 19.2211 4H28.7789C29.1208 4 29.4098 4.11804 29.6459 4.35411C29.882 4.59019 30 4.87918 30 5.22108V14.7789C30 15.1208 29.882 15.4098 29.6459 15.6459C29.4098 15.882 29.1208 16 28.7789 16H19.2211Z" fill="#ACACAC"/>
</g>
<mask id="mask2_208_17394" style="mask-type:alpha" maskUnits="userSpaceOnUse" x="32" y="4" width="12" height="12">
<rect x="32" y="4" width="12" height="12" fill="#D9D9D9"/>
</mask>
<g mask="url(#mask2_208_17394)">
<path d="M35.9114 13.4557H38.8675C39.2094 13.4557 39.4984 13.3377 39.7345 13.1016C39.9706 12.8655 40.0886 12.5765 40.0886 12.2346V10.8091C40.0886 10.5706 40.0146 10.3797 39.8666 10.2366C39.7185 10.0934 39.552 10.0146 39.3671 10C39.552 9.98544 39.7185 9.90658 39.8666 9.76342C40.0146 9.62025 40.0886 9.42943 40.0886 9.19095V7.76538C40.0886 7.42348 39.9706 7.13449 39.7345 6.89842C39.4984 6.66234 39.2094 6.5443 38.8675 6.5443H35.9114V7.53165H38.8675C38.9358 7.53165 38.9918 7.55354 39.0356 7.59734C39.0794 7.64114 39.1013 7.69715 39.1013 7.76538V9.2726C39.1013 9.34082 39.0794 9.39684 39.0356 9.44063C38.9918 9.48443 38.9358 9.50633 38.8675 9.50633H37.1325V10.4937H38.8675C38.9358 10.4937 38.9918 10.5156 39.0356 10.5594C39.0794 10.6032 39.1013 10.6592 39.1013 10.7274V12.2346C39.1013 12.3028 39.0794 12.3589 39.0356 12.4027C38.9918 12.4465 38.9358 12.4684 38.8675 12.4684H35.9114V13.4557ZM33.2211 16C32.8792 16 32.5902 15.882 32.3541 15.6459C32.118 15.4098 32 15.1208 32 14.7789V5.22108C32 4.87918 32.118 4.59019 32.3541 4.35411C32.5902 4.11804 32.8792 4 33.2211 4H42.7789C43.1208 4 43.4098 4.11804 43.6459 4.35411C43.882 4.59019 44 4.87918 44 5.22108V14.7789C44 15.1208 43.882 15.4098 43.6459 15.6459C43.4098 15.882 43.1208 16 42.7789 16H33.2211Z" fill="#ACACAC"/>
</g>
<mask id="mask3_208_17394" style="mask-type:alpha" maskUnits="userSpaceOnUse" x="4" y="18" width="12" height="12">
<rect x="4" y="18" width="12" height="12" fill="#D9D9D9"/>
</mask>
<g mask="url(#mask3_208_17394)">
<path d="M11.1013 27.4557H12.0886V20.5443H11.1013V23.7342H8.89873V20.5443H7.91139V24.7215H11.1013V27.4557ZM5.22108 30C4.87918 30 4.59019 29.882 4.35411 29.6459C4.11804 29.4098 4 29.1208 4 28.7789V19.2211C4 18.8792 4.11804 18.5902 4.35411 18.3541C4.59019 18.118 4.87918 18 5.22108 18H14.7789C15.1208 18 15.4098 18.118 15.6459 18.3541C15.882 18.5902 16 18.8792 16 19.2211V28.7789C16 29.1208 15.882 29.4098 15.6459 29.6459C15.4098 29.882 15.1208 30 14.7789 30H5.22108Z" fill="#ACACAC"/>
</g>
<mask id="mask4_208_17394" style="mask-type:alpha" maskUnits="userSpaceOnUse" x="32" y="18" width="12" height="12">
<rect x="32" y="18" width="12" height="12" fill="#D9D9D9"/>
</mask>
<g mask="url(#mask4_208_17394)">
<path d="M35.9114 27.4557H38.8675C39.2094 27.4557 39.4984 27.3377 39.7345 27.1016C39.9706 26.8655 40.0886 26.5765 40.0886 26.2346V24.7274C40.0886 24.3855 39.9706 24.0965 39.7345 23.8604C39.4984 23.6244 39.2094 23.5063 38.8675 23.5063H36.8987V21.5316H40.0886V20.5443H35.9114V24.4937H38.8675C38.9358 24.4937 38.9918 24.5156 39.0356 24.5594C39.0794 24.6032 39.1013 24.6592 39.1013 24.7274V26.2346C39.1013 26.3028 39.0794 26.3589 39.0356 26.4027C38.9918 26.4465 38.9358 26.4684 38.8675 26.4684H35.9114V27.4557ZM33.2211 30C32.8792 30 32.5902 29.882 32.3541 29.6459C32.118 29.4098 32 29.1208 32 28.7789V19.2211C32 18.8792 32.118 18.5902 32.3541 18.3541C32.5902 18.118 32.8792 18 33.2211 18H42.7789C43.1208 18 43.4098 18.118 43.6459 18.3541C43.882 18.5902 44 18.8792 44 19.2211V28.7789C44 29.1208 43.882 29.4098 43.6459 29.6459C43.4098 29.882 43.1208 30 42.7789 30H33.2211Z" fill="#ACACAC"/>
</g>
</svg>
