<svg width="20" height="20" viewBox="0 0 20 20" fill="none" xmlns="http://www.w3.org/2000/svg">
<mask id="mask0_2667_3763" style="mask-type:alpha" maskUnits="userSpaceOnUse" x="0" y="0" width="20" height="20">
<rect width="20" height="20" fill="#D9D9D9"/>
</mask>
<g mask="url(#mask0_2667_3763)">
<path d="M4.99984 17.9168C4.41762 17.9168 3.92484 17.7152 3.5215 17.3118C3.11817 16.9085 2.9165 16.4157 2.9165 15.8335V13.4297H5.4165V2.0835H17.0832V15.8335C17.0832 16.4157 16.8815 16.9085 16.4782 17.3118C16.0748 17.7152 15.5821 17.9168 14.9998 17.9168H4.99984ZM14.9998 16.6668C15.2359 16.6668 15.4339 16.587 15.5936 16.4272C15.7533 16.2675 15.8332 16.0696 15.8332 15.8335V3.3335H6.6665V13.4297H14.1665V15.8335C14.1665 16.0696 14.2464 16.2675 14.4061 16.4272C14.5658 16.587 14.7637 16.6668 14.9998 16.6668ZM7.66005 7.2437V5.9937H14.8396V7.2437H7.66005ZM7.66005 9.64766V8.39766H14.8396V9.64766H7.66005ZM4.99984 16.6668H12.9165V14.6795H4.1665V15.8335C4.1665 16.0696 4.24637 16.2675 4.40609 16.4272C4.56581 16.587 4.76373 16.6668 4.99984 16.6668ZM4.99984 16.6668H4.1665H12.9165H4.99984Z" fill="#1C1B1F"/>
</g>
</svg>
