<svg width="48" height="32" viewBox="0 0 48 32" fill="none" xmlns="http://www.w3.org/2000/svg">
<rect x="0.5" y="0.5" width="47" height="31" rx="1.5" fill="white"/>
<rect x="0.5" y="0.5" width="47" height="31" rx="1.5" stroke="#E5E2E1"/>
<mask id="mask0_209_18416" style="mask-type:alpha" maskUnits="userSpaceOnUse" x="29" y="3" width="12" height="12">
<rect x="29" y="3" width="12" height="12" fill="#D9D9D9"/>
</mask>
<g mask="url(#mask0_209_18416)">
<path d="M35.1899 12.4557H36.1772V5.5443H33.3671V6.53165H35.1899V12.4557ZM30.2211 15C29.8792 15 29.5902 14.882 29.3541 14.6459C29.118 14.4098 29 14.1208 29 13.7789V4.22108C29 3.87918 29.118 3.59019 29.3541 3.35411C29.5902 3.11804 29.8792 3 30.2211 3H39.7789C40.1208 3 40.4098 3.11804 40.6459 3.35411C40.882 3.59019 41 3.87918 41 4.22108V13.7789C41 14.1208 40.882 14.4098 40.6459 14.6459C40.4098 14.882 40.1208 15 39.7789 15H30.2211Z" fill="#ACACAC"/>
</g>
<mask id="mask1_209_18416" style="mask-type:alpha" maskUnits="userSpaceOnUse" x="6" y="9" width="12" height="12">
<rect x="6" y="9" width="12" height="12" fill="#D9D9D9"/>
</mask>
<g mask="url(#mask1_209_18416)">
<path d="M9.91139 18.4557H14.0886V17.4684H10.8987V15.7274C10.8987 15.6592 10.9206 15.6032 10.9644 15.5594C11.0082 15.5156 11.0642 15.4937 11.1325 15.4937H12.8675C13.2094 15.4937 13.4984 15.3756 13.7345 15.1396C13.9706 14.9035 14.0886 14.6145 14.0886 14.2726V12.7654C14.0886 12.4235 13.9706 12.1345 13.7345 11.8984C13.4984 11.6623 13.2094 11.5443 12.8675 11.5443H9.91139V12.5316H12.8675C12.9358 12.5316 12.9918 12.5535 13.0356 12.5973C13.0794 12.6411 13.1013 12.6972 13.1013 12.7654V14.2726C13.1013 14.3408 13.0794 14.3968 13.0356 14.4406C12.9918 14.4844 12.9358 14.5063 12.8675 14.5063H11.1325C10.7906 14.5063 10.5016 14.6244 10.2655 14.8604C10.0294 15.0965 9.91139 15.3855 9.91139 15.7274V18.4557ZM7.22108 21C6.87918 21 6.59019 20.882 6.35411 20.6459C6.11804 20.4098 6 20.1208 6 19.7789V10.2211C6 9.87918 6.11804 9.59019 6.35411 9.35411C6.59019 9.11804 6.87918 9 7.22108 9H16.7789C17.1208 9 17.4098 9.11804 17.6459 9.35411C17.882 9.59019 18 9.87918 18 10.2211V19.7789C18 20.1208 17.882 20.4098 17.6459 20.6459C17.4098 20.882 17.1208 21 16.7789 21H7.22108Z" fill="#ACACAC"/>
</g>
<mask id="mask2_209_18416" style="mask-type:alpha" maskUnits="userSpaceOnUse" x="21" y="17" width="12" height="12">
<rect x="21" y="17" width="12" height="12" fill="#D9D9D9"/>
</mask>
<g mask="url(#mask2_209_18416)">
<path d="M24.9114 26.4557H27.8675C28.2094 26.4557 28.4984 26.3377 28.7345 26.1016C28.9706 25.8655 29.0886 25.5765 29.0886 25.2346V23.8091C29.0886 23.5706 29.0146 23.3797 28.8666 23.2366C28.7185 23.0934 28.552 23.0146 28.3671 23C28.552 22.9854 28.7185 22.9066 28.8666 22.7634C29.0146 22.6203 29.0886 22.4294 29.0886 22.1909V20.7654C29.0886 20.4235 28.9706 20.1345 28.7345 19.8984C28.4984 19.6623 28.2094 19.5443 27.8675 19.5443H24.9114V20.5316H27.8675C27.9358 20.5316 27.9918 20.5535 28.0356 20.5973C28.0794 20.6411 28.1013 20.6972 28.1013 20.7654V22.2726C28.1013 22.3408 28.0794 22.3968 28.0356 22.4406C27.9918 22.4844 27.9358 22.5063 27.8675 22.5063H26.1325V23.4937H27.8675C27.9358 23.4937 27.9918 23.5156 28.0356 23.5594C28.0794 23.6032 28.1013 23.6592 28.1013 23.7274V25.2346C28.1013 25.3028 28.0794 25.3589 28.0356 25.4027C27.9918 25.4465 27.9358 25.4684 27.8675 25.4684H24.9114V26.4557ZM22.2211 29C21.8792 29 21.5902 28.882 21.3541 28.6459C21.118 28.4098 21 28.1208 21 27.7789V18.2211C21 17.8792 21.118 17.5902 21.3541 17.3541C21.5902 17.118 21.8792 17 22.2211 17H31.7789C32.1208 17 32.4098 17.118 32.6459 17.3541C32.882 17.5902 33 17.8792 33 18.2211V27.7789C33 28.1208 32.882 28.4098 32.6459 28.6459C32.4098 28.882 32.1208 29 31.7789 29H22.2211Z" fill="#ACACAC"/>
</g>
</svg>
