<svg width="48" height="34" viewBox="0 0 48 34" fill="none" xmlns="http://www.w3.org/2000/svg">
<rect x="0.5" y="0.5" width="47" height="33" rx="1.5" fill="white"/>
<rect x="0.5" y="0.5" width="47" height="33" rx="1.5" stroke="#E5E2E1"/>
<mask id="mask0_208_17447" style="mask-type:alpha" maskUnits="userSpaceOnUse" x="4" y="5" width="12" height="12">
<rect x="4" y="5" width="12" height="12" fill="#D9D9D9"/>
</mask>
<g mask="url(#mask0_208_17447)">
<path d="M10.1899 14.4557H11.1772V7.5443H8.36709V8.53165H10.1899V14.4557ZM5.22108 17C4.87918 17 4.59019 16.882 4.35411 16.6459C4.11804 16.4098 4 16.1208 4 15.7789V6.22108C4 5.87918 4.11804 5.59019 4.35411 5.35411C4.59019 5.11804 4.87918 5 5.22108 5H14.7789C15.1208 5 15.4098 5.11804 15.6459 5.35411C15.882 5.59019 16 5.87918 16 6.22108V15.7789C16 16.1208 15.882 16.4098 15.6459 16.6459C15.4098 16.882 15.1208 17 14.7789 17H5.22108Z" fill="#ACACAC"/>
</g>
<mask id="mask1_208_17447" style="mask-type:alpha" maskUnits="userSpaceOnUse" x="18" y="5" width="12" height="12">
<rect x="18" y="5" width="12" height="12" fill="#D9D9D9"/>
</mask>
<g mask="url(#mask1_208_17447)">
<path d="M21.9114 14.4557H24.8675C25.2094 14.4557 25.4984 14.3377 25.7345 14.1016C25.9706 13.8655 26.0886 13.5765 26.0886 13.2346V11.8091C26.0886 11.5706 26.0146 11.3797 25.8666 11.2366C25.7185 11.0934 25.552 11.0146 25.3671 11C25.552 10.9854 25.7185 10.9066 25.8666 10.7634C26.0146 10.6203 26.0886 10.4294 26.0886 10.1909V8.76538C26.0886 8.42348 25.9706 8.13449 25.7345 7.89842C25.4984 7.66234 25.2094 7.5443 24.8675 7.5443H21.9114V8.53165H24.8675C24.9358 8.53165 24.9918 8.55354 25.0356 8.59734C25.0794 8.64114 25.1013 8.69715 25.1013 8.76538V10.2726C25.1013 10.3408 25.0794 10.3968 25.0356 10.4406C24.9918 10.4844 24.9358 10.5063 24.8675 10.5063H23.1325V11.4937H24.8675C24.9358 11.4937 24.9918 11.5156 25.0356 11.5594C25.0794 11.6032 25.1013 11.6592 25.1013 11.7274V13.2346C25.1013 13.3028 25.0794 13.3589 25.0356 13.4027C24.9918 13.4465 24.9358 13.4684 24.8675 13.4684H21.9114V14.4557ZM19.2211 17C18.8792 17 18.5902 16.882 18.3541 16.6459C18.118 16.4098 18 16.1208 18 15.7789V6.22108C18 5.87918 18.118 5.59019 18.3541 5.35411C18.5902 5.11804 18.8792 5 19.2211 5H28.7789C29.1208 5 29.4098 5.11804 29.6459 5.35411C29.882 5.59019 30 5.87918 30 6.22108V15.7789C30 16.1208 29.882 16.4098 29.6459 16.6459C29.4098 16.882 29.1208 17 28.7789 17H19.2211Z" fill="#ACACAC"/>
</g>
<mask id="mask2_208_17447" style="mask-type:alpha" maskUnits="userSpaceOnUse" x="32" y="19" width="12" height="12">
<rect x="32" y="19" width="12" height="12" fill="#D9D9D9"/>
</mask>
<g mask="url(#mask2_208_17447)">
<path d="M35.9114 28.4557H38.8675C39.2094 28.4557 39.4984 28.3377 39.7345 28.1016C39.9706 27.8655 40.0886 27.5765 40.0886 27.2346V25.7274C40.0886 25.3855 39.9706 25.0965 39.7345 24.8604C39.4984 24.6244 39.2094 24.5063 38.8675 24.5063H36.8987V22.5316H40.0886V21.5443H35.9114V25.4937H38.8675C38.9358 25.4937 38.9918 25.5156 39.0356 25.5594C39.0794 25.6032 39.1013 25.6592 39.1013 25.7274V27.2346C39.1013 27.3028 39.0794 27.3589 39.0356 27.4027C38.9918 27.4465 38.9358 27.4684 38.8675 27.4684H35.9114V28.4557ZM33.2211 31C32.8792 31 32.5902 30.882 32.3541 30.6459C32.118 30.4098 32 30.1208 32 29.7789V20.2211C32 19.8792 32.118 19.5902 32.3541 19.3541C32.5902 19.118 32.8792 19 33.2211 19H42.7789C43.1208 19 43.4098 19.118 43.6459 19.3541C43.882 19.5902 44 19.8792 44 20.2211V29.7789C44 30.1208 43.882 30.4098 43.6459 30.6459C43.4098 30.882 43.1208 31 42.7789 31H33.2211Z" fill="#ACACAC"/>
</g>
<mask id="mask3_208_17447" style="mask-type:alpha" maskUnits="userSpaceOnUse" x="4" y="19" width="12" height="12">
<rect x="4" y="19" width="12" height="12" fill="#D9D9D9"/>
</mask>
<g mask="url(#mask3_208_17447)">
<path d="M7.91139 28.4557H12.0886V27.4684H8.89873V25.7274C8.89873 25.6592 8.92063 25.6032 8.96443 25.5594C9.00823 25.5156 9.06424 25.4937 9.13247 25.4937H10.8675C11.2094 25.4937 11.4984 25.3756 11.7345 25.1396C11.9706 24.9035 12.0886 24.6145 12.0886 24.2726V22.7654C12.0886 22.4235 11.9706 22.1345 11.7345 21.8984C11.4984 21.6623 11.2094 21.5443 10.8675 21.5443H7.91139V22.5316H10.8675C10.9358 22.5316 10.9918 22.5535 11.0356 22.5973C11.0794 22.6411 11.1013 22.6972 11.1013 22.7654V24.2726C11.1013 24.3408 11.0794 24.3968 11.0356 24.4406C10.9918 24.4844 10.9358 24.5063 10.8675 24.5063H9.13247C8.79057 24.5063 8.50158 24.6244 8.26551 24.8604C8.02943 25.0965 7.91139 25.3855 7.91139 25.7274V28.4557ZM5.22108 31C4.87918 31 4.59019 30.882 4.35411 30.6459C4.11804 30.4098 4 30.1208 4 29.7789V20.2211C4 19.8792 4.11804 19.5902 4.35411 19.3541C4.59019 19.118 4.87918 19 5.22108 19H14.7789C15.1208 19 15.4098 19.118 15.6459 19.3541C15.882 19.5902 16 19.8792 16 20.2211V29.7789C16 30.1208 15.882 30.4098 15.6459 30.6459C15.4098 30.882 15.1208 31 14.7789 31H5.22108Z" fill="#ACACAC"/>
</g>
<mask id="mask4_208_17447" style="mask-type:alpha" maskUnits="userSpaceOnUse" x="18" y="19" width="12" height="12">
<rect x="18" y="19" width="12" height="12" fill="#D9D9D9"/>
</mask>
<g mask="url(#mask4_208_17447)">
<path d="M25.1013 28.4557H26.0886V21.5443H25.1013V24.7342H22.8987V21.5443H21.9114V25.7215H25.1013V28.4557ZM19.2211 31C18.8792 31 18.5902 30.882 18.3541 30.6459C18.118 30.4098 18 30.1208 18 29.7789V20.2211C18 19.8792 18.118 19.5902 18.3541 19.3541C18.5902 19.118 18.8792 19 19.2211 19H28.7789C29.1208 19 29.4098 19.118 29.6459 19.3541C29.882 19.5902 30 19.8792 30 20.2211V29.7789C30 30.1208 29.882 30.4098 29.6459 30.6459C29.4098 30.882 29.1208 31 28.7789 31H19.2211Z" fill="#ACACAC"/>
</g>
</svg>
