<svg width="20" height="20" viewBox="0 0 20 20" fill="none" xmlns="http://www.w3.org/2000/svg">
<mask id="mask0_2618_3275" style="mask-type:alpha" maskUnits="userSpaceOnUse" x="0" y="0" width="20" height="20">
<rect width="20" height="20" fill="#D9D9D9"/>
</mask>
<g mask="url(#mask0_2618_3275)">
<path d="M7.30775 15.1977C6.89583 15.1977 6.54766 15.0573 6.26324 14.7763C5.97881 14.4953 5.8366 14.1513 5.8366 13.7444V3.45333C5.8366 3.0464 5.97881 2.70245 6.26324 2.42147C6.54766 2.14049 6.89583 2 7.30775 2H15.5289C15.9408 2 16.2889 2.14049 16.5734 2.42147C16.8578 2.70245 17 3.0464 17 3.45333V13.7444C17 14.1513 16.8578 14.4953 16.5734 14.7763C16.2889 15.0573 15.9408 15.1977 15.5289 15.1977H7.30775ZM7.30775 14.0226H15.5289C15.5993 14.0226 15.6638 13.9936 15.7224 13.9356C15.7811 13.8777 15.8105 13.814 15.8105 13.7444V3.45333C15.8105 3.38373 15.7811 3.32 15.7224 3.26215C15.6638 3.20414 15.5993 3.17514 15.5289 3.17514H7.30775C7.23729 3.17514 7.17278 3.20414 7.11422 3.26215C7.0555 3.32 7.02614 3.38373 7.02614 3.45333V13.7444C7.02614 13.814 7.0555 13.8777 7.11422 13.9356C7.17278 13.9936 7.23729 14.0226 7.30775 14.0226ZM4.47114 18C4.05923 18 3.71106 17.8595 3.42663 17.5785C3.14221 17.2976 3 16.9536 3 16.5467V5.66802C3 5.50124 3.0565 5.36158 3.16951 5.24904C3.28236 5.13665 3.42252 5.08045 3.58997 5.08045C3.75742 5.08045 3.89925 5.13665 4.01546 5.24904C4.13151 5.36158 4.18954 5.50124 4.18954 5.66802V16.5467C4.18954 16.6163 4.2189 16.68 4.27761 16.7379C4.33618 16.7959 4.40069 16.8249 4.47114 16.8249H13.287C13.4559 16.8249 13.5972 16.8806 13.7111 16.9921C13.8249 17.1037 13.8818 17.2423 13.8818 17.4077C13.8818 17.5731 13.8249 17.7131 13.7111 17.8278C13.5972 17.9426 13.4559 18 13.287 18H4.47114Z" fill="#1C1B1F"/>
</g>
</svg>
