<svg width="20" height="20" viewBox="0 0 20 20" fill="none" xmlns="http://www.w3.org/2000/svg">
<mask id="mask0_663_28685" style="mask-type:alpha" maskUnits="userSpaceOnUse" x="0" y="0" width="20" height="20">
<rect width="20" height="20" fill="#D9D9D9"/>
</mask>
<g mask="url(#mask0_663_28685)">
<path d="M17.5832 5.7563V14.2434C17.5832 14.6088 17.4537 14.9234 17.1946 15.1873C16.9356 15.4512 16.6185 15.5832 16.2434 15.5832H3.7563C3.39088 15.5832 3.07623 15.4512 2.81234 15.1873C2.54845 14.9234 2.4165 14.6088 2.4165 14.2434V5.7563C2.4165 5.39088 2.54845 5.07623 2.81234 4.81234C3.07623 4.54845 3.39088 4.4165 3.7563 4.4165H16.2434C16.6185 4.4165 16.9356 4.54845 17.1946 4.81234C17.4537 5.07623 17.5832 5.39088 17.5832 5.7563ZM3.49984 7.3365H16.4998V5.7563C16.4998 5.69213 16.4731 5.63338 16.4196 5.58005C16.3663 5.52657 16.3075 5.49984 16.2434 5.49984H3.7563C3.69213 5.49984 3.63338 5.52657 3.58005 5.58005C3.52657 5.63338 3.49984 5.69213 3.49984 5.7563V7.3365ZM3.49984 9.66317V14.2434C3.49984 14.3075 3.52657 14.3663 3.58005 14.4196C3.63338 14.4731 3.69213 14.4998 3.7563 14.4998H16.2434C16.3075 14.4998 16.3663 14.4731 16.4196 14.4196C16.4731 14.3663 16.4998 14.3075 16.4998 14.2434V9.66317H3.49984Z" fill="#1C1B1F"/>
</g>
</svg>
