<svg width="20" height="20" viewBox="0 0 20 20" fill="none" xmlns="http://www.w3.org/2000/svg">
<mask id="mask0_87_10681" style="mask-type:alpha" maskUnits="userSpaceOnUse" x="0" y="0" width="20" height="20">
<rect width="20" height="20" fill="#D9D9D9"/>
</mask>
<g mask="url(#mask0_87_10681)">
<path d="M6.54208 4.08333C6.3925 4.08333 6.26479 4.03181 6.15896 3.92875C6.05299 3.82569 6 3.69806 6 3.54583C6 3.39347 6.05194 3.26444 6.15583 3.15875C6.25958 3.05292 6.38819 3 6.54167 3H14.9579C15.1075 3 15.2352 3.05153 15.341 3.15458C15.447 3.25764 15.5 3.38528 15.5 3.5375C15.5 3.68986 15.4481 3.81889 15.3442 3.92458C15.2404 4.03042 15.1118 4.08333 14.9583 4.08333H6.54208Z" fill="#1C1B1F"/>
<path d="M15.9165 5.33383C15.9165 5.18425 15.968 5.05654 16.0711 4.95071C16.1741 4.84473 16.3018 4.79175 16.454 4.79175C16.6064 4.79175 16.7354 4.84369 16.8411 4.94758C16.9469 5.05133 16.9998 5.17994 16.9998 5.33341L16.9998 13.7497C16.9998 13.8992 16.9483 14.027 16.8453 14.1328C16.7422 14.2388 16.6146 14.2917 16.4623 14.2917C16.31 14.2917 16.1809 14.2398 16.0753 14.1359C15.9694 14.0322 15.9165 13.9036 15.9165 13.7501V5.33383Z" fill="#1C1B1F"/>
<path d="M6.54208 16.0833C6.3925 16.0833 6.26479 16.0318 6.15896 15.9288C6.05299 15.8257 6 15.6981 6 15.5458C6 15.3935 6.05194 15.2644 6.15583 15.1587C6.25958 15.0529 6.38819 15 6.54167 15H14.9579C15.1075 15 15.2352 15.0515 15.341 15.1546C15.447 15.2576 15.5 15.3853 15.5 15.5375C15.5 15.6899 15.4481 15.8189 15.3442 15.9246C15.2404 16.0304 15.1118 16.0833 14.9583 16.0833H6.54208Z" fill="#1C1B1F"/>
<path d="M4 5.33383C4 5.18425 4.05153 5.05654 4.15458 4.95071C4.25764 4.84473 4.38528 4.79175 4.5375 4.79175C4.68986 4.79175 4.81889 4.84369 4.92458 4.94758C5.03042 5.05133 5.08333 5.17994 5.08333 5.33341L5.08333 13.7497C5.08333 13.8992 5.03181 14.027 4.92875 14.1328C4.82569 14.2388 4.69806 14.2917 4.54583 14.2917C4.39347 14.2917 4.26444 14.2398 4.15875 14.1359C4.05292 14.0322 4 13.9036 4 13.7501L4 5.33383Z" fill="#1C1B1F"/>
</g>
</svg>
