<svg width="20" height="20" viewBox="0 0 20 20" fill="none" xmlns="http://www.w3.org/2000/svg">
<mask id="mask0_543_27030" style="mask-type:alpha" maskUnits="userSpaceOnUse" x="0" y="0" width="20" height="20">
<rect width="20" height="20" fill="#D9D9D9"/>
</mask>
<g mask="url(#mask0_543_27030)">
<path d="M4.7563 16.5832C4.38116 16.5832 4.06407 16.4537 3.80505 16.1946C3.54602 15.9356 3.4165 15.6185 3.4165 15.2434V11.9998H4.49984V15.2434C4.49984 15.3075 4.52657 15.3663 4.58005 15.4196C4.63338 15.4731 4.69213 15.4998 4.7563 15.4998H7.99984V16.5832H4.7563ZM11.9998 16.5832V15.4998H15.2434C15.3075 15.4998 15.3663 15.4731 15.4196 15.4196C15.4731 15.3663 15.4998 15.3075 15.4998 15.2434V11.9998H16.5832V15.2434C16.5832 15.6185 16.4537 15.9356 16.1946 16.1946C15.9356 16.4537 15.6185 16.5832 15.2434 16.5832H11.9998ZM3.4165 7.99984V4.7563C3.4165 4.38116 3.54602 4.06407 3.80505 3.80505C4.06407 3.54602 4.38116 3.4165 4.7563 3.4165H7.99984V4.49984H4.7563C4.69213 4.49984 4.63338 4.52657 4.58005 4.58005C4.52657 4.63338 4.49984 4.69213 4.49984 4.7563V7.99984H3.4165ZM15.4998 7.99984V4.7563C15.4998 4.69213 15.4731 4.63338 15.4196 4.58005C15.3663 4.52657 15.3075 4.49984 15.2434 4.49984H11.9998V3.4165H15.2434C15.6185 3.4165 15.9356 3.54602 16.1946 3.80505C16.4537 4.06407 16.5832 4.38116 16.5832 4.7563V7.99984H15.4998Z" fill="#1C1B1F"/>
</g>
</svg>
