<svg width="35" height="35" viewBox="0 0 35 35" fill="none" xmlns="http://www.w3.org/2000/svg">
<path d="M25.423 0H9.11618C4.10584 0 0.0349121 4.04772 0.0349121 9.03487V25.2605C0.0349121 26.6522 0.34807 27.9628 0.916373 29.1342V29.1806L0.962775 29.2154C2.43572 32.2193 5.54399 34.2837 9.11618 34.2837H25.423C30.4333 34.2837 34.5042 30.236 34.5042 25.2489V9.02326C34.5042 4.04771 30.4333 0 25.423 0Z" fill="#2F65B0"/>
<path d="M30.2129 6.06611C30.0737 5.75297 29.633 5.24264 28.8327 5.25424C28.0324 5.25424 27.5801 5.74137 27.4409 6.00812L21.9435 15.7157L17.4898 13.0713C18.7424 12.793 20.4241 12.2131 21.3984 11.0417C22.0131 10.2878 22.2682 9.40633 22.1406 8.4089C22.0246 7.48106 21.5839 6.7156 20.8068 6.1357C18.1973 4.15244 12.6303 4.9411 12.3867 4.9759C12.1084 5.02229 11.9112 5.25424 11.9112 5.5326L11.8764 14.0339L7.94465 5.79935C7.82867 5.4862 7.38797 4.9527 6.55291 4.9527C5.75265 4.9527 5.30031 5.43982 5.16113 5.71817L0.0116093 14.6138C0.0116093 14.5095 0 16.7711 0 16.7711L6.13536 6.26328C6.15856 6.22848 6.26296 6.07771 6.55291 6.07771C6.80807 6.0893 6.88925 6.18209 6.91244 6.24008L11.9112 16.7363C12.0272 16.9682 12.2823 17.0958 12.5375 17.0378C12.7926 16.9798 12.9782 16.7595 12.9782 16.4927L13.0246 6.0313C14.3816 5.89213 18.2901 5.63697 20.1226 7.02873C20.6445 7.43466 20.946 7.93339 21.0156 8.54809C21.0968 9.24397 20.9344 9.82386 20.5169 10.3342C19.1831 11.9463 15.8429 12.2015 15.8081 12.2015C15.5645 12.2131 15.3558 12.3986 15.2978 12.6306C15.2398 12.8741 15.3442 13.1177 15.5529 13.2453L21.8391 16.9798C21.8391 16.9798 21.8391 16.9798 21.8507 16.9798C21.8855 17.003 21.9203 17.003 21.9551 17.0146C21.9899 17.0262 22.0246 17.0378 22.0478 17.0494C22.0826 17.0494 22.129 17.0494 22.1638 17.0378C22.1986 17.0378 22.2334 17.0378 22.2682 17.0262C22.303 17.0146 22.3378 16.9914 22.3726 16.9798C22.4074 16.9682 22.4422 16.9566 22.4654 16.9335C22.5002 16.9103 22.5234 16.8755 22.5466 16.8523C22.5697 16.8291 22.5929 16.8059 22.6161 16.7827L28.392 6.57641C28.4152 6.54162 28.5195 6.39086 28.8095 6.39086C29.0646 6.39086 29.1458 6.50683 29.1458 6.50683C29.1574 6.53002 29.1574 6.54162 29.169 6.56482L34.4461 17.2814L34.4577 14.7646L30.2129 6.06611Z" fill="white"/>
<path d="M27.5222 12.1082C27.5222 11.4935 28.0441 10.9948 28.682 10.9948C29.3199 10.9948 29.8418 11.4935 29.8418 12.1082C29.8418 12.7229 29.3199 13.2216 28.682 13.2216C28.0325 13.2332 27.5222 12.7345 27.5222 12.1082Z" fill="white"/>
<path d="M28.879 19.3225H28.4614C28.3686 19.3225 28.2991 19.2529 28.2991 19.1601V14.8689C28.2991 14.7761 28.3686 14.7065 28.4614 14.7065H28.879C28.9718 14.7065 29.0413 14.7761 29.0413 14.8689V19.1601C29.0529 19.2529 28.9718 19.3225 28.879 19.3225Z" fill="white"/>
<path d="M17.2695 19.1713C10.0323 19.1713 3.8738 23.8221 1.57739 30.2938C1.87894 30.7345 2.23846 31.152 2.6096 31.5348C2.91115 30.4793 3.31707 29.4703 3.83898 28.5193H8.97693C8.51301 30.259 8.23465 32.1843 8.13027 34.2255C8.45501 34.2603 8.77975 34.2951 9.10449 34.2951H9.49882C9.6032 32.2306 9.91637 30.2706 10.4267 28.5193H16.5852V34.2951H17.9538V28.5193H24.1123C24.611 30.2706 24.9242 32.2306 25.0402 34.2951H25.4229C25.7593 34.2951 26.084 34.2719 26.3971 34.2371C26.2928 32.1958 26.0144 30.2706 25.5505 28.5193H30.4796C30.5492 28.5193 30.6072 28.4961 30.6768 28.4845C31.1987 29.4471 31.6162 30.4677 31.9294 31.5463C32.3121 31.1636 32.6485 30.7461 32.9616 30.2938C30.6652 23.8221 24.5067 19.1713 17.2695 19.1713ZM9.39444 27.1507H4.69726C6.63413 24.344 9.47565 22.2215 12.8159 21.2009C11.3893 22.6043 10.2179 24.6571 9.39444 27.1507ZM16.5852 27.1507H10.8674C12.178 23.5321 14.254 21.0154 16.5852 20.5978V27.1507ZM17.9538 27.1507V20.5978C20.285 21.0154 22.361 23.5321 23.6716 27.1507H17.9538ZM25.1446 27.1507C24.3211 24.6571 23.1497 22.5927 21.7348 21.2009C25.0634 22.2215 27.9049 24.344 29.8534 27.1507H25.1446Z" fill="white"/>
</svg>
