<svg width="20" height="20" viewBox="0 0 20 20" fill="none" xmlns="http://www.w3.org/2000/svg">
<mask id="mask0_2618_3430" style="mask-type:alpha" maskUnits="userSpaceOnUse" x="0" y="0" width="20" height="20">
<rect width="20" height="20" fill="#D9D9D9"/>
</mask>
<g mask="url(#mask0_2618_3430)">
<path fill-rule="evenodd" clip-rule="evenodd" d="M8.76923 3.93333C8.57269 3.93333 8.37935 4.01601 8.23316 4.17122C8.08624 4.3272 8 4.5434 8 4.77333V5.61333H12V4.77333C12 4.5434 11.9138 4.3272 11.7668 4.17122C11.6206 4.01601 11.4273 3.93333 11.2308 3.93333H8.76923ZM12.9231 5.61333V4.77333C12.9231 4.31016 12.75 3.86166 12.4353 3.52754C12.1198 3.19265 11.6871 3 11.2308 3H8.76923C8.31294 3 7.88017 3.19265 7.56473 3.52754C7.25002 3.86166 7.07692 4.31016 7.07692 4.77333V5.61333H4.46154C4.20664 5.61333 4 5.82227 4 6.08C4 6.33773 4.20664 6.54667 4.46154 6.54667H5.23077V15.2267C5.23077 15.6898 5.40387 16.1383 5.71857 16.4725C6.03401 16.8073 6.46678 17 6.92308 17H13.0769C13.5332 17 13.966 16.8073 14.2814 16.4725C14.5961 16.1383 14.7692 15.6898 14.7692 15.2267V6.54667H15.5385C15.7934 6.54667 16 6.33773 16 6.08C16 5.82227 15.7934 5.61333 15.5385 5.61333H12.9231ZM6.15385 6.54667V15.2267C6.15385 15.4566 6.24009 15.6728 6.38701 15.8288C6.5332 15.984 6.72653 16.0667 6.92308 16.0667H13.0769C13.2735 16.0667 13.4668 15.984 13.613 15.8288C13.7599 15.6728 13.8462 15.4566 13.8462 15.2267V6.54667H6.15385ZM8.76923 8.88C9.02413 8.88 9.23077 9.08893 9.23077 9.34667V13.2667C9.23077 13.5244 9.02413 13.7333 8.76923 13.7333C8.51433 13.7333 8.30769 13.5244 8.30769 13.2667V9.34667C8.30769 9.08893 8.51433 8.88 8.76923 8.88ZM11.2308 8.88C11.4857 8.88 11.6923 9.08893 11.6923 9.34667V13.2667C11.6923 13.5244 11.4857 13.7333 11.2308 13.7333C10.9759 13.7333 10.7692 13.5244 10.7692 13.2667V9.34667C10.7692 9.08893 10.9759 8.88 11.2308 8.88Z" fill="black"/>
</g>
</svg>
