<svg width="20" height="20" viewBox="0 0 20 20" fill="none" xmlns="http://www.w3.org/2000/svg">
<mask id="mask0_50_8071" style="mask-type:alpha" maskUnits="userSpaceOnUse" x="0" y="0" width="20" height="20">
<rect width="20" height="20" fill="#D9D9D9"/>
</mask>
<g mask="url(#mask0_50_8071)">
<path d="M7.60745 9.69068L9.5387 7.76755L8.1412 6.35713L7.5562 6.94213C7.44079 7.05755 7.31176 7.11526 7.16912 7.11526C7.02662 7.11526 6.89766 7.05755 6.78225 6.94213C6.66683 6.82672 6.60912 6.69908 6.60912 6.55922C6.60912 6.41922 6.66683 6.29151 6.78225 6.17609L7.37516 5.58318L5.86391 4.09276L3.94079 6.01588L7.60745 9.69068ZM13.9762 16.0511L15.8991 14.128L14.4295 12.6376L13.8447 13.2307C13.7346 13.3407 13.6069 13.397 13.4616 13.3996C13.3163 13.4023 13.186 13.346 13.0706 13.2307C12.9553 13.1153 12.8977 12.9862 12.8977 12.8436C12.8977 12.701 12.9553 12.5719 13.0706 12.4565L13.6637 11.8717L12.2406 10.4613L10.3093 12.3926L13.9762 16.0511ZM4.08683 16.5832C3.89975 16.5832 3.74134 16.5182 3.61162 16.3884C3.48176 16.2587 3.41683 16.1003 3.41683 15.9132V14.1248C3.41683 14.0244 3.43502 13.9392 3.47141 13.8692C3.50766 13.7992 3.55787 13.7322 3.62204 13.6682L6.84162 10.4486L3.04016 6.63922C2.86072 6.45977 2.771 6.252 2.771 6.01588C2.771 5.77977 2.86072 5.57199 3.04016 5.39255L5.24058 3.19213C5.42002 3.01269 5.6278 2.92165 5.86391 2.91901C6.10002 2.91623 6.3078 3.00463 6.48725 3.18422L10.2966 6.99338L13.5435 3.7338C13.6589 3.61838 13.7802 3.53665 13.9072 3.48859C14.0343 3.44054 14.1684 3.41651 14.3095 3.41651C14.4505 3.41651 14.5845 3.44054 14.7116 3.48859C14.8388 3.53665 14.9601 3.61838 15.0754 3.7338L16.2662 4.94068C16.3816 5.05595 16.462 5.1772 16.5072 5.30443C16.5527 5.43151 16.5754 5.56554 16.5754 5.70651C16.5754 5.84762 16.5527 5.98172 16.5072 6.1088C16.462 6.23588 16.3816 6.35713 16.2662 6.47255L13.0145 9.70338L16.8079 13.5128C16.9873 13.6922 17.077 13.9 17.077 14.1361C17.077 14.3722 16.9873 14.58 16.8079 14.7594L14.6075 16.9598C14.428 17.1393 14.2202 17.229 13.9841 17.229C13.748 17.229 13.5402 17.1393 13.3608 16.9598L9.55141 13.1584L6.33183 16.378C6.2678 16.4421 6.20079 16.4923 6.13079 16.5286C6.06079 16.565 5.97558 16.5832 5.87516 16.5832H4.08683ZM4.50016 15.4998H5.69891L13.5193 7.6713L12.3287 6.48068L4.50016 14.3011V15.4998ZM12.9345 7.05755L12.3287 6.48068L13.5193 7.6713L12.9345 7.05755Z" fill="#1C1B1F"/>
</g>
</svg>
