<svg width="20" height="20" viewBox="0 0 20 20" fill="none" xmlns="http://www.w3.org/2000/svg">
<mask id="mask0_160_21210" style="mask-type:alpha" maskUnits="userSpaceOnUse" x="0" y="0" width="20" height="20">
<rect width="20" height="20" fill="#D9D9D9"/>
</mask>
<g mask="url(#mask0_160_21210)">
<path d="M4.7563 16.5832C4.39088 16.5832 4.07623 16.4512 3.81234 16.1873C3.54845 15.9234 3.4165 15.6088 3.4165 15.2434V4.7563C3.4165 4.38116 3.54845 4.06407 3.81234 3.80505C4.07623 3.54602 4.39088 3.4165 4.7563 3.4165H15.2434C15.6185 3.4165 15.9356 3.54602 16.1946 3.80505C16.4537 4.06407 16.5832 4.38116 16.5832 4.7563V15.2434C16.5832 15.6088 16.4537 15.9234 16.1946 16.1873C15.9356 16.4512 15.6185 16.5832 15.2434 16.5832H4.7563ZM4.49984 4.7563V15.2434C4.49984 15.3075 4.52657 15.3663 4.58005 15.4196C4.63338 15.4731 4.69213 15.4998 4.7563 15.4998H15.2434C15.3075 15.4998 15.3663 15.4731 15.4196 15.4196C15.4731 15.3663 15.4998 15.3075 15.4998 15.2434V4.7563C15.4998 4.69213 15.4731 4.63338 15.4196 4.58005C15.3663 4.52657 15.3075 4.49984 15.2434 4.49984H13.7915V10.0992C13.7915 10.222 13.7391 10.3189 13.6344 10.39C13.5297 10.461 13.4202 10.4645 13.3059 10.4005L12.285 9.90213C12.197 9.85185 12.1037 9.82671 12.005 9.82671C11.9064 9.82671 11.8096 9.85185 11.7146 9.90213L10.6938 10.4005C10.5795 10.4645 10.47 10.461 10.3653 10.39C10.2605 10.3189 10.2082 10.222 10.2082 10.0992V4.49984H4.7563C4.69213 4.49984 4.63338 4.52657 4.58005 4.58005C4.52657 4.63338 4.49984 4.69213 4.49984 4.7563Z" fill="#1C1B1F"/>
</g>
</svg>
