<svg width="29" height="28" viewBox="0 0 29 28" fill="none" xmlns="http://www.w3.org/2000/svg">
<g clip-path="url(#clip0_1017_28459)">
<mask id="mask0_1017_28459" style="mask-type:alpha" maskUnits="userSpaceOnUse" x="4" y="4" width="21" height="20">
<rect x="4.5" y="4" width="20" height="20" fill="#D9D9D9"/>
</mask>
<g mask="url(#mask0_1017_28459)">
<path d="M10.2564 22.5837C9.88128 22.5837 9.5642 22.4541 9.30517 22.1951C9.04614 21.9361 8.91663 21.619 8.91663 21.2439V6.75678C8.91663 6.38164 9.04614 6.06456 9.30517 5.80553C9.5642 5.54651 9.88128 5.41699 10.2564 5.41699H18.7435C19.1186 5.41699 19.4357 5.54651 19.6948 5.80553C19.9538 6.06456 20.0833 6.38164 20.0833 6.75678V21.2439C20.0833 21.619 19.9538 21.9361 19.6948 22.1951C19.4357 22.4541 19.1186 22.5837 18.7435 22.5837H10.2564ZM9.99996 19.2087H19V8.79199H9.99996V19.2087Z" fill="#AEAEAE"/>
</g>
</g>
<defs>
<clipPath id="clip0_1017_28459">
<rect x="0.5" width="28" height="28" rx="8" fill="white"/>
</clipPath>
</defs>
</svg>
