<svg width="29" height="28" viewBox="0 0 29 28" fill="none" xmlns="http://www.w3.org/2000/svg">
<g clip-path="url(#clip0_1017_28465)">
<mask id="mask0_1017_28465" style="mask-type:alpha" maskUnits="userSpaceOnUse" x="4" y="4" width="21" height="20">
<rect x="4.5" y="4" width="20" height="20" fill="#D9D9D9"/>
</mask>
<g mask="url(#mask0_1017_28465)">
<path d="M7.25642 19.5837C6.88128 19.5837 6.5642 19.4541 6.30517 19.1951C6.04614 18.9361 5.91663 18.619 5.91663 18.2439V9.75678C5.91663 9.38164 6.04614 9.06456 6.30517 8.80553C6.5642 8.54651 6.88128 8.41699 7.25642 8.41699H21.7435C22.1186 8.41699 22.4357 8.54651 22.6948 8.80553C22.9538 9.06456 23.0833 9.38164 23.0833 9.75678V18.2439C23.0833 18.619 22.9538 18.9361 22.6948 19.1951C22.4357 19.4541 22.1186 19.5837 21.7435 19.5837H7.25642ZM9.29163 18.5003H19.7083V9.50033H9.29163V18.5003Z" fill="#AEAEAE"/>
</g>
</g>
<defs>
<clipPath id="clip0_1017_28465">
<rect x="0.5" width="28" height="28" rx="8" fill="white"/>
</clipPath>
</defs>
</svg>
