<svg width="29" height="28" viewBox="0 0 29 28" fill="none" xmlns="http://www.w3.org/2000/svg">
<g clip-path="url(#clip0_1017_28453)">
<mask id="mask0_1017_28453" style="mask-type:alpha" maskUnits="userSpaceOnUse" x="4" y="4" width="21" height="20">
<rect x="4.5" y="4" width="20" height="20" fill="#D9D9D9"/>
</mask>
<g mask="url(#mask0_1017_28453)">
<path d="M9.25642 22.5837C8.88795 22.5837 8.57253 22.4525 8.31017 22.1901C8.04781 21.9278 7.91663 21.6123 7.91663 21.2439V6.75678C7.91663 6.38831 8.04781 6.0729 8.31017 5.81053C8.57253 5.54817 8.88795 5.41699 9.25642 5.41699H19.7435C20.112 5.41699 20.4274 5.54817 20.6898 5.81053C20.9521 6.0729 21.0833 6.38831 21.0833 6.75678V21.2439C21.0833 21.6123 20.9521 21.9278 20.6898 22.1901C20.4274 22.4525 20.112 22.5837 19.7435 22.5837H9.25642ZM8.99996 17.2247H20V8.79199H8.99996V17.2247ZM13.5481 20.3562H15.4518C15.5724 20.3562 15.6779 20.311 15.7683 20.2205C15.8586 20.1301 15.9037 20.0246 15.9037 19.9041C15.9037 19.7837 15.8586 19.6782 15.7683 19.5878C15.6779 19.4974 15.5724 19.4522 15.4518 19.4522H13.5481C13.4275 19.4522 13.322 19.4974 13.2316 19.5878C13.1413 19.6782 13.0962 19.7837 13.0962 19.9041C13.0962 20.0246 13.1413 20.1301 13.2316 20.2205C13.322 20.311 13.4275 20.3562 13.5481 20.3562Z" fill="#AEAEAE"/>
</g>
</g>
<defs>
<clipPath id="clip0_1017_28453">
<rect x="0.5" width="28" height="28" rx="8" fill="white"/>
</clipPath>
</defs>
</svg>
