<svg width="20" height="20" viewBox="0 0 20 20" fill="none" xmlns="http://www.w3.org/2000/svg">
<mask id="mask0_2615_3671" style="mask-type:alpha" maskUnits="userSpaceOnUse" x="0" y="0" width="20" height="20">
<rect width="20" height="20" fill="#D9D9D9"/>
</mask>
<g mask="url(#mask0_2615_3671)">
<path d="M9.9743 16.8013C9.78735 16.8013 9.60735 16.7628 9.4343 16.6858C9.26124 16.6089 9.10631 16.4951 8.96951 16.3446L2.78367 9.36687C2.66937 9.2441 2.58013 9.10528 2.51596 8.95042C2.45194 8.79542 2.41992 8.63569 2.41992 8.47125C2.41992 8.38458 2.43513 8.30764 2.46555 8.24042C2.49596 8.17306 2.51971 8.09347 2.5368 8.00167L3.76763 4.84938C3.86263 4.59826 4.02798 4.39396 4.26367 4.23646C4.49923 4.07882 4.75374 4 5.02721 4H14.9214C15.1949 4 15.4494 4.07882 15.6849 4.23646C15.9206 4.39396 16.086 4.59826 16.181 4.84938L17.4118 8.00167C17.4289 8.09347 17.4526 8.17306 17.483 8.24042C17.5135 8.30764 17.5287 8.38458 17.5287 8.47125C17.5287 8.63569 17.4967 8.79542 17.4326 8.95042C17.3685 9.10528 17.2792 9.2441 17.1649 9.36687L10.9791 16.3446C10.8423 16.4951 10.6874 16.6089 10.5143 16.6858C10.3412 16.7628 10.1612 16.8013 9.9743 16.8013ZM7.84596 8.25H12.1026L10.5191 5.08333H9.42951L7.84596 8.25ZM9.43263 15.2644V9.33333H4.20013L9.43263 15.2644ZM10.516 15.2644L15.7485 9.33333H10.516V15.2644ZM13.3045 8.25H16.3943L15.1747 5.2275C15.1533 5.18486 15.1212 5.15014 15.0785 5.12333C15.0357 5.09667 14.9903 5.08333 14.9422 5.08333H11.721L13.3045 8.25ZM3.5543 8.25H6.64409L8.22763 5.08333H5.02721C4.97916 5.08333 4.93374 5.09667 4.89096 5.12333C4.84819 5.15014 4.8161 5.18486 4.79471 5.2275L3.5543 8.25Z" fill="#1C1B1F"/>
</g>
</svg>
