<svg width="20" height="20" viewBox="0 0 20 20" fill="none" xmlns="http://www.w3.org/2000/svg">
<mask id="mask0_362_30153" style="mask-type:alpha" maskUnits="userSpaceOnUse" x="0" y="0" width="20" height="20">
<rect width="20" height="20" fill="#D9D9D9"/>
</mask>
<g mask="url(#mask0_362_30153)">
<path d="M4.42296 17.0832C4.00866 17.0832 3.654 16.9357 3.359 16.6407C3.064 16.3457 2.9165 15.991 2.9165 15.5767V4.42296C2.9165 4.00866 3.064 3.654 3.359 3.359C3.654 3.064 4.00866 2.9165 4.42296 2.9165H15.5767C15.991 2.9165 16.3457 3.064 16.6407 3.359C16.9357 3.654 17.0832 4.00866 17.0832 4.42296V15.5767C17.0832 15.991 16.9357 16.3457 16.6407 16.6407C16.3457 16.9357 15.991 17.0832 15.5767 17.0832H4.42296ZM4.42296 15.8332H15.5767C15.6516 15.8332 15.713 15.8091 15.7611 15.7611C15.8091 15.713 15.8332 15.6516 15.8332 15.5767V10H4.1665V15.5767C4.1665 15.6516 4.19053 15.713 4.23859 15.7611C4.28664 15.8091 4.3481 15.8332 4.42296 15.8332Z" fill="#1C1B1F"/>
</g>
</svg>
