<svg width="20" height="20" viewBox="0 0 20 20" fill="none" xmlns="http://www.w3.org/2000/svg">
<mask id="mask0_20_4852" style="mask-type:alpha" maskUnits="userSpaceOnUse" x="0" y="0" width="20" height="20">
<rect width="20" height="20" fill="#D9D9D9"/>
</mask>
<g mask="url(#mask0_20_4852)">
<path d="M11.894 9.99965L12.9967 8.89715C13.1067 8.78701 13.1643 8.65931 13.1696 8.51403C13.175 8.36875 13.1206 8.2384 13.0065 8.12299C12.8845 8.00771 12.7535 7.95139 12.6135 7.95403C12.4737 7.95667 12.344 8.01764 12.2246 8.13695L10.8327 9.52903C10.692 9.66972 10.6217 9.82785 10.6217 10.0034C10.6217 10.1791 10.69 10.3328 10.8267 10.4644L12.2242 11.8617C12.3385 11.976 12.4635 12.0324 12.5992 12.0309C12.7349 12.0292 12.8637 11.9708 12.9856 11.8555C13.0998 11.7401 13.1556 11.611 13.1529 11.4684C13.1501 11.3258 13.0887 11.1944 12.9685 11.0742L11.894 9.99965Z" fill="#1C1B1F"/>
<path d="M8.02598 10.0456L6.92327 8.94305C6.81327 8.83291 6.75563 8.7052 6.75036 8.55993C6.74494 8.41465 6.79932 8.2843 6.91348 8.16888C7.03543 8.05361 7.1664 7.99729 7.3064 7.99993C7.44626 8.00256 7.57591 8.06354 7.69536 8.18284L9.08723 9.57493C9.22793 9.71562 9.29827 9.87375 9.29827 10.0493C9.29827 10.225 9.22994 10.3787 9.09327 10.5103L7.69577 11.9076C7.58147 12.0219 7.45647 12.0783 7.32077 12.0768C7.18508 12.0751 7.05626 12.0167 6.93432 11.9014C6.82015 11.786 6.76438 11.6569 6.76702 11.5143C6.7698 11.3717 6.83126 11.2403 6.9514 11.1201L8.02598 10.0456Z" fill="#1C1B1F"/>
<path d="M5.08979 16.5832C4.71465 16.5832 4.39757 16.4537 4.13854 16.1946C3.87951 15.9356 3.75 15.6185 3.75 15.2434V4.7563C3.75 4.39088 3.87951 4.07623 4.13854 3.81234C4.39757 3.54845 4.71465 3.4165 5.08979 3.4165H7.57688C7.94229 3.4165 8.25694 3.54845 8.52083 3.81234C8.78472 4.07623 8.91667 4.39088 8.91667 4.7563V6.0865C8.91667 6.23761 8.86514 6.36435 8.76208 6.46671C8.65903 6.56893 8.53132 6.62005 8.37896 6.62005C8.22674 6.62005 8.09771 6.5681 7.99188 6.46421C7.88618 6.36046 7.83333 6.23185 7.83333 6.07838V4.7563C7.83333 4.69213 7.8066 4.63338 7.75313 4.58005C7.69979 4.52657 7.64104 4.49984 7.57688 4.49984H5.08979C5.02562 4.49984 4.96688 4.52657 4.91354 4.58005C4.86007 4.63338 4.83333 4.69213 4.83333 4.7563V15.2434C4.83333 15.3075 4.86007 15.3663 4.91354 15.4196C4.96688 15.4731 5.02562 15.4998 5.08979 15.4998H7.57688C7.64104 15.4998 7.69979 15.4718 7.75313 15.4157C7.8066 15.3596 7.83333 15.3021 7.83333 15.2434V13.9213C7.83333 13.7678 7.88486 13.6392 7.98792 13.5355C8.09083 13.4316 8.21847 13.3796 8.37083 13.3796C8.52319 13.3796 8.65222 13.4316 8.75792 13.5355C8.86375 13.6392 8.91667 13.7678 8.91667 13.9213V15.2434C8.91667 15.6185 8.78472 15.9356 8.52083 16.1946C8.25694 16.4537 7.94229 16.5832 7.57688 16.5832H5.08979ZM12.5769 16.5832C12.2017 16.5832 11.8847 16.4537 11.6256 16.1946C11.3666 15.9356 11.2371 15.6185 11.2371 15.2434V13.9132C11.2371 13.7621 11.2886 13.6353 11.3917 13.533C11.4947 13.4307 11.6224 13.3796 11.7748 13.3796C11.927 13.3796 12.056 13.4316 12.1619 13.5355C12.2676 13.6392 12.3204 13.7678 12.3204 13.9213V15.2434C12.3204 15.3075 12.3472 15.3663 12.4006 15.4196C12.454 15.4731 12.5127 15.4998 12.5769 15.4998H15.064C15.1281 15.4998 15.1869 15.4731 15.2402 15.4196C15.2937 15.3663 15.3204 15.3075 15.3204 15.2434V4.7563C15.3204 4.69213 15.2937 4.63338 15.2402 4.58005C15.1869 4.52657 15.1281 4.49984 15.064 4.49984H12.5769C12.5127 4.49984 12.454 4.52657 12.4006 4.58005C12.3472 4.63338 12.3204 4.69213 12.3204 4.7563V6.0865C12.3204 6.23761 12.2689 6.36435 12.1658 6.46671C12.0629 6.56893 11.9353 6.62005 11.7829 6.62005C11.6306 6.62005 11.5015 6.5681 11.3958 6.46421C11.29 6.36046 11.2371 6.23185 11.2371 6.07838V4.7563C11.2371 4.39088 11.3666 4.07623 11.6256 3.81234C11.8847 3.54845 12.2017 3.4165 12.5769 3.4165H15.064C15.4294 3.4165 15.744 3.54845 16.0079 3.81234C16.2718 4.07623 16.4038 4.39088 16.4038 4.7563V15.2434C16.4038 15.6185 16.2718 15.9356 16.0079 16.1946C15.744 16.4537 15.4294 16.5832 15.064 16.5832H12.5769Z" fill="#1C1B1F"/>
</g>
</svg>
