<svg width="20" height="20" viewBox="0 0 20 20" fill="none" xmlns="http://www.w3.org/2000/svg">
<mask id="mask0_362_30772" style="mask-type:alpha" maskUnits="userSpaceOnUse" x="0" y="0" width="20" height="20">
<rect width="20" height="20" fill="#D9D9D9"/>
</mask>
<g mask="url(#mask0_362_30772)">
<path d="M7.93727 14.7036L16.466 6.17462L15.5752 5.29649L7.92435 12.9344L4.40352 9.40066L3.51268 10.2917L7.93727 14.7036ZM7.03831 15.5738L2.64247 11.1779C2.51317 11.0486 2.4197 10.9086 2.36206 10.7579C2.30428 10.6074 2.27539 10.452 2.27539 10.2917C2.27539 10.1314 2.30428 9.97385 2.36206 9.81899C2.4197 9.66399 2.51317 9.52191 2.64247 9.39274L3.50456 8.53045C3.63386 8.40128 3.77386 8.30566 3.92456 8.24358C4.07511 8.18163 4.23477 8.15066 4.40352 8.15066C4.5724 8.15066 4.73213 8.18163 4.88268 8.24358C5.03338 8.30566 5.17338 8.40128 5.30268 8.53045L7.93727 11.1652L14.6841 4.40545C14.8048 4.27628 14.9426 4.18281 15.0975 4.12503C15.2525 4.06739 15.41 4.03857 15.5702 4.03857C15.7305 4.03857 15.8881 4.06739 16.0431 4.12503C16.198 4.18281 16.34 4.27205 16.4693 4.39274L17.3443 5.25482C17.4735 5.38413 17.5691 5.52413 17.6312 5.67482C17.6932 5.82538 17.7241 5.98503 17.7241 6.15378C17.7241 6.32267 17.6953 6.48239 17.6375 6.63295C17.5798 6.78364 17.4864 6.92364 17.3571 7.05295L8.83622 15.5738C8.70706 15.7029 8.56497 15.7986 8.40997 15.8607C8.25511 15.9226 8.09754 15.9536 7.93727 15.9536C7.77699 15.9536 7.61942 15.9226 7.46456 15.8607C7.30956 15.7986 7.16747 15.7029 7.03831 15.5738Z" fill="#1C1B1F"/>
</g>
</svg>
