<svg width="20" height="20" viewBox="0 0 20 20" fill="none" xmlns="http://www.w3.org/2000/svg">
<mask id="mask0_2618_3439" style="mask-type:alpha" maskUnits="userSpaceOnUse" x="0" y="0" width="20" height="20">
<rect width="20" height="20" fill="#D9D9D9"/>
</mask>
<g mask="url(#mask0_2618_3439)">
<path d="M9.99552 12.7602C9.89955 12.7602 9.8103 12.7431 9.72776 12.7088C9.64522 12.6747 9.56948 12.6233 9.50052 12.5548L6.76067 9.83057C6.64246 9.71437 6.58418 9.57828 6.58582 9.42231C6.58761 9.26634 6.64978 9.1267 6.77231 9.00337C6.90351 8.8802 7.04425 8.82002 7.19455 8.82284C7.345 8.82566 7.48224 8.88873 7.60627 9.01205L9.41791 10.8356V3.57877C9.41791 3.41449 9.47321 3.27699 9.58381 3.16628C9.69425 3.05543 9.83142 3 9.9953 3C10.1592 3 10.2979 3.05543 10.4115 3.16628C10.5252 3.27699 10.5821 3.41449 10.5821 3.57877V10.8356L12.4161 9.01205C12.5294 8.89452 12.664 8.83657 12.8198 8.8382C12.9754 8.83998 13.1189 8.90246 13.2501 9.02563C13.3726 9.14896 13.4325 9.28682 13.4296 9.43923C13.4268 9.59164 13.3634 9.7295 13.2393 9.85283L10.4995 12.5548C10.4246 12.6233 10.3458 12.6747 10.2633 12.7088C10.1807 12.7431 10.0915 12.7602 9.99552 12.7602ZM5.43351 16C5.03007 16 4.6903 15.8616 4.41418 15.5848C4.13806 15.3081 4 14.9693 4 14.5684V13.8014C4 13.6371 4.0553 13.4996 4.1659 13.3889C4.27634 13.278 4.41351 13.2226 4.57739 13.2226C4.74127 13.2226 4.88 13.278 4.99358 13.3889C5.10731 13.4996 5.16418 13.6371 5.16418 13.8014V14.5684C5.16418 14.637 5.19291 14.6998 5.25037 14.7568C5.30769 14.8139 5.37082 14.8425 5.43978 14.8425H14.5602C14.6292 14.8425 14.6923 14.8139 14.7496 14.7568C14.8071 14.6998 14.8358 14.637 14.8358 14.5684V13.8014C14.8358 13.6371 14.891 13.4996 15.0015 13.3889C15.1121 13.278 15.2493 13.2226 15.4132 13.2226C15.5771 13.2226 15.7158 13.278 15.8294 13.3889C15.9431 13.4996 16 13.6371 16 13.8014V14.5684C16 14.9693 15.8607 15.3081 15.5822 15.5848C15.3037 15.8616 14.9628 16 14.5593 16H5.43351Z" fill="#1C1B1F"/>
</g>
</svg>
