<svg width="20" height="20" viewBox="0 0 20 20" fill="none" xmlns="http://www.w3.org/2000/svg">
<mask id="mask0_2664_3795" style="mask-type:alpha" maskUnits="userSpaceOnUse" x="0" y="0" width="20" height="20">
<rect width="20" height="20" fill="#D9D9D9"/>
</mask>
<g mask="url(#mask0_2664_3795)">
<path d="M5.25646 17.9168C4.83549 17.9168 4.47917 17.771 4.1875 17.4793C3.89583 17.1877 3.75 16.8313 3.75 16.4104V3.58995C3.75 3.16898 3.89583 2.81266 4.1875 2.521C4.47917 2.22933 4.83549 2.0835 5.25646 2.0835H11.2517C11.4525 2.0835 11.6456 2.12252 11.831 2.20058C12.0163 2.2785 12.1774 2.38586 12.3142 2.52266L15.8108 6.01933C15.9476 6.15613 16.055 6.31718 16.1329 6.50245C16.211 6.68787 16.25 6.881 16.25 7.08183V16.4104C16.25 16.8313 16.1042 17.1877 15.8125 17.4793C15.5208 17.771 15.1645 17.9168 14.7435 17.9168H5.25646ZM11.25 6.33016V3.3335H5.25646C5.19229 3.3335 5.13354 3.36023 5.08021 3.4137C5.02674 3.46704 5 3.52579 5 3.58995V16.4104C5 16.4745 5.02674 16.5333 5.08021 16.5866C5.13354 16.6401 5.19229 16.6668 5.25646 16.6668H14.7435C14.8077 16.6668 14.8665 16.6401 14.9198 16.5866C14.9733 16.5333 15 16.4745 15 16.4104V7.0835H12.0033C11.7885 7.0835 11.6092 7.01162 11.4656 6.86787C11.3219 6.72426 11.25 6.54502 11.25 6.33016Z" fill="#1C1B1F"/>
</g>
</svg>
