<svg width="20" height="20" viewBox="0 0 20 20" fill="none" xmlns="http://www.w3.org/2000/svg">
<mask id="mask0_111_12157" style="mask-type:alpha" maskUnits="userSpaceOnUse" x="0" y="0" width="20" height="20">
<rect width="20" height="20" fill="#D9D9D9"/>
</mask>
<g mask="url(#mask0_111_12157)">
<path d="M10.6696 1.86553L17.0255 5.49844C17.1974 5.60539 17.3334 5.73657 17.4334 5.89199C17.5332 6.0474 17.5832 6.22928 17.5832 6.43761V15.2437C17.5832 15.6188 17.4537 15.9359 17.1946 16.1949C16.9356 16.4539 16.6185 16.5834 16.2434 16.5834H3.7563C3.38116 16.5834 3.06407 16.4539 2.80505 16.1949C2.54602 15.9359 2.4165 15.6188 2.4165 15.2437V6.43761C2.4165 6.22928 2.46643 6.0474 2.5663 5.89199C2.6663 5.73657 2.80227 5.60539 2.97421 5.49844L9.33005 1.86553C9.53366 1.74261 9.75546 1.68115 9.99546 1.68115C10.2356 1.68115 10.4603 1.74261 10.6696 1.86553ZM10.128 10.1491L16.4998 6.50011L10.128 2.85115C10.0853 2.82435 10.0426 2.81094 9.99984 2.81094C9.95706 2.81094 9.91435 2.82435 9.87171 2.85115L3.49984 6.50011L9.87171 10.1491C9.91435 10.1759 9.95706 10.1893 9.99984 10.1893C10.0426 10.1893 10.0853 10.1759 10.128 10.1491ZM9.33005 11.1426L3.49984 7.81094V15.2437C3.49984 15.3185 3.52387 15.38 3.57192 15.428C3.61998 15.4761 3.68143 15.5001 3.7563 15.5001H16.2434C16.3182 15.5001 16.3797 15.4761 16.4278 15.428C16.4758 15.38 16.4998 15.3185 16.4998 15.2437V7.81094L10.6696 11.1426C10.466 11.2655 10.2442 11.327 10.0042 11.327C9.76407 11.327 9.53935 11.2655 9.33005 11.1426Z" fill="#1C1B1F"/>
</g>
</svg>
