<svg width="20" height="20" viewBox="0 0 20 20" fill="none" xmlns="http://www.w3.org/2000/svg">
<mask id="mask0_2618_3298" style="mask-type:alpha" maskUnits="userSpaceOnUse" x="0" y="0" width="20" height="20">
<rect width="20" height="20" fill="#D9D9D9"/>
</mask>
<g mask="url(#mask0_2618_3298)">
<path d="M3.92092 17.5C3.52307 17.5 3.18678 17.3627 2.91207 17.0882C2.63736 16.8136 2.5 16.4775 2.5 16.0798V4.96371C2.5 4.56607 2.63736 4.22997 2.91207 3.95541C3.18678 3.68084 3.52307 3.54356 3.92092 3.54356H9.77783C9.96932 3.54356 10.1129 3.6037 10.2087 3.72398C10.3044 3.8444 10.3523 3.97565 10.3523 4.11772C10.3523 4.25978 10.3042 4.39103 10.208 4.51146C10.1118 4.63173 9.97123 4.69187 9.78622 4.69187H3.92092C3.85287 4.69187 3.79056 4.72021 3.734 4.77689C3.67729 4.83342 3.64893 4.8957 3.64893 4.96371V16.0798C3.64893 16.1479 3.67729 16.2101 3.734 16.2667C3.79056 16.3233 3.85287 16.3517 3.92092 16.3517H15.043C15.1111 16.3517 15.1734 16.3233 15.23 16.2667C15.2867 16.2101 15.315 16.1479 15.315 16.0798V10.7029C15.315 10.5187 15.3752 10.3788 15.4955 10.2831C15.616 10.1874 15.7473 10.1395 15.8895 10.1395C16.0316 10.1395 16.163 10.1874 16.2834 10.2831C16.4038 10.3788 16.464 10.5223 16.464 10.7137V16.0798C16.464 16.4775 16.3266 16.8136 16.0519 17.0882C15.7772 17.3627 15.4409 17.5 15.043 17.5H3.92092ZM6.80277 12.4941V11.145C6.80277 10.9567 6.83679 10.7754 6.90485 10.6011C6.97275 10.4267 7.07674 10.2695 7.21683 10.1297L14.5225 2.82793C14.6448 2.70559 14.7733 2.62035 14.9083 2.57221C15.043 2.52407 15.1844 2.5 15.3323 2.5C15.4821 2.5 15.6261 2.52407 15.7644 2.57221C15.9029 2.62035 16.03 2.70118 16.1458 2.81468L17.1465 3.79274C17.2745 3.91508 17.3654 4.04919 17.4194 4.19509C17.4731 4.34098 17.5 4.48887 17.5 4.63874C17.5 4.7889 17.4744 4.93428 17.4231 5.07487C17.3718 5.21547 17.2853 5.34635 17.1635 5.46751L9.83242 12.7949C9.69234 12.9347 9.53546 13.0373 9.3618 13.1025C9.18798 13.1675 9.00717 13.2001 8.81937 13.2001H7.51732C7.31625 13.2001 7.14693 13.1328 7.00936 12.9982C6.87163 12.8635 6.80277 12.6955 6.80277 12.4941ZM7.9517 12.0518H8.94266L14.4288 6.56835L13.9445 6.06221L13.4211 5.56114L7.9517 11.0276V12.0518Z" fill="#1C1B1F"/>
</g>
</svg>
