<svg width="57" height="34" viewBox="0 0 57 34" fill="none" xmlns="http://www.w3.org/2000/svg">
<g clip-path="url(#clip0_28_6357)">
<rect y="0.814392" width="56.4952" height="32.3712" rx="8" fill="white"/>
<path d="M23.101 6.81439H13.4148C10.4386 6.81439 8.02051 9.21873 8.02051 12.1811V21.8191C8.02051 22.6458 8.20652 23.4243 8.54409 24.1201V24.1476L8.57166 24.1683C9.44658 25.9526 11.2929 27.1789 13.4148 27.1789H23.101C26.0771 27.1789 28.4952 24.7745 28.4952 21.8122V12.1742C28.4952 9.21872 26.0771 6.81439 23.101 6.81439Z" fill="#2F65B0"/>
<path d="M25.9464 10.4176C25.8637 10.2316 25.6019 9.92849 25.1266 9.93538C24.6512 9.93538 24.3825 10.2247 24.2998 10.3832L21.0344 16.1494L18.3889 14.5787C19.133 14.4134 20.1319 14.0689 20.7106 13.3731C21.0757 12.9253 21.2273 12.4017 21.1515 11.8092C21.0826 11.2581 20.8208 10.8034 20.3592 10.459C18.8092 9.28091 15.5024 9.74938 15.3577 9.77004C15.1923 9.7976 15.0752 9.93538 15.0752 10.1007L15.0546 15.1505L12.7191 10.2592C12.6502 10.0732 12.3884 9.75626 11.8924 9.75626C11.4171 9.75626 11.1484 10.0456 11.0657 10.211L8.0069 15.495C8.0069 15.433 8 16.7764 8 16.7764L11.6444 10.5347C11.6582 10.5141 11.7202 10.4245 11.8924 10.4245C12.044 10.4314 12.0922 10.4865 12.106 10.521L15.0752 16.7557C15.1441 16.8935 15.2957 16.9693 15.4472 16.9348C15.5988 16.9004 15.709 16.7695 15.709 16.611L15.7366 10.397C16.5426 10.3143 18.8643 10.1627 19.9528 10.9894C20.2628 11.2305 20.4419 11.5268 20.4832 11.8919C20.5315 12.3053 20.435 12.6497 20.187 12.9529C19.3947 13.9104 17.4107 14.062 17.39 14.062C17.2453 14.0689 17.1213 14.1791 17.0869 14.3169C17.0524 14.4616 17.1144 14.6063 17.2384 14.682L20.9724 16.9004C20.9724 16.9004 20.9724 16.9004 20.9792 16.9004C20.9999 16.9141 21.0206 16.9141 21.0413 16.921C21.0619 16.9279 21.0826 16.9348 21.0964 16.9417C21.117 16.9417 21.1446 16.9417 21.1653 16.9348C21.1859 16.9348 21.2066 16.9348 21.2273 16.9279C21.2479 16.921 21.2686 16.9072 21.2893 16.9004C21.3099 16.8935 21.3306 16.8866 21.3444 16.8728C21.365 16.859 21.3788 16.8384 21.3926 16.8246C21.4064 16.8108 21.4202 16.797 21.4339 16.7832L24.8648 10.7207C24.8785 10.7001 24.9405 10.6105 25.1128 10.6105C25.2643 10.6105 25.3126 10.6794 25.3126 10.6794C25.3195 10.6932 25.3195 10.7001 25.3264 10.7139L28.4609 17.0795L28.4678 15.5845L25.9464 10.4176Z" fill="white"/>
<path d="M24.3481 14.0067C24.3481 13.6416 24.6582 13.3453 25.0371 13.3453C25.416 13.3453 25.726 13.6416 25.726 14.0067C25.726 14.3718 25.416 14.6681 25.0371 14.6681C24.6513 14.675 24.3481 14.3787 24.3481 14.0067Z" fill="white"/>
<path d="M25.154 18.2919H24.906C24.8509 18.2919 24.8096 18.2506 24.8096 18.1954V15.6464C24.8096 15.5913 24.8509 15.55 24.906 15.55H25.154C25.2091 15.55 25.2505 15.5913 25.2505 15.6464V18.1954C25.2574 18.2506 25.2091 18.2919 25.154 18.2919Z" fill="white"/>
<path d="M18.2579 18.2021C13.959 18.2021 10.3008 20.9647 8.93677 24.8088C9.11589 25.0706 9.32944 25.3186 9.5499 25.546C9.72901 24.9191 9.97013 24.3197 10.2801 23.7548H13.3321C13.0565 24.7882 12.8912 25.9318 12.8292 27.1443C13.0221 27.1649 13.215 27.1856 13.4079 27.1856H13.6421C13.7041 25.9593 13.8901 24.795 14.1932 23.7548H17.8514V27.1856H18.6643V23.7548H22.3225C22.6187 24.795 22.8047 25.9593 22.8736 27.1856H23.101C23.3007 27.1856 23.4936 27.1718 23.6796 27.1512C23.6176 25.9387 23.4523 24.795 23.1767 23.7548H26.1046C26.146 23.7548 26.1804 23.741 26.2218 23.7341C26.5318 24.3059 26.7798 24.9122 26.9658 25.5529C27.1931 25.3255 27.3929 25.0775 27.5789 24.8088C26.2149 20.9647 22.5567 18.2021 18.2579 18.2021ZM13.5801 22.9419H10.79C11.9405 21.2747 13.6283 20.0139 15.6124 19.4077C14.765 20.2413 14.0692 21.4607 13.5801 22.9419ZM17.8514 22.9419H14.455C15.2335 20.7924 16.4667 19.2975 17.8514 19.0495V22.9419ZM18.6643 22.9419V19.0495C20.049 19.2975 21.2822 20.7924 22.0607 22.9419H18.6643ZM22.9356 22.9419C22.4465 21.4607 21.7507 20.2344 20.9102 19.4077C22.8874 20.0139 24.5753 21.2747 25.7326 22.9419H22.9356Z" fill="white"/>
<mask id="mask0_28_6357" style="mask-type:alpha" maskUnits="userSpaceOnUse" x="32" y="9" width="17" height="16">
<rect x="32.4951" y="9" width="16" height="16" fill="#D9D9D9"/>
</mask>
<g mask="url(#mask0_28_6357)">
<path d="M40.4919 20.0001C40.4119 20.0001 40.3369 19.9862 40.2669 19.9584C40.1969 19.9306 40.1341 19.889 40.0786 19.8334L36.9176 16.6724C36.7916 16.5464 36.7314 16.4029 36.7369 16.2418C36.7425 16.0806 36.8064 15.939 36.9286 15.8168C37.0508 15.6945 37.1925 15.6334 37.3536 15.6334C37.5147 15.6334 37.6564 15.6945 37.7786 15.8168L40.4953 18.5501L43.2286 15.8168C43.3508 15.6945 43.4925 15.6362 43.6536 15.6418C43.8147 15.6473 43.9564 15.7112 44.0786 15.8334C44.2008 15.9556 44.2619 16.0973 44.2619 16.2584C44.2619 16.4195 44.1989 16.5628 44.0729 16.6881L40.9119 19.8334C40.8519 19.889 40.7869 19.9306 40.7169 19.9584C40.6469 19.9862 40.5719 20.0001 40.4919 20.0001Z" fill="#1C1B1F"/>
</g>
</g>
<defs>
<clipPath id="clip0_28_6357">
<rect y="0.814392" width="56.4952" height="32.3712" rx="8" fill="white"/>
</clipPath>
</defs>
</svg>
