<svg width="20" height="20" viewBox="0 0 20 20" fill="none" xmlns="http://www.w3.org/2000/svg">
<mask id="mask0_251_23868" style="mask-type:alpha" maskUnits="userSpaceOnUse" x="0" y="0" width="20" height="20">
<rect width="20" height="20" fill="#D9D9D9"/>
</mask>
<g mask="url(#mask0_251_23868)">
<path fill-rule="evenodd" clip-rule="evenodd" d="M15.0569 13.4426C16.3151 12.4989 17 11.2715 17 10C17 8.72847 16.3151 7.50108 15.0569 6.55736C13.7983 5.61341 12.0137 5 10 5C7.98631 5 6.20174 5.61341 4.94315 6.55736C3.68486 7.50108 3 8.72847 3 10C3 11.2715 3.68486 12.4989 4.94315 13.4426C6.20174 14.3866 7.98631 15 10 15C12.0137 15 13.7983 14.3866 15.0569 13.4426ZM10 16C14.4183 16 18 13.3137 18 10C18 6.68629 14.4183 4 10 4C5.58172 4 2 6.68629 2 10C2 13.3137 5.58172 16 10 16Z" fill="black"/>
</g>
</svg>
