<svg width="20" height="20" viewBox="0 0 20 20" fill="none" xmlns="http://www.w3.org/2000/svg">
<mask id="mask0_251_26873" style="mask-type:alpha" maskUnits="userSpaceOnUse" x="0" y="0" width="20" height="20">
<rect width="20" height="20" fill="#D9D9D9"/>
</mask>
<g mask="url(#mask0_251_26873)">
<path d="M9.99984 17.6184C9.66539 17.6184 9.35581 17.5303 9.07109 17.354C8.78637 17.1776 8.5997 16.9324 8.51109 16.6184H7.99984C7.70067 16.6184 7.44532 16.5126 7.2338 16.3011C7.02227 16.0896 6.9165 15.8342 6.9165 15.535V12.6344C6.10345 12.1109 5.48352 11.4347 5.05671 10.6057C4.62991 9.7765 4.4165 8.90789 4.4165 7.99984C4.4165 6.44539 4.95845 5.12623 6.04234 4.04234C7.12623 2.95845 8.44539 2.4165 9.99984 2.4165C11.5543 2.4165 12.8734 2.95845 13.9573 4.04234C15.0412 5.12623 15.5832 6.44539 15.5832 7.99984C15.5832 8.8972 15.3698 9.7631 14.943 10.5975C14.5162 11.432 13.8962 12.1109 13.0832 12.6344V15.535C13.0832 15.8342 12.9774 16.0896 12.7659 16.3011C12.5544 16.5126 12.299 16.6184 11.9998 16.6184H11.4678C11.3791 16.9324 11.1959 17.1776 10.9182 17.354C10.6404 17.5303 10.3343 17.6184 9.99984 17.6184ZM7.99984 15.535H11.9998V14.503H7.99984V15.535ZM7.99984 13.5992H11.9998V12.5832H7.99984V13.5992ZM7.20817 11.4998H9.62796V9.03192L7.82192 7.22588L8.354 6.6938L9.99984 8.33963L11.6457 6.6938L12.1778 7.22588L10.3717 9.03192V11.4998H12.7915C13.3193 11.0693 13.7359 10.5519 14.0415 9.94775C14.3471 9.34359 14.4998 8.69428 14.4998 7.99984C14.4998 6.74984 14.0623 5.68734 13.1873 4.81234C12.3123 3.93734 11.2498 3.49984 9.99984 3.49984C8.74984 3.49984 7.68734 3.93734 6.81234 4.81234C5.93734 5.68734 5.49984 6.74984 5.49984 7.99984C5.49984 8.68039 5.65262 9.32623 5.95817 9.93734C6.26373 10.5484 6.68039 11.0693 7.20817 11.4998Z" fill="#1C1B1F"/>
</g>
</svg>
