<svg width="20" height="20" viewBox="0 0 20 20" fill="none" xmlns="http://www.w3.org/2000/svg">
<mask id="mask0_2618_3314" style="mask-type:alpha" maskUnits="userSpaceOnUse" x="0" y="0" width="20" height="20">
<rect width="20" height="20" fill="#D9D9D9"/>
</mask>
<g mask="url(#mask0_2618_3314)">
<path d="M4.42459 17C4.02571 17 3.68855 16.8623 3.41313 16.5869C3.13771 16.3114 3 15.9743 3 15.5754V12.8217C3 12.6584 3.05472 12.5216 3.16415 12.4112C3.27343 12.3011 3.40915 12.246 3.5713 12.246C3.73345 12.246 3.87072 12.3011 3.9831 12.4112C4.09563 12.5216 4.1519 12.6584 4.1519 12.8217V15.5754C4.1519 15.6436 4.18033 15.7061 4.23718 15.7628C4.29389 15.8197 4.35636 15.8481 4.42459 15.8481H15.5754C15.6436 15.8481 15.7061 15.8197 15.7628 15.7628C15.8197 15.7061 15.8481 15.6436 15.8481 15.5754V4.42459C15.8481 4.35636 15.8197 4.29389 15.7628 4.23718C15.7061 4.18033 15.6436 4.1519 15.5754 4.1519H4.42459C4.35636 4.1519 4.29389 4.18033 4.23718 4.23718C4.18033 4.29389 4.1519 4.35636 4.1519 4.42459V7.17829C4.1519 7.34162 4.09726 7.47845 3.98797 7.58877C3.87854 7.69894 3.74275 7.75402 3.5806 7.75402C3.41845 7.75402 3.28118 7.69894 3.1688 7.58877C3.05627 7.47845 3 7.34162 3 7.17829V4.42459C3 4.02571 3.13771 3.68856 3.41313 3.41313C3.68855 3.13771 4.02571 3 4.42459 3H15.5754C15.9743 3 16.3114 3.13771 16.5869 3.41313C16.8623 3.68856 17 4.02571 17 4.42459V15.5754C17 15.9743 16.8623 16.3114 16.5869 16.5869C16.3114 16.8623 15.9743 17 15.5754 17H4.42459ZM10.6612 10.5759H3.57595C3.41247 10.5759 3.27564 10.5212 3.16547 10.4118C3.05516 10.3025 3 10.1668 3 10.0047C3 9.8425 3.05516 9.70523 3.16547 9.59285C3.27564 9.48032 3.41247 9.42405 3.57595 9.42405H10.6612L8.66756 7.43038C8.55045 7.31342 8.48909 7.1777 8.48348 7.02323C8.47787 6.86861 8.53569 6.73001 8.65693 6.60744C8.78659 6.48471 8.92585 6.42476 9.07472 6.42756C9.22358 6.43037 9.35937 6.49313 9.48209 6.61585L12.372 9.50579C12.4401 9.57993 12.4912 9.65783 12.5253 9.73949C12.5594 9.82116 12.5765 9.90947 12.5765 10.0044C12.5765 10.0994 12.5594 10.1877 12.5253 10.2694C12.4912 10.351 12.4401 10.426 12.372 10.4942L9.48209 13.3841C9.36498 13.5011 9.23428 13.5588 9.09 13.5572C8.94572 13.5554 8.80874 13.4931 8.67908 13.3704C8.55784 13.2478 8.49862 13.1107 8.50142 12.9591C8.50423 12.8074 8.56699 12.6702 8.68971 12.5475L10.6612 10.5759Z" fill="#1C1B1F"/>
</g>
</svg>
