<svg width="20" height="20" viewBox="0 0 20 20" fill="none" xmlns="http://www.w3.org/2000/svg">
<mask id="mask0_15_6471" style="mask-type:alpha" maskUnits="userSpaceOnUse" x="0" y="0" width="20" height="20">
<rect width="20" height="20" fill="#D9D9D9"/>
</mask>
<g mask="url(#mask0_15_6471)">
<path d="M2.4165 14.934V11.7738C2.4165 11.5806 2.48074 11.4201 2.60921 11.2923C2.73755 11.1647 2.89664 11.1009 3.0865 11.1009H8.26588C8.4556 11.1009 8.6147 11.165 8.74317 11.2934C8.8715 11.4217 8.93567 11.5808 8.93567 11.7707V14.9309C8.93567 15.1242 8.8715 15.2847 8.74317 15.4123C8.6147 15.5401 8.4556 15.604 8.26588 15.604H3.0865C2.89664 15.604 2.73755 15.5398 2.60921 15.4113C2.48074 15.283 2.4165 15.1239 2.4165 14.934ZM2.4165 8.24984V5.08963C2.4165 4.8963 2.48074 4.73581 2.60921 4.60817C2.73755 4.48039 2.89664 4.4165 3.0865 4.4165H8.26588C8.4556 4.4165 8.6147 4.48074 8.74317 4.60921C8.8715 4.73755 8.93567 4.89664 8.93567 5.0865V8.24671C8.93567 8.43991 8.8715 8.60039 8.74317 8.72817C8.6147 8.85581 8.4556 8.91963 8.26588 8.91963H3.0865C2.89664 8.91963 2.73755 8.85546 2.60921 8.72713C2.48074 8.59879 2.4165 8.4397 2.4165 8.24984ZM3.49984 7.8365H7.85234V5.49984H3.49984V7.8365ZM13.5746 15.3732C13.486 15.3732 13.4033 15.3571 13.3265 15.325C13.2497 15.2931 13.1793 15.245 13.1153 15.1809L10.2421 12.3078C10.1287 12.1943 10.0781 12.0663 10.0905 11.9238C10.1027 11.7812 10.1643 11.6544 10.2753 11.5434C10.3897 11.4289 10.5155 11.3717 10.6528 11.3717C10.7901 11.3717 10.9165 11.4294 11.0319 11.5446L13.0384 13.564V4.96275C13.0384 4.80803 13.0898 4.67831 13.1928 4.57359C13.2958 4.46886 13.4235 4.4165 13.5759 4.4165C13.7281 4.4165 13.8571 4.46886 13.963 4.57359C14.0687 4.67831 14.1215 4.80803 14.1215 4.96275V13.564L16.1696 11.5446C16.2837 11.431 16.4089 11.3786 16.5453 11.3873C16.6816 11.3961 16.8053 11.4555 16.9163 11.5655C17.0307 11.6791 17.088 11.8028 17.088 11.9367C17.088 12.0706 17.0312 12.1943 16.9178 12.3078L14.0446 15.1809C13.975 15.245 13.9014 15.2931 13.8238 15.325C13.7463 15.3571 13.6632 15.3732 13.5746 15.3732Z" fill="#1C1B1F"/>
</g>
</svg>
