<svg width="20" height="20" viewBox="0 0 20 20" fill="none" xmlns="http://www.w3.org/2000/svg">
<mask id="mask0_412_25415" style="mask-type:alpha" maskUnits="userSpaceOnUse" x="0" y="0" width="20" height="20">
<rect width="20" height="20" fill="#D9D9D9"/>
</mask>
<g mask="url(#mask0_412_25415)">
<path d="M1.4165 16.9132V11.5961C1.4165 11.4062 1.48074 11.2471 1.60921 11.1188C1.73755 10.9903 1.89664 10.9261 2.0865 10.9261H5.2338C5.42366 10.9261 5.58275 10.9903 5.71109 11.1188C5.83942 11.2471 5.90359 11.4062 5.90359 11.5961V16.9132C5.90359 17.103 5.83942 17.2621 5.71109 17.3905C5.58275 17.5189 5.42366 17.5832 5.2338 17.5832H2.0865C1.89664 17.5832 1.73755 17.5189 1.60921 17.3905C1.48074 17.2621 1.4165 17.103 1.4165 16.9132ZM7.7563 16.9132V11.5961C7.7563 11.4062 7.82046 11.2471 7.9488 11.1188C8.07727 10.9903 8.23637 10.9261 8.42609 10.9261H11.5736C11.7633 10.9261 11.9224 10.9903 12.0509 11.1188C12.1792 11.2471 12.2434 11.4062 12.2434 11.5961V16.9132C12.2434 17.103 12.1792 17.2621 12.0509 17.3905C11.9224 17.5189 11.7633 17.5832 11.5736 17.5832H8.42609C8.23637 17.5832 8.07727 17.5189 7.9488 17.3905C7.82046 17.2621 7.7563 17.103 7.7563 16.9132ZM14.0961 16.9132V11.5961C14.0961 11.4062 14.1603 11.2471 14.2886 11.1188C14.4169 10.9903 14.576 10.9261 14.7659 10.9261H17.9132C18.103 10.9261 18.2621 10.9903 18.3905 11.1188C18.5189 11.2471 18.5832 11.4062 18.5832 11.5961V16.9132C18.5832 17.103 18.5189 17.2621 18.3905 17.3905C18.2621 17.5189 18.103 17.5832 17.9132 17.5832H14.7659C14.576 17.5832 14.4169 17.5189 14.2886 17.3905C14.1603 17.2621 14.0961 17.103 14.0961 16.9132ZM8.83963 16.4998H11.16V12.0094H8.83963V16.4998ZM1.4165 8.40359V3.0865C1.4165 2.89664 1.48074 2.73755 1.60921 2.60921C1.73755 2.48074 1.89664 2.4165 2.0865 2.4165H5.2338C5.42366 2.4165 5.58275 2.48074 5.71109 2.60921C5.83942 2.73755 5.90359 2.89664 5.90359 3.0865V8.40359C5.90359 8.59345 5.83942 8.75255 5.71109 8.88088C5.58275 9.00935 5.42366 9.07359 5.2338 9.07359H2.0865C1.89664 9.07359 1.73755 9.00935 1.60921 8.88088C1.48074 8.75255 1.4165 8.59345 1.4165 8.40359ZM7.7563 8.40359V3.0865C7.7563 2.89664 7.82046 2.73755 7.9488 2.60921C8.07727 2.48074 8.23637 2.4165 8.42609 2.4165H11.5736C11.7633 2.4165 11.9224 2.48074 12.0509 2.60921C12.1792 2.73755 12.2434 2.89664 12.2434 3.0865V8.40359C12.2434 8.59345 12.1792 8.75255 12.0509 8.88088C11.9224 9.00935 11.7633 9.07359 11.5736 9.07359H8.42609C8.23637 9.07359 8.07727 9.00935 7.9488 8.88088C7.82046 8.75255 7.7563 8.59345 7.7563 8.40359ZM14.0961 8.40359V3.0865C14.0961 2.89664 14.1603 2.73755 14.2886 2.60921C14.4169 2.48074 14.576 2.4165 14.7659 2.4165H17.9132C18.103 2.4165 18.2621 2.48074 18.3905 2.60921C18.5189 2.73755 18.5832 2.89664 18.5832 3.0865V8.40359C18.5832 8.59345 18.5189 8.75255 18.3905 8.88088C18.2621 9.00935 18.103 9.07359 17.9132 9.07359H14.7659C14.576 9.07359 14.4169 9.00935 14.2886 8.88088C14.1603 8.75255 14.0961 8.59345 14.0961 8.40359ZM2.49984 7.99025H4.82046V3.49984H2.49984V7.99025ZM15.2594 7.99025H17.4998V3.49984H15.2594V7.99025Z" fill="#1C1B1F"/>
</g>
</svg>
