<svg width="20" height="20" viewBox="0 0 20 20" fill="none" xmlns="http://www.w3.org/2000/svg">
<mask id="mask0_251_26397" style="mask-type:alpha" maskUnits="userSpaceOnUse" x="0" y="0" width="20" height="20">
<rect width="20" height="20" fill="#D9D9D9"/>
</mask>
<g mask="url(#mask0_251_26397)">
<path d="M15.0175 4L11.8573 4C11.6641 4 11.5036 4.06424 11.3758 4.19271C11.2482 4.32104 11.1844 4.48014 11.1844 4.67L11.1844 7.84938C11.1844 8.0391 11.2485 8.19819 11.3769 8.32667C11.5052 8.455 11.6643 8.51917 11.8542 8.51917H15.0144C15.2077 8.51917 15.3682 8.455 15.4958 8.32667C15.6236 8.19819 15.6875 8.0391 15.6875 7.84938V4.67C15.6875 4.48014 15.6233 4.32104 15.4948 4.19271C15.3665 4.06424 15.2074 4 15.0175 4ZM8.33333 4L5.17313 4C4.97979 4 4.81931 4.06424 4.69167 4.19271C4.56389 4.32104 4.5 4.48014 4.5 4.67L4.5 7.84937C4.5 8.0391 4.56424 8.19819 4.69271 8.32667C4.82104 8.455 4.98014 8.51917 5.17 8.51917H8.33021C8.5234 8.51917 8.68389 8.455 8.81167 8.32667C8.93931 8.19819 9.00313 8.0391 9.00313 7.84938L9.00313 4.67C9.00313 4.48014 8.93896 4.32104 8.81063 4.19271C8.68229 4.06424 8.5232 4 8.33333 4ZM7.92 5.08333V7.43583L5.58333 7.43583L5.58333 5.08333L7.92 5.08333ZM15.4567 13.1581C15.4567 13.0695 15.4406 12.9868 15.4085 12.91C15.3766 12.8332 15.3285 12.7628 15.2644 12.6987L12.3913 9.82563C12.2778 9.71215 12.1498 9.6616 12.0073 9.67396C11.8647 9.68618 11.7378 9.74778 11.6269 9.85875C11.5124 9.9732 11.4552 10.099 11.4552 10.2363C11.4552 10.3736 11.5128 10.5 11.6281 10.6154L13.6475 12.6219H5.04625C4.89153 12.6219 4.76181 12.6733 4.65708 12.7763C4.55236 12.8793 4.5 13.007 4.5 13.1594C4.5 13.3116 4.55236 13.4406 4.65708 13.5465C4.76181 13.6522 4.89153 13.705 5.04625 13.705H13.6475L11.6281 15.7531C11.5145 15.8672 11.4621 15.9924 11.4708 16.1287C11.4796 16.2651 11.539 16.3888 11.649 16.4998C11.7626 16.6142 11.8863 16.6715 12.0202 16.6715C12.1541 16.6715 12.2778 16.6147 12.3913 16.5013L15.2644 13.6281C15.3285 13.5585 15.3766 13.4849 15.4085 13.4073C15.4406 13.3298 15.4567 13.2467 15.4567 13.1581Z" fill="#1C1B1F"/>
</g>
</svg>
