<svg width="20" height="20" viewBox="0 0 20 20" fill="none" xmlns="http://www.w3.org/2000/svg">
<mask id="mask0_2622_3321" style="mask-type:alpha" maskUnits="userSpaceOnUse" x="0" y="0" width="20" height="20">
<rect width="20" height="20" fill="#D9D9D9"/>
</mask>
<g mask="url(#mask0_2622_3321)">
<path d="M3.34125 16C2.93527 16 2.6102 15.865 2.36603 15.595C2.12201 15.3252 2 14.9972 2 14.611V5.43351C2 5.04739 2.13038 4.71194 2.39113 4.42716C2.65188 4.14239 2.98524 4 3.39122 4H7.03272C7.21746 4 7.39529 4.03448 7.56619 4.10343C7.73709 4.17224 7.89357 4.28015 8.03563 4.42716L9.69964 6.14925H16.1332C16.2929 6.14925 16.4265 6.20455 16.5341 6.31515C16.6418 6.4256 16.6957 6.56276 16.6957 6.72664C16.6957 6.89052 16.6418 7.02925 16.5341 7.14284C16.4265 7.25657 16.2929 7.31343 16.1332 7.31343H9.2553L7.17852 5.16418H3.39122C3.31349 5.16418 3.24967 5.19 3.19977 5.24164C3.14987 5.29328 3.12492 5.35933 3.12492 5.43978V14.8358C3.12492 14.7554 3.14021 14.7252 3.17078 14.7454C3.20121 14.7655 3.24138 14.7899 3.29128 14.8186L4.62928 10.1413C4.71913 9.83813 4.88578 9.58843 5.12922 9.39216C5.37281 9.19575 5.65101 9.09754 5.96383 9.09754H16.5907C17.0489 9.09754 17.4228 9.28955 17.7124 9.67358C18.0019 10.0576 18.0728 10.485 17.9253 10.9557L16.7588 15.0219C16.66 15.3134 16.5364 15.5493 16.3878 15.7296C16.2391 15.9099 16.0067 16 15.6906 16H3.34125ZM4.45622 14.8358H15.4193C15.4803 14.8358 15.5344 14.8186 15.5816 14.7841C15.6287 14.7496 15.6606 14.7008 15.6772 14.6377L16.8705 10.6148C16.8981 10.523 16.8842 10.4412 16.8287 10.3694C16.7733 10.2976 16.7012 10.2617 16.6124 10.2617H5.96383C5.90282 10.2617 5.84874 10.279 5.80158 10.3134C5.75442 10.3479 5.72255 10.3967 5.70596 10.4599L4.45622 14.8358ZM4.45622 14.8358L5.70596 10.4599C5.72255 10.3967 5.73639 10.3479 5.7475 10.3134L5.76415 10.2617L5.73495 10.3694C5.71562 10.4412 5.69204 10.523 5.66421 10.6148L4.51441 14.6377C4.49783 14.7008 4.48398 14.7496 4.47288 14.7841L4.45622 14.8358Z" fill="#1C1B1F"/>
</g>
</svg>
