<svg width="20" height="20" viewBox="0 0 20 20" fill="none" xmlns="http://www.w3.org/2000/svg">
<mask id="mask0_608_25815" style="mask-type:alpha" maskUnits="userSpaceOnUse" x="0" y="0" width="20" height="20">
<rect width="20" height="20" fill="#D9D9D9"/>
</mask>
<g mask="url(#mask0_608_25815)">
<path d="M3.95817 4.49984C3.8047 4.49984 3.67609 4.44831 3.57234 4.34525C3.46845 4.2422 3.4165 4.11456 3.4165 3.96234C3.4165 3.80998 3.46845 3.68095 3.57234 3.57525C3.67609 3.46942 3.8047 3.4165 3.95817 3.4165H16.0415C16.195 3.4165 16.3236 3.46803 16.4273 3.57109C16.5312 3.67414 16.5832 3.80178 16.5832 3.954C16.5832 4.10636 16.5312 4.23539 16.4273 4.34109C16.3236 4.44692 16.195 4.49984 16.0415 4.49984H3.95817ZM3.95817 16.5832C3.8047 16.5832 3.67609 16.5316 3.57234 16.4286C3.46845 16.3255 3.4165 16.1979 3.4165 16.0457C3.4165 15.8933 3.46845 15.7643 3.57234 15.6586C3.67609 15.5528 3.8047 15.4998 3.95817 15.4998H16.0415C16.195 15.4998 16.3236 15.5514 16.4273 15.6544C16.5312 15.7575 16.5832 15.8851 16.5832 16.0373C16.5832 16.1897 16.5312 16.3187 16.4273 16.4244C16.3236 16.5303 16.195 16.5832 16.0415 16.5832H3.95817Z" fill="#1C1B1F"/>
<path d="M4.11242 11.9238L6.96846 7.30489C7.02913 7.19935 7.10979 7.12209 7.21046 7.0731C7.31126 7.02426 7.40772 6.99984 7.49984 6.99984C7.59195 6.99984 7.68841 7.02426 7.78921 7.0731C7.88988 7.12209 7.97055 7.19935 8.03121 7.30489L10.8873 11.9238C11.025 12.1533 11.0364 12.39 10.9212 12.6339C10.8061 12.8779 10.6202 12.9998 10.3636 12.9998H4.6361C4.37949 12.9998 4.19361 12.8779 4.07847 12.6339C3.96332 12.39 3.97464 12.1533 4.11242 11.9238Z" fill="#1C1B1F"/>
<path d="M15.538 11.9998H12.0255C11.8807 11.9998 11.7569 12.0514 11.654 12.1546C11.5512 12.2577 11.4998 12.3815 11.4998 12.5261C11.4998 12.6707 11.5512 12.7944 11.654 12.8971C11.7569 12.9998 11.8807 13.0511 12.0255 13.0511H15.538C15.6827 13.0511 15.8065 12.9996 15.9094 12.8965C16.0122 12.7934 16.0636 12.6696 16.0636 12.525C16.0636 12.3803 16.0122 12.2566 15.9094 12.154C15.8065 12.0512 15.6827 11.9998 15.538 11.9998Z" fill="#1C1B1F"/>
</g>
</svg>
