<svg width="20" height="20" viewBox="0 0 20 20" fill="none" xmlns="http://www.w3.org/2000/svg">
<mask id="mask0_2049_31331" style="mask-type:alpha" maskUnits="userSpaceOnUse" x="0" y="0" width="20" height="20">
<rect width="20" height="20" fill="#D9D9D9"/>
</mask>
<g mask="url(#mask0_2049_31331)">
<path d="M10.0014 17.5837C8.96197 17.5837 7.98135 17.3863 7.05954 16.9916C6.13774 16.5969 5.33093 16.0537 4.63913 15.3622C3.94732 14.6707 3.40392 13.8642 3.00892 12.9428C2.61406 12.0214 2.41663 11.0411 2.41663 10.0018C2.41663 8.94845 2.61399 7.96435 3.00871 7.04949C3.40343 6.13463 3.94656 5.3313 4.63808 4.63949C5.32961 3.94769 6.13607 3.40428 7.05746 3.00928C7.97885 2.61442 8.9592 2.41699 9.9985 2.41699C11.0518 2.41699 12.0359 2.61435 12.9508 3.00908C13.8657 3.4038 14.669 3.94692 15.3608 4.63845C16.0526 5.32998 16.596 6.13296 16.991 7.04741C17.3859 7.96185 17.5833 8.94567 17.5833 9.99887C17.5833 11.0383 17.3859 12.0189 16.9912 12.9407C16.5965 13.8625 16.0534 14.6694 15.3618 15.3612C14.6703 16.053 13.8673 16.5964 12.9529 16.9914C12.0384 17.3862 11.0546 17.5837 10.0014 17.5837ZM9.99996 16.5003C10.7957 16.5003 11.5486 16.3646 12.2587 16.0932C12.9687 15.8219 13.6095 15.4426 14.181 14.9555L5.04475 5.81928C4.56295 6.39081 4.18503 7.03158 3.911 7.74158C3.63697 8.45171 3.49996 9.20463 3.49996 10.0003C3.49996 11.8059 4.1319 13.3406 5.39579 14.6045C6.65968 15.8684 8.1944 16.5003 9.99996 16.5003ZM14.9552 14.1814C15.4423 13.6098 15.8215 12.9691 16.0929 12.2591C16.3643 11.5489 16.5 10.796 16.5 10.0003C16.5 8.19477 15.868 6.66005 14.6041 5.39616C13.3402 4.13227 11.8055 3.50033 9.99996 3.50033C9.20232 3.50033 8.4476 3.6347 7.73579 3.90345C7.02413 4.17206 6.38517 4.55262 5.81892 5.04512L14.9552 14.1814Z" fill="#1C1B1F"/>
</g>
</svg>
