<svg width="20" height="20" viewBox="0 0 20 20" fill="none" xmlns="http://www.w3.org/2000/svg">
<mask id="mask0_614_26239" style="mask-type:alpha" maskUnits="userSpaceOnUse" x="0" y="0" width="20" height="20">
<rect width="20" height="20" fill="#D9D9D9"/>
</mask>
<g mask="url(#mask0_614_26239)">
<path d="M4.58668 6.49021L3.5673 7.51751C3.45189 7.63278 3.32175 7.69181 3.17689 7.69459C3.03189 7.69723 2.90342 7.64028 2.79147 7.52376C2.67203 7.40417 2.6123 7.2757 2.6123 7.13834C2.6123 7.00112 2.67265 6.87216 2.79335 6.75146L4.65793 4.8923C4.72974 4.82077 4.80453 4.76903 4.8823 4.73709C4.96008 4.70501 5.04342 4.68896 5.1323 4.68896C5.22119 4.68896 5.30418 4.70501 5.38126 4.73709C5.45835 4.76903 5.5298 4.81799 5.59564 4.88396L7.46314 6.75146C7.57856 6.86688 7.63626 6.99237 7.63626 7.12792C7.63626 7.26362 7.578 7.38973 7.46147 7.50626C7.34189 7.62584 7.2121 7.68431 7.0721 7.68167C6.93224 7.67903 6.8046 7.61737 6.68918 7.49667L5.6698 6.49021V13.5094L6.68918 12.4821C6.8046 12.3668 6.93474 12.3078 7.0796 12.305C7.2246 12.3024 7.353 12.3593 7.4648 12.4758C7.58439 12.5954 7.64418 12.7239 7.64418 12.8613C7.64418 12.9985 7.58383 13.1274 7.46314 13.2481L5.59835 15.1073C5.52668 15.1788 5.45196 15.2306 5.37418 15.2625C5.2964 15.2946 5.21307 15.3106 5.12418 15.3106C5.03529 15.3106 4.9523 15.2946 4.87522 15.2625C4.79814 15.2306 4.72661 15.1816 4.66064 15.1156L2.79335 13.2481C2.67793 13.1327 2.62369 13.0038 2.63064 12.8613C2.63758 12.7186 2.69932 12.589 2.81585 12.4725C2.93543 12.3529 3.06522 12.2945 3.20522 12.2971C3.34508 12.2997 3.47272 12.3614 3.58814 12.4821L4.58668 13.5094V6.49021ZM10.694 14.5831C10.5455 14.5831 10.4195 14.5316 10.3158 14.4285C10.2121 14.3255 10.1602 14.1979 10.1602 14.0456C10.1602 13.8933 10.2122 13.7642 10.3161 13.6585C10.4198 13.5527 10.5484 13.4998 10.7019 13.4998H17.0017C17.1664 13.4998 17.3045 13.5551 17.4161 13.6656C17.5276 13.7762 17.5833 13.9132 17.5833 14.0767C17.5833 14.2401 17.5248 14.3801 17.4077 14.4967C17.2906 14.6131 17.1499 14.6713 16.9856 14.6713L10.694 14.5831ZM10.7019 10.5415C10.5484 10.5415 10.4198 10.4899 10.3161 10.3869C10.2122 10.2838 10.1602 10.1562 10.1602 10.004C10.1602 9.8516 10.2122 9.72258 10.3161 9.61688C10.4198 9.51105 10.5484 9.45813 10.7019 9.45813H17.0417C17.1952 9.45813 17.3238 9.50966 17.4275 9.61271C17.5314 9.71577 17.5833 9.84341 17.5833 9.99563C17.5833 10.148 17.5314 10.277 17.4275 10.3827C17.3238 10.4885 17.1952 10.5415 17.0417 10.5415H10.7019ZM10.7019 6.4998C10.5484 6.4998 10.4198 6.44758 10.3161 6.34313C10.2122 6.23855 10.1602 6.10903 10.1602 5.95459C10.1602 5.80459 10.2114 5.67744 10.3138 5.57313C10.416 5.46869 10.5427 5.41646 10.694 5.41646L16.9936 5.32834C17.1606 5.32834 17.3007 5.38362 17.4138 5.49417C17.5268 5.60473 17.5833 5.74174 17.5833 5.90522C17.5833 6.06869 17.5268 6.20869 17.4138 6.32521C17.3007 6.4416 17.1606 6.4998 16.9936 6.4998H10.7019Z" fill="#1C1B1F"/>
</g>
</svg>
