<svg width="20" height="20" viewBox="0 0 20 20" fill="none" xmlns="http://www.w3.org/2000/svg">
<mask id="mask0_608_25752" style="mask-type:alpha" maskUnits="userSpaceOnUse" x="0" y="0" width="20" height="20">
<rect width="20" height="20" transform="matrix(-1 0 0 1 20 0)" fill="#D9D9D9"/>
</mask>
<g mask="url(#mask0_608_25752)">
<path d="M15.9132 13.6873C16.103 13.6873 16.2621 13.6231 16.3905 13.4946C16.5189 13.3663 16.5832 13.2073 16.5832 13.0175V6.98213C16.5832 6.79241 16.5189 6.63338 16.3905 6.50505C16.2621 6.37657 16.103 6.31234 15.9132 6.31234H9.87796C9.68824 6.31234 9.52914 6.37657 9.40067 6.50505C9.27234 6.63338 9.20817 6.79241 9.20817 6.98213V13.0175C9.20817 13.2073 9.27234 13.3663 9.40067 13.4946C9.52914 13.6231 9.68824 13.6873 9.87796 13.6873H15.9132ZM15.4998 12.604H10.2915V7.39567H15.4998V12.604ZM16.0415 4.49984C16.195 4.49984 16.3236 4.44831 16.4273 4.34525C16.5312 4.2422 16.5832 4.11456 16.5832 3.96234C16.5832 3.80998 16.5312 3.68095 16.4273 3.57525C16.3236 3.46942 16.195 3.4165 16.0415 3.4165H3.95817C3.8047 3.4165 3.67609 3.46803 3.57234 3.57109C3.46845 3.67414 3.4165 3.80178 3.4165 3.954C3.4165 4.10636 3.46845 4.23539 3.57234 4.34109C3.67609 4.44692 3.8047 4.49984 3.95817 4.49984H16.0415ZM7.00046 7.39567C7.15366 7.39567 7.28317 7.34414 7.389 7.24109C7.49498 7.13803 7.54796 7.01039 7.54796 6.85817C7.54796 6.70581 7.49616 6.57678 7.39254 6.47109C7.28893 6.36525 7.16053 6.31234 7.00734 6.31234H3.964C3.81081 6.31234 3.6813 6.36386 3.57546 6.46692C3.46949 6.56998 3.4165 6.69761 3.4165 6.84984C3.4165 7.0022 3.46831 7.13123 3.57192 7.23692C3.67553 7.34275 3.80394 7.39567 3.95713 7.39567H7.00046ZM7.00046 10.5415C7.15366 10.5415 7.28317 10.49 7.389 10.3869C7.49498 10.2839 7.54796 10.1562 7.54796 10.004C7.54796 9.85164 7.49616 9.72261 7.39254 9.61692C7.28893 9.51109 7.16053 9.45817 7.00734 9.45817H3.964C3.81081 9.45817 3.6813 9.5097 3.57546 9.61275C3.46949 9.71581 3.4165 9.84345 3.4165 9.99567C3.4165 10.148 3.46831 10.2771 3.57192 10.3828C3.67553 10.4886 3.80394 10.5415 3.95713 10.5415H7.00046ZM7.00046 13.6873C7.15366 13.6873 7.28317 13.6358 7.389 13.5328C7.49498 13.4297 7.54796 13.3021 7.54796 13.1498C7.54796 12.9975 7.49616 12.8684 7.39254 12.7628C7.28893 12.6569 7.16053 12.604 7.00734 12.604H3.964C3.81081 12.604 3.6813 12.6555 3.57546 12.7586C3.46949 12.8616 3.4165 12.9893 3.4165 13.1415C3.4165 13.2939 3.46831 13.4229 3.57192 13.5286C3.67553 13.6344 3.80394 13.6873 3.95713 13.6873H7.00046ZM16.0415 16.5832C16.195 16.5832 16.3236 16.5316 16.4273 16.4286C16.5312 16.3255 16.5832 16.1979 16.5832 16.0457C16.5832 15.8933 16.5312 15.7643 16.4273 15.6586C16.3236 15.5528 16.195 15.4998 16.0415 15.4998H3.95817C3.8047 15.4998 3.67609 15.5514 3.57234 15.6544C3.46845 15.7575 3.4165 15.8851 3.4165 16.0373C3.4165 16.1897 3.46845 16.3187 3.57234 16.4244C3.67609 16.5303 3.8047 16.5832 3.95817 16.5832H16.0415Z" fill="#1C1B1F"/>
</g>
</svg>
