<svg width="20" height="20" viewBox="0 0 20 20" fill="none" xmlns="http://www.w3.org/2000/svg">
<mask id="mask0_25_6127" style="mask-type:alpha" maskUnits="userSpaceOnUse" x="0" y="0" width="20" height="20">
<rect width="20" height="20" fill="#D9D9D9"/>
</mask>
<g mask="url(#mask0_25_6127)">
<path d="M5.54007 15.6875C5.34091 15.6875 5.1725 15.6189 5.03486 15.4817C4.89736 15.3444 4.82861 15.1765 4.82861 14.9777C4.82861 14.779 4.89736 14.6103 5.03486 14.4719C5.1725 14.3335 5.34091 14.2644 5.54007 14.2644H8.00965L10.7934 5.73563H8.24049C8.04132 5.73563 7.87292 5.66701 7.73528 5.52979C7.59778 5.39243 7.52903 5.22437 7.52903 5.02562C7.52903 4.82687 7.59778 4.65833 7.73528 4.52C7.87292 4.38167 8.04132 4.3125 8.24049 4.3125H14.6124C14.8115 4.3125 14.9799 4.38111 15.1174 4.51833C15.255 4.65556 15.3238 4.82354 15.3238 5.02229C15.3238 5.22104 15.255 5.38965 15.1174 5.52812C14.9799 5.66646 14.8115 5.73563 14.6124 5.73563H12.2324L9.44882 14.2644H11.9119C12.1111 14.2644 12.2795 14.333 12.4172 14.4702C12.5547 14.6076 12.6234 14.7756 12.6234 14.9744C12.6234 15.1731 12.5547 15.3417 12.4172 15.48C12.2795 15.6183 12.1111 15.6875 11.9119 15.6875H5.54007Z" fill="#1C1B1F"/>
</g>
</svg>
