<svg width="20" height="20" viewBox="0 0 20 20" fill="none" xmlns="http://www.w3.org/2000/svg">
<mask id="mask0_38_7810" style="mask-type:alpha" maskUnits="userSpaceOnUse" x="0" y="0" width="20" height="20">
<rect width="20" height="20" fill="#D9D9D9"/>
</mask>
<g mask="url(#mask0_38_7810)">
<path d="M3.80197 13.7918C3.64975 13.7918 3.52072 13.7399 3.41489 13.636C3.30919 13.5322 3.25635 13.4036 3.25635 13.2502V6.75016C3.25635 6.59669 3.30788 6.46808 3.41093 6.36433C3.51385 6.26044 3.64149 6.2085 3.79385 6.2085C3.94621 6.2085 4.07524 6.26044 4.18093 6.36433C4.28676 6.46808 4.33968 6.59669 4.33968 6.75016V9.4585H8.25635V6.75016C8.25635 6.60086 8.30788 6.47329 8.41093 6.36745C8.51385 6.26148 8.64149 6.2085 8.79385 6.2085C8.94621 6.2085 9.07524 6.26044 9.18093 6.36433C9.28676 6.46808 9.33968 6.59669 9.33968 6.75016V13.2502C9.33968 13.4036 9.28815 13.5322 9.1851 13.636C9.08204 13.7399 8.95433 13.7918 8.80197 13.7918C8.64975 13.7918 8.52072 13.7399 8.41489 13.636C8.3092 13.5322 8.25635 13.4036 8.25635 13.2502V10.5418H4.33968V13.2502C4.33968 13.3995 4.28815 13.527 4.1851 13.6329C4.08204 13.7388 3.95433 13.7918 3.80197 13.7918ZM15.8853 13.7918C15.7331 13.7918 15.6041 13.7399 15.4982 13.636C15.3925 13.5322 15.3397 13.4036 15.3397 13.2502V11.2918H11.5095C11.3198 11.2918 11.1607 11.2277 11.0322 11.0993C10.9038 10.9709 10.8397 10.8118 10.8397 10.622V6.75016C10.8397 6.59669 10.8912 6.46808 10.9943 6.36433C11.0972 6.26044 11.2248 6.2085 11.3772 6.2085C11.5295 6.2085 11.6586 6.26044 11.7643 6.36433C11.8701 6.46808 11.923 6.59669 11.923 6.75016V10.2085H15.3397V6.75016C15.3397 6.59669 15.3912 6.46808 15.4943 6.36433C15.5972 6.26044 15.7248 6.2085 15.8772 6.2085C16.0295 6.2085 16.1586 6.26044 16.2643 6.36433C16.3701 6.46808 16.423 6.59669 16.423 6.75016V10.2085H16.8813C17.0348 10.2085 17.1634 10.26 17.2672 10.3631C17.3711 10.4661 17.423 10.5938 17.423 10.746C17.423 10.8984 17.3711 11.0274 17.2672 11.1331C17.1634 11.2389 17.0348 11.2918 16.8813 11.2918H16.423V13.2502C16.423 13.4036 16.3715 13.5322 16.2684 13.636C16.1654 13.7399 16.0377 13.7918 15.8853 13.7918Z" fill="#1C1B1F"/>
</g>
</svg>
