<svg width="20" height="20" viewBox="0 0 20 20" fill="none" xmlns="http://www.w3.org/2000/svg">
<mask id="mask0_2661_4048" style="mask-type:alpha" maskUnits="userSpaceOnUse" x="0" y="0" width="20" height="20">
<rect width="20" height="20" fill="#D9D9D9"/>
</mask>
<g mask="url(#mask0_2661_4048)">
<path d="M8.29796 14.7915C8.14449 14.7915 8.01581 14.74 7.91192 14.6369C7.80817 14.5339 7.7563 14.4062 7.7563 14.254C7.7563 14.1017 7.80817 13.9726 7.91192 13.8669C8.01581 13.7611 8.14449 13.7082 8.29796 13.7082H16.0415C16.195 13.7082 16.3236 13.7597 16.4273 13.8628C16.5312 13.9658 16.5832 14.0935 16.5832 14.2457C16.5832 14.3981 16.5312 14.5271 16.4273 14.6328C16.3236 14.7386 16.195 14.7915 16.0415 14.7915H8.29796ZM8.29796 10.5415C8.14449 10.5415 8.01581 10.49 7.91192 10.3869C7.80817 10.2839 7.7563 10.1562 7.7563 10.004C7.7563 9.85166 7.80817 9.72263 7.91192 9.61694C8.01581 9.51111 8.14449 9.45819 8.29796 9.45819H16.0415C16.195 9.45819 16.3236 9.50972 16.4273 9.61277C16.5312 9.71583 16.5832 9.84347 16.5832 9.99569C16.5832 10.1481 16.5312 10.2771 16.4273 10.3828C16.3236 10.4886 16.195 10.5415 16.0415 10.5415H8.29796ZM8.29796 6.29152C8.14449 6.29152 8.01581 6.24 7.91192 6.13694C7.80817 6.03388 7.7563 5.90625 7.7563 5.75402C7.7563 5.60166 7.80817 5.47263 7.91192 5.36694C8.01581 5.26111 8.14449 5.20819 8.29796 5.20819H16.0415C16.195 5.20819 16.3236 5.25972 16.4273 5.36277C16.5312 5.46583 16.5832 5.59347 16.5832 5.74569C16.5832 5.89805 16.5312 6.02708 16.4273 6.13277C16.3236 6.23861 16.195 6.29152 16.0415 6.29152H8.29796ZM4.63171 15.4694C4.29505 15.4694 4.00838 15.3496 3.77171 15.1099C3.53491 14.8701 3.4165 14.582 3.4165 14.2455C3.4165 13.9088 3.53636 13.6221 3.77609 13.3855C4.01581 13.1487 4.30393 13.0303 4.64046 13.0303C4.97713 13.0303 5.2638 13.1501 5.50046 13.3899C5.73727 13.6296 5.85567 13.9177 5.85567 14.2542C5.85567 14.5909 5.73581 14.8776 5.49609 15.1142C5.25637 15.351 4.96824 15.4694 4.63171 15.4694ZM4.63171 11.2194C4.29505 11.2194 4.00838 11.0996 3.77171 10.8599C3.53491 10.6201 3.4165 10.332 3.4165 9.99548C3.4165 9.65881 3.53636 9.37215 3.77609 9.13548C4.01581 8.89868 4.30393 8.78027 4.64046 8.78027C4.97713 8.78027 5.2638 8.90013 5.50046 9.13986C5.73727 9.37958 5.85567 9.6677 5.85567 10.0042C5.85567 10.3409 5.73581 10.6276 5.49609 10.8642C5.25637 11.101 4.96824 11.2194 4.63171 11.2194ZM4.63171 6.96944C4.29505 6.96944 4.00838 6.84958 3.77171 6.60986C3.53491 6.37013 3.4165 6.08201 3.4165 5.74548C3.4165 5.40881 3.53636 5.12215 3.77609 4.88548C4.01581 4.64868 4.30393 4.53027 4.64046 4.53027C4.97713 4.53027 5.2638 4.65013 5.50046 4.88986C5.73727 5.12958 5.85567 5.4177 5.85567 5.75423C5.85567 6.0909 5.73581 6.37756 5.49609 6.61423C5.25637 6.85104 4.96824 6.96944 4.63171 6.96944Z" fill="#1C1B1F"/>
</g>
</svg>
