<svg width="20" height="20" viewBox="0 0 20 20" fill="none" xmlns="http://www.w3.org/2000/svg">
<mask id="mask0_25_6120" style="mask-type:alpha" maskUnits="userSpaceOnUse" x="0" y="0" width="20" height="20">
<rect width="20" height="20" fill="#D9D9D9"/>
</mask>
<g mask="url(#mask0_25_6120)">
<path d="M7.08961 15.6875C6.78391 15.6875 6.52426 15.5807 6.31065 15.3671C6.09704 15.1535 5.99023 14.8938 5.99023 14.5881V5.41188C5.99023 5.10618 6.09704 4.84653 6.31065 4.63292C6.52426 4.41931 6.78391 4.3125 7.08961 4.3125H10.1873C11.0625 4.3125 11.8541 4.58611 12.5623 5.13333C13.2707 5.68056 13.6248 6.41819 13.6248 7.34625C13.6248 7.96903 13.4779 8.48368 13.184 8.89021C12.8902 9.29674 12.5697 9.5959 12.2225 9.78771C12.6638 9.9484 13.0754 10.2534 13.4573 10.7027C13.8393 11.152 14.0302 11.7452 14.0302 12.4823C14.0302 13.5752 13.6232 14.3826 12.809 14.9046C11.9947 15.4265 11.1763 15.6875 10.354 15.6875H7.08961ZM7.9069 13.9023H10.28C10.9404 13.9023 11.4029 13.7201 11.6673 13.3558C11.9318 12.9915 12.064 12.6422 12.064 12.3077C12.064 11.9733 11.9283 11.6239 11.6569 11.2596C11.3855 10.8953 10.909 10.7131 10.2273 10.7131H7.9069V13.9023ZM7.9069 9.02083H10.0688C10.5752 9.02083 10.9801 8.87257 11.2836 8.57604C11.5869 8.27965 11.7386 7.93646 11.7386 7.54646C11.7386 7.11701 11.5811 6.76604 11.2661 6.49354C10.9509 6.22118 10.5646 6.085 10.1071 6.085H7.9069V9.02083Z" fill="#1C1B1F"/>
</g>
</svg>
