<svg width="20" height="20" viewBox="0 0 20 20" fill="none" xmlns="http://www.w3.org/2000/svg">
<mask id="mask0_25_6142" style="mask-type:alpha" maskUnits="userSpaceOnUse" x="0" y="0" width="20" height="20">
<rect width="20" height="20" fill="#D9D9D9"/>
</mask>
<g mask="url(#mask0_25_6142)">
<path d="M5.4442 4.085C5.54809 4.18806 5.67677 4.23958 5.83024 4.23958H14.1698C14.3233 4.23958 14.452 4.18667 14.5559 4.08083C14.6596 3.97514 14.7115 3.84611 14.7115 3.69375C14.7115 3.54153 14.6596 3.41389 14.5559 3.31083C14.452 3.20778 14.3233 3.15625 14.1698 3.15625H5.83024C5.67677 3.15625 5.54809 3.2091 5.4442 3.31479C5.34045 3.42063 5.28857 3.54972 5.28857 3.70208C5.28857 3.85431 5.34045 3.98194 5.4442 4.085Z" fill="#1C1B1F"/>
<path d="M10 16.4188C8.77347 16.4188 7.82104 16.0502 7.14271 15.313C6.46424 14.5756 6.125 13.587 6.125 12.3471V6.85569C6.125 6.66194 6.19667 6.49687 6.34 6.36048C6.48347 6.22423 6.65229 6.15611 6.84646 6.15611C7.04063 6.15611 7.2066 6.22534 7.34438 6.36382C7.48215 6.50229 7.55104 6.66847 7.55104 6.86236V12.4257C7.55104 13.2237 7.76389 13.8628 8.18958 14.343C8.61514 14.8231 9.21903 15.0632 10.0013 15.0632C10.7836 15.0632 11.3882 14.8229 11.815 14.3424C12.2418 13.8619 12.4552 13.2224 12.4552 12.4236V6.85611C12.4552 6.66208 12.5224 6.49687 12.6567 6.36048C12.791 6.22423 12.9572 6.15611 13.1552 6.15611C13.3533 6.15611 13.5227 6.2252 13.6635 6.3634C13.8045 6.50159 13.875 6.66743 13.875 6.8609V12.3465C13.875 13.585 13.5358 14.5733 12.8573 15.3115C12.179 16.0497 11.2265 16.4188 10 16.4188Z" fill="#1C1B1F"/>
</g>
</svg>
