<svg width="20" height="20" viewBox="0 0 20 20" fill="none" xmlns="http://www.w3.org/2000/svg">
<mask id="mask0_38_7808" style="mask-type:alpha" maskUnits="userSpaceOnUse" x="0" y="0" width="20" height="20">
<rect width="20" height="20" fill="#D9D9D9"/>
</mask>
<g mask="url(#mask0_38_7808)">
<path d="M3.96234 13.7918C3.80998 13.7918 3.68095 13.7399 3.57525 13.636C3.46942 13.5322 3.4165 13.4036 3.4165 13.2502V6.75016C3.4165 6.59669 3.46803 6.46808 3.57109 6.36433C3.67414 6.26044 3.80178 6.2085 3.954 6.2085C4.10637 6.2085 4.23539 6.26044 4.34109 6.36433C4.44692 6.46808 4.49984 6.59669 4.49984 6.75016V9.4585H8.4165V6.75016C8.4165 6.60086 8.46803 6.47329 8.57109 6.36745C8.67414 6.26148 8.80178 6.2085 8.954 6.2085C9.10636 6.2085 9.23539 6.26044 9.34109 6.36433C9.44692 6.46808 9.49984 6.59669 9.49984 6.75016V13.2502C9.49984 13.4036 9.44831 13.5322 9.34525 13.636C9.2422 13.7399 9.11456 13.7918 8.96234 13.7918C8.80998 13.7918 8.68095 13.7399 8.57525 13.636C8.46942 13.5322 8.4165 13.4036 8.4165 13.2502V10.5418H4.49984V13.2502C4.49984 13.3995 4.44831 13.527 4.34525 13.6329C4.2422 13.7388 4.11456 13.7918 3.96234 13.7918ZM11.6757 13.7918C11.4861 13.7918 11.326 13.7277 11.1955 13.5993C11.065 13.4709 10.9998 13.3118 10.9998 13.122V10.7983C10.9998 10.4298 11.131 10.1144 11.3934 9.85204C11.6557 9.58968 11.9712 9.4585 12.3396 9.4585H15.2434C15.3182 9.4585 15.3797 9.43447 15.4278 9.38641C15.4758 9.33836 15.4998 9.2769 15.4998 9.20204V7.54829C15.4998 7.47343 15.4758 7.41197 15.4278 7.36391C15.3797 7.31586 15.3182 7.29183 15.2434 7.29183H11.5473C11.3941 7.29183 11.2646 7.2403 11.1586 7.13725C11.0528 7.03419 10.9998 6.90655 10.9998 6.75433C10.9998 6.60197 11.0519 6.47294 11.1559 6.36725C11.2598 6.26141 11.3886 6.2085 11.5423 6.2085H15.249C15.6179 6.2085 15.9325 6.33968 16.1928 6.60204C16.453 6.8644 16.5832 7.17982 16.5832 7.54829V9.20204C16.5832 9.57051 16.452 9.88593 16.1896 10.1483C15.9273 10.4106 15.6119 10.5418 15.2434 10.5418H12.3396C12.2648 10.5418 12.2033 10.5659 12.1553 10.6139C12.1072 10.662 12.0832 10.7234 12.0832 10.7983V12.7085H16.0357C16.1889 12.7085 16.3184 12.76 16.4242 12.8631C16.5302 12.9661 16.5832 13.0938 16.5832 13.246C16.5832 13.3984 16.5314 13.5274 16.4278 13.6331C16.324 13.7389 16.1955 13.7918 16.0423 13.7918H11.6757Z" fill="#1C1B1F"/>
</g>
</svg>
