<svg width="20" height="20" viewBox="0 0 20 20" fill="none" xmlns="http://www.w3.org/2000/svg">
<mask id="mask0_614_26240" style="mask-type:alpha" maskUnits="userSpaceOnUse" x="0" y="0" width="20" height="20">
<rect width="20" height="20" fill="#D9D9D9"/>
</mask>
<g mask="url(#mask0_614_26240)">
<path d="M6.57843 15.4213L7.5976 16.4486C7.71301 16.5626 7.77072 16.6924 7.77072 16.838C7.77072 16.9837 7.71572 17.1092 7.60572 17.2146C7.49031 17.3353 7.36128 17.3944 7.21864 17.3917C7.076 17.3889 6.94697 17.3299 6.83156 17.2146L4.95864 15.3415C4.82378 15.2066 4.75635 15.0514 4.75635 14.8759C4.75635 14.7003 4.82475 14.5466 4.96156 14.4148L6.83156 12.5528C6.94697 12.4373 7.07718 12.3783 7.22218 12.3757C7.36704 12.373 7.49489 12.4314 7.60572 12.5509C7.721 12.6628 7.77864 12.79 7.77864 12.9323C7.77864 13.0746 7.72114 13.2032 7.60614 13.3184L6.57843 14.338H13.4134L12.4022 13.3267C12.2868 13.2113 12.2277 13.0812 12.2251 12.9363C12.2225 12.7913 12.2794 12.6628 12.3959 12.5509C12.5154 12.4314 12.6438 12.3717 12.7811 12.3717C12.9184 12.3717 13.0474 12.4321 13.1682 12.5528L15.0332 14.4178C15.1681 14.5526 15.2355 14.7078 15.2355 14.8834C15.2355 15.0591 15.1671 15.2128 15.0303 15.3444L13.1601 17.2146C13.0447 17.3299 12.9191 17.3855 12.7834 17.3813C12.6479 17.377 12.5224 17.3184 12.407 17.2055C12.2916 17.0823 12.2338 16.9497 12.2338 16.8078C12.2338 16.6658 12.2896 16.5396 12.4011 16.429L13.4134 15.4213H6.57843ZM5.96239 9.7915C5.81003 9.7915 5.681 9.73956 5.57531 9.63567C5.46947 9.53192 5.41656 9.40331 5.41656 9.24984V2.95817C5.41656 2.8047 5.46808 2.67609 5.57114 2.57234C5.6742 2.46845 5.80183 2.4165 5.95406 2.4165C6.10642 2.4165 6.23545 2.46845 6.34114 2.57234C6.44697 2.67609 6.49989 2.8047 6.49989 2.95817V9.24984C6.49989 9.40331 6.44836 9.53192 6.34531 9.63567C6.24225 9.73956 6.11461 9.7915 5.96239 9.7915ZM10.0041 9.7915C9.8517 9.7915 9.72267 9.73956 9.61697 9.63567C9.51114 9.53192 9.45822 9.40331 9.45822 9.24984V2.95817C9.45822 2.8047 9.50975 2.67609 9.61281 2.57234C9.71586 2.46845 9.8435 2.4165 9.99572 2.4165C10.1481 2.4165 10.2771 2.46845 10.3828 2.57234C10.4886 2.67609 10.5416 2.8047 10.5416 2.95817V9.24984C10.5416 9.40331 10.49 9.53192 10.387 9.63567C10.2839 9.73956 10.1563 9.7915 10.0041 9.7915ZM14.0457 9.7915C13.8934 9.7915 13.7643 9.73956 13.6586 9.63567C13.5528 9.53192 13.4999 9.40331 13.4999 9.24984V2.95817C13.4999 2.8047 13.5514 2.67609 13.6545 2.57234C13.7575 2.46845 13.8852 2.4165 14.0374 2.4165C14.1898 2.4165 14.3188 2.46845 14.4245 2.57234C14.5303 2.67609 14.5832 2.8047 14.5832 2.95817V9.24984C14.5832 9.40331 14.5317 9.53192 14.4286 9.63567C14.3256 9.73956 14.1979 9.7915 14.0457 9.7915Z" fill="#1C1B1F"/>
</g>
</svg>
