<svg width="20" height="20" viewBox="0 0 20 20" fill="none" xmlns="http://www.w3.org/2000/svg">
<mask id="mask0_25_6134" style="mask-type:alpha" maskUnits="userSpaceOnUse" x="0" y="0" width="20" height="20">
<rect width="20" height="20" fill="#D9D9D9"/>
</mask>
<g mask="url(#mask0_25_6134)">
<path d="M5.83024 16.271C5.67677 16.271 5.54809 16.2194 5.4442 16.1164C5.34045 16.0133 5.28857 15.8857 5.28857 15.7335C5.28857 15.5811 5.34045 15.452 5.4442 15.3462C5.54809 15.2405 5.67677 15.1876 5.83024 15.1876H14.1698C14.3233 15.1876 14.452 15.2392 14.5559 15.3422C14.6596 15.4453 14.7115 15.5729 14.7115 15.7251C14.7115 15.8775 14.6596 16.0065 14.5559 16.1122C14.452 16.2181 14.3233 16.271 14.1698 16.271H5.83024ZM10 13.6074C8.7735 13.6074 7.82107 13.2388 7.14274 12.5016C6.46427 11.7642 6.12503 10.7756 6.12503 9.53577V4.04431C6.12503 3.85056 6.1967 3.68549 6.34003 3.5491C6.4835 3.41285 6.65232 3.34473 6.84649 3.34473C7.04066 3.34473 7.20663 3.41396 7.34441 3.55244C7.48219 3.69091 7.55107 3.85709 7.55107 4.05098V9.61431C7.55107 10.4124 7.76392 11.0515 8.18962 11.5316C8.61517 12.0117 9.21906 12.2518 10.0013 12.2518C10.7836 12.2518 11.3882 12.0115 11.815 11.531C12.2418 11.0506 12.4552 10.411 12.4552 9.61223V4.04473C12.4552 3.8507 12.5224 3.68549 12.6567 3.5491C12.791 3.41285 12.9572 3.34473 13.1552 3.34473C13.3533 3.34473 13.5227 3.41382 13.6636 3.55202C13.8045 3.69021 13.875 3.85605 13.875 4.04952V9.53514C13.875 10.7736 13.5358 11.7619 12.8573 12.5001C12.179 13.2383 11.2266 13.6074 10 13.6074Z" fill="#1C1B1F"/>
</g>
</svg>
