<svg width="20" height="20" viewBox="0 0 20 20" fill="none" xmlns="http://www.w3.org/2000/svg">
<mask id="mask0_582_25403" style="mask-type:alpha" maskUnits="userSpaceOnUse" x="0" y="0" width="20" height="20">
<rect width="20" height="20" fill="#D9D9D9"/>
</mask>
<g mask="url(#mask0_582_25403)">
<path d="M13.6873 10.1217C13.6873 10.3114 13.6231 10.4705 13.4946 10.599C13.3663 10.7273 13.2073 10.7915 13.0175 10.7915L6.98213 10.7915C6.79241 10.7915 6.63338 10.7273 6.50505 10.599C6.37657 10.4705 6.31234 10.3114 6.31234 10.1217L6.31234 4.0865C6.31234 3.89664 6.37657 3.73755 6.50505 3.60921C6.63338 3.48074 6.79241 3.4165 6.98213 3.4165L13.0175 3.4165C13.2073 3.4165 13.3663 3.48074 13.4946 3.60921C13.6231 3.73755 13.6873 3.89664 13.6873 4.0865V10.1217ZM12.604 9.70817V4.49984L7.39567 4.49984L7.39567 9.70817L12.604 9.70817ZM16.5832 16.0415C16.5832 16.195 16.5316 16.3236 16.4286 16.4273C16.3255 16.5312 16.1979 16.5832 16.0457 16.5832C15.8933 16.5832 15.7643 16.5312 15.6586 16.4273C15.5528 16.3236 15.4998 16.195 15.4998 16.0415L15.4998 3.95817C15.4998 3.8047 15.5514 3.67609 15.6544 3.57234C15.7575 3.46845 15.8851 3.4165 16.0373 3.4165C16.1897 3.4165 16.3187 3.46845 16.4244 3.57234C16.5303 3.67609 16.5832 3.8047 16.5832 3.95817L16.5832 16.0415ZM13.6873 16.0357C13.6873 16.1889 13.6358 16.3184 13.5328 16.4242C13.4297 16.5302 13.3021 16.5832 13.1498 16.5832C12.9975 16.5832 12.8685 16.5314 12.7628 16.4278C12.6569 16.3241 12.604 16.1957 12.604 16.0425L12.604 12.9992C12.604 12.846 12.6555 12.7165 12.7586 12.6107C12.8616 12.5047 12.9893 12.4517 13.1415 12.4517C13.2939 12.4517 13.4229 12.5035 13.5286 12.6071C13.6344 12.7107 13.6873 12.8391 13.6873 12.9923L13.6873 16.0357ZM10.5415 16.0357C10.5415 16.1889 10.49 16.3184 10.3869 16.4242C10.2839 16.5302 10.1562 16.5832 10.004 16.5832C9.85164 16.5832 9.72262 16.5314 9.61692 16.4278C9.51109 16.3241 9.45817 16.1957 9.45817 16.0425V12.9992C9.45817 12.846 9.5097 12.7165 9.61275 12.6107C9.71581 12.5047 9.84345 12.4517 9.99567 12.4517C10.148 12.4517 10.2771 12.5035 10.3828 12.6071C10.4886 12.7107 10.5415 12.8391 10.5415 12.9923V16.0357ZM7.39567 16.0357C7.39567 16.1889 7.34414 16.3184 7.24109 16.4242C7.13803 16.5302 7.01039 16.5832 6.85817 16.5832C6.70581 16.5832 6.57678 16.5314 6.47109 16.4278C6.36525 16.3241 6.31234 16.1957 6.31234 16.0425V12.9992C6.31234 12.846 6.36387 12.7165 6.46692 12.6107C6.56998 12.5047 6.69762 12.4517 6.84984 12.4517C7.0022 12.4517 7.13123 12.5035 7.23692 12.6071C7.34275 12.7107 7.39567 12.8391 7.39567 12.9923V16.0357ZM4.49984 16.0415C4.49984 16.195 4.44831 16.3236 4.34525 16.4273C4.2422 16.5312 4.11456 16.5832 3.96234 16.5832C3.80998 16.5832 3.68095 16.5312 3.57525 16.4273C3.46942 16.3236 3.4165 16.195 3.4165 16.0415L3.4165 3.95817C3.4165 3.8047 3.46803 3.67609 3.57109 3.57234C3.67414 3.46845 3.80178 3.4165 3.954 3.4165C4.10636 3.4165 4.23539 3.46845 4.34109 3.57234C4.44692 3.67609 4.49984 3.8047 4.49984 3.95817L4.49984 16.0415Z" fill="#1C1B1F"/>
</g>
</svg>
