<svg width="20" height="20" viewBox="0 0 20 20" fill="none" xmlns="http://www.w3.org/2000/svg">
<mask id="mask0_582_25400" style="mask-type:alpha" maskUnits="userSpaceOnUse" x="0" y="0" width="20" height="20">
<rect width="20" height="20" fill="#D9D9D9"/>
</mask>
<g mask="url(#mask0_582_25400)">
<path d="M4.0865 13.6873C3.89664 13.6873 3.73755 13.6231 3.60921 13.4946C3.48074 13.3663 3.4165 13.2073 3.4165 13.0175V6.98213C3.4165 6.79241 3.48074 6.63338 3.60921 6.50505C3.73755 6.37657 3.89664 6.31234 4.0865 6.31234H10.1217C10.3114 6.31234 10.4705 6.37657 10.599 6.50505C10.7273 6.63338 10.7915 6.79241 10.7915 6.98213V13.0175C10.7915 13.2073 10.7273 13.3663 10.599 13.4946C10.4705 13.6231 10.3114 13.6873 10.1217 13.6873H4.0865ZM4.49984 12.604H9.70817V7.39567H4.49984V12.604ZM3.95817 4.49984C3.8047 4.49984 3.67609 4.44831 3.57234 4.34525C3.46845 4.2422 3.4165 4.11456 3.4165 3.96234C3.4165 3.80998 3.46845 3.68095 3.57234 3.57525C3.67609 3.46942 3.8047 3.4165 3.95817 3.4165H16.0415C16.195 3.4165 16.3236 3.46803 16.4273 3.57109C16.5312 3.67414 16.5832 3.80178 16.5832 3.954C16.5832 4.10636 16.5312 4.23539 16.4273 4.34109C16.3236 4.44692 16.195 4.49984 16.0415 4.49984H3.95817ZM12.9992 7.39567C12.846 7.39567 12.7165 7.34414 12.6107 7.24109C12.5047 7.13803 12.4517 7.01039 12.4517 6.85817C12.4517 6.70581 12.5035 6.57678 12.6071 6.47109C12.7107 6.36525 12.8391 6.31234 12.9923 6.31234H16.0357C16.1889 6.31234 16.3184 6.36386 16.4242 6.46692C16.5302 6.56998 16.5832 6.69761 16.5832 6.84984C16.5832 7.0022 16.5314 7.13123 16.4278 7.23692C16.3241 7.34275 16.1957 7.39567 16.0425 7.39567H12.9992ZM12.9992 10.5415C12.846 10.5415 12.7165 10.49 12.6107 10.3869C12.5047 10.2839 12.4517 10.1562 12.4517 10.004C12.4517 9.85164 12.5035 9.72261 12.6071 9.61692C12.7107 9.51109 12.8391 9.45817 12.9923 9.45817H16.0357C16.1889 9.45817 16.3184 9.5097 16.4242 9.61275C16.5302 9.71581 16.5832 9.84345 16.5832 9.99567C16.5832 10.148 16.5314 10.2771 16.4278 10.3828C16.3241 10.4886 16.1957 10.5415 16.0425 10.5415H12.9992ZM12.9992 13.6873C12.846 13.6873 12.7165 13.6358 12.6107 13.5328C12.5047 13.4297 12.4517 13.3021 12.4517 13.1498C12.4517 12.9975 12.5035 12.8684 12.6071 12.7628C12.7107 12.6569 12.8391 12.604 12.9923 12.604H16.0357C16.1889 12.604 16.3184 12.6555 16.4242 12.7586C16.5302 12.8616 16.5832 12.9893 16.5832 13.1415C16.5832 13.2939 16.5314 13.4229 16.4278 13.5286C16.3241 13.6344 16.1957 13.6873 16.0425 13.6873H12.9992ZM3.95817 16.5832C3.8047 16.5832 3.67609 16.5316 3.57234 16.4286C3.46845 16.3255 3.4165 16.1979 3.4165 16.0457C3.4165 15.8933 3.46845 15.7643 3.57234 15.6586C3.67609 15.5528 3.8047 15.4998 3.95817 15.4998H16.0415C16.195 15.4998 16.3236 15.5514 16.4273 15.6544C16.5312 15.7575 16.5832 15.8851 16.5832 16.0373C16.5832 16.1897 16.5312 16.3187 16.4273 16.4244C16.3236 16.5303 16.195 16.5832 16.0415 16.5832H3.95817Z" fill="#1C1B1F"/>
</g>
</svg>
