<svg width="20" height="20" viewBox="0 0 20 20" fill="none" xmlns="http://www.w3.org/2000/svg">
<mask id="mask0_21_7938" style="mask-type:alpha" maskUnits="userSpaceOnUse" x="0" y="0" width="20" height="20">
<rect width="20" height="20" fill="#D9D9D9"/>
</mask>
<g mask="url(#mask0_21_7938)">
<path d="M3.95817 16.5832C3.8047 16.5832 3.67609 16.5316 3.57234 16.4286C3.46845 16.3255 3.4165 16.1979 3.4165 16.0457C3.4165 15.8933 3.46845 15.7643 3.57234 15.6586C3.67609 15.5528 3.8047 15.4998 3.95817 15.4998H16.0415C16.195 15.4998 16.3236 15.5514 16.4273 15.6544C16.5312 15.7575 16.5832 15.8851 16.5832 16.0373C16.5832 16.1897 16.5312 16.3187 16.4273 16.4244C16.3236 16.5303 16.195 16.5832 16.0415 16.5832H3.95817ZM6.95817 13.5623C6.8047 13.5623 6.67609 13.5108 6.57234 13.4078C6.46845 13.3047 6.4165 13.1771 6.4165 13.0248C6.4165 12.8725 6.46845 12.7434 6.57234 12.6378C6.67609 12.5319 6.8047 12.479 6.95817 12.479H13.0415C13.195 12.479 13.3236 12.5305 13.4273 12.6336C13.5312 12.7366 13.5832 12.8643 13.5832 13.0165C13.5832 13.1689 13.5312 13.2979 13.4273 13.4036C13.3236 13.5094 13.195 13.5623 13.0415 13.5623H6.95817ZM3.95817 10.5415C3.8047 10.5415 3.67609 10.49 3.57234 10.3869C3.46845 10.2839 3.4165 10.1562 3.4165 10.004C3.4165 9.85164 3.46845 9.72261 3.57234 9.61692C3.67609 9.51109 3.8047 9.45817 3.95817 9.45817H16.0415C16.195 9.45817 16.3236 9.5097 16.4273 9.61275C16.5312 9.71581 16.5832 9.84345 16.5832 9.99567C16.5832 10.148 16.5312 10.2771 16.4273 10.3828C16.3236 10.4886 16.195 10.5415 16.0415 10.5415H3.95817ZM6.95817 7.52067C6.8047 7.52067 6.67609 7.46914 6.57234 7.36609C6.46845 7.26303 6.4165 7.13539 6.4165 6.98317C6.4165 6.83081 6.46845 6.70178 6.57234 6.59609C6.67609 6.49025 6.8047 6.43734 6.95817 6.43734H13.0415C13.195 6.43734 13.3236 6.48886 13.4273 6.59192C13.5312 6.69498 13.5832 6.82261 13.5832 6.97484C13.5832 7.1272 13.5312 7.25623 13.4273 7.36192C13.3236 7.46775 13.195 7.52067 13.0415 7.52067H6.95817ZM3.95817 4.49984C3.8047 4.49984 3.67609 4.44831 3.57234 4.34525C3.46845 4.2422 3.4165 4.11456 3.4165 3.96234C3.4165 3.80998 3.46845 3.68095 3.57234 3.57525C3.67609 3.46942 3.8047 3.4165 3.95817 3.4165H16.0415C16.195 3.4165 16.3236 3.46803 16.4273 3.57109C16.5312 3.67414 16.5832 3.80178 16.5832 3.954C16.5832 4.10636 16.5312 4.23539 16.4273 4.34109C16.3236 4.44692 16.195 4.49984 16.0415 4.49984H3.95817Z" fill="#1C1B1F"/>
</g>
</svg>
