<svg width="20" height="20" viewBox="0 0 20 20" fill="none" xmlns="http://www.w3.org/2000/svg">
<mask id="mask0_38_7807" style="mask-type:alpha" maskUnits="userSpaceOnUse" x="0" y="0" width="20" height="20">
<rect width="20" height="20" fill="#D9D9D9"/>
</mask>
<g mask="url(#mask0_38_7807)">
<path d="M4.96234 13.7918C4.80998 13.7918 4.68095 13.7399 4.57525 13.636C4.46942 13.5322 4.4165 13.4036 4.4165 13.2502V6.75016C4.4165 6.59669 4.46803 6.46808 4.57109 6.36433C4.67414 6.26044 4.80178 6.2085 4.954 6.2085C5.10637 6.2085 5.23539 6.26044 5.34109 6.36433C5.44692 6.46808 5.49984 6.59669 5.49984 6.75016V9.4585H9.4165V6.75016C9.4165 6.60086 9.46803 6.47329 9.57109 6.36745C9.67414 6.26148 9.80178 6.2085 9.954 6.2085C10.1064 6.2085 10.2354 6.26044 10.3411 6.36433C10.4469 6.46808 10.4998 6.59669 10.4998 6.75016V13.2502C10.4998 13.4036 10.4483 13.5322 10.3453 13.636C10.2422 13.7399 10.1146 13.7918 9.96234 13.7918C9.80998 13.7918 9.68095 13.7399 9.57525 13.636C9.46942 13.5322 9.4165 13.4036 9.4165 13.2502V10.5418H5.49984V13.2502C5.49984 13.3995 5.44831 13.527 5.34525 13.6329C5.2422 13.7388 5.11456 13.7918 4.96234 13.7918ZM15.0457 13.7918C14.8933 13.7918 14.7643 13.7399 14.6586 13.636C14.5528 13.5322 14.4998 13.4036 14.4998 13.2502V7.29183H13.0415C12.888 7.29183 12.7594 7.2403 12.6555 7.13725C12.5517 7.03419 12.4998 6.90655 12.4998 6.75433C12.4998 6.60197 12.5517 6.47294 12.6555 6.36725C12.7594 6.26141 12.888 6.2085 13.0415 6.2085H14.9092C15.1031 6.2085 15.2639 6.27266 15.3915 6.401C15.5193 6.52947 15.5832 6.68857 15.5832 6.87829V13.2502C15.5832 13.4036 15.5316 13.5322 15.4286 13.636C15.3255 13.7399 15.1979 13.7918 15.0457 13.7918Z" fill="#1C1B1F"/>
</g>
</svg>
