<svg width="20" height="20" viewBox="0 0 20 20" fill="none" xmlns="http://www.w3.org/2000/svg">
<mask id="mask0_596_25276" style="mask-type:alpha" maskUnits="userSpaceOnUse" x="0" y="0" width="20" height="20">
<rect width="20" height="20" fill="#D9D9D9"/>
</mask>
<g mask="url(#mask0_596_25276)">
<path d="M3.4165 16.5832V15.8396H5.4165V15.0832H4.4165V14.3396H5.4165V13.5832H3.4165V12.8396H5.78838C5.89366 12.8396 5.98192 12.8753 6.05317 12.9465C6.12442 13.0178 6.16005 13.106 6.16005 13.2113V14.3717C6.16005 14.477 6.12442 14.5653 6.05317 14.6365C5.98192 14.7078 5.89366 14.7434 5.78838 14.7434C5.89366 14.7434 5.98192 14.779 6.05317 14.8503C6.12442 14.9215 6.16005 15.0098 6.16005 15.1153V16.2113C6.16005 16.3167 6.12442 16.405 6.05317 16.4763C5.98192 16.5475 5.89366 16.5832 5.78838 16.5832H3.4165ZM3.4165 11.8717V9.99984C3.4165 9.89456 3.45213 9.80623 3.52338 9.73484C3.59463 9.66359 3.68296 9.62796 3.78838 9.62796H5.4165V8.87171H3.4165V8.12796H5.78838C5.89366 8.12796 5.98192 8.16359 6.05317 8.23484C6.12442 8.30623 6.16005 8.39456 6.16005 8.49984V9.99984C6.16005 10.1051 6.12442 10.1934 6.05317 10.2648C5.98192 10.3361 5.89366 10.3717 5.78838 10.3717H4.16005V11.128H6.16005V11.8717H3.4165ZM4.4165 7.16005V4.16005H3.4165V3.4165H5.16005V7.16005H4.4165ZM7.7563 14.7915V13.7082H16.5832V14.7915H7.7563ZM7.7563 10.5415V9.45817H16.5832V10.5415H7.7563ZM7.7563 6.2915V5.20817H16.5832V6.2915H7.7563Z" fill="#1C1B1F"/>
</g>
</svg>
