<svg width="20" height="20" viewBox="0 0 20 20" fill="none" xmlns="http://www.w3.org/2000/svg">
<mask id="mask0_38_7809" style="mask-type:alpha" maskUnits="userSpaceOnUse" x="0" y="0" width="20" height="20">
<rect width="20" height="20" fill="#D9D9D9"/>
</mask>
<g mask="url(#mask0_38_7809)">
<path d="M3.96234 13.7918C3.80998 13.7918 3.68095 13.7399 3.57525 13.636C3.46942 13.5322 3.4165 13.4036 3.4165 13.2502V6.75016C3.4165 6.59669 3.46803 6.46808 3.57109 6.36433C3.67414 6.26044 3.80178 6.2085 3.954 6.2085C4.10637 6.2085 4.23539 6.26044 4.34109 6.36433C4.44692 6.46808 4.49984 6.59669 4.49984 6.75016V9.4585H8.4165V6.75016C8.4165 6.60086 8.46803 6.47329 8.57109 6.36745C8.67414 6.26148 8.80178 6.2085 8.954 6.2085C9.10636 6.2085 9.23539 6.26044 9.34109 6.36433C9.44692 6.46808 9.49984 6.59669 9.49984 6.75016V13.2502C9.49984 13.4036 9.44831 13.5322 9.34525 13.636C9.2422 13.7399 9.11456 13.7918 8.96234 13.7918C8.80998 13.7918 8.68095 13.7399 8.57525 13.636C8.46942 13.5322 8.4165 13.4036 8.4165 13.2502V10.5418H4.49984V13.2502C4.49984 13.3995 4.44831 13.527 4.34525 13.6329C4.2422 13.7388 4.11456 13.7918 3.96234 13.7918ZM11.5473 13.7918C11.3941 13.7918 11.2646 13.7403 11.1586 13.6372C11.0528 13.5342 10.9998 13.4066 10.9998 13.2543C10.9998 13.102 11.0517 12.9729 11.1555 12.8672C11.2594 12.7614 11.388 12.7085 11.5415 12.7085H15.2434C15.3182 12.7085 15.3797 12.6845 15.4278 12.6364C15.4758 12.5884 15.4998 12.5269 15.4998 12.452V10.5418H12.5415C12.388 10.5418 12.2594 10.4903 12.1555 10.3872C12.0517 10.2842 11.9998 10.1566 11.9998 10.0043C11.9998 9.85197 12.0517 9.72294 12.1555 9.61725C12.2594 9.51141 12.388 9.4585 12.5415 9.4585H15.4998V7.54829C15.4998 7.47343 15.4758 7.41197 15.4278 7.36391C15.3797 7.31586 15.3182 7.29183 15.2434 7.29183H11.5415C11.388 7.29183 11.2594 7.2403 11.1555 7.13725C11.0517 7.03419 10.9998 6.90655 10.9998 6.75433C10.9998 6.60197 11.0519 6.47294 11.1559 6.36725C11.2598 6.26141 11.3886 6.2085 11.5423 6.2085H15.249C15.6179 6.2085 15.9325 6.33968 16.1928 6.60204C16.453 6.8644 16.5832 7.17982 16.5832 7.54829V12.452C16.5832 12.8205 16.4521 13.1359 16.19 13.3983C15.9281 13.6606 15.6131 13.7918 15.245 13.7918H11.5473Z" fill="#1C1B1F"/>
</g>
</svg>
