<svg width="20" height="20" viewBox="0 0 20 20" fill="none" xmlns="http://www.w3.org/2000/svg">
<mask id="mask0_25_6149" style="mask-type:alpha" maskUnits="userSpaceOnUse" x="0" y="0" width="20" height="20">
<rect width="20" height="20" fill="#D9D9D9"/>
</mask>
<g mask="url(#mask0_25_6149)">
<path d="M2.95817 11.2834C2.8047 11.2834 2.67609 11.2319 2.57234 11.129C2.46845 11.0259 2.4165 10.8982 2.4165 10.7459C2.4165 10.5937 2.46845 10.4646 2.57234 10.3588C2.67609 10.2531 2.8047 10.2003 2.95817 10.2003H17.0415C17.195 10.2003 17.3236 10.2517 17.4273 10.3546C17.5312 10.4577 17.5832 10.5854 17.5832 10.7378C17.5832 10.89 17.5312 11.019 17.4273 11.1248C17.3236 11.2305 17.195 11.2834 17.0415 11.2834H2.95817ZM9.36838 8.7163V5.68734H6.05588C5.88046 5.68734 5.73143 5.62588 5.6088 5.50296C5.48602 5.37991 5.42463 5.2306 5.42463 5.05505C5.42463 4.87935 5.48602 4.729 5.6088 4.604C5.73143 4.479 5.88046 4.4165 6.05588 4.4165H13.9517C14.1271 4.4165 14.2762 4.47796 14.399 4.60088C14.5218 4.72393 14.5832 4.87324 14.5832 5.0488C14.5832 5.22449 14.5218 5.37484 14.399 5.49984C14.2762 5.62484 14.1271 5.68734 13.9517 5.68734H10.6392V8.7163H9.36838ZM9.36838 12.7675H10.6392V14.9517C10.6392 15.1271 10.5778 15.2762 10.4548 15.399C10.3319 15.5218 10.1826 15.5832 10.0069 15.5832C9.83123 15.5832 9.68088 15.521 9.55588 15.3967C9.43088 15.2724 9.36838 15.1214 9.36838 14.9438V12.7675Z" fill="#1C1B1F"/>
</g>
</svg>
