<svg width="20" height="20" viewBox="0 0 20 20" fill="none" xmlns="http://www.w3.org/2000/svg">
<mask id="mask0_2664_3781" style="mask-type:alpha" maskUnits="userSpaceOnUse" x="0" y="0" width="20" height="20">
<rect width="20" height="20" fill="#D9D9D9"/>
</mask>
<g mask="url(#mask0_2664_3781)">
<path d="M8.3813 15.625C8.20421 15.625 8.05574 15.5651 7.93588 15.4452C7.81616 15.3254 7.7563 15.1769 7.7563 14.9998C7.7563 14.8226 7.81616 14.6742 7.93588 14.5546C8.05574 14.4349 8.20421 14.375 8.3813 14.375H16.4582C16.6353 14.375 16.7837 14.4349 16.9034 14.5548C17.0232 14.6747 17.0832 14.8231 17.0832 15.0002C17.0832 15.1775 17.0232 15.3259 16.9034 15.4454C16.7837 15.5652 16.6353 15.625 16.4582 15.625H8.3813ZM8.3813 10.625C8.20421 10.625 8.05574 10.5651 7.93588 10.4452C7.81616 10.3254 7.7563 10.1769 7.7563 9.99981C7.7563 9.82259 7.81616 9.67419 7.93588 9.5546C8.05574 9.43488 8.20421 9.37502 8.3813 9.37502H16.4582C16.6353 9.37502 16.7837 9.43495 16.9034 9.55481C17.0232 9.67467 17.0832 9.82314 17.0832 10.0002C17.0832 10.1775 17.0232 10.3259 16.9034 10.4454C16.7837 10.5652 16.6353 10.625 16.4582 10.625H8.3813ZM8.3813 5.62502C8.20421 5.62502 8.05574 5.56509 7.93588 5.44523C7.81616 5.32537 7.7563 5.17689 7.7563 4.99981C7.7563 4.82259 7.81616 4.67419 7.93588 4.5546C8.05574 4.43488 8.20421 4.37502 8.3813 4.37502H16.4582C16.6353 4.37502 16.7837 4.43495 16.9034 4.55481C17.0232 4.67467 17.0832 4.82314 17.0832 5.00023C17.0832 5.17745 17.0232 5.32585 16.9034 5.44544C16.7837 5.56516 16.6353 5.62502 16.4582 5.62502H8.3813ZM4.30275 16.3863C3.9215 16.3863 3.59518 16.2505 3.3238 15.979C3.05227 15.7076 2.9165 15.3813 2.9165 15C2.9165 14.6188 3.05227 14.2924 3.3238 14.0211C3.59518 13.7495 3.9215 13.6138 4.30275 13.6138C4.684 13.6138 5.01032 13.7495 5.28171 14.0211C5.55324 14.2924 5.689 14.6188 5.689 15C5.689 15.3813 5.55324 15.7076 5.28171 15.979C5.01032 16.2505 4.684 16.3863 4.30275 16.3863ZM4.30275 11.3863C3.9215 11.3863 3.59518 11.2505 3.3238 10.979C3.05227 10.7076 2.9165 10.3813 2.9165 10C2.9165 9.61877 3.05227 9.29245 3.3238 9.02106C3.59518 8.74953 3.9215 8.61377 4.30275 8.61377C4.684 8.61377 5.01032 8.74953 5.28171 9.02106C5.55324 9.29245 5.689 9.61877 5.689 10C5.689 10.3813 5.55324 10.7076 5.28171 10.979C5.01032 11.2505 4.684 11.3863 4.30275 11.3863ZM4.30275 6.38627C3.9215 6.38627 3.59518 6.25051 3.3238 5.97898C3.05227 5.70759 2.9165 5.38127 2.9165 5.00002C2.9165 4.61877 3.05227 4.29245 3.3238 4.02106C3.59518 3.74953 3.9215 3.61377 4.30275 3.61377C4.684 3.61377 5.01032 3.74953 5.28171 4.02106C5.55324 4.29245 5.689 4.61877 5.689 5.00002C5.689 5.38127 5.55324 5.70759 5.28171 5.97898C5.01032 6.25051 4.684 6.38627 4.30275 6.38627Z" fill="#1C1B1F"/>
</g>
</svg>
