<svg width="20" height="20" viewBox="0 0 20 20" fill="none" xmlns="http://www.w3.org/2000/svg">
<mask id="mask0_596_25275" style="mask-type:alpha" maskUnits="userSpaceOnUse" x="0" y="0" width="20" height="20">
<rect width="20" height="20" fill="#D9D9D9"/>
</mask>
<g mask="url(#mask0_596_25275)">
<path d="M14.0271 16.4517H14.9309V14.9517H16.4309V14.048H14.9309V12.548H14.0271V14.048H12.5271V14.9517H14.0271V16.4517ZM14.4742 18.0832C13.4785 18.0832 12.6332 17.7341 11.9382 17.0359C11.2432 16.3378 10.8957 15.4909 10.8957 14.4951C10.8957 13.4994 11.2448 12.654 11.943 11.959C12.641 11.264 13.488 10.9165 14.4838 10.9165C15.4795 10.9165 16.3248 11.2656 17.0198 11.9638C17.7148 12.6619 18.0623 13.5088 18.0623 14.5046C18.0623 15.5003 17.7132 16.3457 17.015 17.0407C16.317 17.7357 15.47 18.0832 14.4742 18.0832ZM7.7563 6.29152V5.20819H16.5832V6.29152H7.7563ZM4.63171 15.4694C4.29505 15.4694 4.00838 15.3496 3.77171 15.1099C3.53491 14.8701 3.4165 14.582 3.4165 14.2455C3.4165 13.9088 3.53636 13.6221 3.77609 13.3855C4.01581 13.1487 4.30393 13.0303 4.64046 13.0303C4.97713 13.0303 5.2638 13.1501 5.50046 13.3899C5.73727 13.6296 5.85567 13.9177 5.85567 14.2542C5.85567 14.5909 5.73581 14.8776 5.49609 15.1142C5.25637 15.351 4.96824 15.4694 4.63171 15.4694ZM4.63171 11.2194C4.29505 11.2194 4.00838 11.0996 3.77171 10.8599C3.53491 10.6201 3.4165 10.332 3.4165 9.99548C3.4165 9.65881 3.53636 9.37215 3.77609 9.13548C4.01581 8.89868 4.30393 8.78027 4.64046 8.78027C4.97713 8.78027 5.2638 8.90013 5.50046 9.13986C5.73727 9.37958 5.85567 9.6677 5.85567 10.0042C5.85567 10.3409 5.73581 10.6276 5.49609 10.8642C5.25637 11.101 4.96824 11.2194 4.63171 11.2194ZM4.63171 6.96944C4.29505 6.96944 4.00838 6.84958 3.77171 6.60986C3.53491 6.37013 3.4165 6.08201 3.4165 5.74548C3.4165 5.40881 3.53636 5.12215 3.77609 4.88548C4.01581 4.64868 4.30393 4.53027 4.64046 4.53027C4.97713 4.53027 5.2638 4.65013 5.50046 4.88986C5.73727 5.12958 5.85567 5.4177 5.85567 5.75423C5.85567 6.0909 5.73581 6.37756 5.49609 6.61423C5.25637 6.85104 4.96824 6.96944 4.63171 6.96944ZM7.7563 14.7915V13.7082H9.24671C9.21574 13.8887 9.19331 14.0693 9.17942 14.2499C9.16553 14.4304 9.16713 14.611 9.18421 14.7915H7.7563ZM7.7563 10.5415V9.45819H12.8332C12.5084 9.61097 12.2007 9.77361 11.91 9.94611C11.6195 10.1187 11.3466 10.3172 11.0913 10.5415H7.7563Z" fill="#1C1B1F"/>
</g>
</svg>
