<svg width="20" height="20" viewBox="0 0 20 20" fill="none" xmlns="http://www.w3.org/2000/svg">
<mask id="mask0_213_18411" style="mask-type:alpha" maskUnits="userSpaceOnUse" x="0" y="0" width="20" height="20">
<rect width="20" height="20" fill="#D9D9D9"/>
</mask>
<g mask="url(#mask0_213_18411)">
<path d="M4.49984 15.4998H6.63442C6.78789 15.4998 6.91657 15.5514 7.02046 15.6544C7.12421 15.7575 7.17609 15.8851 7.17609 16.0373C7.17609 16.1897 7.12421 16.3187 7.02046 16.4244C6.91657 16.5303 6.78789 16.5832 6.63442 16.5832H4.0865C3.89664 16.5832 3.73755 16.5189 3.60921 16.3905C3.48074 16.2621 3.4165 16.103 3.4165 15.9132V13.3653C3.4165 13.2118 3.46803 13.0831 3.57109 12.9792C3.67414 12.8755 3.80178 12.8236 3.954 12.8236C4.10637 12.8236 4.23539 12.8755 4.34109 12.9792C4.44692 13.0831 4.49984 13.2118 4.49984 13.3653V15.4998ZM15.5078 15.4998V13.3653C15.5078 13.2118 15.5593 13.0831 15.6623 12.9792C15.7654 12.8755 15.8931 12.8236 16.0455 12.8236C16.1977 12.8236 16.3267 12.8755 16.4325 12.9792C16.5382 13.0831 16.5911 13.2118 16.5911 13.3653V15.9132C16.5911 16.103 16.5269 16.2621 16.3986 16.3905C16.2701 16.5189 16.111 16.5832 15.9213 16.5832H13.3732C13.2197 16.5832 13.0911 16.5316 12.9873 16.4286C12.8834 16.3255 12.8315 16.1979 12.8315 16.0457C12.8315 15.8933 12.8834 15.7643 12.9873 15.6586C13.0911 15.5528 13.2197 15.4998 13.3732 15.4998H15.5078ZM4.49984 4.49984V6.63442C4.49984 6.78789 4.44831 6.91657 4.34525 7.02046C4.2422 7.12421 4.11456 7.17609 3.96234 7.17609C3.80998 7.17609 3.68095 7.12421 3.57525 7.02046C3.46942 6.91657 3.4165 6.78789 3.4165 6.63442V4.0865C3.4165 3.89664 3.48074 3.73755 3.60921 3.60921C3.73755 3.48074 3.89664 3.4165 4.0865 3.4165H6.63442C6.78789 3.4165 6.91657 3.46803 7.02046 3.57109C7.12421 3.67414 7.17609 3.80178 7.17609 3.954C7.17609 4.10636 7.12421 4.23539 7.02046 4.34109C6.91657 4.44692 6.78789 4.49984 6.63442 4.49984H4.49984ZM15.5078 4.49984H13.3732C13.2197 4.49984 13.0911 4.44831 12.9873 4.34525C12.8834 4.2422 12.8315 4.11456 12.8315 3.96234C12.8315 3.80998 12.8834 3.68095 12.9873 3.57525C13.0911 3.46942 13.2197 3.4165 13.3732 3.4165H15.9213C16.111 3.4165 16.2701 3.48074 16.3986 3.60921C16.5269 3.73755 16.5911 3.89664 16.5911 4.0865V6.63442C16.5911 6.78789 16.5396 6.91657 16.4367 7.02046C16.3337 7.12421 16.2059 7.17609 16.0536 7.17609C15.9012 7.17609 15.7722 7.12421 15.6665 7.02046C15.5607 6.91657 15.5078 6.78789 15.5078 6.63442V4.49984Z" fill="#1C1B1F"/>
</g>
</svg>
