<svg width="20" height="20" viewBox="0 0 20 20" fill="none" xmlns="http://www.w3.org/2000/svg">
<mask id="mask0_213_18418" style="mask-type:alpha" maskUnits="userSpaceOnUse" x="0" y="0" width="20" height="20">
<rect width="20" height="20" fill="#D9D9D9"/>
</mask>
<g mask="url(#mask0_213_18418)">
<path d="M6.09275 13.9069H3.95817C3.8047 13.9069 3.67609 13.8554 3.57234 13.7523C3.46845 13.6493 3.4165 13.5216 3.4165 13.3692C3.4165 13.217 3.46845 13.088 3.57234 12.9821C3.67609 12.8764 3.8047 12.8236 3.95817 12.8236H6.5063C6.69602 12.8236 6.85511 12.8878 6.98359 13.0161C7.11192 13.1446 7.17609 13.3037 7.17609 13.4934V16.0415C7.17609 16.195 7.12456 16.3236 7.0215 16.4273C6.91859 16.5312 6.79095 16.5832 6.63859 16.5832C6.48623 16.5832 6.3572 16.5312 6.2515 16.4273C6.14567 16.3236 6.09275 16.195 6.09275 16.0415V13.9069ZM13.9148 13.9069V16.0415C13.9148 16.195 13.8633 16.3236 13.7603 16.4273C13.6572 16.5312 13.5296 16.5832 13.3773 16.5832C13.225 16.5832 13.0959 16.5312 12.9903 16.4273C12.8844 16.3236 12.8315 16.195 12.8315 16.0415V13.4934C12.8315 13.3037 12.8957 13.1446 13.0242 13.0161C13.1525 12.8878 13.3116 12.8236 13.5015 12.8236H16.0494C16.2029 12.8236 16.3316 12.8751 16.4355 12.9782C16.5392 13.0811 16.5911 13.2087 16.5911 13.3611C16.5911 13.5134 16.5392 13.6425 16.4355 13.7482C16.3316 13.854 16.2029 13.9069 16.0494 13.9069H13.9148ZM6.09275 6.09275V3.95817C6.09275 3.8047 6.14428 3.67609 6.24734 3.57234C6.35039 3.46845 6.4781 3.4165 6.63046 3.4165C6.78268 3.4165 6.91171 3.46845 7.01755 3.57234C7.12324 3.67609 7.17609 3.8047 7.17609 3.95817V6.5063C7.17609 6.69602 7.11192 6.85511 6.98359 6.98359C6.85511 7.11192 6.69602 7.17609 6.5063 7.17609H3.95817C3.8047 7.17609 3.67609 7.12456 3.57234 7.0215C3.46845 6.91859 3.4165 6.79095 3.4165 6.63859C3.4165 6.48623 3.46845 6.3572 3.57234 6.2515C3.67609 6.14567 3.8047 6.09275 3.95817 6.09275H6.09275ZM13.9148 6.09275H16.0494C16.2029 6.09275 16.3316 6.14428 16.4355 6.24734C16.5392 6.35039 16.5911 6.4781 16.5911 6.63046C16.5911 6.78268 16.5392 6.91171 16.4355 7.01755C16.3316 7.12324 16.2029 7.17609 16.0494 7.17609H13.5015C13.3116 7.17609 13.1525 7.11192 13.0242 6.98359C12.8957 6.85511 12.8315 6.69602 12.8315 6.5063V3.95817C12.8315 3.8047 12.883 3.67609 12.9861 3.57234C13.0891 3.46845 13.2168 3.4165 13.369 3.4165C13.5214 3.4165 13.6505 3.46845 13.7563 3.57234C13.862 3.67609 13.9148 3.8047 13.9148 3.95817V6.09275Z" fill="#1C1B1F"/>
</g>
</svg>
