<svg width="17" height="16" viewBox="0 0 17 16" fill="none" xmlns="http://www.w3.org/2000/svg">
<mask id="mask0_1537_30586" style="mask-type:alpha" maskUnits="userSpaceOnUse" x="0" y="0" width="17" height="16">
<rect x="0.5" width="16" height="16" fill="#D9D9D9"/>
</mask>
<g mask="url(#mask0_1537_30586)">
<path d="M4.30523 13.2667C4.00512 13.2667 3.75145 13.1612 3.54423 12.9501C3.33701 12.739 3.2334 12.4872 3.2334 12.1949V3.80523C3.2334 3.5129 3.33701 3.26118 3.54423 3.05007C3.75145 2.83895 4.00512 2.7334 4.30523 2.7334H12.6949C12.995 2.7334 13.2487 2.83895 13.4559 3.05007C13.6631 3.26118 13.7667 3.5129 13.7667 3.80523V12.1949C13.7667 12.4872 13.6631 12.739 13.4559 12.9501C13.2487 13.1612 12.995 13.2667 12.6949 13.2667H4.30523ZM4.30523 12.4001H12.6949C12.7462 12.4001 12.7932 12.3787 12.8359 12.3359C12.8787 12.2932 12.9001 12.2462 12.9001 12.1949V3.80523C12.9001 3.7539 12.8787 3.7069 12.8359 3.66423C12.7932 3.62145 12.7462 3.60007 12.6949 3.60007H4.30523C4.2539 3.60007 4.2069 3.62145 4.16423 3.66423C4.12145 3.7069 4.10007 3.7539 4.10007 3.80523V12.1949C4.10007 12.2462 4.12145 12.2932 4.16423 12.3359C4.2069 12.3787 4.2539 12.4001 4.30523 12.4001ZM5.40007 11.0334H11.6512L9.55906 8.24373L7.88723 10.4129L6.8539 9.10773L5.40007 11.0334Z" fill="#00A5AE"/>
</g>
</svg>
