<svg width="24" height="24" viewBox="0 0 24 24" fill="none" xmlns="http://www.w3.org/2000/svg">
<mask id="mask0_215_24112" style="mask-type:alpha" maskUnits="userSpaceOnUse" x="0" y="0" width="24" height="24">
<rect width="24" height="24" fill="#D9D9D9"/>
</mask>
<g mask="url(#mask0_215_24112)">
<path d="M10 18C10.8333 18 11.5417 17.7083 12.125 17.125C12.7083 16.5417 13 15.8333 13 15V8H15C15.2833 8 15.5208 7.90417 15.7125 7.7125C15.9042 7.52083 16 7.28333 16 7C16 6.71667 15.9042 6.47917 15.7125 6.2875C15.5208 6.09583 15.2833 6 15 6H12.5C12.2167 6 11.9792 6.09583 11.7875 6.2875C11.5958 6.47917 11.5 6.71667 11.5 7V12.4C11.2667 12.2667 11.025 12.1667 10.775 12.1C10.525 12.0333 10.2667 12 10 12C9.16667 12 8.45833 12.2917 7.875 12.875C7.29167 13.4583 7 14.1667 7 15C7 15.8333 7.29167 16.5417 7.875 17.125C8.45833 17.7083 9.16667 18 10 18ZM12 22C10.6167 22 9.31667 21.7375 8.1 21.2125C6.88333 20.6875 5.825 19.975 4.925 19.075C4.025 18.175 3.3125 17.1167 2.7875 15.9C2.2625 14.6833 2 13.3833 2 12C2 10.6167 2.2625 9.31667 2.7875 8.1C3.3125 6.88333 4.025 5.825 4.925 4.925C5.825 4.025 6.88333 3.3125 8.1 2.7875C9.31667 2.2625 10.6167 2 12 2C13.3833 2 14.6833 2.2625 15.9 2.7875C17.1167 3.3125 18.175 4.025 19.075 4.925C19.975 5.825 20.6875 6.88333 21.2125 8.1C21.7375 9.31667 22 10.6167 22 12C22 13.3833 21.7375 14.6833 21.2125 15.9C20.6875 17.1167 19.975 18.175 19.075 19.075C18.175 19.975 17.1167 20.6875 15.9 21.2125C14.6833 21.7375 13.3833 22 12 22Z" fill="#47464A"/>
</g>
</svg>
