<svg width="20" height="20" viewBox="0 0 20 20" fill="none" xmlns="http://www.w3.org/2000/svg">
<mask id="mask0_2618_3391" style="mask-type:alpha" maskUnits="userSpaceOnUse" x="0" y="0" width="20" height="20">
<rect width="20" height="20" fill="#D9D9D9"/>
</mask>
<g mask="url(#mask0_2618_3391)">
<path d="M10.0018 13.789L6.36893 15.921C6.23176 15.9841 6.10618 16.0094 5.99219 15.9969C5.8782 15.9844 5.77336 15.9466 5.67765 15.8836C5.58179 15.8205 5.5114 15.7255 5.46646 15.5988C5.42169 15.472 5.41987 15.3473 5.46102 15.2246L6.41434 11.2622L3.21265 8.5945C3.10701 8.50644 3.04151 8.40198 3.01612 8.28112C2.99058 8.16025 2.99539 8.04325 3.03055 7.93013C3.06571 7.81715 3.13122 7.72376 3.22708 7.64994C3.32294 7.57612 3.43819 7.53441 3.57283 7.52481L7.76592 7.15711L9.43062 3.37676C9.49116 3.24815 9.57117 3.15321 9.67066 3.09193C9.77015 3.03064 9.88051 3 10.0018 3C10.123 3 10.2334 3.03064 10.3329 3.09193C10.4323 3.15321 10.5124 3.24815 10.5729 3.37676L12.2376 7.18032L16.4307 7.52481C16.5653 7.53441 16.6806 7.57999 16.7764 7.66154C16.8723 7.7431 16.9378 7.84037 16.973 7.95334C17.0081 8.06647 17.009 8.17959 16.9756 8.29272C16.9423 8.40585 16.8728 8.50644 16.7672 8.5945L13.5892 11.2622L14.5425 15.2246C14.5836 15.3473 14.5818 15.472 14.5371 15.5988C14.4921 15.7255 14.4217 15.8205 14.3259 15.8836C14.2302 15.9466 14.1253 15.9844 14.0113 15.9969C13.8973 16.0094 13.7717 15.9841 13.6346 15.921L10.0018 13.789Z" fill="#1C1B1F"/>
</g>
</svg>
