<svg width="20" height="20" viewBox="0 0 20 20" fill="none" xmlns="http://www.w3.org/2000/svg">
<mask id="mask0_2661_4035" style="mask-type:alpha" maskUnits="userSpaceOnUse" x="0" y="0" width="20" height="20">
<rect width="20" height="20" fill="#D9D9D9"/>
</mask>
<g mask="url(#mask0_2661_4035)">
<path d="M4.14614 8.93671C3.83188 8.93671 3.56229 8.82056 3.33737 8.58826C3.11246 8.35596 3 8.08814 3 7.78481V4.1519C3 3.83823 3.11379 3.56783 3.34136 3.3407C3.56879 3.11357 3.83963 3 4.15389 3H7.79079C8.1049 3 8.37442 3.11357 8.59934 3.3407C8.82425 3.56783 8.93671 3.83823 8.93671 4.1519V7.78481C8.93671 8.08814 8.82292 8.35596 8.59535 8.58826C8.36792 8.82056 8.09708 8.93671 7.78282 8.93671H4.14614ZM4.14614 17C3.83188 17 3.56229 16.8862 3.33737 16.6586C3.11246 16.4312 3 16.1604 3 15.8461V12.2092C3 11.8951 3.11379 11.6256 3.34136 11.4007C3.56879 11.1757 3.83963 11.0633 4.15389 11.0633H7.79079C8.1049 11.0633 8.37442 11.1771 8.59934 11.4047C8.82425 11.6321 8.93671 11.9029 8.93671 12.2172V15.8539C8.93671 16.1681 8.82292 16.4377 8.59535 16.6626C8.36792 16.8875 8.09708 17 7.78282 17H4.14614ZM12.2152 8.93671C11.9119 8.93671 11.644 8.82056 11.4117 8.58826C11.1794 8.35596 11.0633 8.08814 11.0633 7.78481V4.1519C11.0633 3.83823 11.1794 3.56783 11.4117 3.3407C11.644 3.11357 11.9119 3 12.2152 3H15.8481C16.1618 3 16.4322 3.11357 16.6593 3.3407C16.8864 3.56783 17 3.83823 17 4.1519V7.78481C17 8.08814 16.8864 8.35596 16.6593 8.58826C16.4322 8.82056 16.1618 8.93671 15.8481 8.93671H12.2152ZM12.2152 17C11.9119 17 11.644 16.8862 11.4117 16.6586C11.1794 16.4312 11.0633 16.1604 11.0633 15.8461V12.2092C11.0633 11.8951 11.1794 11.6256 11.4117 11.4007C11.644 11.1757 11.9119 11.0633 12.2152 11.0633H15.8481C16.1618 11.0633 16.4322 11.1771 16.6593 11.4047C16.8864 11.6321 17 11.9029 17 12.2172V15.8539C17 16.1681 16.8864 16.4377 16.6593 16.6626C16.4322 16.8875 16.1618 17 15.8481 17H12.2152ZM4.1519 7.78481H7.78481V4.1519H4.1519V7.78481ZM12.2152 7.78481H15.8481V4.1519H12.2152V7.78481ZM12.2152 15.8481H15.8481V12.2152H12.2152V15.8481ZM4.1519 15.8481H7.78481V12.2152H4.1519V15.8481Z" fill="#1C1B1F"/>
</g>
</svg>
