<svg width="20" height="20" viewBox="0 0 20 20" fill="none" xmlns="http://www.w3.org/2000/svg">
<mask id="mask0_2615_3787" style="mask-type:alpha" maskUnits="userSpaceOnUse" x="0" y="0" width="20" height="20">
<rect width="20" height="20" fill="#D9D9D9"/>
</mask>
<g mask="url(#mask0_2615_3787)">
<path d="M2.66504 13.9872C2.66504 13.6689 2.74115 13.3898 2.89337 13.1499C3.04559 12.9101 3.2583 12.7103 3.5315 12.5507C4.21233 12.1495 4.92879 11.8335 5.68087 11.6026C6.43309 11.3719 7.28886 11.2566 8.24816 11.2566C9.20761 11.2566 10.0634 11.3719 10.8155 11.6026C11.5677 11.8335 12.2842 12.1495 12.965 12.5507C13.2382 12.7103 13.4509 12.9101 13.6032 13.1499C13.7554 13.3898 13.8315 13.6689 13.8315 13.9872V14.3239C13.8315 14.6176 13.7257 14.8743 13.5142 15.0939C13.3027 15.3135 13.042 15.4232 12.7321 15.4232H3.76421C3.45448 15.4232 3.19386 15.3175 2.98233 15.106C2.7708 14.8943 2.66504 14.6336 2.66504 14.3239V13.9872ZM15.0719 15.4232C15.1489 15.2459 15.2114 15.0667 15.2594 14.8855C15.3075 14.7044 15.3315 14.5172 15.3315 14.3239V14.0514C15.3315 13.5322 15.2323 13.056 15.034 12.6228C14.8355 12.1898 14.5736 11.8375 14.2482 11.566C14.6402 11.6771 15.0284 11.813 15.4125 11.9737C15.7966 12.1345 16.175 12.3271 16.548 12.5514C16.7841 12.6839 16.9742 12.8852 17.1184 13.1553C17.2625 13.4253 17.3346 13.724 17.3346 14.0514V14.3239C17.3346 14.6336 17.2289 14.8943 17.0173 15.106C16.8058 15.3175 16.5452 15.4232 16.2355 15.4232H15.0719ZM8.24816 9.74367C7.52941 9.74367 6.91921 9.49283 6.41754 8.99117C5.91587 8.48936 5.66504 7.87908 5.66504 7.16033C5.66504 6.44158 5.91587 5.83137 6.41754 5.32971C6.91921 4.8279 7.52941 4.577 8.24816 4.577C8.96691 4.577 9.57719 4.8279 10.079 5.32971C10.5807 5.83137 10.8315 6.44158 10.8315 7.16033C10.8315 7.87908 10.5807 8.48936 10.079 8.99117C9.57719 9.49283 8.96691 9.74367 8.24816 9.74367ZM14.1102 7.16033C14.1102 7.87908 13.8594 8.48936 13.3577 8.99117C12.8561 9.49283 12.2459 9.74367 11.5271 9.74367C11.4748 9.74367 11.4454 9.74686 11.439 9.75325C11.4325 9.75964 11.4031 9.757 11.3509 9.74533C11.6517 9.39186 11.8904 8.99867 12.0669 8.56575C12.2433 8.13283 12.3315 7.66408 12.3315 7.1595C12.3315 6.65478 12.2415 6.1879 12.0615 5.75887C11.8815 5.32998 11.6446 4.93554 11.3509 4.57554C11.3871 4.57443 11.4165 4.57443 11.439 4.57554C11.4614 4.57651 11.4907 4.577 11.5271 4.577C12.2459 4.577 12.8561 4.8279 13.3577 5.32971C13.8594 5.83137 14.1102 6.44158 14.1102 7.16033Z" fill="#1C1B1F"/>
</g>
</svg>
