<svg width="20" height="20" viewBox="0 0 20 20" fill="none" xmlns="http://www.w3.org/2000/svg">
<mask id="mask0_2615_3331" style="mask-type:alpha" maskUnits="userSpaceOnUse" x="0" y="0" width="20" height="20">
<rect width="20" height="20" fill="#D9D9D9"/>
</mask>
<g mask="url(#mask0_2615_3331)">
<path d="M10.0335 14.6826C10.259 14.6826 10.4503 14.6048 10.6074 14.4491C10.7645 14.2933 10.843 14.1026 10.843 13.877C10.843 13.6513 10.7651 13.4599 10.6093 13.3028C10.4535 13.1459 10.2628 13.0674 10.0372 13.0674C9.81166 13.0674 9.62034 13.1453 9.46325 13.301C9.30617 13.4568 9.22763 13.6475 9.22763 13.873C9.22763 14.0987 9.30555 14.2901 9.46138 14.4472C9.61707 14.6042 9.80777 14.6826 10.0335 14.6826ZM10.0103 17.5866C8.96714 17.5866 7.98464 17.3892 7.06284 16.9945C6.14103 16.5998 5.33423 16.0567 4.64242 15.3651C3.95062 14.6736 3.40721 13.8674 3.01221 12.9466C2.61735 12.0259 2.41992 11.0421 2.41992 9.99513C2.41992 8.94819 2.61728 7.96728 3.01201 7.05242C3.40673 6.13756 3.94985 5.33423 4.64138 4.64242C5.33291 3.95062 6.13909 3.40721 7.05992 3.01221C7.98062 2.61735 8.96444 2.41992 10.0114 2.41992C11.0583 2.41992 12.0392 2.61728 12.9541 3.012C13.8689 3.40673 14.6723 3.94985 15.3641 4.64138C16.0559 5.33291 16.5993 6.13742 16.9943 7.05492C17.3892 7.97256 17.5866 8.95298 17.5866 9.99617C17.5866 11.0394 17.3892 12.0219 16.9945 12.9437C16.5998 13.8655 16.0567 14.6723 15.3651 15.3641C14.6736 16.0559 13.8691 16.5993 12.9516 16.9943C12.034 17.3892 11.0535 17.5866 10.0103 17.5866ZM10.0033 16.5033C11.8088 16.5033 13.3435 15.8713 14.6074 14.6074C15.8713 13.3435 16.5033 11.8088 16.5033 10.0033C16.5033 8.1977 15.8713 6.66298 14.6074 5.39909C13.3435 4.1352 11.8088 3.50326 10.0033 3.50326C8.1977 3.50326 6.66298 4.1352 5.39909 5.39909C4.1352 6.66298 3.50326 8.1977 3.50326 10.0033C3.50326 11.8088 4.1352 13.3435 5.39909 14.6074C6.66298 15.8713 8.1977 16.5033 10.0033 16.5033ZM10.0545 6.43596C10.4434 6.43596 10.7799 6.55839 11.0641 6.80326C11.3484 7.04826 11.4905 7.35444 11.4905 7.7218C11.4905 8.03124 11.4042 8.30666 11.2316 8.54805C11.0591 8.78958 10.8574 9.00756 10.6266 9.202C10.3241 9.47034 10.0543 9.77249 9.81721 10.1085C9.58013 10.4443 9.46055 10.8168 9.45846 11.226C9.45305 11.3778 9.50353 11.498 9.60992 11.5866C9.71631 11.6752 9.84034 11.7195 9.98201 11.7195C10.134 11.7195 10.262 11.6765 10.3662 11.5905C10.4703 11.5046 10.5379 11.3911 10.5689 11.2501C10.6383 10.9499 10.7636 10.6854 10.9447 10.4568C11.1258 10.2282 11.322 10.0108 11.5333 9.80471C11.837 9.5086 12.0882 9.17888 12.2868 8.81555C12.4855 8.45208 12.5849 8.06221 12.5849 7.64596C12.5849 6.98569 12.3387 6.43624 11.8462 5.99763C11.3537 5.55916 10.7643 5.33992 10.078 5.33992C9.58805 5.33992 9.13041 5.45312 8.70513 5.67951C8.27999 5.90603 7.93006 6.22464 7.65534 6.63534C7.56784 6.76103 7.54464 6.89874 7.58576 7.04846C7.62673 7.19832 7.72083 7.30332 7.86805 7.36346C8.02013 7.43416 8.16937 7.44444 8.31576 7.3943C8.46214 7.34402 8.58444 7.26659 8.68263 7.16201C8.85152 6.95687 9.05242 6.78457 9.28534 6.64513C9.51826 6.50569 9.77464 6.43596 10.0545 6.43596Z" fill="#1C1B1F"/>
</g>
</svg>
