<svg width="20" height="20" viewBox="0 0 20 20" fill="none" xmlns="http://www.w3.org/2000/svg">
<mask id="mask0_15_6672" style="mask-type:alpha" maskUnits="userSpaceOnUse" x="0" y="0" width="20" height="20">
<rect width="20" height="20" fill="#D9D9D9"/>
</mask>
<g mask="url(#mask0_15_6672)">
<path d="M2.96234 17.5832C2.80998 17.5832 2.68095 17.5312 2.57525 17.4273C2.46942 17.3236 2.4165 17.195 2.4165 17.0415V2.95817C2.4165 2.8047 2.46803 2.67609 2.57109 2.57234C2.67414 2.46845 2.80178 2.4165 2.954 2.4165C3.10637 2.4165 3.23539 2.46845 3.34109 2.57234C3.44692 2.67609 3.49984 2.8047 3.49984 2.95817V17.0415C3.49984 17.195 3.44831 17.3236 3.34525 17.4273C3.2422 17.5312 3.11456 17.5832 2.96234 17.5832ZM10.0009 13.7915C9.78116 13.7915 9.59414 13.7146 9.43984 13.5607C9.28539 13.4066 9.20817 13.2197 9.20817 12.9998V6.99984C9.20817 6.77998 9.28505 6.59303 9.4388 6.439C9.59255 6.28512 9.77921 6.20817 9.9988 6.20817C10.2185 6.20817 10.4055 6.28512 10.5598 6.439C10.7143 6.59303 10.7915 6.77998 10.7915 6.99984V12.9998C10.7915 13.2197 10.7146 13.4066 10.5609 13.5607C10.4071 13.7146 10.2205 13.7915 10.0009 13.7915ZM17.0457 17.5832C16.8933 17.5832 16.7643 17.5312 16.6586 17.4273C16.5528 17.3236 16.4998 17.195 16.4998 17.0415V2.95817C16.4998 2.8047 16.5514 2.67609 16.6544 2.57234C16.7575 2.46845 16.8851 2.4165 17.0373 2.4165C17.1897 2.4165 17.3187 2.46845 17.4244 2.57234C17.5303 2.67609 17.5832 2.8047 17.5832 2.95817V17.0415C17.5832 17.195 17.5316 17.3236 17.4286 17.4273C17.3255 17.5312 17.1979 17.5832 17.0457 17.5832Z" fill="#1C1B1F"/>
</g>
</svg>
