<svg width="20" height="20" viewBox="0 0 20 20" fill="none" xmlns="http://www.w3.org/2000/svg">
<mask id="mask0_1126_23366" style="mask-type:alpha" maskUnits="userSpaceOnUse" x="0" y="0" width="20" height="20">
<rect width="20" height="20" fill="#D9D9D9"/>
</mask>
<g mask="url(#mask0_1126_23366)">
<path d="M3.80197 13.7916C3.64975 13.7916 3.52072 13.7396 3.41489 13.6358C3.30919 13.532 3.25635 13.4034 3.25635 13.2499V6.74992C3.25635 6.59645 3.30788 6.46783 3.41093 6.36408C3.51385 6.2602 3.64149 6.20825 3.79385 6.20825C3.94621 6.20825 4.07524 6.2602 4.18093 6.36408C4.28676 6.46783 4.33968 6.59645 4.33968 6.74992V9.45825H8.25635V6.74992C8.25635 6.60061 8.30788 6.47304 8.41093 6.36721C8.51385 6.26124 8.64149 6.20825 8.79385 6.20825C8.94621 6.20825 9.07524 6.2602 9.18093 6.36408C9.28676 6.46783 9.33968 6.59645 9.33968 6.74992V13.2499C9.33968 13.4034 9.28815 13.532 9.1851 13.6358C9.08204 13.7396 8.95433 13.7916 8.80197 13.7916C8.64975 13.7916 8.52072 13.7396 8.41489 13.6358C8.3092 13.532 8.25635 13.4034 8.25635 13.2499V10.5416H4.33968V13.2499C4.33968 13.3992 4.28815 13.5268 4.1851 13.6326C4.08204 13.7386 3.95433 13.7916 3.80197 13.7916ZM15.8853 13.7916C15.7331 13.7916 15.6041 13.7396 15.4982 13.6358C15.3925 13.532 15.3397 13.4034 15.3397 13.2499V11.2916H11.5095C11.3198 11.2916 11.1607 11.2274 11.0322 11.0991C10.9038 10.9706 10.8397 10.8115 10.8397 10.6218V6.74992C10.8397 6.59645 10.8912 6.46783 10.9943 6.36408C11.0972 6.2602 11.2248 6.20825 11.3772 6.20825C11.5295 6.20825 11.6586 6.2602 11.7643 6.36408C11.8701 6.46783 11.923 6.59645 11.923 6.74992V10.2083H15.3397V6.74992C15.3397 6.59645 15.3912 6.46783 15.4943 6.36408C15.5972 6.2602 15.7248 6.20825 15.8772 6.20825C16.0295 6.20825 16.1586 6.2602 16.2643 6.36408C16.3701 6.46783 16.423 6.59645 16.423 6.74992V10.2083H16.8813C17.0348 10.2083 17.1634 10.2598 17.2672 10.3628C17.3711 10.4659 17.423 10.5935 17.423 10.7458C17.423 10.8981 17.3711 11.0271 17.2672 11.1328C17.1634 11.2387 17.0348 11.2916 16.8813 11.2916H16.423V13.2499C16.423 13.4034 16.3715 13.532 16.2684 13.6358C16.1654 13.7396 16.0377 13.7916 15.8853 13.7916Z" fill="#1C1B1F"/>
</g>
</svg>
