<svg width="20" height="20" viewBox="0 0 20 20" fill="none" xmlns="http://www.w3.org/2000/svg">
<mask id="mask0_1126_23378" style="mask-type:alpha" maskUnits="userSpaceOnUse" x="0" y="0" width="20" height="20">
<rect width="20" height="20" fill="#D9D9D9"/>
</mask>
<g mask="url(#mask0_1126_23378)">
<path d="M3.96258 13.7916C3.81022 13.7916 3.68119 13.7396 3.5755 13.6358C3.46966 13.532 3.41675 13.4034 3.41675 13.2499V6.74992C3.41675 6.59645 3.46828 6.46783 3.57133 6.36408C3.67439 6.2602 3.80203 6.20825 3.95425 6.20825C4.10661 6.20825 4.23564 6.2602 4.34133 6.36408C4.44716 6.46783 4.50008 6.59645 4.50008 6.74992V9.45825H8.41675V6.74992C8.41675 6.60061 8.46828 6.47304 8.57133 6.36721C8.67439 6.26124 8.80203 6.20825 8.95425 6.20825C9.10661 6.20825 9.23564 6.2602 9.34133 6.36408C9.44717 6.46783 9.50008 6.59645 9.50008 6.74992V13.2499C9.50008 13.4034 9.44855 13.532 9.3455 13.6358C9.24244 13.7396 9.1148 13.7916 8.96258 13.7916C8.81022 13.7916 8.68119 13.7396 8.5755 13.6358C8.46966 13.532 8.41675 13.4034 8.41675 13.2499V10.5416H4.50008V13.2499C4.50008 13.3992 4.44855 13.5268 4.3455 13.6326C4.24244 13.7386 4.1148 13.7916 3.96258 13.7916ZM12.3342 13.7916C11.9654 13.7916 11.6508 13.6604 11.3905 13.398C11.1302 13.1357 11.0001 12.8203 11.0001 12.4518V7.54804C11.0001 7.17957 11.1311 6.86416 11.3932 6.60179C11.6552 6.33943 11.9702 6.20825 12.3382 6.20825H16.0359C16.1891 6.20825 16.3186 6.25978 16.4245 6.36283C16.5304 6.46589 16.5834 6.59353 16.5834 6.74575C16.5834 6.89811 16.5315 7.02714 16.4276 7.13284C16.3238 7.23867 16.1952 7.29159 16.0417 7.29159H12.3399C12.265 7.29159 12.2036 7.31561 12.1555 7.36367C12.1074 7.41172 12.0834 7.47318 12.0834 7.54804V9.45825H15.2488C15.618 9.45825 15.9327 9.58943 16.193 9.85179C16.4533 10.1142 16.5834 10.4296 16.5834 10.798V12.4518C16.5834 12.8203 16.452 13.1357 16.1892 13.398C15.9266 13.6604 15.6108 13.7916 15.2417 13.7916H12.3342ZM12.0834 10.5416V12.4518C12.0834 12.5267 12.1074 12.5881 12.1555 12.6362C12.2036 12.6842 12.265 12.7083 12.3399 12.7083H15.2436C15.3185 12.7083 15.3799 12.6842 15.428 12.6362C15.4761 12.5881 15.5001 12.5267 15.5001 12.4518V10.798C15.5001 10.7232 15.4761 10.6617 15.428 10.6137C15.3799 10.5656 15.3185 10.5416 15.2436 10.5416H12.0834Z" fill="#1C1B1F"/>
</g>
</svg>
