<svg width="20" height="20" viewBox="0 0 20 20" fill="none" xmlns="http://www.w3.org/2000/svg">
<mask id="mask0_1126_23360" style="mask-type:alpha" maskUnits="userSpaceOnUse" x="0" y="0" width="20" height="20">
<rect width="20" height="20" fill="#D9D9D9"/>
</mask>
<g mask="url(#mask0_1126_23360)">
<path d="M3.96258 13.7916C3.81022 13.7916 3.68119 13.7396 3.5755 13.6358C3.46966 13.532 3.41675 13.4034 3.41675 13.2499V6.74992C3.41675 6.59645 3.46828 6.46783 3.57133 6.36408C3.67439 6.2602 3.80203 6.20825 3.95425 6.20825C4.10661 6.20825 4.23564 6.2602 4.34133 6.36408C4.44716 6.46783 4.50008 6.59645 4.50008 6.74992V9.45825H8.41675V6.74992C8.41675 6.60061 8.46828 6.47304 8.57133 6.36721C8.67439 6.26124 8.80203 6.20825 8.95425 6.20825C9.10661 6.20825 9.23564 6.2602 9.34133 6.36408C9.44717 6.46783 9.50008 6.59645 9.50008 6.74992V13.2499C9.50008 13.4034 9.44855 13.532 9.3455 13.6358C9.24244 13.7396 9.1148 13.7916 8.96258 13.7916C8.81022 13.7916 8.68119 13.7396 8.5755 13.6358C8.46966 13.532 8.41675 13.4034 8.41675 13.2499V10.5416H4.50008V13.2499C4.50008 13.3992 4.44855 13.5268 4.3455 13.6326C4.24244 13.7386 4.1148 13.7916 3.96258 13.7916ZM11.5476 13.7916C11.3944 13.7916 11.2648 13.7401 11.1588 13.637C11.053 13.5339 11.0001 13.4063 11.0001 13.2541C11.0001 13.1017 11.052 12.9727 11.1557 12.867C11.2596 12.7612 11.3883 12.7083 11.5417 12.7083H15.2436C15.3185 12.7083 15.3799 12.6842 15.428 12.6362C15.4761 12.5881 15.5001 12.5267 15.5001 12.4518V10.5416H12.5417C12.3883 10.5416 12.2596 10.4901 12.1557 10.387C12.052 10.2839 12.0001 10.1563 12.0001 10.0041C12.0001 9.85172 12.052 9.7227 12.1557 9.617C12.2596 9.51117 12.3883 9.45825 12.5417 9.45825H15.5001V7.54804C15.5001 7.47318 15.4761 7.41172 15.428 7.36367C15.3799 7.31561 15.3185 7.29159 15.2436 7.29159H11.5417C11.3883 7.29159 11.2596 7.24006 11.1557 7.137C11.052 7.03395 11.0001 6.90631 11.0001 6.75409C11.0001 6.60172 11.0521 6.4727 11.1561 6.367C11.26 6.26117 11.3888 6.20825 11.5426 6.20825H15.2492C15.6181 6.20825 15.9327 6.33943 16.193 6.60179C16.4533 6.86416 16.5834 7.17957 16.5834 7.54804V12.4518C16.5834 12.8203 16.4524 13.1357 16.1903 13.398C15.9283 13.6604 15.6133 13.7916 15.2453 13.7916H11.5476Z" fill="#1C1B1F"/>
</g>
</svg>
