<svg width="20" height="20" viewBox="0 0 20 20" fill="none" xmlns="http://www.w3.org/2000/svg">
<mask id="mask0_1126_23348" style="mask-type:alpha" maskUnits="userSpaceOnUse" x="0" y="0" width="20" height="20">
<rect width="20" height="20" fill="#D9D9D9"/>
</mask>
<g mask="url(#mask0_1126_23348)">
<path d="M4.96258 13.7916C4.81022 13.7916 4.68119 13.7396 4.5755 13.6358C4.46966 13.532 4.41675 13.4034 4.41675 13.2499V6.74992C4.41675 6.59645 4.46828 6.46783 4.57133 6.36408C4.67439 6.2602 4.80203 6.20825 4.95425 6.20825C5.10661 6.20825 5.23564 6.2602 5.34133 6.36408C5.44716 6.46783 5.50008 6.59645 5.50008 6.74992V9.45825H9.41675V6.74992C9.41675 6.60061 9.46828 6.47304 9.57133 6.36721C9.67439 6.26124 9.80203 6.20825 9.95425 6.20825C10.1066 6.20825 10.2356 6.2602 10.3413 6.36408C10.4472 6.46783 10.5001 6.59645 10.5001 6.74992V13.2499C10.5001 13.4034 10.4486 13.532 10.3455 13.6358C10.2424 13.7396 10.1148 13.7916 9.96258 13.7916C9.81022 13.7916 9.68119 13.7396 9.5755 13.6358C9.46966 13.532 9.41675 13.4034 9.41675 13.2499V10.5416H5.50008V13.2499C5.50008 13.3992 5.44855 13.5268 5.3455 13.6326C5.24244 13.7386 5.1148 13.7916 4.96258 13.7916ZM15.0459 13.7916C14.8936 13.7916 14.7645 13.7396 14.6588 13.6358C14.553 13.532 14.5001 13.4034 14.5001 13.2499V7.29159H13.0417C12.8883 7.29159 12.7596 7.24006 12.6557 7.137C12.552 7.03395 12.5001 6.90631 12.5001 6.75409C12.5001 6.60172 12.552 6.4727 12.6557 6.367C12.7596 6.26117 12.8883 6.20825 13.0417 6.20825H14.9095C15.1033 6.20825 15.2641 6.27242 15.3917 6.40075C15.5195 6.52922 15.5834 6.68832 15.5834 6.87804V13.2499C15.5834 13.4034 15.5319 13.532 15.4288 13.6358C15.3258 13.7396 15.1981 13.7916 15.0459 13.7916Z" fill="#1C1B1F"/>
</g>
</svg>
