<svg width="20" height="20" viewBox="0 0 20 20" fill="none" xmlns="http://www.w3.org/2000/svg">
<mask id="mask0_1126_23354" style="mask-type:alpha" maskUnits="userSpaceOnUse" x="0" y="0" width="20" height="20">
<rect width="20" height="20" fill="#D9D9D9"/>
</mask>
<g mask="url(#mask0_1126_23354)">
<path d="M3.96258 13.7916C3.81022 13.7916 3.68119 13.7396 3.5755 13.6358C3.46966 13.532 3.41675 13.4034 3.41675 13.2499V6.74992C3.41675 6.59645 3.46828 6.46783 3.57133 6.36408C3.67439 6.2602 3.80203 6.20825 3.95425 6.20825C4.10661 6.20825 4.23564 6.2602 4.34133 6.36408C4.44716 6.46783 4.50008 6.59645 4.50008 6.74992V9.45825H8.41675V6.74992C8.41675 6.60061 8.46828 6.47304 8.57133 6.36721C8.67439 6.26124 8.80203 6.20825 8.95425 6.20825C9.10661 6.20825 9.23564 6.2602 9.34133 6.36408C9.44717 6.46783 9.50008 6.59645 9.50008 6.74992V13.2499C9.50008 13.4034 9.44855 13.532 9.3455 13.6358C9.24244 13.7396 9.1148 13.7916 8.96258 13.7916C8.81022 13.7916 8.68119 13.7396 8.5755 13.6358C8.46966 13.532 8.41675 13.4034 8.41675 13.2499V10.5416H4.50008V13.2499C4.50008 13.3992 4.44855 13.5268 4.3455 13.6326C4.24244 13.7386 4.1148 13.7916 3.96258 13.7916ZM11.6759 13.7916C11.4863 13.7916 11.3263 13.7274 11.1957 13.5991C11.0653 13.4706 11.0001 13.3115 11.0001 13.1218V10.798C11.0001 10.4296 11.1313 10.1142 11.3936 9.85179C11.656 9.58943 11.9714 9.45825 12.3399 9.45825H15.2436C15.3185 9.45825 15.3799 9.43422 15.428 9.38617C15.4761 9.33811 15.5001 9.27665 15.5001 9.20179V7.54804C15.5001 7.47318 15.4761 7.41172 15.428 7.36367C15.3799 7.31561 15.3185 7.29159 15.2436 7.29159H11.5476C11.3944 7.29159 11.2648 7.24006 11.1588 7.137C11.053 7.03395 11.0001 6.90631 11.0001 6.75409C11.0001 6.60172 11.0521 6.4727 11.1561 6.367C11.26 6.26117 11.3888 6.20825 11.5426 6.20825H15.2492C15.6181 6.20825 15.9327 6.33943 16.193 6.60179C16.4533 6.86416 16.5834 7.17957 16.5834 7.54804V9.20179C16.5834 9.57027 16.4522 9.88568 16.1899 10.148C15.9275 10.4104 15.6121 10.5416 15.2436 10.5416H12.3399C12.265 10.5416 12.2036 10.5656 12.1555 10.6137C12.1074 10.6617 12.0834 10.7232 12.0834 10.798V12.7083H16.0359C16.1891 12.7083 16.3186 12.7598 16.4245 12.8628C16.5304 12.9659 16.5834 13.0935 16.5834 13.2458C16.5834 13.3981 16.5316 13.5271 16.428 13.6328C16.3242 13.7387 16.1958 13.7916 16.0426 13.7916H11.6759Z" fill="#1C1B1F"/>
</g>
</svg>
