<svg width="20" height="20" viewBox="0 0 20 20" fill="none" xmlns="http://www.w3.org/2000/svg">
<mask id="mask0_213_18470" style="mask-type:alpha" maskUnits="userSpaceOnUse" x="0" y="0" width="20" height="20">
<rect width="20" height="20" fill="#D9D9D9"/>
</mask>
<g mask="url(#mask0_213_18470)">
<path d="M4.7563 16.5832C4.38116 16.5832 4.06407 16.4512 3.80505 16.1873C3.54602 15.9234 3.4165 15.6088 3.4165 15.2434V4.7563C3.4165 4.39088 3.54602 4.07623 3.80505 3.81234C4.06407 3.54845 4.38116 3.4165 4.7563 3.4165H15.2434C15.6185 3.4165 15.9356 3.54845 16.1946 3.81234C16.4537 4.07623 16.5832 4.39088 16.5832 4.7563V15.2434C16.5832 15.6088 16.4537 15.9234 16.1946 16.1873C15.9356 16.4512 15.6185 16.5832 15.2434 16.5832H4.7563ZM4.7563 15.4998H15.2434C15.3075 15.4998 15.3663 15.4731 15.4196 15.4196C15.4731 15.3663 15.4998 15.3075 15.4998 15.2434V4.7563C15.4998 4.69213 15.4731 4.63338 15.4196 4.58005C15.3663 4.52657 15.3075 4.49984 15.2434 4.49984H4.7563C4.69213 4.49984 4.63338 4.52657 4.58005 4.58005C4.52657 4.63338 4.49984 4.69213 4.49984 4.7563V15.2434C4.49984 15.3075 4.52657 15.3663 4.58005 15.4196C4.63338 15.4731 4.69213 15.4998 4.7563 15.4998ZM6.12484 13.7915H13.9388L11.3236 10.3044L9.2338 13.0159L7.94213 11.3844L6.12484 13.7915Z" fill="#1C1B1F"/>
</g>
</svg>
