<svg width="20" height="20" viewBox="0 0 20 20" fill="none" xmlns="http://www.w3.org/2000/svg">
<mask id="mask0_61_7586" style="mask-type:alpha" maskUnits="userSpaceOnUse" x="0" y="0" width="20" height="20">
<rect width="20" height="20" fill="#D9D9D9"/>
</mask>
<g mask="url(#mask0_61_7586)">
<path d="M9.99567 13.7915C10.148 13.7915 10.2771 13.7396 10.3828 13.6357C10.4886 13.5319 10.5415 13.4033 10.5415 13.2498V9.5415C10.5415 9.38803 10.49 9.25935 10.3869 9.15546C10.2839 9.05171 10.1562 8.99984 10.004 8.99984C9.85164 8.99984 9.72261 9.05171 9.61692 9.15546C9.51109 9.25935 9.45817 9.38803 9.45817 9.5415V13.2498C9.45817 13.4033 9.5097 13.5319 9.61275 13.6357C9.71581 13.7396 9.84345 13.7915 9.99567 13.7915ZM9.99546 7.74025C10.1613 7.74025 10.3018 7.68414 10.4169 7.57192C10.5321 7.4597 10.5896 7.32067 10.5896 7.15484C10.5896 6.989 10.5335 6.84852 10.4213 6.73338C10.3091 6.61838 10.17 6.56088 10.0042 6.56088C9.83838 6.56088 9.69789 6.61692 9.58275 6.729C9.46762 6.84123 9.41005 6.98025 9.41005 7.14609C9.41005 7.31192 9.46616 7.45241 9.57838 7.56755C9.6906 7.68268 9.82963 7.74025 9.99546 7.74025ZM10.0069 17.5832C8.96373 17.5832 7.98123 17.3858 7.05942 16.9911C6.13761 16.5964 5.33081 16.0532 4.639 15.3617C3.9472 14.6702 3.4038 13.864 3.0088 12.9432C2.61393 12.0225 2.4165 11.0387 2.4165 9.99171C2.4165 8.94477 2.61387 7.96386 3.00859 7.049C3.40331 6.13414 3.94643 5.33081 4.63796 4.639C5.32949 3.9472 6.13567 3.4038 7.0565 3.0088C7.9772 2.61393 8.96102 2.4165 10.008 2.4165C11.0549 2.4165 12.0358 2.61386 12.9507 3.00859C13.8655 3.40331 14.6689 3.94643 15.3607 4.63796C16.0525 5.32949 16.5959 6.134 16.9909 7.0515C17.3857 7.96914 17.5832 8.94956 17.5832 9.99275C17.5832 11.0359 17.3858 12.0184 16.9911 12.9403C16.5964 13.8621 16.0532 14.6689 15.3617 15.3607C14.6702 16.0525 13.8657 16.5959 12.9482 16.9909C12.0305 17.3857 11.0501 17.5832 10.0069 17.5832ZM9.99984 16.4998C11.8054 16.4998 13.3401 15.8679 14.604 14.604C15.8679 13.3401 16.4998 11.8054 16.4998 9.99984C16.4998 8.19428 15.8679 6.65956 14.604 5.39567C13.3401 4.13178 11.8054 3.49984 9.99984 3.49984C8.19428 3.49984 6.65956 4.13178 5.39567 5.39567C4.13178 6.65956 3.49984 8.19428 3.49984 9.99984C3.49984 11.8054 4.13178 13.3401 5.39567 14.604C6.65956 15.8679 8.19428 16.4998 9.99984 16.4998Z" fill="#1C1B1F"/>
</g>
</svg>
