<svg width="20" height="20" viewBox="0 0 20 20" fill="none" xmlns="http://www.w3.org/2000/svg">
<mask id="mask0_2664_3774" style="mask-type:alpha" maskUnits="userSpaceOnUse" x="0" y="0" width="20" height="20">
<rect width="20" height="20" fill="#D9D9D9"/>
</mask>
<g mask="url(#mask0_2664_3774)">
<path d="M4.42329 17.9168C4.00773 17.9168 3.65273 17.7697 3.35829 17.4754C3.06398 17.1809 2.91683 16.8259 2.91683 16.4104V7.0787C2.67225 6.95259 2.47218 6.77336 2.31662 6.541C2.1612 6.30864 2.0835 6.04072 2.0835 5.73725V3.58995C2.0835 3.1744 2.23065 2.8194 2.52495 2.52495C2.8194 2.23065 3.1744 2.0835 3.58995 2.0835H16.4104C16.8259 2.0835 17.1809 2.23065 17.4754 2.52495C17.7697 2.8194 17.9168 3.1744 17.9168 3.58995V5.73725C17.9168 6.04072 17.8391 6.30864 17.6837 6.541C17.5281 6.77336 17.3281 6.95259 17.0835 7.0787V16.4104C17.0835 16.8259 16.9363 17.1809 16.642 17.4754C16.3476 17.7697 15.9926 17.9168 15.577 17.9168H4.42329ZM4.16683 7.2437V16.3704C4.16683 16.4558 4.19752 16.5266 4.25891 16.5827C4.32044 16.6388 4.39662 16.6668 4.48745 16.6668H15.577C15.6519 16.6668 15.7134 16.6428 15.7614 16.5947C15.8095 16.5467 15.8335 16.4852 15.8335 16.4104V7.2437H4.16683ZM3.58995 5.9937H16.4104C16.4852 5.9937 16.5467 5.96968 16.5947 5.92162C16.6428 5.87357 16.6668 5.81211 16.6668 5.73725V3.58995C16.6668 3.51509 16.6428 3.45364 16.5947 3.40558C16.5467 3.35752 16.4852 3.3335 16.4104 3.3335H3.58995C3.51509 3.3335 3.45364 3.35752 3.40558 3.40558C3.35752 3.45364 3.3335 3.51509 3.3335 3.58995V5.73725C3.3335 5.81211 3.35752 5.87357 3.40558 5.92162C3.45364 5.96968 3.51509 5.9937 3.58995 5.9937ZM8.26141 11.1941H11.747C11.919 11.1941 12.0608 11.137 12.1725 11.0227C12.2841 10.9082 12.34 10.765 12.34 10.5931C12.34 10.4211 12.2841 10.2793 12.1725 10.1677C12.0608 10.056 11.919 10.0002 11.747 10.0002H8.25329C8.08134 10.0002 7.93954 10.056 7.82787 10.1677C7.7162 10.2793 7.66037 10.4211 7.66037 10.5931C7.66037 10.765 7.71752 10.9082 7.83183 11.0227C7.94614 11.137 8.08933 11.1941 8.26141 11.1941Z" fill="#1C1B1F"/>
</g>
</svg>
