<svg width="20" height="20" viewBox="0 0 20 20" fill="none" xmlns="http://www.w3.org/2000/svg">
<mask id="mask0_2615_3693" style="mask-type:alpha" maskUnits="userSpaceOnUse" x="0" y="0" width="20" height="20">
<rect width="20" height="20" fill="#D9D9D9"/>
</mask>
<g mask="url(#mask0_2615_3693)">
<path d="M9.99595 13.7503C9.89595 13.7503 9.8022 13.733 9.7147 13.6982C9.6272 13.6635 9.54873 13.6114 9.47928 13.542L5.52803 9.59074C5.37053 9.43324 5.29525 9.2538 5.3022 9.05241C5.30914 8.85102 5.389 8.67394 5.54178 8.52116C5.69456 8.36838 5.87164 8.29199 6.07303 8.29199C6.27442 8.29199 6.4515 8.36838 6.60428 8.52116L10.0001 11.9378L13.4168 8.52116C13.5696 8.36838 13.7466 8.29546 13.948 8.30241C14.1494 8.30935 14.3265 8.38921 14.4793 8.54199C14.6321 8.69477 14.7084 8.87185 14.7084 9.07324C14.7084 9.27463 14.6297 9.45366 14.4722 9.61033L10.5209 13.542C10.4459 13.6114 10.3647 13.6635 10.2772 13.6982C10.1897 13.733 10.0959 13.7503 9.99595 13.7503Z" fill="#1C1B1F"/>
</g>
</svg>
