<svg width="20" height="20" viewBox="0 0 20 20" fill="none" xmlns="http://www.w3.org/2000/svg">
<mask id="mask0_2615_3702" style="mask-type:alpha" maskUnits="userSpaceOnUse" x="0" y="0" width="20" height="20">
<rect width="20" height="20" fill="#D9D9D9"/>
</mask>
<g mask="url(#mask0_2615_3702)">
<path d="M8.8125 9.70833L12.2292 13.125C12.3819 13.2778 12.4583 13.4549 12.4583 13.6562C12.4583 13.8576 12.3819 14.0347 12.2292 14.1875C12.0764 14.3403 11.8993 14.4167 11.6979 14.4167C11.4965 14.4167 11.3171 14.3379 11.1596 14.1804L7.20833 10.2292C7.13889 10.1542 7.08681 10.0729 7.05208 9.98542C7.01736 9.89792 7 9.80417 7 9.70417C7 9.60417 7.01736 9.51042 7.05208 9.42292C7.08681 9.33542 7.13889 9.25694 7.20833 9.1875L11.1596 5.23625C11.3171 5.07875 11.4965 5 11.6979 5C11.8993 5 12.0764 5.07639 12.2292 5.22917C12.3819 5.38194 12.4583 5.55903 12.4583 5.76042C12.4583 5.96181 12.3819 6.13889 12.2292 6.29167L8.8125 9.70833Z" fill="#1C1B1F"/>
</g>
</svg>
