<svg width="20" height="20" viewBox="0 0 20 20" fill="none" xmlns="http://www.w3.org/2000/svg">
<mask id="mask0_2615_3709" style="mask-type:alpha" maskUnits="userSpaceOnUse" x="0" y="0" width="20" height="20">
<rect width="20" height="20" fill="#D9D9D9"/>
</mask>
<g mask="url(#mask0_2615_3709)">
<path d="M11.6458 9.70833L8.22917 6.29167C8.07639 6.13889 8 5.96181 8 5.76042C8 5.55903 8.07639 5.38194 8.22917 5.22917C8.38194 5.07639 8.55903 5 8.76042 5C8.96181 5 9.14125 5.07875 9.29875 5.23625L13.25 9.1875C13.3194 9.2625 13.3715 9.34375 13.4062 9.43125C13.441 9.51875 13.4583 9.6125 13.4583 9.7125C13.4583 9.8125 13.441 9.90625 13.4062 9.99375C13.3715 10.0813 13.3194 10.1597 13.25 10.2292L9.29875 14.1804C9.14125 14.3379 8.96528 14.4132 8.77083 14.4062C8.57639 14.3993 8.40278 14.3194 8.25 14.1667C8.09722 14.0139 8.02083 13.8368 8.02083 13.6354C8.02083 13.434 8.09722 13.2569 8.25 13.1042L11.6458 9.70833Z" fill="#1C1B1F"/>
</g>
</svg>
