<svg width="20" height="20" viewBox="0 0 20 20" fill="none" xmlns="http://www.w3.org/2000/svg">
<mask id="mask0_2615_3716" style="mask-type:alpha" maskUnits="userSpaceOnUse" x="0" y="0" width="20" height="20">
<rect width="20" height="20" fill="#D9D9D9"/>
</mask>
<g mask="url(#mask0_2615_3716)">
<path d="M9.70833 8.83333L6.29167 12.25C6.13889 12.4028 5.96181 12.4792 5.76042 12.4792C5.55903 12.4792 5.38194 12.4028 5.22917 12.25C5.07639 12.0972 5 11.9201 5 11.7188C5 11.5174 5.07639 11.3403 5.22917 11.1875L9.1875 7.22917C9.34028 7.07639 9.51389 7 9.70833 7C9.90278 7 10.0764 7.07639 10.2292 7.22917L14.1875 11.1875C14.3403 11.3403 14.4167 11.5139 14.4167 11.7083C14.4167 11.9028 14.3403 12.0764 14.1875 12.2292C14.0347 12.3819 13.8576 12.4583 13.6562 12.4583C13.4549 12.4583 13.2778 12.3819 13.125 12.2292L9.70833 8.83333Z" fill="#1C1B1F"/>
</g>
</svg>
