<svg width="20" height="20" viewBox="0 0 20 20" fill="none" xmlns="http://www.w3.org/2000/svg">
<mask id="mask0_2619_3374" style="mask-type:alpha" maskUnits="userSpaceOnUse" x="0" y="0" width="20" height="20">
<rect width="20" height="20" fill="#D9D9D9"/>
</mask>
<g mask="url(#mask0_2619_3374)">
<path d="M10 18C8.8989 18 7.86227 17.7915 6.89011 17.3745C5.91795 16.9575 5.06842 16.3855 4.34154 15.6585C3.61451 14.9316 3.04249 14.0821 2.62549 13.1099C2.2085 12.1377 2 11.1011 2 10C2 8.88982 2.2085 7.85092 2.62549 6.8833C3.04249 5.91568 3.61451 5.06842 4.34154 4.34154C5.06842 3.61451 5.91795 3.04249 6.89011 2.62549C7.86227 2.2085 8.8989 2 10 2C11.1102 2 12.1491 2.2085 13.1167 2.62549C14.0843 3.04249 14.9316 3.61451 15.6585 4.34154C16.3855 5.06842 16.9575 5.91568 17.3745 6.8833C17.7915 7.85092 18 8.88982 18 10C18 11.1011 17.7915 12.1377 17.3745 13.1099C16.9575 14.0821 16.3855 14.9316 15.6585 15.6585C14.9316 16.3855 14.0843 16.9575 13.1167 17.3745C12.1491 17.7915 11.1102 18 10 18ZM10 16.8165C10.3168 16.4999 10.6138 15.984 10.891 15.2688C11.1682 14.5536 11.3812 13.7565 11.5301 12.8774H8.46989C8.63004 13.779 8.84593 14.5875 9.11758 15.3026C9.38908 16.0178 9.68322 16.5224 10 16.8165ZM8.5833 16.7066C8.30491 16.267 8.05355 15.7137 7.82923 15.0466C7.60491 14.3793 7.43304 13.6563 7.31363 12.8774H3.78198C4.2463 13.8929 4.90198 14.7368 5.74901 15.4092C6.59604 16.0815 7.54081 16.5139 8.5833 16.7066ZM11.4167 16.7066C12.4592 16.5139 13.404 16.0815 14.251 15.4092C15.098 14.7368 15.7537 13.8929 16.218 12.8774H12.6864C12.5387 13.6618 12.3527 14.3877 12.1284 15.0549C11.9042 15.7222 11.667 16.2727 11.4167 16.7066ZM3.38286 11.7345H7.20044C7.15985 11.4224 7.13443 11.1167 7.12418 10.8174C7.11407 10.5182 7.10901 10.2311 7.10901 9.95604C7.10901 9.68103 7.11407 9.40125 7.12418 9.1167C7.13443 8.83201 7.15985 8.54828 7.20044 8.26549H3.38286C3.29831 8.54945 3.23722 8.83795 3.19956 9.13099C3.16176 9.42403 3.14286 9.7137 3.14286 10C3.14286 10.2863 3.16176 10.576 3.19956 10.869C3.23722 11.1621 3.29831 11.4506 3.38286 11.7345ZM8.36505 11.7345H11.6349C11.6754 11.4078 11.7007 11.1049 11.711 10.8259C11.7211 10.547 11.7262 10.2716 11.7262 10C11.7262 9.72835 11.7211 9.44938 11.711 9.16308C11.7007 8.87678 11.6754 8.57758 11.6349 8.26549H8.36505C8.32462 8.57758 8.29927 8.87678 8.28901 9.16308C8.2789 9.44938 8.27385 9.72835 8.27385 10C8.27385 10.2716 8.2789 10.5506 8.28901 10.8369C8.29927 11.1232 8.32462 11.4224 8.36505 11.7345ZM12.7996 11.7345H16.6171C16.7017 11.4506 16.7628 11.1621 16.8004 10.869C16.8382 10.576 16.8571 10.2863 16.8571 10C16.8571 9.7137 16.8382 9.42037 16.8004 9.12C16.7628 8.81963 16.7017 8.5348 16.6171 8.26549H12.7996C12.8401 8.57758 12.8656 8.8833 12.8758 9.18264C12.8859 9.48183 12.891 9.76894 12.891 10.044C12.891 10.319 12.8859 10.5988 12.8758 10.8833C12.8656 11.168 12.8401 11.4517 12.7996 11.7345ZM12.6864 7.12264H16.218C15.7481 6.09582 15.0967 5.25187 14.2637 4.59077C13.4308 3.92982 12.4818 3.49451 11.4167 3.28484C11.6951 3.75253 11.9436 4.31582 12.1622 4.97472C12.381 5.63348 12.5557 6.34945 12.6864 7.12264ZM8.46989 7.12264H11.5301C11.37 6.22652 11.1499 5.41385 10.8699 4.68462C10.5897 3.95538 10.2998 3.45502 10 3.18352C9.70022 3.45502 9.41026 3.95538 9.13011 4.68462C8.85011 5.41385 8.63004 6.22652 8.46989 7.12264ZM3.78198 7.12264H7.31363C7.44432 6.34945 7.61905 5.63348 7.8378 4.97472C8.05641 4.31582 8.30491 3.75253 8.5833 3.28484C7.51253 3.49451 6.56212 3.93128 5.73209 4.59517C4.9019 5.2589 4.25187 6.10139 3.78198 7.12264Z" fill="#1C1B1F"/>
</g>
</svg>
