<svg width="20" height="20" viewBox="0 0 20 20" fill="none" xmlns="http://www.w3.org/2000/svg">
<g clip-path="url(#clip0_91_16405)">
<mask id="mask0_91_16405" style="mask-type:alpha" maskUnits="userSpaceOnUse" x="0" y="0" width="20" height="20">
<rect width="20" height="20" fill="#D9D9D9"/>
</mask>
<g mask="url(#mask0_91_16405)">
<path d="M15.3333 14C16.0667 14 16.66 13.4 16.66 12.6667L16.6667 5.33333C16.6667 4.6 16.0667 4 15.3333 4H4.66667C3.93333 4 3.33333 4.6 3.33333 5.33333V12.6667C3.33333 13.4 3.93333 14 4.66667 14H2C2 14.7333 2.6 15.3333 3.33333 15.3333H16.6667C17.4 15.3333 18 14.7333 18 14H15.3333ZM4.66667 5.33333H15.3333V12.6667H4.66667V5.33333ZM10 14.6667C9.63333 14.6667 9.33333 14.3667 9.33333 14C9.33333 13.6333 9.63333 13.3333 10 13.3333C10.3667 13.3333 10.6667 13.6333 10.6667 14C10.6667 14.3667 10.3667 14.6667 10 14.6667Z" fill="#1C1B1F"/>
</g>
</g>
<defs>
<clipPath id="clip0_91_16405">
<rect width="20" height="20" fill="white"/>
</clipPath>
</defs>
</svg>
