<svg width="56" height="44" viewBox="0 0 56 44" fill="none" xmlns="http://www.w3.org/2000/svg">
<g clip-path="url(#clip0_208_17564)">
<rect x="4.5" y="4.5" width="47" height="35" rx="1.5" fill="white"/>
<rect x="4.5" y="4.5" width="47" height="35" rx="1.5" stroke="#E5E2E1"/>
<rect x="13" y="10" width="30" height="18" rx="2" fill="#AEAEAE"/>
<path d="M10.1294 22.0938L8.18408 19.9375L10.1294 17.7813L9.53731 17.125L7 19.9375L9.53731 22.75L10.1294 22.0938ZM45.8706 22.0938L47.8159 19.9375L45.8706 17.7813L46.4627 17.125L49 19.9375L46.4627 22.75L45.8706 22.0938Z" fill="#D0D0D0"/>
<rect x="18.5" y="30" width="5" height="5" rx="2.5" fill="#AEAEAE"/>
<rect x="26" y="30.5" width="4" height="4" rx="2" stroke="#AEAEAE"/>
<rect x="33" y="30.5" width="4" height="4" rx="2" stroke="#AEAEAE"/>
</g>
<defs>
<clipPath id="clip0_208_17564">
<rect width="56" height="44" rx="4" fill="white"/>
</clipPath>
</defs>
</svg>
