<svg width="48" height="36" viewBox="0 0 48 36" fill="none" xmlns="http://www.w3.org/2000/svg">
<rect x="0.5" y="0.5" width="47" height="35" rx="1.5" fill="white"/>
<rect x="0.5" y="0.5" width="47" height="35" rx="1.5" stroke="#E5E2E1"/>
<path d="M32.246 7.00966H26.5141C26.3684 7.00966 26.2463 6.96142 26.1477 6.86494C26.0492 6.76847 26 6.64892 26 6.50632C26 6.36371 26.0492 6.24318 26.1477 6.14474C26.2463 6.04629 26.3684 5.99707 26.5141 5.99707H32.246L31.1052 4.87196C31.0006 4.76882 30.9483 4.64928 30.9483 4.51333C30.9483 4.37738 30.9983 4.25784 31.0983 4.1547C31.2075 4.05157 31.331 4 31.4688 4C31.6067 4 31.7279 4.05157 31.8324 4.1547L33.8621 6.15641C33.9065 6.20019 33.9406 6.25162 33.9643 6.31069C33.9881 6.36976 34 6.43304 34 6.50055C34 6.56806 33.9881 6.63134 33.9643 6.69041C33.9406 6.74948 33.9049 6.80433 33.8574 6.85496L31.8324 8.85202C31.7279 8.95516 31.609 9.00438 31.4759 8.99969C31.3428 8.99501 31.2217 8.9411 31.1126 8.83796C31.0126 8.73483 30.9626 8.61528 30.9626 8.47933C30.9626 8.34338 31.0149 8.22384 31.1194 8.1207L32.246 7.00966Z" fill="#D0D0D0"/>
<path d="M15.754 7.00966H21.4859C21.6316 7.00966 21.7537 6.96142 21.8523 6.86494C21.9508 6.76847 22 6.64892 22 6.50632C22 6.36371 21.9508 6.24318 21.8523 6.14474C21.7537 6.04629 21.6316 5.99707 21.4859 5.99707H15.754L16.8948 4.87196C16.9994 4.76882 17.0517 4.64928 17.0517 4.51333C17.0517 4.37738 17.0017 4.25784 16.9017 4.1547C16.7925 4.05157 16.669 4 16.5312 4C16.3933 4 16.2721 4.05157 16.1676 4.1547L14.1379 6.15641C14.0935 6.20019 14.0594 6.25162 14.0357 6.31069C14.0119 6.36976 14 6.43304 14 6.50055C14 6.56806 14.0119 6.63134 14.0357 6.69041C14.0594 6.74948 14.0951 6.80433 14.1426 6.85496L16.1676 8.85202C16.2721 8.95516 16.391 9.00438 16.5241 8.99969C16.6572 8.99501 16.7783 8.9411 16.8874 8.83796C16.9874 8.73483 17.0374 8.61528 17.0374 8.47933C17.0374 8.34338 16.9851 8.22384 16.8806 8.1207L15.754 7.00966Z" fill="#D0D0D0"/>
<rect x="9" y="11" width="30" height="18" rx="2" fill="#AEAEAE"/>
</svg>
