<svg width="48" height="36" viewBox="0 0 48 36" fill="none" xmlns="http://www.w3.org/2000/svg">
<rect x="0.5" y="0.5" width="47" height="35" rx="1.5" fill="white"/>
<rect x="0.5" y="0.5" width="47" height="35" rx="1.5" stroke="#E5E2E1"/>
<path d="M8.5 26H39.5V8C39.5 6.89543 38.6046 6 37.5 6H10.5C9.39543 6 8.5 6.89543 8.5 8V26Z" fill="#AEAEAE"/>
<path d="M8.5 29C8.5 29.5523 8.94772 30 9.5 30H14.5C15.0523 30 15.5 29.5523 15.5 29V26H8.5V29Z" fill="#AEAEAE"/>
<path d="M16.5 29C16.5 29.5523 16.9477 30 17.5 30H22.5C23.0523 30 23.5 29.5523 23.5 29V26H16.5V29Z" fill="#D0D0D0"/>
<path d="M24.5 29C24.5 29.5523 24.9477 30 25.5 30H30.5C31.0523 30 31.5 29.5523 31.5 29V26H24.5V29Z" fill="#D0D0D0"/>
<path d="M32.5 29C32.5 29.5523 32.9477 30 33.5 30H38.5C39.0523 30 39.5 29.5523 39.5 29V26H32.5V29Z" fill="#D0D0D0"/>
</svg>
