<svg width="56" height="44" viewBox="0 0 56 44" fill="none" xmlns="http://www.w3.org/2000/svg">
<rect x="4.5" y="4.5" width="47" height="35" rx="1.5" fill="white"/>
<rect x="4.5" y="4.5" width="47" height="35" rx="1.5" stroke="#E5E2E1"/>
<path d="M12.5 11C12.5 10.4477 12.9477 10 13.5 10H18.5C19.0523 10 19.5 10.4477 19.5 11V14H12.5V11Z" fill="#AEAEAE"/>
<path d="M20.5 11C20.5 10.4477 20.9477 10 21.5 10H26.5C27.0523 10 27.5 10.4477 27.5 11V14H20.5V11Z" fill="#D0D0D0"/>
<path d="M28.5 11C28.5 10.4477 28.9477 10 29.5 10H34.5C35.0523 10 35.5 10.4477 35.5 11V14H28.5V11Z" fill="#D0D0D0"/>
<path d="M36.5 11C36.5 10.4477 36.9477 10 37.5 10H42.5C43.0523 10 43.5 10.4477 43.5 11V14H36.5V11Z" fill="#D0D0D0"/>
<path d="M12.5 14H43.5V32C43.5 33.1046 42.6046 34 41.5 34H14.5C13.3954 34 12.5 33.1046 12.5 32V14Z" fill="#AEAEAE"/>
</svg>
