<svg width="20" height="20" viewBox="0 0 20 20" fill="none" xmlns="http://www.w3.org/2000/svg">
<mask id="mask0_412_25783" style="mask-type:alpha" maskUnits="userSpaceOnUse" x="0" y="0" width="20" height="20">
<rect width="20" height="20" fill="#D9D9D9"/>
</mask>
<g mask="url(#mask0_412_25783)">
<path d="M3.70833 10.5C3.51389 10.5 3.34722 10.4271 3.20833 10.2812C3.06944 10.1354 3 9.95833 3 9.75C3 9.55556 3.07292 9.38194 3.21875 9.22917C3.36458 9.07639 3.54167 9 3.75 9H5.77083C5.96528 9 6.13542 9.07639 6.28125 9.22917C6.42708 9.38194 6.5 9.55556 6.5 9.75C6.5 9.95833 6.42361 10.1354 6.27083 10.2812C6.11806 10.4271 5.94444 10.5 5.75 10.5H3.70833ZM8.97917 10.5C8.78472 10.5 8.61458 10.4271 8.46875 10.2812C8.32292 10.1354 8.25 9.95833 8.25 9.75C8.25 9.55556 8.32639 9.38194 8.47917 9.22917C8.63194 9.07639 8.80556 9 9 9H11.0208C11.2292 9 11.4028 9.07639 11.5417 9.22917C11.6806 9.38194 11.75 9.55556 11.75 9.75C11.75 9.95833 11.6736 10.1354 11.5208 10.2812C11.3681 10.4271 11.1944 10.5 11 10.5H8.97917ZM14.2292 10.5C14.0347 10.5 13.8646 10.4271 13.7188 10.2812C13.5729 10.1354 13.5 9.95833 13.5 9.75C13.5 9.55556 13.5764 9.38194 13.7292 9.22917C13.8819 9.07639 14.0556 9 14.25 9H16.2708C16.4653 9 16.6354 9.07639 16.7812 9.22917C16.9271 9.38194 17 9.55556 17 9.75C17 9.95833 16.9236 10.1354 16.7708 10.2812C16.6181 10.4271 16.4444 10.5 16.25 10.5H14.2292Z" fill="#1C1B1F"/>
</g>
</svg>
