<svg width="20" height="20" viewBox="0 0 20 20" fill="none" xmlns="http://www.w3.org/2000/svg">
<mask id="mask0_43_6387" style="mask-type:alpha" maskUnits="userSpaceOnUse" x="0" y="0" width="20" height="20">
<rect width="20" height="20" fill="#D9D9D9"/>
</mask>
<g mask="url(#mask0_43_6387)">
<path d="M12.5352 13.6054L9.47123 10.5415H2.9904C2.83692 10.5415 2.70824 10.4899 2.60436 10.3869C2.50061 10.2838 2.44873 10.1562 2.44873 10.004C2.44873 9.8516 2.50061 9.72258 2.60436 9.61688C2.70824 9.51105 2.83692 9.45813 2.9904 9.45813H9.47123L12.5352 6.39417C12.6669 6.25737 12.8205 6.18896 12.9962 6.18896C13.1718 6.18896 13.328 6.25737 13.4648 6.39417L16.6056 9.53501C16.7424 9.66667 16.8108 9.82035 16.8108 9.99605C16.8108 10.1716 16.7424 10.3278 16.6056 10.4646L13.4648 13.6054C13.3331 13.7422 13.1794 13.8106 13.0037 13.8106C12.8282 13.8106 12.672 13.7422 12.5352 13.6054Z" fill="#1C1B1F"/>
</g>
</svg>
