<svg width="20" height="20" viewBox="0 0 20 20" fill="none" xmlns="http://www.w3.org/2000/svg">
<mask id="mask0_43_6930" style="mask-type:alpha" maskUnits="userSpaceOnUse" x="0" y="0" width="20" height="20">
<rect width="20" height="20" fill="#D9D9D9"/>
</mask>
<g mask="url(#mask0_43_6930)">
<path d="M3.43154 11.5719C3.71885 11.8573 4.075 12 4.5 12H15.5C15.925 12 16.2812 11.8535 16.5685 11.5604C16.8562 11.2677 17 10.9104 17 10.4885C17 10.0669 16.8562 9.71346 16.5685 9.42808C16.2812 9.14269 15.925 9 15.5 9H4.5C4.075 9 3.71885 9.14654 3.43154 9.43962C3.14385 9.73231 3 10.0896 3 10.5115C3 10.9331 3.14385 11.2865 3.43154 11.5719Z" fill="#1C1B1F"/>
</g>
</svg>
