<svg width="20" height="20" viewBox="0 0 20 20" fill="none" xmlns="http://www.w3.org/2000/svg">
<mask id="mask0_43_6394" style="mask-type:alpha" maskUnits="userSpaceOnUse" x="0" y="0" width="20" height="20">
<rect width="20" height="20" fill="#D9D9D9"/>
</mask>
<g mask="url(#mask0_43_6394)">
<path d="M8.47726 13.4661L3.83788 10.5736C3.62858 10.439 3.52393 10.2483 3.52393 10.0015C3.52393 9.75473 3.62858 9.56292 3.83788 9.42612L8.47726 6.53362C8.70059 6.39681 8.9274 6.39258 9.15768 6.52091C9.38781 6.64924 9.50288 6.84737 9.50288 7.11528V9.4582H17.0093C17.1628 9.4582 17.2915 9.50973 17.3954 9.61278C17.4991 9.71584 17.551 9.84348 17.551 9.9957C17.551 10.1481 17.4991 10.2771 17.3954 10.3828C17.2915 10.4886 17.1628 10.5415 17.0093 10.5415H9.50288V12.8845C9.50288 13.1524 9.38781 13.3505 9.15768 13.4788C8.9274 13.6072 8.70059 13.6029 8.47726 13.4661Z" fill="#1C1B1F"/>
</g>
</svg>
