<svg width="20" height="20" viewBox="0 0 20 20" fill="none" xmlns="http://www.w3.org/2000/svg">
<mask id="mask0_412_25784" style="mask-type:alpha" maskUnits="userSpaceOnUse" x="0" y="0" width="20" height="20">
<rect width="20" height="20" fill="#D9D9D9"/>
</mask>
<g mask="url(#mask0_412_25784)">
<path d="M3.70833 10.5C3.51389 10.5 3.34722 10.4271 3.20833 10.2812C3.06944 10.1354 3 9.95833 3 9.75C3 9.55556 3.06944 9.38194 3.20833 9.22917C3.34722 9.07639 3.53472 9 3.77083 9C3.96528 9 4.13542 9.07639 4.28125 9.22917C4.42708 9.38194 4.5 9.55556 4.5 9.75C4.5 9.95833 4.42708 10.1354 4.28125 10.2812C4.13542 10.4271 3.94444 10.5 3.70833 10.5ZM6.83333 10.5C6.63889 10.5 6.47222 10.4271 6.33333 10.2812C6.19444 10.1354 6.125 9.95833 6.125 9.75C6.125 9.55556 6.19444 9.38194 6.33333 9.22917C6.47222 9.07639 6.65972 9 6.89583 9C7.09028 9 7.26042 9.07639 7.40625 9.22917C7.55208 9.38194 7.625 9.55556 7.625 9.75C7.625 9.95833 7.55208 10.1354 7.40625 10.2812C7.26042 10.4271 7.06944 10.5 6.83333 10.5ZM9.95833 10.5C9.76389 10.5 9.59722 10.4271 9.45833 10.2812C9.31944 10.1354 9.25 9.95833 9.25 9.75C9.25 9.55556 9.32292 9.38194 9.46875 9.22917C9.61458 9.07639 9.79167 9 10 9C10.1944 9 10.3681 9.07639 10.5208 9.22917C10.6736 9.38194 10.75 9.55556 10.75 9.75C10.75 9.95833 10.6771 10.1354 10.5312 10.2812C10.3854 10.4271 10.1944 10.5 9.95833 10.5ZM13.125 10.5C12.9167 10.5 12.7396 10.4271 12.5938 10.2812C12.4479 10.1354 12.375 9.95833 12.375 9.75C12.375 9.55556 12.4444 9.38194 12.5833 9.22917C12.7222 9.07639 12.9097 9 13.1458 9C13.3403 9 13.5104 9.07639 13.6562 9.22917C13.8021 9.38194 13.875 9.55556 13.875 9.75C13.875 9.95833 13.7986 10.1354 13.6458 10.2812C13.4931 10.4271 13.3194 10.5 13.125 10.5ZM16.25 10.5C16.0417 10.5 15.8646 10.4271 15.7188 10.2812C15.5729 10.1354 15.5 9.95833 15.5 9.75C15.5 9.55556 15.5729 9.38194 15.7188 9.22917C15.8646 9.07639 16.0417 9 16.25 9C16.4444 9 16.6181 9.07639 16.7708 9.22917C16.9236 9.38194 17 9.55556 17 9.75C17 9.95833 16.9236 10.1354 16.7708 10.2812C16.6181 10.4271 16.4444 10.5 16.25 10.5Z" fill="#1C1B1F"/>
</g>
</svg>
