<svg width="20" height="20" viewBox="0 0 20 20" fill="none" xmlns="http://www.w3.org/2000/svg">
<mask id="mask0_43_6373" style="mask-type:alpha" maskUnits="userSpaceOnUse" x="0" y="0" width="20" height="20">
<rect width="20" height="20" fill="#D9D9D9"/>
</mask>
<g mask="url(#mask0_43_6373)">
<path d="M6.00014 13.3431C5.07153 13.3431 4.28223 13.018 3.63223 12.3679C2.98223 11.7176 2.65723 10.928 2.65723 9.9991C2.65723 9.07035 2.98223 8.28119 3.63223 7.6316C4.28223 6.98202 5.07153 6.65723 6.00014 6.65723C6.8425 6.65723 7.56938 6.92487 8.18077 7.46014C8.79216 7.99542 9.1641 8.66153 9.2966 9.45848H17.0097C17.1632 9.45848 17.2919 9.51001 17.3958 9.61306C17.4995 9.71612 17.5514 9.84375 17.5514 9.99598C17.5514 10.1483 17.4995 10.2774 17.3958 10.3831C17.2919 10.4889 17.1632 10.5418 17.0097 10.5418H9.2966C9.1641 11.3388 8.79216 12.0049 8.18077 12.5401C7.56938 13.0754 6.8425 13.3431 6.00014 13.3431Z" fill="#1C1B1F"/>
</g>
</svg>
