<svg width="20" height="20" viewBox="0 0 20 20" fill="none" xmlns="http://www.w3.org/2000/svg">
<mask id="mask0_43_6380" style="mask-type:alpha" maskUnits="userSpaceOnUse" x="0" y="0" width="20" height="20">
<rect width="20" height="20" fill="#D9D9D9"/>
</mask>
<g mask="url(#mask0_43_6380)">
<path d="M6.53501 13.6054L3.39417 10.4646C3.25737 10.3329 3.18896 10.1792 3.18896 10.0035C3.18896 9.82799 3.25737 9.67181 3.39417 9.53501L6.53501 6.39417C6.66667 6.25737 6.82035 6.18896 6.99605 6.18896C7.1716 6.18896 7.32778 6.25737 7.46459 6.39417L10.5285 9.45813H17.0094C17.1629 9.45813 17.2915 9.50966 17.3954 9.61271C17.4992 9.71577 17.551 9.84341 17.551 9.99563C17.551 10.148 17.4992 10.277 17.3954 10.3827C17.2915 10.4885 17.1629 10.5415 17.0094 10.5415H10.5285L7.46459 13.6054C7.33292 13.7422 7.17924 13.8106 7.00355 13.8106C6.82799 13.8106 6.67181 13.7422 6.53501 13.6054Z" fill="#1C1B1F"/>
</g>
</svg>
