<svg width="20" height="20" viewBox="0 0 20 20" fill="none" xmlns="http://www.w3.org/2000/svg">
<mask id="mask0_43_6401" style="mask-type:alpha" maskUnits="userSpaceOnUse" x="0" y="0" width="20" height="20">
<rect width="20" height="20" fill="#D9D9D9"/>
</mask>
<g mask="url(#mask0_43_6401)">
<path d="M11.5225 13.4661C11.2991 13.6029 11.0723 13.6072 10.8421 13.4788C10.6119 13.3505 10.4969 13.1524 10.4969 12.8845V10.5415H2.9904C2.83692 10.5415 2.70824 10.49 2.60436 10.387C2.50061 10.2839 2.44873 10.1563 2.44873 10.004C2.44873 9.85167 2.50061 9.72265 2.60436 9.61695C2.70824 9.51112 2.83692 9.4582 2.9904 9.4582H10.4969V7.11528C10.4969 6.84737 10.6119 6.64924 10.8421 6.52091C11.0723 6.39258 11.2991 6.39681 11.5225 6.53362L16.1619 9.42612C16.3712 9.5607 16.4758 9.7514 16.4758 9.9982C16.4758 10.245 16.3712 10.4368 16.1619 10.5736L11.5225 13.4661Z" fill="#1C1B1F"/>
</g>
</svg>
