<svg width="20" height="20" viewBox="0 0 20 20" fill="none" xmlns="http://www.w3.org/2000/svg">
<mask id="mask0_43_6415" style="mask-type:alpha" maskUnits="userSpaceOnUse" x="0" y="0" width="20" height="20">
<rect width="20" height="20" fill="#D9D9D9"/>
</mask>
<g mask="url(#mask0_43_6415)">
<path d="M2.15583 9.92875C2.25958 10.0318 2.38819 10.0833 2.54167 10.0833H16.625C16.7785 10.0833 16.9071 10.0304 17.0108 9.92458C17.1147 9.81889 17.1667 9.68986 17.1667 9.5375C17.1667 9.38528 17.1147 9.25764 17.0108 9.15458C16.9071 9.05153 16.7785 9 16.625 9H2.54167C2.38819 9 2.25958 9.05292 2.15583 9.15875C2.05194 9.26444 2 9.39347 2 9.54583C2 9.69806 2.05194 9.82569 2.15583 9.92875Z" fill="#1C1B1F"/>
</g>
</svg>
