<svg width="20" height="20" viewBox="0 0 20 20" fill="none" xmlns="http://www.w3.org/2000/svg">
<mask id="mask0_43_6366" style="mask-type:alpha" maskUnits="userSpaceOnUse" x="0" y="0" width="20" height="20">
<rect width="20" height="20" fill="#D9D9D9"/>
</mask>
<g mask="url(#mask0_43_6366)">
<path d="M14 13.3431C13.1576 13.3431 12.4307 13.0754 11.8194 12.5401C11.208 12.0049 10.836 11.3388 10.7035 10.5418H2.9904C2.83692 10.5418 2.70824 10.4903 2.60436 10.3872C2.50061 10.2842 2.44873 10.1565 2.44873 10.0043C2.44873 9.85195 2.50061 9.72292 2.60436 9.61723C2.70824 9.51139 2.83692 9.45848 2.9904 9.45848H10.7035C10.836 8.66153 11.208 7.99542 11.8194 7.46014C12.4307 6.92487 13.1576 6.65723 14 6.65723C14.9286 6.65723 15.7179 6.9823 16.3679 7.63243C17.0179 8.28271 17.3429 9.0723 17.3429 10.0012C17.3429 10.9299 17.0179 11.7191 16.3679 12.3687C15.7179 13.0183 14.9286 13.3431 14 13.3431Z" fill="#1C1B1F"/>
</g>
</svg>
