<svg width="20" height="20" viewBox="0 0 20 20" fill="none" xmlns="http://www.w3.org/2000/svg">
<mask id="mask0_2619_3573" style="mask-type:alpha" maskUnits="userSpaceOnUse" x="0" y="0" width="20" height="20">
<rect width="20" height="20" fill="#D9D9D9"/>
</mask>
<g mask="url(#mask0_2619_3573)">
<path d="M5.81407 14C4.75883 14 3.85934 13.6095 3.1156 12.8286C2.37187 12.0477 2 11.1033 2 9.99539C2 8.88733 2.37187 7.94445 3.1156 7.16676C3.85934 6.38892 4.75883 6 5.81407 6H8.20462C8.36652 6 8.5022 6.05701 8.61165 6.17103C8.72124 6.28504 8.77604 6.42634 8.77604 6.59491C8.77604 6.76332 8.72124 6.90607 8.61165 7.02316C8.5022 7.1401 8.36652 7.19857 8.20462 7.19857H5.81297C5.07538 7.19857 4.44601 7.47194 3.92484 8.01867C3.40352 8.5654 3.14286 9.22585 3.14286 10C3.14286 10.7742 3.40352 11.4346 3.92484 11.9813C4.44601 12.5281 5.07538 12.8014 5.81297 12.8014H8.20462C8.36652 12.8014 8.5022 12.8584 8.61165 12.9725C8.72124 13.0863 8.77604 13.2275 8.77604 13.3961C8.77604 13.5647 8.72124 13.7074 8.61165 13.8244C8.5022 13.9415 8.36652 14 8.20462 14H5.81407ZM7.63253 10.5993C7.47092 10.5993 7.33429 10.5423 7.22264 10.4283C7.11084 10.3142 7.05494 10.173 7.05494 10.0046C7.05494 9.83604 7.1096 9.69329 7.2189 9.57635C7.32835 9.45926 7.46388 9.40071 7.62549 9.40071H12.3675C12.5291 9.40071 12.6657 9.45772 12.7774 9.57174C12.8892 9.68576 12.9451 9.82697 12.9451 9.99539C12.9451 10.164 12.8904 10.3067 12.7811 10.4236C12.6716 10.5407 12.5361 10.5993 12.3745 10.5993H7.63253ZM11.7954 14C11.6335 14 11.4978 13.943 11.3884 13.829C11.2788 13.715 11.224 13.5737 11.224 13.4051C11.224 13.2367 11.2788 13.0939 11.3884 12.9768C11.4978 12.8599 11.6335 12.8014 11.7954 12.8014H14.187C14.9246 12.8014 15.554 12.5281 16.0752 11.9813C16.5965 11.4346 16.8571 10.7742 16.8571 10C16.8571 9.22585 16.5965 8.5654 16.0752 8.01867C15.554 7.47194 14.9246 7.19857 14.187 7.19857H11.7954C11.6335 7.19857 11.4978 7.14156 11.3884 7.02754C11.2788 6.91368 11.224 6.77246 11.224 6.60389C11.224 6.43533 11.2788 6.29257 11.3884 6.17564C11.4978 6.05855 11.6335 6 11.7954 6H14.1859C15.2412 6 16.1407 6.39046 16.8844 7.17137C17.6281 7.95229 18 8.8967 18 10.0046C18 11.1127 17.6281 12.0555 16.8844 12.8332C16.1407 13.6111 15.2412 14 14.1859 14H11.7954Z" fill="#1C1B1F"/>
</g>
</svg>
