<svg width="20" height="20" viewBox="0 0 20 20" fill="none" xmlns="http://www.w3.org/2000/svg">
<mask id="mask0_613_26137" style="mask-type:alpha" maskUnits="userSpaceOnUse" x="0" y="0" width="20" height="20">
<rect width="20" height="20" fill="#D9D9D9"/>
</mask>
<g mask="url(#mask0_613_26137)">
<path d="M12.5608 10.4309L11.5673 9.45823H12.2281C12.3835 9.45823 12.5136 9.5101 12.6183 9.61385C12.7232 9.71747 12.7756 9.84615 12.7756 9.9999C12.7756 10.0928 12.7532 10.1745 12.7083 10.2451C12.6634 10.3157 12.6073 10.3776 12.54 10.4309H12.5608ZM16.6858 17.4391C16.5651 17.5598 16.4361 17.6201 16.2989 17.6201C16.1616 17.6201 16.0325 17.5598 15.9118 17.4391L2.53996 4.08802C2.42468 3.9726 2.36566 3.84496 2.36288 3.7051C2.36024 3.5651 2.41927 3.43476 2.53996 3.31406C2.66079 3.19323 2.78982 3.13281 2.92704 3.13281C3.06427 3.13281 3.19329 3.19323 3.31413 3.31406L16.6858 16.6857C16.8012 16.8011 16.8602 16.9254 16.8629 17.0584C16.8657 17.1914 16.8066 17.3182 16.6858 17.4391ZM6.03204 13.6153C5.03218 13.6153 4.17968 13.2627 3.47454 12.5574C2.76927 11.8523 2.41663 10.9998 2.41663 9.9999C2.41663 9.14406 2.68718 8.39406 3.22829 7.7499C3.76941 7.10573 4.51809 6.62767 5.47434 6.31573H5.66663L6.75642 7.46781H6.05288C5.33913 7.46781 4.73524 7.7149 4.24121 8.20906C3.74704 8.70323 3.49996 9.30017 3.49996 9.9999C3.49996 10.6996 3.74704 11.2966 4.24121 11.7907C4.73524 12.2849 5.33218 12.532 6.03204 12.532H8.31413C8.46788 12.532 8.59656 12.5834 8.70017 12.6861C8.80392 12.7891 8.85579 12.9168 8.85579 13.0693C8.85579 13.2218 8.80392 13.3509 8.70017 13.4566C8.59656 13.5624 8.46788 13.6153 8.31413 13.6153H6.03204ZM7.76371 10.5416C7.61566 10.5416 7.48878 10.4901 7.38309 10.3872C7.27725 10.2844 7.22434 10.1568 7.22434 10.0043C7.22434 9.85177 7.27621 9.72267 7.37996 9.61698C7.48357 9.51115 7.61225 9.45823 7.766 9.45823H8.65538L9.71788 10.5416H7.76371ZM15.0512 12.923C14.9722 12.8044 14.9487 12.6711 14.9808 12.5232C15.0127 12.3752 15.0907 12.2643 15.2148 12.1905C15.61 11.9651 15.923 11.6572 16.1537 11.2668C16.3845 10.8762 16.5 10.4539 16.5 9.9999C16.5 9.30017 16.2543 8.70323 15.7629 8.20906C15.2713 7.7149 14.6784 7.46781 13.9839 7.46781H11.6858C11.532 7.46781 11.4034 7.41642 11.2998 7.31365C11.196 7.21073 11.1441 7.08302 11.1441 6.93052C11.1441 6.77802 11.196 6.64892 11.2998 6.54323C11.4034 6.4374 11.532 6.38448 11.6858 6.38448H13.9839C14.9784 6.38448 15.8269 6.73712 16.5295 7.4424C17.232 8.14753 17.5833 9.00003 17.5833 9.9999C17.5833 10.6489 17.4195 11.2482 17.092 11.7976C16.7645 12.347 16.3284 12.7809 15.7835 13.0993C15.665 13.1783 15.5331 13.1983 15.3877 13.1593C15.2424 13.1204 15.1302 13.0416 15.0512 12.923Z" fill="#1C1B1F"/>
</g>
</svg>
