<svg width="20" height="20" viewBox="0 0 20 20" fill="none" xmlns="http://www.w3.org/2000/svg">
<mask id="mask0_619_28229" style="mask-type:alpha" maskUnits="userSpaceOnUse" x="0" y="0" width="20" height="20">
<rect width="20" height="20" fill="#D9D9D9"/>
</mask>
<g mask="url(#mask0_619_28229)">
<path d="M7.17609 15.5832H4.7563C4.39088 15.5832 4.07623 15.4512 3.81234 15.1873C3.54845 14.9234 3.4165 14.6088 3.4165 14.2434V3.7563C3.4165 3.39088 3.54845 3.07623 3.81234 2.81234C4.07623 2.54845 4.39088 2.4165 4.7563 2.4165H15.2434C15.6185 2.4165 15.9356 2.54845 16.1946 2.81234C16.4537 3.07623 16.5832 3.39088 16.5832 3.7563V14.2434C16.5832 14.6088 16.4537 14.9234 16.1946 15.1873C15.9356 15.4512 15.6185 15.5832 15.2434 15.5832H12.8236L10.4646 17.9421C10.333 18.0788 10.1793 18.1471 10.0036 18.1471C9.82803 18.1471 9.67185 18.0788 9.53505 17.9421L7.17609 15.5832ZM4.7563 14.4998H7.62005L9.99984 16.8796L12.3588 14.4998H15.2434C15.3182 14.4998 15.3797 14.4758 15.4278 14.4278C15.4758 14.3797 15.4998 14.3182 15.4998 14.2434V3.7563C15.4998 3.68143 15.4758 3.61998 15.4278 3.57192C15.3797 3.52387 15.3182 3.49984 15.2434 3.49984H4.7563C4.68143 3.49984 4.61998 3.52387 4.57192 3.57192C4.52387 3.61998 4.49984 3.68143 4.49984 3.7563V14.2434C4.49984 14.3182 4.52387 14.3797 4.57192 14.4278C4.61998 14.4758 4.68143 14.4998 4.7563 14.4998ZM10.0398 13.1713C10.2643 13.1713 10.4446 13.0978 10.5807 12.9509C10.7169 12.8039 10.785 12.6237 10.785 12.41C10.785 12.1964 10.713 12.0215 10.5688 11.8853C10.4248 11.749 10.248 11.6809 10.0384 11.6809C9.82893 11.6809 9.65262 11.749 9.50942 11.8853C9.36623 12.0215 9.29463 12.1964 9.29463 12.41C9.29463 12.6237 9.36657 12.8039 9.51046 12.9509C9.65435 13.0978 9.83081 13.1713 10.0398 13.1713ZM11.3461 7.0238C11.3461 7.35935 11.232 7.64248 11.0038 7.87317C10.7757 8.104 10.5458 8.33109 10.314 8.55442C10.1303 8.74345 9.98977 8.89782 9.89255 9.01755C9.79532 9.13713 9.72282 9.25345 9.67505 9.3665C9.63949 9.44262 9.61241 9.52046 9.5938 9.60005C9.57532 9.67963 9.55685 9.76748 9.53838 9.86359C9.51588 10.0069 9.55803 10.1314 9.66484 10.2371C9.77178 10.3428 9.89484 10.3957 10.034 10.3957C10.1597 10.3957 10.2757 10.3498 10.3821 10.258C10.4884 10.1662 10.5591 10.0444 10.5944 9.89255C10.6361 9.74296 10.7021 9.59685 10.7923 9.45421C10.8826 9.31157 11.0276 9.14032 11.2273 8.94046C11.4678 8.70019 11.7098 8.44032 11.9534 8.16088C12.197 7.88157 12.3188 7.48866 12.3188 6.98213C12.3188 6.31018 12.0888 5.78324 11.6288 5.4013C11.1689 5.01935 10.6198 4.82838 9.9815 4.82838C9.54081 4.82838 9.13935 4.94268 8.77713 5.1713C8.41491 5.39991 8.1238 5.67609 7.9038 5.99984C7.82782 6.11595 7.81602 6.23845 7.86838 6.36734C7.92074 6.49623 8.01588 6.58741 8.1538 6.64088C8.26838 6.69435 8.38567 6.7013 8.50567 6.66171C8.62567 6.62213 8.73053 6.54199 8.82025 6.4213C8.95275 6.23116 9.11595 6.0765 9.30984 5.95734C9.50387 5.83817 9.73123 5.77859 9.99192 5.77859C10.4844 5.77859 10.8332 5.9047 11.0384 6.15692C11.2435 6.409 11.3461 6.69796 11.3461 7.0238Z" fill="#1C1B1F"/>
</g>
</svg>
