<svg width="20" height="20" viewBox="0 0 20 20" fill="none" xmlns="http://www.w3.org/2000/svg">
<mask id="mask0_2619_3384" style="mask-type:alpha" maskUnits="userSpaceOnUse" x="0" y="0" width="20" height="20">
<rect width="20" height="20" fill="#D9D9D9"/>
</mask>
<g mask="url(#mask0_2619_3384)">
<path d="M5.43351 18C5.0359 18 4.69754 17.8588 4.41843 17.5764C4.13948 17.2938 4 16.9529 4 16.5539V8.47258C4 8.07351 4.1406 7.73269 4.42179 7.45011C4.70313 7.16767 5.04246 7.02646 5.43978 7.02646H6.14925V4.86773C6.14925 3.79436 6.5244 2.88139 7.2747 2.12884C8.02485 1.37628 8.935 1 10.0051 1C11.0751 1 11.9836 1.37628 12.7304 2.12884C13.4773 2.88139 13.8507 3.79436 13.8507 4.86773V7.02646H14.5602C14.9575 7.02646 15.2969 7.16767 15.5782 7.45011C15.8594 7.73269 16 8.07351 16 8.47258V16.5539C16 16.9529 15.8593 17.2938 15.5778 17.5764C15.2964 17.8588 14.9569 18 14.5593 18H5.43351ZM5.43978 16.8307H14.5602C14.6407 16.8307 14.7067 16.8048 14.7584 16.7529C14.81 16.701 14.8358 16.6347 14.8358 16.5539V8.47258C14.8358 8.39178 14.81 8.32544 14.7584 8.27357C14.7067 8.2217 14.6407 8.19577 14.5602 8.19577H5.43978C5.35933 8.19577 5.29328 8.2217 5.24164 8.27357C5.19 8.32544 5.16418 8.39178 5.16418 8.47258V16.5539C5.16418 16.6347 5.19 16.701 5.24164 16.7529C5.29328 16.8048 5.35933 16.8307 5.43978 16.8307ZM10.0047 13.9074C10.3919 13.9074 10.7193 13.7714 10.9869 13.4995C11.2543 13.2277 11.3881 12.8974 11.3881 12.5085C11.3881 12.1196 11.2527 11.7908 10.9819 11.522C10.7113 11.2534 10.3825 11.119 9.9953 11.119C9.60813 11.119 9.28075 11.255 9.01313 11.527C8.74567 11.7987 8.61194 12.1291 8.61194 12.518C8.61194 12.9068 8.74731 13.2357 9.01806 13.5044C9.28866 13.7731 9.61754 13.9074 10.0047 13.9074ZM7.31343 7.02646H12.6866V4.86773C12.6866 4.11817 12.4254 3.48104 11.903 2.95635C11.3806 2.43166 10.7463 2.16931 10 2.16931C9.25373 2.16931 8.6194 2.43166 8.09701 2.95635C7.57463 3.48104 7.31343 4.11817 7.31343 4.86773V7.02646Z" fill="#1C1B1F"/>
</g>
</svg>
