<svg width="232" height="76" viewBox="0 0 232 76" fill="none" xmlns="http://www.w3.org/2000/svg">
<path d="M95.74 55.1304C90.57 51.8404 87.56 45.6204 87.56 37.9004C87.56 34.0104 88.29 30.5904 89.71 27.6104C92.59 21.6204 97.94 18.1904 104.71 18.1904C108.09 18.1904 111.07 19.0104 113.67 20.6604C118.84 23.9504 121.85 30.1704 121.85 37.9004C121.85 41.7904 121.12 45.2204 119.7 48.1904C116.82 54.1804 111.47 57.6104 104.7 57.6104C101.32 57.6104 98.35 56.7904 95.74 55.1404V55.1304ZM104.7 50.9304C110.37 50.9304 114.3 46.0404 114.3 37.9004C114.3 29.7604 110.37 24.8704 104.7 24.8704C99.03 24.8704 95.1 29.8504 95.1 38.0404C95.1 46.2304 99.03 50.9304 104.7 50.9304Z" fill="#3F4041"/>
<path d="M129.56 53.8103V36.6703H127.64C125.31 36.6703 123.85 35.3903 123.85 33.3803C123.85 31.3703 125.4 30.0003 127.64 30.0003H129.56V28.3103C129.56 21.6303 133.36 17.8403 138.84 17.8403C141.99 17.8403 144.6 18.8503 146.43 20.4903C147.21 21.1703 147.57 22.0003 147.57 22.9103C147.57 23.6403 147.3 24.3703 146.75 25.0603C146.02 25.9303 145.15 26.3803 144.14 26.3803C143.36 26.3803 142.68 26.1103 142.08 25.6003C141.03 24.8203 140.11 24.4603 139.25 24.4603C137.92 24.4603 137.06 25.5603 137.06 27.9303V29.9903H143.51C145.75 29.9903 147.35 31.3603 147.35 33.3703C147.35 35.3803 145.84 36.6603 143.51 36.6603H137.06V53.8003C137.06 55.9503 135.6 57.3703 133.26 57.3703C130.92 57.3703 129.56 55.9503 129.56 53.8003V53.8103Z" fill="#3F4041"/>
<path d="M147.52 53.8103V36.6703H145.6C143.27 36.6703 141.81 35.3903 141.81 33.3803C141.81 31.3703 143.36 30.0003 145.6 30.0003H147.52V28.3103C147.52 21.6303 151.32 17.8403 156.8 17.8403C159.95 17.8403 162.56 18.8503 164.39 20.4903C165.17 21.1703 165.53 22.0003 165.53 22.9103C165.53 23.6403 165.26 24.3703 164.71 25.0603C163.98 25.9303 163.11 26.3803 162.1 26.3803C161.32 26.3803 160.64 26.1103 160.04 25.6003C158.99 24.8203 158.07 24.4603 157.21 24.4603C155.88 24.4603 155.02 25.5603 155.02 27.9303V29.9903H161.47C163.71 29.9903 165.31 31.3603 165.31 33.3703C165.31 35.3803 163.8 36.6603 161.47 36.6603H155.02V53.8003C155.02 55.9503 153.56 57.3703 151.22 57.3703C148.88 57.3703 147.52 55.9503 147.52 53.8003V53.8103Z" fill="#3F4041"/>
<path d="M171.24 18.8301C173.8 18.8301 175.81 20.8001 175.81 23.1701C175.81 25.5401 173.8 27.3801 171.24 27.3801C168.68 27.3801 166.71 25.5101 166.71 23.1701C166.71 20.8301 168.68 18.8301 171.24 18.8301ZM167.49 54.0801V33.1401C167.49 31.1301 168.95 29.8001 171.1 29.8001H171.33C173.48 29.8001 174.99 31.1301 174.99 33.1401V54.0801C174.99 56.0901 173.48 57.3701 171.33 57.3701H171.1C168.95 57.3701 167.49 56.0901 167.49 54.0801Z" fill="#3F4041"/>
<path d="M178.82 43.6601C178.82 40.9201 179.42 38.4901 180.6 36.3501C182.93 32.1001 187.32 29.5801 192.49 29.5801C196.01 29.5801 199.35 30.7201 201.36 32.6001C202.05 33.1901 202.37 33.9201 202.37 34.7001C202.37 35.5201 202.05 36.3001 201.41 37.0301C200.72 37.8101 199.9 38.1701 198.9 38.1701C198.31 38.1701 197.71 38.0301 197.12 37.7101C195.29 36.7001 193.78 36.2001 192.55 36.2001C188.75 36.2001 186.33 38.6701 186.33 43.6101C186.33 48.5501 188.84 51.0201 192.55 51.0201C194.61 51.0201 195.84 50.4701 197.81 49.1501C198.4 48.7401 199.04 48.5501 199.68 48.5501C200.64 48.5501 201.46 48.9201 202.15 49.6001C202.84 50.2801 203.16 51.0601 203.16 51.9301C203.16 52.8901 202.75 53.7601 201.88 54.5401C199.91 56.3201 196.21 57.5601 192.51 57.5601C184.28 57.5601 178.84 51.7501 178.84 43.6601H178.82Z" fill="#3F4041"/>
<path d="M204.88 43.6605C204.88 35.2505 210.69 29.7104 218.09 29.7104C225.49 29.7104 230.43 34.4705 231.07 41.6405C231.3 44.7505 229.47 46.5305 226.13 46.5305H212.78C213.56 49.5905 215.75 51.1505 218.63 51.1505C220.78 51.1505 222.38 50.6005 224.21 49.3205C224.85 48.8605 225.54 48.6305 226.31 48.6305C227.27 48.6305 228.09 49.0005 228.73 49.6805C229.37 50.3705 229.69 51.1005 229.69 51.9705C229.69 52.9305 229.28 53.7505 228.41 54.4405C226.54 56.1305 222.37 57.4604 218.58 57.4604C210.3 57.4604 204.86 51.7005 204.86 43.6505L204.88 43.6605ZM223.12 40.5905C222.53 37.6205 220.61 36.1104 218.09 36.1104C215.57 36.1104 213.7 37.8005 212.83 40.5905H223.12Z" fill="#3F4041"/>
<path d="M56.55 0.460175H20.85C9.89001 0.460175 0.970001 9.33017 0.970001 20.2402V55.7602C0.970001 58.8002 1.65999 61.6802 2.89999 64.2502V64.3502L2.98999 64.4302C6.22999 71.0002 13.02 75.5302 20.85 75.5302H56.55C67.51 75.5302 76.43 66.6602 76.43 55.7502V20.2302C76.43 9.32019 67.51 0.450195 56.55 0.450195V0.460175Z" fill="#2E65AF"/>
<path d="M67.04 13.7501C66.74 13.0501 65.78 11.9401 64.01 11.9801C62.27 11.9901 61.26 13.0601 60.96 13.6401L48.93 34.8801L39.19 29.0901C41.93 28.4801 45.63 27.2201 47.74 24.6501C49.09 23.0101 49.64 21.0701 49.37 18.8801C49.12 16.8501 48.14 15.1801 46.46 13.9001C40.76 9.55009 28.56 11.2801 28.04 11.3601C27.44 11.4501 26.99 11.9601 26.99 12.5701L26.91 31.1801L18.31 13.1401C18.05 12.4501 17.09 11.2901 15.25 11.2901C13.51 11.2901 12.5 12.3701 12.19 12.9701L0.929993 32.4401C0.929993 32.2001 0.910004 37.1601 0.910004 37.1601L14.34 14.1601C14.38 14.0901 14.62 13.7501 15.26 13.7501C15.83 13.7601 15.99 13.9901 16.05 14.1101L27 37.0901C27.25 37.6101 27.82 37.8801 28.38 37.7601C28.94 37.6301 29.34 37.1401 29.34 36.5701L29.44 13.6801C32.41 13.3701 40.96 12.8101 44.97 15.8701C46.12 16.7501 46.76 17.8401 46.93 19.2001C47.11 20.7101 46.76 21.9901 45.84 23.1001C42.93 26.6301 35.6 27.1801 35.53 27.1901C34.99 27.2301 34.54 27.6101 34.42 28.1301C34.3 28.6501 34.53 29.1901 34.99 29.4701L48.75 37.6501C48.75 37.6501 48.75 37.6501 48.76 37.6501C48.76 37.6501 48.76 37.6501 48.77 37.6501C48.84 37.6901 48.93 37.7001 49 37.7301C49.07 37.7501 49.14 37.7901 49.21 37.8001C49.3 37.8101 49.38 37.8001 49.46 37.7901C49.53 37.7901 49.61 37.7901 49.68 37.7701C49.76 37.7501 49.83 37.7001 49.9 37.6701C49.97 37.6401 50.04 37.6201 50.1 37.5701C50.17 37.5201 50.22 37.4401 50.27 37.3801C50.32 37.3201 50.38 37.2801 50.42 37.2201C50.42 37.2201 50.42 37.2201 50.42 37.2101C50.42 37.2101 50.42 37.2101 50.43 37.2001L63.08 14.8601C63.12 14.7901 63.36 14.4501 64 14.4501C64.57 14.4501 64.73 14.6901 64.75 14.7101C64.77 14.7501 64.78 14.7901 64.8 14.8301L76.34 38.2901L76.37 32.7901L67.02 13.7601L67.04 13.7501Z" fill="white"/>
<path d="M38.7 42.4404C22.85 42.4404 9.35999 52.6304 4.35999 66.7904C5.01999 67.7704 5.8 68.6604 6.62 69.5004C7.29 67.1904 8.18 64.9804 9.31 62.9004H20.57C19.56 66.7104 18.94 70.9304 18.71 75.3804C19.42 75.4604 20.12 75.5304 20.85 75.5304H21.7C21.94 71.0204 22.62 66.7304 23.72 62.8904H37.21V75.5304H40.2V62.8904H53.69C54.79 66.7304 55.47 71.0204 55.71 75.5304H56.56C57.28 75.5304 58 75.4904 58.7 75.4104C58.48 70.9404 57.85 66.7204 56.84 62.8904H67.63C67.78 62.8904 67.92 62.8504 68.06 62.8204C69.21 64.9204 70.13 67.1704 70.8 69.5104C71.63 68.6604 72.39 67.7504 73.05 66.7704C68.05 52.6104 54.56 42.4204 38.71 42.4204L38.7 42.4404ZM21.45 59.9204H11.16C15.4 53.7804 21.63 49.1204 28.92 46.8904C25.82 49.9504 23.26 54.4504 21.45 59.9204ZM37.2 59.9204H24.68C27.54 52.0004 32.08 46.4904 37.2 45.5804V59.9204ZM40.19 59.9204V45.5804C45.3 46.4904 49.85 52.0004 52.71 59.9204H40.19ZM55.95 59.9204C54.14 54.4504 51.58 49.9504 48.48 46.8904C55.77 49.1204 62 53.7804 66.24 59.9204H55.95Z" fill="white"/>
<path d="M61.14 26.9803C61.14 25.6303 62.27 24.5303 63.67 24.5303C65.07 24.5303 66.2 25.6303 66.2 26.9803C66.2 28.3303 65.07 29.4303 63.67 29.4303C62.27 29.4303 61.14 28.3303 61.14 26.9803Z" fill="white"/>
<path d="M63.21 32.6504H64.12C64.32 32.6504 64.48 32.8104 64.48 33.0104V42.4004C64.48 42.6004 64.32 42.7604 64.12 42.7604H63.21C63.01 42.7604 62.85 42.6004 62.85 42.4004V33.0104C62.85 32.8104 63.01 32.6504 63.21 32.6504Z" fill="white"/>
</svg>
