<svg width="20" height="20" viewBox="0 0 20 20" fill="none" xmlns="http://www.w3.org/2000/svg">
<mask id="mask0_577_24769" style="mask-type:alpha" maskUnits="userSpaceOnUse" x="0" y="0" width="20" height="20">
<rect width="20" height="20" fill="#D9D9D9"/>
</mask>
<g mask="url(#mask0_577_24769)">
<path d="M11.0356 14.6952C11.189 14.6952 11.3185 14.6438 11.4244 14.5408C11.5303 14.4378 11.5833 14.3101 11.5833 14.1577C11.5833 14.0055 11.5315 13.8765 11.4277 13.7706C11.324 13.6649 11.1955 13.6121 11.0423 13.6121H3.96437C3.81104 13.6121 3.68146 13.6636 3.57563 13.7665C3.46965 13.8695 3.41667 13.9972 3.41667 14.1496C3.41667 14.3018 3.46854 14.4308 3.57229 14.5367C3.67604 14.6424 3.80451 14.6952 3.95771 14.6952H11.0356Z" fill="#1C1B1F"/>
<path d="M16.4273 10.3886C16.3236 10.4915 16.195 10.5429 16.0415 10.5429H3.95817C3.8047 10.5429 3.67609 10.4901 3.57234 10.3844C3.46845 10.2786 3.4165 10.1495 3.4165 9.9973C3.4165 9.84494 3.46845 9.71724 3.57234 9.61418C3.67609 9.51126 3.8047 9.4598 3.95817 9.4598H16.0415C16.195 9.4598 16.3236 9.51265 16.4273 9.61835C16.5312 9.72418 16.5832 9.85321 16.5832 10.0054C16.5832 10.1578 16.5312 10.2855 16.4273 10.3886Z" fill="#1C1B1F"/>
<path d="M11.4242 6.22855C11.3184 6.33161 11.1888 6.38314 11.0355 6.38314H3.95755C3.80435 6.38314 3.67588 6.33022 3.57213 6.22439C3.46838 6.11869 3.4165 5.98967 3.4165 5.8373C3.4165 5.68508 3.46949 5.55744 3.57546 5.45439C3.6813 5.35133 3.81088 5.2998 3.96421 5.2998H11.0421C11.1953 5.2998 11.3238 5.35272 11.4275 5.45855C11.5313 5.56425 11.5832 5.69328 11.5832 5.84564C11.5832 5.99786 11.5302 6.1255 11.4242 6.22855Z" fill="#1C1B1F"/>
</g>
</svg>
