<svg width="20" height="20" viewBox="0 0 20 20" fill="none" xmlns="http://www.w3.org/2000/svg">
<mask id="mask0_577_24772" style="mask-type:alpha" maskUnits="userSpaceOnUse" x="0" y="0" width="20" height="20">
<rect width="20" height="20" fill="#D9D9D9"/>
</mask>
<g mask="url(#mask0_577_24772)">
<path d="M6.15896 14.5408C6.26479 14.6437 6.39438 14.6952 6.54771 14.6952H13.6256C13.7788 14.6952 13.9073 14.6424 14.011 14.5367C14.1148 14.4308 14.1667 14.3018 14.1667 14.1496C14.1667 13.9972 14.1137 13.8695 14.0077 13.7664C13.9019 13.6635 13.7723 13.6121 13.619 13.6121H6.54104C6.38785 13.6121 6.25938 13.6649 6.15563 13.7706C6.05188 13.8765 6 14.0055 6 14.1577C6 14.3101 6.05299 14.4378 6.15896 14.5408Z" fill="#1C1B1F"/>
<path d="M6.15896 6.22855C6.26479 6.33161 6.39438 6.38314 6.54771 6.38314H13.6256C13.7788 6.38314 13.9073 6.33022 14.011 6.22439C14.1148 6.11869 14.1667 5.98967 14.1667 5.8373C14.1667 5.68508 14.1137 5.55744 14.0077 5.45439C13.9019 5.35133 13.7723 5.2998 13.619 5.2998H6.54104C6.38785 5.2998 6.25938 5.35272 6.15563 5.45855C6.05188 5.56425 6 5.69328 6 5.84564C6 5.99786 6.05299 6.1255 6.15896 6.22855Z" fill="#1C1B1F"/>
<path d="M3.95817 10.5429C3.8047 10.5429 3.67609 10.4915 3.57234 10.3886C3.46845 10.2855 3.4165 10.1578 3.4165 10.0054C3.4165 9.85321 3.46845 9.72418 3.57234 9.61835C3.67609 9.51265 3.8047 9.4598 3.95817 9.4598H16.0415C16.195 9.4598 16.3236 9.51126 16.4273 9.61418C16.5312 9.71724 16.5832 9.84494 16.5832 9.9973C16.5832 10.1495 16.5312 10.2786 16.4273 10.3844C16.3236 10.4901 16.195 10.5429 16.0415 10.5429H3.95817Z" fill="#1C1B1F"/>
</g>
</svg>
