<svg width="20" height="20" viewBox="0 0 20 20" fill="none" xmlns="http://www.w3.org/2000/svg">
<mask id="mask0_577_24771" style="mask-type:alpha" maskUnits="userSpaceOnUse" x="0" y="0" width="20" height="20">
<rect width="20" height="20" fill="#D9D9D9"/>
</mask>
<g mask="url(#mask0_577_24771)">
<path d="M8.96389 14.6952C8.81055 14.6952 8.68097 14.6438 8.57514 14.5408C8.46916 14.4378 8.41618 14.3101 8.41618 14.1577C8.41618 14.0055 8.46805 13.8765 8.5718 13.7706C8.67555 13.6649 8.80403 13.6121 8.95722 13.6121H16.0351C16.1885 13.6121 16.3181 13.6636 16.4239 13.7665C16.5299 13.8695 16.5828 13.9972 16.5828 14.1496C16.5828 14.3018 16.531 14.4308 16.4272 14.5367C16.3235 14.6424 16.195 14.6952 16.0418 14.6952H8.96389Z" fill="#1C1B1F"/>
<path d="M3.57217 10.3886C3.67592 10.4915 3.80454 10.5429 3.95801 10.5429H16.0413C16.1948 10.5429 16.3234 10.4901 16.4272 10.3844C16.5311 10.2786 16.583 10.1495 16.583 9.9973C16.583 9.84494 16.5311 9.71724 16.4272 9.61418C16.3234 9.51126 16.1948 9.4598 16.0413 9.4598H3.95801C3.80454 9.4598 3.67592 9.51265 3.57217 9.61835C3.46829 9.72418 3.41634 9.85321 3.41634 10.0054C3.41634 10.1578 3.46829 10.2855 3.57217 10.3886Z" fill="#1C1B1F"/>
<path d="M8.5753 6.22855C8.68113 6.33161 8.81072 6.38314 8.96405 6.38314H16.042C16.1952 6.38314 16.3236 6.33022 16.4274 6.22439C16.5311 6.11869 16.583 5.98967 16.583 5.8373C16.583 5.68508 16.53 5.55744 16.424 5.45439C16.3182 5.35133 16.1886 5.2998 16.0353 5.2998H8.95738C8.80419 5.2998 8.67572 5.35272 8.57197 5.45855C8.46822 5.56425 8.41634 5.69328 8.41634 5.84564C8.41634 5.99786 8.46933 6.1255 8.5753 6.22855Z" fill="#1C1B1F"/>
</g>
</svg>
