<svg width="21" height="20" viewBox="0 0 21 20" fill="none" xmlns="http://www.w3.org/2000/svg">
<mask id="mask0_1028_893" style="mask-type:alpha" maskUnits="userSpaceOnUse" x="0" y="0" width="21" height="20">
<rect x="0.5" width="20" height="20" fill="#D9D9D9"/>
</mask>
<g mask="url(#mask0_1028_893)">
<path d="M6.18784 11.0834C5.88868 11.0834 5.6341 10.9768 5.4241 10.7638C5.21396 10.5507 5.10889 10.2947 5.10889 9.99565C5.10889 9.69648 5.21541 9.4419 5.42847 9.2319C5.64153 9.02176 5.89757 8.91669 6.1966 8.91669C6.49576 8.91669 6.75041 9.02322 6.96055 9.23627C7.17055 9.44933 7.27555 9.70537 7.27555 10.0044C7.27555 10.3036 7.16903 10.5581 6.95597 10.7681C6.74305 10.9783 6.48701 11.0834 6.18784 11.0834ZM10.4956 11.0834C10.1964 11.0834 9.9418 10.9768 9.7318 10.7638C9.52167 10.5507 9.4166 10.2947 9.4166 9.99565C9.4166 9.69648 9.52312 9.4419 9.73618 9.2319C9.94923 9.02176 10.2053 8.91669 10.5043 8.91669C10.8035 8.91669 11.0581 9.02322 11.2681 9.23627C11.4782 9.44933 11.5833 9.70537 11.5833 10.0044C11.5833 10.3036 11.4767 10.5581 11.2637 10.7681C11.0506 10.9783 10.7946 11.0834 10.4956 11.0834ZM14.8033 11.0834C14.5041 11.0834 14.2494 10.9768 14.0393 10.7638C13.8293 10.5507 13.7243 10.2947 13.7243 9.99565C13.7243 9.69648 13.8308 9.4419 14.0439 9.2319C14.2568 9.02176 14.5128 8.91669 14.812 8.91669C15.1112 8.91669 15.3658 9.02322 15.5758 9.23627C15.7859 9.44933 15.891 9.70537 15.891 10.0044C15.891 10.3036 15.7844 10.5581 15.5714 10.7681C15.3583 10.9783 15.1023 11.0834 14.8033 11.0834Z" fill="#1C1B1F"/>
</g>
</svg>
