<svg width="20" height="20" viewBox="0 0 20 20" fill="none" xmlns="http://www.w3.org/2000/svg">
<mask id="mask0_20_5125" style="mask-type:alpha" maskUnits="userSpaceOnUse" x="0" y="0" width="20" height="20">
<rect width="20" height="20" fill="#D9D9D9"/>
</mask>
<g mask="url(#mask0_20_5125)">
<path d="M9.99546 15.391C9.6963 15.391 9.44171 15.2844 9.23171 15.0714C9.02157 14.8583 8.9165 14.6023 8.9165 14.3033C8.9165 14.0041 9.02303 13.7494 9.23609 13.5393C9.44914 13.3293 9.70518 13.2243 10.0042 13.2243C10.3034 13.2243 10.558 13.3308 10.768 13.5439C10.9781 13.7568 11.0832 14.0128 11.0832 14.312C11.0832 14.6112 10.9766 14.8658 10.7636 15.0758C10.5505 15.2859 10.2945 15.391 9.99546 15.391ZM9.99546 11.0833C9.6963 11.0833 9.44171 10.9767 9.23171 10.7637C9.02157 10.5506 8.9165 10.2946 8.9165 9.99555C8.9165 9.69639 9.02303 9.4418 9.23609 9.2318C9.44914 9.02167 9.70518 8.9166 10.0042 8.9166C10.3034 8.9166 10.558 9.02312 10.768 9.23618C10.9781 9.44923 11.0832 9.70528 11.0832 10.0043C11.0832 10.3035 10.9766 10.5581 10.7636 10.7681C10.5505 10.9782 10.2945 11.0833 9.99546 11.0833ZM9.99546 6.77555C9.6963 6.77555 9.44171 6.66903 9.23171 6.45597C9.02157 6.24305 8.9165 5.98701 8.9165 5.68785C8.9165 5.38868 9.02303 5.1341 9.23609 4.9241C9.44914 4.71396 9.70518 4.60889 10.0042 4.60889C10.3034 4.60889 10.558 4.71542 10.768 4.92847C10.9781 5.14153 11.0832 5.39757 11.0832 5.6966C11.0832 5.99576 10.9766 6.25041 10.7636 6.46055C10.5505 6.67055 10.2945 6.77555 9.99546 6.77555Z" fill="#1C1B1F"/>
</g>
</svg>
