<svg width="20" height="20" viewBox="0 0 20 20" fill="none" xmlns="http://www.w3.org/2000/svg">
<mask id="mask0_20_5132" style="mask-type:alpha" maskUnits="userSpaceOnUse" x="0" y="0" width="20" height="20">
<rect width="20" height="20" fill="#D9D9D9"/>
</mask>
<g mask="url(#mask0_20_5132)">
<path d="M5.68784 11.0832C5.38868 11.0832 5.1341 10.9766 4.9241 10.7636C4.71396 10.5505 4.60889 10.2945 4.60889 9.99546C4.60889 9.6963 4.71541 9.44171 4.92847 9.23171C5.14153 9.02157 5.39757 8.9165 5.6966 8.9165C5.99576 8.9165 6.25041 9.02303 6.46055 9.23609C6.67055 9.44914 6.77555 9.70518 6.77555 10.0042C6.77555 10.3034 6.66903 10.558 6.45597 10.768C6.24305 10.9781 5.98701 11.0832 5.68784 11.0832ZM9.99555 11.0832C9.69639 11.0832 9.4418 10.9766 9.2318 10.7636C9.02167 10.5505 8.9166 10.2945 8.9166 9.99546C8.9166 9.6963 9.02312 9.44171 9.23618 9.23171C9.44923 9.02157 9.70528 8.9165 10.0043 8.9165C10.3035 8.9165 10.5581 9.02303 10.7681 9.23609C10.9782 9.44914 11.0833 9.70518 11.0833 10.0042C11.0833 10.3034 10.9767 10.558 10.7637 10.768C10.5506 10.9781 10.2946 11.0832 9.99555 11.0832ZM14.3033 11.0832C14.0041 11.0832 13.7494 10.9766 13.5393 10.7636C13.3293 10.5505 13.2243 10.2945 13.2243 9.99546C13.2243 9.6963 13.3308 9.44171 13.5439 9.23171C13.7568 9.02157 14.0128 8.9165 14.312 8.9165C14.6112 8.9165 14.8658 9.02303 15.0758 9.23609C15.2859 9.44914 15.391 9.70518 15.391 10.0042C15.391 10.3034 15.2844 10.558 15.0714 10.768C14.8583 10.9781 14.6023 11.0832 14.3033 11.0832Z" fill="#1C1B1F"/>
</g>
</svg>
