<svg width="20" height="20" viewBox="0 0 20 20" fill="none" xmlns="http://www.w3.org/2000/svg">
<mask id="mask0_614_26164" style="mask-type:alpha" maskUnits="userSpaceOnUse" x="0" y="0" width="20" height="20">
<rect width="20" height="20" fill="#D9D9D9"/>
</mask>
<g mask="url(#mask0_614_26164)">
<path fill-rule="evenodd" clip-rule="evenodd" d="M7.53656 7.23165C7.68475 7.52803 7.56462 7.88844 7.26823 8.03663L4.34154 9.49997L9.9999 12.3292L15.6583 9.49997L12.7316 8.03663C12.4352 7.88844 12.3151 7.52803 12.4632 7.23165C12.6114 6.93526 12.9718 6.81512 13.2682 6.96332L17.2682 8.96332C17.4715 9.06495 17.5999 9.27271 17.5999 9.49997C17.5999 9.72724 17.4715 9.93499 17.2682 10.0366L10.2682 13.5366C10.0993 13.6211 9.90049 13.6211 9.73157 13.5366L2.73157 10.0366C2.5283 9.93499 2.3999 9.72724 2.3999 9.49997C2.3999 9.27271 2.5283 9.06495 2.73157 8.96332L6.73157 6.96332C7.02796 6.81512 7.38836 6.93526 7.53656 7.23165Z" fill="#1C1B1F"/>
<path fill-rule="evenodd" clip-rule="evenodd" d="M2.46338 12.2316C2.61157 11.9353 2.97197 11.8151 3.26836 11.9633L10 15.3292L16.7317 11.9633C17.0281 11.8151 17.3885 11.9353 17.5367 12.2316C17.6849 12.528 17.5647 12.8884 17.2684 13.0366L10.2684 16.5366C10.0994 16.6211 9.90062 16.6211 9.73171 16.5366L2.73171 13.0366C2.43532 12.8884 2.31518 12.528 2.46338 12.2316Z" fill="#1C1B1F"/>
<path d="M9.94655 2.46533C9.85724 2.46533 9.77419 2.48137 9.69738 2.51346C9.62058 2.5454 9.55009 2.59346 9.48592 2.65762L7.26274 4.79929C7.15274 4.90804 7.0985 5.0354 7.10003 5.18137C7.1017 5.32735 7.15954 5.45804 7.27357 5.57346C7.39566 5.68874 7.52663 5.74505 7.66649 5.74241C7.80649 5.73978 7.9342 5.68075 8.04961 5.56533L9.40905 4.26658V9.05825C9.40905 9.212 9.46051 9.34068 9.56342 9.44429C9.6662 9.54804 9.79384 9.59992 9.94634 9.59992C10.0988 9.59992 10.2279 9.54804 10.3336 9.44429C10.4395 9.34068 10.4924 9.212 10.4924 9.05825V4.26658L11.9973 5.57804C12.1027 5.68804 12.2279 5.74228 12.3729 5.74075C12.5178 5.73908 12.6513 5.68061 12.7733 5.56533C12.8874 5.44992 12.9431 5.32089 12.9404 5.17825C12.9378 5.03561 12.8788 4.90658 12.7633 4.79117L10.4155 2.65762C10.3458 2.59346 10.2725 2.5454 10.1957 2.51346C10.1189 2.48137 10.0359 2.46533 9.94655 2.46533Z" fill="#1C1B1F"/>
</g>
</svg>
