<svg width="20" height="20" viewBox="0 0 20 20" fill="none" xmlns="http://www.w3.org/2000/svg">
<mask id="mask0_614_26216" style="mask-type:alpha" maskUnits="userSpaceOnUse" x="0" y="0" width="20" height="20">
<rect width="20" height="20" fill="#D9D9D9"/>
</mask>
<g mask="url(#mask0_614_26216)">
<path fill-rule="evenodd" clip-rule="evenodd" d="M7.53656 10.3317C7.68475 10.6281 7.56462 10.9885 7.26823 11.1367L4.34154 12.6001L9.9999 15.4293L15.6583 12.6001L12.7316 11.1367C12.4352 10.9885 12.3151 10.6281 12.4632 10.3317C12.6114 10.0354 12.9718 9.91522 13.2682 10.0634L17.2682 12.0634C17.4715 12.1651 17.5999 12.3728 17.5999 12.6001C17.5999 12.8273 17.4715 13.0351 17.2682 13.1367L10.2682 16.6367C10.0993 16.7212 9.90049 16.7212 9.73157 16.6367L2.73157 13.1367C2.5283 13.0351 2.3999 12.8273 2.3999 12.6001C2.3999 12.3728 2.5283 12.1651 2.73157 12.0634L6.73157 10.0634C7.02796 9.91522 7.38836 10.0354 7.53656 10.3317Z" fill="#1C1B1F"/>
<path d="M9.94655 2.46533C9.85724 2.46533 9.77419 2.48137 9.69738 2.51346C9.62058 2.5454 9.55009 2.59346 9.48592 2.65762L7.26274 4.79929C7.15274 4.90804 7.0985 5.0354 7.10003 5.18137C7.1017 5.32735 7.15954 5.45804 7.27357 5.57346C7.39566 5.68874 7.52663 5.74505 7.66649 5.74241C7.80649 5.73978 7.9342 5.68075 8.04961 5.56533L9.40905 4.26658V11.0582C9.40905 11.212 9.46051 11.3407 9.56342 11.4443C9.6662 11.548 9.79384 11.5999 9.94634 11.5999C10.0988 11.5999 10.2279 11.548 10.3336 11.4443C10.4395 11.3407 10.4924 11.212 10.4924 11.0582V4.26658L11.9973 5.57804C12.1027 5.68804 12.2279 5.74228 12.3729 5.74075C12.5178 5.73908 12.6513 5.68061 12.7733 5.56533C12.8874 5.44992 12.9431 5.32089 12.9404 5.17825C12.9378 5.03561 12.8788 4.90658 12.7633 4.79117L10.4155 2.65762C10.3458 2.59346 10.2725 2.5454 10.1957 2.51346C10.1189 2.48137 10.0359 2.46533 9.94655 2.46533Z" fill="#1C1B1F"/>
</g>
</svg>
