<svg width="20" height="20" viewBox="0 0 20 20" fill="none" xmlns="http://www.w3.org/2000/svg">
<mask id="mask0_614_26224" style="mask-type:alpha" maskUnits="userSpaceOnUse" x="0" y="0" width="20" height="20">
<rect width="20" height="20" fill="#D9D9D9"/>
</mask>
<g mask="url(#mask0_614_26224)">
<path fill-rule="evenodd" clip-rule="evenodd" d="M7.53656 11.8338C7.68475 11.5374 7.56462 11.177 7.26823 11.0288L4.34154 9.56546L9.9999 6.73628L15.6583 9.56546L12.7316 11.0288C12.4352 11.177 12.3151 11.5374 12.4632 11.8338C12.6114 12.1302 12.9718 12.2503 13.2682 12.1021L17.2682 10.1021C17.4715 10.0005 17.5999 9.79272 17.5999 9.56546C17.5999 9.33819 17.4715 9.13043 17.2682 9.0288L10.2682 5.5288C10.0993 5.44434 9.90049 5.44434 9.73157 5.5288L2.73157 9.0288C2.5283 9.13043 2.3999 9.33819 2.3999 9.56546C2.3999 9.79272 2.5283 10.0005 2.73157 10.1021L6.73157 12.1021C7.02796 12.2503 7.38836 12.1302 7.53656 11.8338Z" fill="#1C1B1F"/>
<path fill-rule="evenodd" clip-rule="evenodd" d="M2.46338 6.83378C2.61157 7.13017 2.97197 7.25031 3.26836 7.10211L10 3.73628L16.7317 7.10211C17.0281 7.25031 17.3885 7.13017 17.5367 6.83378C17.6849 6.5374 17.5647 6.17699 17.2684 6.0288L10.2684 2.5288C10.0994 2.44434 9.90062 2.44434 9.73171 2.5288L2.73171 6.0288C2.43532 6.17699 2.31518 6.5374 2.46338 6.83378Z" fill="#1C1B1F"/>
<path d="M9.94655 16.6001C9.85724 16.6001 9.77419 16.5841 9.69738 16.552C9.62058 16.52 9.55009 16.472 9.48592 16.4078L7.26274 14.2661C7.15274 14.1574 7.0985 14.03 7.10003 13.8841C7.1017 13.7381 7.15954 13.6074 7.27357 13.492C7.39566 13.3767 7.52663 13.3204 7.66649 13.323C7.80649 13.3257 7.9342 13.3847 8.04961 13.5001L9.40905 14.7988V10.0072C9.40905 9.85343 9.46051 9.72475 9.56342 9.62114C9.6662 9.51739 9.79384 9.46551 9.94634 9.46551C10.0988 9.46551 10.2279 9.51739 10.3336 9.62114C10.4395 9.72475 10.4924 9.85343 10.4924 10.0072V14.7988L11.9973 13.4874C12.1027 13.3774 12.2279 13.3232 12.3729 13.3247C12.5178 13.3263 12.6513 13.3848 12.7733 13.5001C12.8874 13.6155 12.9431 13.7445 12.9404 13.8872C12.9378 14.0298 12.8788 14.1588 12.7633 14.2743L10.4155 16.4078C10.3458 16.472 10.2725 16.52 10.1957 16.552C10.1189 16.5841 10.0359 16.6001 9.94655 16.6001Z" fill="#1C1B1F"/>
</g>
</svg>
