<svg width="20" height="20" viewBox="0 0 20 20" fill="none" xmlns="http://www.w3.org/2000/svg">
<mask id="mask0_614_26217" style="mask-type:alpha" maskUnits="userSpaceOnUse" x="0" y="0" width="20" height="20">
<rect width="20" height="20" fill="#D9D9D9"/>
</mask>
<g mask="url(#mask0_614_26217)">
<path fill-rule="evenodd" clip-rule="evenodd" d="M7.53656 8.83378C7.68475 8.5374 7.56462 8.17699 7.26823 8.0288L4.34154 6.56546L9.9999 3.73628L15.6583 6.56546L12.7316 8.0288C12.4352 8.17699 12.3151 8.5374 12.4632 8.83378C12.6114 9.13017 12.9718 9.25031 13.2682 9.10211L17.2682 7.10211C17.4715 7.00048 17.5999 6.79272 17.5999 6.56546C17.5999 6.33819 17.4715 6.13043 17.2682 6.0288L10.2682 2.5288C10.0993 2.44434 9.90049 2.44434 9.73157 2.5288L2.73157 6.0288C2.5283 6.13043 2.3999 6.33819 2.3999 6.56546C2.3999 6.79272 2.5283 7.00048 2.73157 7.10211L6.73157 9.10211C7.02796 9.25031 7.38836 9.13017 7.53656 8.83378Z" fill="#1C1B1F"/>
<path d="M9.94655 16.7002C9.85724 16.7002 9.77419 16.6842 9.69738 16.6521C9.62058 16.6201 9.55009 16.5721 9.48592 16.5079L7.26274 14.3662C7.15274 14.2575 7.0985 14.1301 7.10003 13.9842C7.1017 13.8382 7.15954 13.7075 7.27357 13.5921C7.39566 13.4768 7.52663 13.4205 7.66649 13.4231C7.80649 13.4258 7.9342 13.4848 8.04961 13.6002L9.40905 14.8989V8.10728C9.40905 7.95353 9.46051 7.82485 9.56342 7.72124C9.6662 7.61749 9.79384 7.56561 9.94634 7.56561C10.0988 7.56561 10.2279 7.61749 10.3336 7.72124C10.4395 7.82485 10.4924 7.95353 10.4924 8.10728V14.8989L11.9973 13.5875C12.1027 13.4775 12.2279 13.4233 12.3729 13.4248C12.5178 13.4264 12.6513 13.4849 12.7733 13.6002C12.8874 13.7156 12.9431 13.8446 12.9404 13.9873C12.9378 14.1299 12.8788 14.2589 12.7633 14.3744L10.4155 16.5079C10.3458 16.5721 10.2725 16.6201 10.1957 16.6521C10.1189 16.6842 10.0359 16.7002 9.94655 16.7002Z" fill="#1C1B1F"/>
</g>
</svg>
