<svg width="24" height="24" viewBox="0 0 24 24" fill="none" xmlns="http://www.w3.org/2000/svg">
<rect width="24" height="24" rx="4" fill="#37ADFF"/>
<path d="M17.6067 9.60667L14.3867 6.38667C14.14 6.14 13.8 6 13.4467 6H7.33333C6.6 6 6 6.6 6 7.33333V16.6667C6 17.4 6.6 18 7.33333 18H16.6667C17.4 18 18 17.4 18 16.6667V10.5533C18 10.2 17.86 9.86 17.6067 9.60667ZM8.66667 8.66667H13.3333V10H8.66667V8.66667ZM15.3333 15.3333H8.66667V14H15.3333V15.3333ZM15.3333 12.6667H8.66667V11.3333H15.3333V12.6667Z" fill="white"/>
</svg>
