<svg width="24" height="24" viewBox="0 0 24 24" fill="none" xmlns="http://www.w3.org/2000/svg">
<rect width="24" height="24" rx="4" fill="#F09235"/>
<path d="M17.5368 8.09995L17.8634 7.39328L18.5701 7.06661C18.8301 6.94661 18.8301 6.57995 18.5701 6.45995L17.8634 6.13328L17.5368 5.43328C17.4168 5.17328 17.0501 5.17328 16.9301 5.43328L16.6034 6.13995L15.9034 6.46661C15.6434 6.58661 15.6434 6.95328 15.9034 7.07328L16.6101 7.39995L16.9368 8.09995C17.0501 8.35995 17.4234 8.35995 17.5368 8.09995Z" fill="white"/>
<path d="M9.87011 8.09995L10.1968 7.39328L10.9034 7.06661C11.1634 6.94661 11.1634 6.57995 10.9034 6.45995L10.1968 6.13995L9.87011 5.43328C9.75677 5.17328 9.38344 5.17328 9.27011 5.43328L8.94344 6.13995L8.23677 6.46661C7.97677 6.58661 7.97677 6.95328 8.23677 7.07328L8.94344 7.39995L9.27011 8.09995C9.38344 8.35995 9.75677 8.35995 9.87011 8.09995Z" fill="white"/>
<path d="M16.9368 13.0999L16.6101 13.8066L15.9034 14.1333C15.6434 14.2533 15.6434 14.6199 15.9034 14.7399L16.6101 15.0666L16.9368 15.7733C17.0568 16.0333 17.4234 16.0333 17.5434 15.7733L17.8701 15.0666L18.5701 14.7333C18.8301 14.6133 18.8301 14.2466 18.5701 14.1266L17.8634 13.7999L17.5368 13.0933C17.4234 12.8399 17.0501 12.8399 16.9368 13.0999Z" fill="white"/>
<path d="M15.7101 10.1799L13.8234 8.29328C13.5634 8.03328 13.1434 8.03328 12.8834 8.29328L5.43011 15.7399C5.17011 15.9999 5.17011 16.4199 5.43011 16.6799L7.31677 18.5666C7.57677 18.8266 7.99677 18.8266 8.25677 18.5666L15.7034 11.1199C15.9701 10.8666 15.9701 10.4399 15.7101 10.1799ZM13.3768 11.5733L12.4368 10.6333L13.3568 9.71328L14.2968 10.6533L13.3768 11.5733Z" fill="white"/>
</svg>
