<svg width="24" height="24" viewBox="0 0 24 24" fill="none" xmlns="http://www.w3.org/2000/svg">
<path d="M24 6.82843V22C24 23.1046 23.1046 24 22 24H6C4.89543 24 4 23.1046 4 22V2C4 0.895431 4.89543 0 6 0H17.1716C17.702 0 18.2107 0.210714 18.5858 0.585787L23.4142 5.41421C23.7893 5.78929 24 6.29799 24 6.82843Z" fill="white"/>
<path d="M23.7578 6.4375C23.5952 6.7697 23.2551 6.99902 22.8604 6.99902H19C17.8954 6.99902 17 6.10359 17 4.99902V1.13867C17 0.744047 17.2286 0.4029 17.5605 0.240234L23.7578 6.4375Z" fill="#E7E7E6"/>
<path d="M17.3691 0.00976562C17.827 0.0552043 18.2577 0.257723 18.5859 0.585938L23.4141 5.41406C23.7891 5.78906 23.9999 6.2978 24 6.82812V22C24 23.1046 23.1046 24 22 24H6C4.89543 24 4 23.1046 4 22V2C4 0.964349 4.78722 0.113005 5.7959 0.0107422L6 0H17.1719L17.3691 0.00976562ZM6 1C5.44772 1 5 1.44772 5 2V22C5 22.5523 5.44772 23 6 23H22C22.5523 23 23 22.5523 23 22V7.5H19C17.6193 7.5 16.5 6.38071 16.5 5V1H6ZM17.5 5C17.5 5.82843 18.1716 6.5 19 6.5H22.9434C22.8942 6.35884 22.8147 6.22874 22.707 6.12109L17.8789 1.29297C17.7712 1.18524 17.6413 1.10479 17.5 1.05566V5Z" fill="#ACACAC"/>
<path d="M20.5 18.5H14V16.9004H20.5V18.5ZM20.5 15H14V13.4004H20.5V15ZM20.5 11.5H14V9.90039H20.5V11.5Z" fill="#929292"/>
<rect x="4" y="8" width="1" height="12" fill="white"/>
<path d="M9 8C10.6569 8 12 9.34315 12 11V17C12 18.6569 10.6569 20 9 20H3C1.34315 20 0 18.6569 0 17V11C0 9.34315 1.34315 8 3 8H9ZM1.91406 11.3438L3.57812 17H5.00391L5.98047 13.7617H6.02344L6.99609 17H8.43359L10.0898 11.3438H8.43359L7.64062 14.8984H7.59375L6.66016 11.3438H5.33984L4.41016 14.8828H4.36328L3.56641 11.3438H1.91406Z" fill="#929292"/>
</svg>
