<svg width="24" height="24" viewBox="0 0 24 24" fill="none" xmlns="http://www.w3.org/2000/svg">
<path d="M21.5667 6.66942V21.7457C21.5667 23.5286 20.097 23.9998 19.32 24H4.64685C2.86968 24 2.3999 22.5256 2.3999 21.7461V2.25427C2.3999 0.471202 3.86963 0 4.64685 0H14.9244L15.4161 0.494014H15.4453V0.522613L21.5667 6.66942Z" fill="white"/>
<path d="M17.8011 12.0577C17.5086 12.1441 17.0793 12.1538 16.6189 12.087C16.1249 12.0154 15.621 11.8643 15.1257 11.6418C16.0089 11.5133 16.6941 11.5529 17.2802 11.7605C17.419 11.8097 17.6471 11.9413 17.8011 12.0577ZM12.873 11.2475C12.8371 11.2573 12.8017 11.2666 12.7665 11.2763C12.5288 11.341 12.2976 11.4041 12.0747 11.4603L11.7742 11.5365C11.1698 11.6894 10.5518 11.8457 9.94142 12.0317C10.1734 11.4724 10.3889 10.9068 10.5999 10.3538C10.7562 9.94452 10.9157 9.52638 11.0807 9.11364C11.1644 9.25188 11.2518 9.39018 11.3427 9.52884C11.7568 10.1596 12.2773 10.7427 12.873 11.2475ZM11.3355 4.93956C11.3747 5.6298 11.2258 6.29382 11.0073 6.93084C10.7382 6.14316 10.6128 5.27334 10.9492 4.5711C11.0355 4.3911 11.1062 4.29486 11.152 4.24464C11.2228 4.35396 11.316 4.59852 11.3355 4.93956ZM8.17998 13.6832C8.02879 13.9537 7.87446 14.2069 7.71628 14.446C7.33455 15.0213 6.71026 15.6373 6.38955 15.6373C6.35799 15.6373 6.3198 15.6322 6.26399 15.5732C6.22807 15.5356 6.22232 15.5086 6.22406 15.4717C6.23487 15.2602 6.5151 14.8835 6.92106 14.5343C7.28954 14.2174 7.70601 13.9357 8.17998 13.6832ZM18.8223 12.0877C18.7732 11.3831 17.5873 10.9312 17.5756 10.927C17.1171 10.7644 16.6191 10.6855 16.053 10.6855C15.4471 10.6855 14.7938 10.7731 13.9548 10.9691C13.2083 10.4399 12.5634 9.77742 12.0816 9.04398C11.8689 8.71992 11.6776 8.39646 11.5108 8.0805C11.9179 7.10724 12.2844 6.06078 12.2178 4.88874C12.1641 3.94896 11.7403 3.3177 11.164 3.3177C10.7687 3.3177 10.4283 3.6105 10.1515 4.18878C9.6578 5.21922 9.78758 6.53772 10.5371 8.11104C10.2672 8.74506 10.0164 9.40236 9.7736 10.0387C9.47156 10.8299 9.16034 11.6462 8.80958 12.4227C7.82591 12.8119 7.01779 13.2839 6.34431 13.8634C5.90312 14.2424 5.37124 14.8217 5.34088 15.4264C5.34088 15.4264 5.42372 15.9724 5.62217 16.1817C5.833 16.4039 6.09788 16.5209 6.38912 16.5212C7.35104 16.5212 8.27684 15.1996 8.45246 14.9345C8.80592 14.4017 9.13676 13.8074 9.46094 13.1219C10.2774 12.8269 11.1475 12.6066 11.9909 12.3937L12.2929 12.317C12.52 12.2593 12.756 12.1954 12.998 12.1292C13.2541 12.0599 13.5177 11.9881 13.7855 11.9199C14.6515 12.4706 15.5827 12.8299 16.491 12.9617C17.256 13.073 17.9353 13.0084 18.3952 12.7687C18.8091 12.5531 18.8319 12.2206 18.8223 12.0877ZM20.6852 21.7457C20.6852 23.0359 19.548 23.1155 19.3186 23.1181H4.64682C3.36125 23.1181 3.28383 21.9731 3.28138 21.7457L3.28121 2.25385C3.28121 0.96234 4.42048 0.88404 4.64664 0.881448H14.5577L14.563 0.88668V4.75438C14.563 5.53058 15.0322 7.00014 16.8094 7.00014H20.6521L20.6851 7.03308L20.6852 21.7457ZM19.7742 6.11856H16.81C15.5248 6.11856 15.4471 4.97981 15.4453 4.7545V1.77184L19.7742 6.11856ZM21.5667 21.7457V6.66942L15.4453 0.522613V0.494014H15.4161L14.9244 0H4.64685C3.86963 0 2.3999 0.471202 2.3999 2.25427V21.7461C2.3999 22.5256 2.86968 24 4.64685 24H19.32C20.097 23.9998 21.5667 23.5286 21.5667 21.7457Z" fill="#FF2B20"/>
<path d="M8.66713 17.6112C9.51791 17.6112 10.0074 18.0294 10.0074 18.7708C10.0074 19.5504 9.51785 20.0018 8.66713 20.0018H8.06354V20.9382H7.21753V17.6112H8.66713ZM8.06354 19.3364H8.62436C8.99515 19.3364 9.20893 19.1511 9.20893 18.7994C9.20893 18.4524 8.99502 18.2766 8.62436 18.2766H8.06354V19.3364Z" fill="black"/>
<path d="M11.9993 17.6112C13.0449 17.6112 13.7673 18.2861 13.7673 19.2746C13.7673 20.2585 13.0354 20.9382 11.966 20.9382H10.5686V17.6112H11.9993ZM11.4147 20.2632H12.0183C12.5363 20.2632 12.907 19.864 12.907 19.2794C12.907 18.6901 12.5173 18.2861 11.9802 18.2861H11.4146V20.2632H11.4147Z" fill="black"/>
<path d="M15.179 18.2765V19.0465H16.6714V19.7119H15.179V20.9382H14.333V17.6112H16.7997V18.2766H15.179V18.2765Z" fill="black"/>
<path d="M16.81 6.11857H19.7742L15.4453 1.77185V4.75451C15.4471 4.97982 15.5248 6.11857 16.81 6.11857Z" fill="white"/>
</svg>
