<svg width="24" height="24" viewBox="0 0 24 24" fill="none" xmlns="http://www.w3.org/2000/svg">
<path d="M22 6.82843V22C22 23.1046 21.1046 24 20 24H4C2.89543 24 2 23.1046 2 22V2C2 0.895431 2.89543 0 4 0H15.1716C15.702 0 16.2107 0.210714 16.5858 0.585787L21.4142 5.41421C21.7893 5.78929 22 6.29799 22 6.82843Z" fill="white"/>
<path d="M21.7578 6.4375C21.5952 6.7697 21.2551 6.99902 20.8604 6.99902H17C15.8954 6.99902 15 6.10359 15 4.99902V1.13867C15 0.744047 15.2286 0.4029 15.5605 0.240234L21.7578 6.4375Z" fill="#E7E7E6"/>
<path d="M15.3691 0.00976562C15.827 0.0552043 16.2577 0.257723 16.5859 0.585938L21.4141 5.41406C21.7891 5.78906 21.9999 6.2978 22 6.82812V22C22 23.1046 21.1046 24 20 24H4C2.89543 24 2 23.1046 2 22V2C2 0.964349 2.78722 0.113005 3.7959 0.0107422L4 0H15.1719L15.3691 0.00976562ZM4 1C3.44772 1 3 1.44772 3 2V22C3 22.5523 3.44772 23 4 23H20C20.5523 23 21 22.5523 21 22V7.5H17C15.6193 7.5 14.5 6.38071 14.5 5V1H4ZM15.5 5C15.5 5.82843 16.1716 6.5 17 6.5H20.9434C20.8942 6.35884 20.8147 6.22874 20.707 6.12109L15.8789 1.29297C15.7712 1.18524 15.6413 1.10479 15.5 1.05566V5Z" fill="#ACACAC"/>
<path d="M15 18.5H6V16.9004H15V18.5ZM15 15H6V13.4004H15V15ZM15 11.5H6V9.90039H15V11.5Z" fill="#929292"/>
</svg>
