<svg width="24" height="24" viewBox="0 0 24 24" fill="none" xmlns="http://www.w3.org/2000/svg">
<path d="M22 6.82843V22C22 23.1046 21.1046 24 20 24H4C2.89543 24 2 23.1046 2 22V2C2 0.895431 2.89543 0 4 0H15.1716C15.702 0 16.2107 0.210714 16.5858 0.585787L21.4142 5.41421C21.7893 5.78929 22 6.29799 22 6.82843Z" fill="white"/>
<path d="M21.7578 6.4375C21.5952 6.7697 21.2551 6.99902 20.8604 6.99902H17C15.8954 6.99902 15 6.10359 15 4.99902V1.13867C15 0.744047 15.2286 0.4029 15.5605 0.240234L21.7578 6.4375Z" fill="#E7E7E6"/>
<path d="M15.3691 0.00976562C15.827 0.0552043 16.2577 0.257723 16.5859 0.585938L21.4141 5.41406C21.7891 5.78906 21.9999 6.2978 22 6.82812V22C22 23.1046 21.1046 24 20 24H4C2.89543 24 2 23.1046 2 22V2C2 0.964349 2.78722 0.113005 3.7959 0.0107422L4 0H15.1719L15.3691 0.00976562ZM4 1C3.44772 1 3 1.44772 3 2V22C3 22.5523 3.44772 23 4 23H20C20.5523 23 21 22.5523 21 22V7.5H17C15.6193 7.5 14.5 6.38071 14.5 5V1H4ZM15.5 5C15.5 5.82843 16.1716 6.5 17 6.5H20.9434C20.8942 6.35884 20.8147 6.22874 20.707 6.12109L15.8789 1.29297C15.7712 1.18524 15.6413 1.10479 15.5 1.05566V5Z" fill="#ACACAC"/>
<path d="M13 10.8916H17.5V12.8047H15.7422C16.2206 13.4885 16.4999 14.3107 16.5 15.1953C16.5 17.5725 14.4853 19.5 12 19.5C9.51465 19.5 7.5 17.5725 7.5 15.1953C7.50008 14.3107 7.77934 13.4885 8.25781 12.8047H6.5V10.8916H11V8.5H13V10.8916ZM12 12.8047C10.6195 12.8047 9.50021 13.8747 9.5 15.1953C9.5 16.516 10.6194 17.5869 12 17.5869C13.3806 17.5869 14.5 16.516 14.5 15.1953C14.4998 13.8747 13.3805 12.8047 12 12.8047Z" fill="#929292"/>
</svg>
