<svg width="20" height="20" viewBox="0 0 20 20" fill="none" xmlns="http://www.w3.org/2000/svg">
<mask id="mask0_205_16238" style="mask-type:alpha" maskUnits="userSpaceOnUse" x="0" y="0" width="20" height="20">
<rect width="20" height="20" fill="#D9D9D9"/>
</mask>
<g mask="url(#mask0_205_16238)">
<path d="M4.32403 17C3.95866 17 3.64661 16.8707 3.38788 16.6121C3.12929 16.3534 3 16.0413 3 15.676V4.32403C3 3.95866 3.12929 3.64661 3.38788 3.38788C3.64661 3.12929 3.95866 3 4.32403 3H15.676C16.0413 3 16.3534 3.12929 16.6121 3.38788C16.8707 3.64661 17 3.95866 17 4.32403V15.676C17 16.0413 16.8707 16.3534 16.6121 16.6121C16.3534 16.8707 16.0413 17 15.676 17H4.32403ZM4.32403 15.9294H15.676C15.75 15.9294 15.8107 15.9057 15.8582 15.8582C15.9057 15.8107 15.9294 15.75 15.9294 15.676V4.32403C15.9294 4.25005 15.9057 4.18931 15.8582 4.14182C15.8107 4.09433 15.75 4.07059 15.676 4.07059H4.32403C4.25005 4.07059 4.18931 4.09433 4.14182 4.14182C4.09433 4.18931 4.07059 4.25005 4.07059 4.32403V15.676C4.07059 15.75 4.09433 15.8107 4.14182 15.8582C4.18931 15.9057 4.25005 15.9294 4.32403 15.9294Z" fill="#1C1B1F"/>
<path d="M5.31487 15.8303C5.39092 15.9102 5.48375 15.9501 5.59338 15.9501C5.7029 15.9501 5.79473 15.9102 5.86888 15.8303C5.94303 15.7506 5.9801 15.6517 5.9801 15.5337L5.97954 4.51647C5.97954 4.3985 5.94147 4.29964 5.86532 4.21988C5.78928 4.14003 5.69644 4.1001 5.58682 4.1001C5.4773 4.1001 5.38547 4.14003 5.31132 4.21988C5.23717 4.29964 5.2001 4.3985 5.2001 4.51647L5.20066 15.5337C5.20066 15.6517 5.23873 15.7506 5.31487 15.8303Z" fill="#1C1B1F"/>
<path d="M14.1147 15.8303C14.1907 15.9102 14.2836 15.9501 14.3932 15.9501C14.5027 15.9501 14.5945 15.9102 14.6687 15.8303C14.7428 15.7506 14.7799 15.6517 14.7799 15.5337L14.7793 4.51647C14.7793 4.3985 14.7413 4.29964 14.6651 4.21988C14.5891 4.14003 14.4962 4.1001 14.3866 4.1001C14.2771 4.1001 14.1853 4.14003 14.1111 4.21988C14.037 4.29964 13.9999 4.3985 13.9999 4.51647L14.0005 15.5337C14.0005 15.6517 14.0385 15.7506 14.1147 15.8303Z" fill="#1C1B1F"/>
<path d="M4.19004 5.31445C4.11641 5.39031 4.07959 5.48293 4.07959 5.59228C4.07959 5.70154 4.11641 5.79316 4.19004 5.86713C4.26358 5.94109 4.35474 5.97808 4.46352 5.97808L15.5457 5.97752C15.6544 5.97752 15.7456 5.93954 15.8191 5.86358C15.8928 5.78772 15.9296 5.6951 15.9296 5.58575C15.9296 5.47649 15.8928 5.38487 15.8191 5.3109C15.7456 5.23694 15.6544 5.19995 15.5457 5.19995L4.46352 5.20051C4.35474 5.20051 4.26358 5.23849 4.19004 5.31445Z" fill="#1C1B1F"/>
<path d="M4.19004 14.1145C4.11641 14.1904 4.07959 14.283 4.07959 14.3923C4.07959 14.5016 4.11641 14.5932 4.19004 14.6672C4.26358 14.7411 4.35474 14.7781 4.46352 14.7781L15.5457 14.7776C15.6544 14.7776 15.7456 14.7396 15.8191 14.6636C15.8928 14.5878 15.9296 14.4952 15.9296 14.3858C15.9296 14.2765 15.8928 14.1849 15.8191 14.111C15.7456 14.037 15.6544 14 15.5457 14L4.46352 14.0006C4.35474 14.0006 4.26358 14.0385 4.19004 14.1145Z" fill="#1C1B1F"/>
</g>
</svg>
