<svg width="20" height="20" viewBox="0 0 20 20" fill="none" xmlns="http://www.w3.org/2000/svg">
<mask id="mask0_205_16239" style="mask-type:alpha" maskUnits="userSpaceOnUse" x="0" y="0" width="20" height="20">
<rect width="20" height="20" fill="#D9D9D9"/>
</mask>
<g mask="url(#mask0_205_16239)">
<path d="M4.32403 17C3.95866 17 3.64661 16.8707 3.38788 16.6121C3.12929 16.3534 3 16.0413 3 15.676V4.32403C3 3.95866 3.12929 3.64661 3.38788 3.38788C3.64661 3.12929 3.95866 3 4.32403 3H15.676C16.0413 3 16.3534 3.12929 16.6121 3.38788C16.8707 3.64661 17 3.95866 17 4.32403V15.676C17 16.0413 16.8707 16.3534 16.6121 16.6121C16.3534 16.8707 16.0413 17 15.676 17H4.32403ZM4.32403 15.9294H15.676C15.75 15.9294 15.8107 15.9057 15.8582 15.8582C15.9057 15.8107 15.9294 15.75 15.9294 15.676V4.32403C15.9294 4.25005 15.9057 4.18931 15.8582 4.14182C15.8107 4.09433 15.75 4.07059 15.676 4.07059H4.32403C4.25005 4.07059 4.18931 4.09433 4.14182 4.14182C4.09433 4.18931 4.07059 4.25005 4.07059 4.32403V15.676C4.07059 15.75 4.09433 15.8107 4.14182 15.8582C4.18931 15.9057 4.25005 15.9294 4.32403 15.9294Z" fill="#1C1B1F"/>
</g>
</svg>
