<svg width="20" height="20" viewBox="0 0 20 20" fill="none" xmlns="http://www.w3.org/2000/svg">
<mask id="mask0_205_16236" style="mask-type:alpha" maskUnits="userSpaceOnUse" x="0" y="0" width="20" height="20">
<rect width="20" height="20" fill="#D9D9D9"/>
</mask>
<g mask="url(#mask0_205_16236)">
<path d="M4.32403 17C3.95866 17 3.64661 16.8707 3.38788 16.6121C3.12929 16.3534 3 16.0413 3 15.676V4.32403C3 3.95866 3.12929 3.64661 3.38788 3.38788C3.64661 3.12929 3.95866 3 4.32403 3H15.676C16.0413 3 16.3534 3.12929 16.6121 3.38788C16.8707 3.64661 17 3.95866 17 4.32403V15.676C17 16.0413 16.8707 16.3534 16.6121 16.6121C16.3534 16.8707 16.0413 17 15.676 17H4.32403ZM4.32403 15.9294H15.676C15.75 15.9294 15.8107 15.9057 15.8582 15.8582C15.9057 15.8107 15.9294 15.75 15.9294 15.676V4.32403C15.9294 4.25005 15.9057 4.18931 15.8582 4.14182C15.8107 4.09433 15.75 4.07059 15.676 4.07059H4.32403C4.25005 4.07059 4.18931 4.09433 4.14182 4.14182C4.09433 4.18931 4.07059 4.25005 4.07059 4.32403V15.676C4.07059 15.75 4.09433 15.8107 4.14182 15.8582C4.18931 15.9057 4.25005 15.9294 4.32403 15.9294Z" fill="#1C1B1F"/>
<path d="M7.31487 15.8303C7.39092 15.9102 7.48375 15.9501 7.59338 15.9501C7.7029 15.9501 7.79473 15.9102 7.86888 15.8303C7.94303 15.7506 7.9801 15.6517 7.9801 15.5337L7.97954 4.51647C7.97954 4.3985 7.94147 4.29964 7.86532 4.21988C7.78928 4.14003 7.69644 4.1001 7.58682 4.1001C7.4773 4.1001 7.38547 4.14003 7.31132 4.21988C7.23717 4.29964 7.2001 4.3985 7.2001 4.51647L7.20066 15.5337C7.20066 15.6517 7.23873 15.7506 7.31487 15.8303Z" fill="#1C1B1F"/>
<path d="M12.1147 15.8303C12.1907 15.9102 12.2836 15.9501 12.3932 15.9501C12.5027 15.9501 12.5945 15.9102 12.6687 15.8303C12.7428 15.7506 12.7799 15.6517 12.7799 15.5337L12.7793 4.51647C12.7793 4.3985 12.7413 4.29964 12.6651 4.21988C12.5891 4.14003 12.4962 4.1001 12.3866 4.1001C12.2771 4.1001 12.1853 4.14003 12.1111 4.21988C12.037 4.29964 11.9999 4.3985 11.9999 4.51647L12.0005 15.5337C12.0005 15.6517 12.0385 15.7506 12.1147 15.8303Z" fill="#1C1B1F"/>
<path d="M4.19004 7.31445C4.11641 7.39031 4.07959 7.48293 4.07959 7.59228C4.07959 7.70154 4.11641 7.79316 4.19004 7.86713C4.26358 7.94109 4.35474 7.97808 4.46352 7.97808L15.5457 7.97752C15.6544 7.97752 15.7456 7.93954 15.8191 7.86358C15.8928 7.78772 15.9296 7.6951 15.9296 7.58575C15.9296 7.47649 15.8928 7.38487 15.8191 7.3109C15.7456 7.23694 15.6544 7.19995 15.5457 7.19995L4.46352 7.20051C4.35474 7.20051 4.26358 7.23849 4.19004 7.31445Z" fill="#1C1B1F"/>
<path d="M4.19004 12.1145C4.11641 12.1904 4.07959 12.283 4.07959 12.3923C4.07959 12.5016 4.11641 12.5932 4.19004 12.6672C4.26358 12.7411 4.35474 12.7781 4.46352 12.7781L15.5457 12.7776C15.6544 12.7776 15.7456 12.7396 15.8191 12.6636C15.8928 12.5878 15.9296 12.4952 15.9296 12.3858C15.9296 12.2765 15.8928 12.1849 15.8191 12.111C15.7456 12.037 15.6544 12 15.5457 12L4.46352 12.0006C4.35474 12.0006 4.26358 12.0385 4.19004 12.1145Z" fill="#1C1B1F"/>
</g>
</svg>
