<svg width="20" height="20" viewBox="0 0 20 20" fill="none" xmlns="http://www.w3.org/2000/svg">
<mask id="mask0_205_16237" style="mask-type:alpha" maskUnits="userSpaceOnUse" x="0" y="0" width="20" height="20">
<rect width="20" height="20" fill="#D9D9D9"/>
</mask>
<g mask="url(#mask0_205_16237)">
<path d="M4.32403 17C3.95866 17 3.64661 16.8707 3.38788 16.6121C3.12929 16.3534 3 16.0413 3 15.676V4.32403C3 3.95866 3.12929 3.64661 3.38788 3.38788C3.64661 3.12929 3.95866 3 4.32403 3H15.676C16.0413 3 16.3534 3.12929 16.6121 3.38788C16.8707 3.64661 17 3.95866 17 4.32403V15.676C17 16.0413 16.8707 16.3534 16.6121 16.6121C16.3534 16.8707 16.0413 17 15.676 17H4.32403ZM4.32403 15.9294H15.676C15.75 15.9294 15.8107 15.9057 15.8582 15.8582C15.9057 15.8107 15.9294 15.75 15.9294 15.676V4.32403C15.9294 4.25005 15.9057 4.18931 15.8582 4.14182C15.8107 4.09433 15.75 4.07059 15.676 4.07059H4.32403C4.25005 4.07059 4.18931 4.09433 4.14182 4.14182C4.09433 4.18931 4.07059 4.25005 4.07059 4.32403V15.676C4.07059 15.75 4.09433 15.8107 4.14182 15.8582C4.18931 15.9057 4.25005 15.9294 4.32403 15.9294Z" fill="#1C1B1F"/>
<path d="M6.31487 15.8303C6.39092 15.9102 6.48375 15.9501 6.59338 15.9501C6.7029 15.9501 6.79473 15.9102 6.86888 15.8303C6.94303 15.7506 6.9801 15.6517 6.9801 15.5337L6.97954 4.51647C6.97954 4.3985 6.94147 4.29964 6.86532 4.21988C6.78928 4.14003 6.69644 4.1001 6.58682 4.1001C6.4773 4.1001 6.38547 4.14003 6.31132 4.21988C6.23717 4.29964 6.2001 4.3985 6.2001 4.51647L6.20066 15.5337C6.20066 15.6517 6.23873 15.7506 6.31487 15.8303Z" fill="#1C1B1F"/>
<path d="M13.1147 15.8303C13.1907 15.9102 13.2836 15.9501 13.3932 15.9501C13.5027 15.9501 13.5945 15.9102 13.6687 15.8303C13.7428 15.7506 13.7799 15.6517 13.7799 15.5337L13.7793 4.51647C13.7793 4.3985 13.7413 4.29964 13.6651 4.21988C13.5891 4.14003 13.4962 4.1001 13.3866 4.1001C13.2771 4.1001 13.1853 4.14003 13.1111 4.21988C13.037 4.29964 12.9999 4.3985 12.9999 4.51647L13.0005 15.5337C13.0005 15.6517 13.0385 15.7506 13.1147 15.8303Z" fill="#1C1B1F"/>
<path d="M4.19004 6.31445C4.11641 6.39031 4.07959 6.48293 4.07959 6.59228C4.07959 6.70154 4.11641 6.79316 4.19004 6.86713C4.26358 6.94109 4.35474 6.97808 4.46352 6.97808L15.5457 6.97752C15.6544 6.97752 15.7456 6.93954 15.8191 6.86358C15.8928 6.78772 15.9296 6.6951 15.9296 6.58575C15.9296 6.47649 15.8928 6.38487 15.8191 6.3109C15.7456 6.23694 15.6544 6.19995 15.5457 6.19995L4.46352 6.20051C4.35474 6.20051 4.26358 6.23849 4.19004 6.31445Z" fill="#1C1B1F"/>
<path d="M4.19004 13.1145C4.11641 13.1904 4.07959 13.283 4.07959 13.3923C4.07959 13.5016 4.11641 13.5932 4.19004 13.6672C4.26358 13.7411 4.35474 13.7781 4.46352 13.7781L15.5457 13.7776C15.6544 13.7776 15.7456 13.7396 15.8191 13.6636C15.8928 13.5878 15.9296 13.4952 15.9296 13.3858C15.9296 13.2765 15.8928 13.1849 15.8191 13.111C15.7456 13.037 15.6544 13 15.5457 13L4.46352 13.0006C4.35474 13.0006 4.26358 13.0385 4.19004 13.1145Z" fill="#1C1B1F"/>
</g>
</svg>
