<svg width="20" height="20" viewBox="0 0 20 20" fill="none" xmlns="http://www.w3.org/2000/svg">
<mask id="mask0_103_15052" style="mask-type:alpha" maskUnits="userSpaceOnUse" x="0" y="0" width="20" height="20">
<rect width="20" height="20" fill="#D9D9D9"/>
</mask>
<g mask="url(#mask0_103_15052)">
<path d="M14.4196 16.5033C13.6739 16.5033 13.0436 16.2459 12.5286 15.731C12.0137 15.216 11.7563 14.5857 11.7563 13.84C11.7563 13.0942 12.0137 12.4638 12.5286 11.9489C13.0436 11.4339 13.6739 11.1764 14.4196 11.1764C15.1655 11.1764 15.7958 11.4339 16.3107 11.9489C16.8257 12.4638 17.0832 13.0942 17.0832 13.84C17.0832 14.5857 16.8257 15.216 16.3107 15.731C15.7958 16.2459 15.1655 16.5033 14.4196 16.5033ZM14.4215 15.42C14.8583 15.42 15.2306 15.2656 15.5384 14.9569C15.846 14.648 15.9998 14.2751 15.9998 13.8381C15.9998 13.4013 15.8454 13.029 15.5365 12.7212C15.2278 12.4136 14.8549 12.2598 14.418 12.2598C13.981 12.2598 13.6087 12.4142 13.3011 12.7231C12.9934 13.0319 12.8396 13.4047 12.8396 13.8417C12.8396 14.2786 12.994 14.6509 13.3028 14.9585C13.6116 15.2662 13.9846 15.42 14.4215 15.42ZM9.55442 14.3817H4.45817C4.3047 14.3817 4.17609 14.3301 4.07234 14.2271C3.96845 14.124 3.9165 13.9963 3.9165 13.8439C3.9165 13.6917 3.96845 13.5627 4.07234 13.4569C4.17609 13.3512 4.3047 13.2983 4.45817 13.2983H9.55442C9.70789 13.2983 9.8365 13.3498 9.94025 13.4529C10.0441 13.5558 10.0961 13.6835 10.0961 13.8358C10.0961 13.9882 10.0441 14.1172 9.94025 14.2229C9.8365 14.3287 9.70789 14.3817 9.55442 14.3817ZM5.58005 8.82395C4.83421 8.82395 4.20387 8.56645 3.689 8.05145C3.174 7.53659 2.9165 6.90624 2.9165 6.1604C2.9165 5.41471 3.174 4.78436 3.689 4.26936C4.20387 3.7545 4.83421 3.49707 5.58005 3.49707C6.32574 3.49707 6.95609 3.7545 7.47109 4.26936C7.98595 4.78436 8.24338 5.41471 8.24338 6.1604C8.24338 6.90624 7.98595 7.53659 7.47109 8.05145C6.95609 8.56645 6.32574 8.82395 5.58005 8.82395ZM5.58171 7.74061C6.01866 7.74061 6.39095 7.58617 6.69859 7.27728C7.00623 6.96853 7.16005 6.59568 7.16005 6.15874C7.16005 5.72179 7.00567 5.3495 6.69692 5.04186C6.38803 4.73422 6.01512 4.5804 5.57817 4.5804C5.14137 4.5804 4.76907 4.73478 4.4613 5.04353C4.15366 5.35242 3.99984 5.72534 3.99984 6.16228C3.99984 6.59909 4.15428 6.97138 4.46317 7.27915C4.77192 7.58679 5.14477 7.74061 5.58171 7.74061ZM15.5415 6.70207H10.4453C10.2918 6.70207 10.1632 6.65054 10.0594 6.54749C9.95553 6.44457 9.90359 6.31693 9.90359 6.16457C9.90359 6.01221 9.95553 5.88318 10.0594 5.77749C10.1632 5.67165 10.2918 5.61874 10.4453 5.61874H15.5415C15.695 5.61874 15.8236 5.67027 15.9273 5.77332C16.0312 5.87638 16.0832 6.00408 16.0832 6.15645C16.0832 6.30867 16.0312 6.4377 15.9273 6.54353C15.8236 6.64922 15.695 6.70207 15.5415 6.70207Z" fill="#1C1B1F"/>
</g>
</svg>
