<svg width="20" height="20" viewBox="0 0 20 20" fill="none" xmlns="http://www.w3.org/2000/svg">
<mask id="mask0_2615_3647" style="mask-type:alpha" maskUnits="userSpaceOnUse" x="0" y="0" width="20" height="20">
<rect width="20" height="20" fill="#D9D9D9"/>
</mask>
<g mask="url(#mask0_2615_3647)">
<path d="M10.0047 17.5866C8.96527 17.5866 7.98464 17.3892 7.06284 16.9945C6.14103 16.5998 5.33423 16.0567 4.64242 15.3651C3.95062 14.6736 3.40721 13.8671 3.01221 12.9458C2.61735 12.0244 2.41992 11.044 2.41992 10.0047C2.41992 8.95138 2.61728 7.96728 3.01201 7.05242C3.40673 6.13756 3.94985 5.33423 4.64138 4.64242C5.33291 3.95062 6.13937 3.40721 7.06076 3.01221C7.98214 2.61735 8.96249 2.41992 10.0018 2.41992C11.0551 2.41992 12.0392 2.61728 12.9541 3.012C13.8689 3.40673 14.6723 3.94985 15.3641 4.64138C16.0559 5.33291 16.5993 6.13589 16.9943 7.05034C17.3892 7.96478 17.5866 8.9486 17.5866 10.0018C17.5866 11.0412 17.3892 12.0219 16.9945 12.9437C16.5998 13.8655 16.0567 14.6723 15.3651 15.3641C14.6736 16.0559 13.8706 16.5993 12.9562 16.9943C12.0417 17.3892 11.0579 17.5866 10.0047 17.5866ZM10.0033 16.5033C11.8088 16.5033 13.3435 15.8713 14.6074 14.6074C15.8713 13.3435 16.5033 11.8088 16.5033 10.0033C16.5033 8.1977 15.8713 6.66298 14.6074 5.39909C13.3435 4.1352 11.8088 3.50326 10.0033 3.50326C8.1977 3.50326 6.66298 4.1352 5.39909 5.39909C4.1352 6.66298 3.50326 8.1977 3.50326 10.0033C3.50326 11.8088 4.1352 13.3435 5.39909 14.6074C6.66298 15.8713 8.1977 16.5033 10.0033 16.5033ZM9.98242 15.343C10.1341 15.343 10.2633 15.2965 10.3701 15.2035C10.4771 15.1105 10.5305 14.9883 10.5305 14.8366V14.396C11.163 14.3222 11.7101 14.0585 12.1716 13.6049C12.6331 13.1515 12.8639 12.6106 12.8639 11.9824C12.8639 11.3574 12.6571 10.8344 12.2437 10.4135C11.8302 9.99263 11.2485 9.65027 10.4985 9.38638C9.66402 9.08721 9.11701 8.82117 8.85742 8.58826C8.59784 8.35534 8.46805 8.04923 8.46805 7.66992C8.46805 7.36006 8.61173 7.09617 8.89909 6.87826C9.18645 6.66034 9.54756 6.55138 9.98242 6.55138C10.2784 6.55138 10.5426 6.60235 10.7749 6.7043C11.0073 6.80638 11.2036 6.94714 11.3639 7.12659C11.4654 7.25062 11.5829 7.33367 11.7164 7.37576C11.85 7.41798 11.9764 7.41242 12.0958 7.35909C12.2309 7.29492 12.3214 7.20277 12.3672 7.08263C12.413 6.96235 12.398 6.84457 12.3222 6.7293C12.1139 6.41513 11.8521 6.16749 11.5368 5.98638C11.2217 5.80527 10.8862 5.67999 10.5305 5.61055V5.16992C10.5305 5.01826 10.4805 4.89596 10.3805 4.80305C10.2807 4.70999 10.1549 4.66346 10.0033 4.66346C9.85159 4.66346 9.72583 4.70999 9.62596 4.80305C9.52596 4.89596 9.47596 5.01826 9.47596 5.16992V5.61055C8.83499 5.74735 8.33103 6.00777 7.96409 6.3918C7.597 6.77596 7.41346 7.20895 7.41346 7.69076C7.41346 8.26131 7.61353 8.75117 8.01367 9.16034C8.41381 9.56951 9.11173 9.96263 10.1074 10.3397C10.8126 10.609 11.2821 10.8623 11.5162 11.0995C11.7501 11.3366 11.867 11.6309 11.867 11.9824C11.867 12.4077 11.6958 12.756 11.3535 13.0272C11.011 13.2986 10.6164 13.4343 10.1699 13.4343C9.77409 13.4343 9.41284 13.332 9.08617 13.1274C8.75951 12.9228 8.50214 12.6475 8.31409 12.3014C8.24367 12.1828 8.14034 12.0981 8.00409 12.0474C7.86784 11.9966 7.73812 11.9982 7.61492 12.0522C7.46714 12.1062 7.36937 12.2019 7.32159 12.3391C7.27395 12.4763 7.28374 12.6069 7.35096 12.7308C7.58388 13.156 7.88437 13.5086 8.25242 13.7885C8.62048 14.0685 9.02138 14.264 9.45513 14.3751V14.8366C9.45513 14.9883 9.50513 15.1105 9.60513 15.2035C9.70499 15.2965 9.83076 15.343 9.98242 15.343Z" fill="#1C1B1F"/>
</g>
</svg>
