<svg width="20" height="20" viewBox="0 0 20 20" fill="none" xmlns="http://www.w3.org/2000/svg">
<mask id="mask0_21_8067" style="mask-type:alpha" maskUnits="userSpaceOnUse" x="0" y="0" width="20" height="20">
<rect width="20" height="20" fill="#D9D9D9"/>
</mask>
<g mask="url(#mask0_21_8067)">
<path d="M6.90249 16.1794H14.1092C14.1679 16.1794 14.2187 16.1633 14.2615 16.1313C14.3042 16.0993 14.3336 16.0566 14.3496 16.0031L16.8881 8.665C16.9041 8.61167 16.9041 8.55694 16.8881 8.50083C16.872 8.44472 16.8399 8.40063 16.7919 8.36854L10.6396 4.13125C10.5969 4.09917 10.5489 4.08312 10.4954 4.08312C10.4419 4.08312 10.3939 4.09917 10.3512 4.13125L4.19895 8.36208C4.1509 8.39417 4.11881 8.43826 4.1027 8.49437C4.08673 8.55035 4.08673 8.60507 4.1027 8.65854L6.66208 16.0031C6.67805 16.0566 6.70742 16.0993 6.7502 16.1313C6.79298 16.1633 6.84374 16.1794 6.90249 16.1794ZM6.88166 17.2627C6.59513 17.2627 6.33784 17.1831 6.10978 17.024C5.88187 16.8648 5.7177 16.6484 5.61729 16.3748L3.07874 9.01437C2.97833 8.73229 2.97395 8.44701 3.06562 8.15854C3.15728 7.87007 3.33048 7.64035 3.5852 7.46937L9.73749 3.24667C9.96958 3.08222 10.221 3 10.4917 3C10.7624 3 11.0162 3.08222 11.2533 3.24667L17.4056 7.46937C17.6603 7.64035 17.8335 7.87007 17.9252 8.15854C18.0169 8.44701 18.0125 8.73229 17.9121 9.01437L15.3735 16.3748C15.2731 16.6484 15.109 16.8648 14.881 17.024C14.653 17.1831 14.3957 17.2627 14.1092 17.2627H6.88166Z" fill="#1C1B1F"/>
</g>
</svg>
