<svg width="20" height="20" viewBox="0 0 20 20" fill="none" xmlns="http://www.w3.org/2000/svg">
<g clip-path="url(#clip0_91_16414)">
<mask id="mask0_91_16414" style="mask-type:alpha" maskUnits="userSpaceOnUse" x="0" y="0" width="20" height="20">
<rect width="20" height="20" fill="#D9D9D9"/>
</mask>
<g mask="url(#mask0_91_16414)">
<path d="M3 7.66667L3 13C3 14.1067 3.89333 15 5 15L15.6667 15C16.7733 15 17.6667 14.1067 17.6667 13L17.6667 7.66667C17.6667 6.56 16.7733 5.66667 15.6667 5.66667L5 5.66667C3.89333 5.66667 3 6.56 3 7.66667ZM14.3333 7L14.3333 13.6667L5 13.6667L5 7L14.3333 7ZM16.3333 9L16.3333 11.6667L15.6667 11.6667L15.6667 9L16.3333 9Z" fill="#1C1B1F"/>
</g>
</g>
<defs>
<clipPath id="clip0_91_16414">
<rect width="20" height="20" fill="white" transform="translate(0 20) rotate(-90)"/>
</clipPath>
</defs>
</svg>
