<svg width="20" height="20" viewBox="0 0 20 20" fill="none" xmlns="http://www.w3.org/2000/svg">
<mask id="mask0_15_6635" style="mask-type:alpha" maskUnits="userSpaceOnUse" x="0" y="0" width="20" height="20">
<rect width="20" height="20" fill="#D9D9D9"/>
</mask>
<g mask="url(#mask0_15_6635)">
<path d="M8.66005 6.83963V3.4165H15.2434C15.6227 3.4165 15.9408 3.54498 16.1978 3.80192C16.4547 4.05887 16.5832 4.37699 16.5832 4.7563V6.83963H8.66005ZM4.7563 16.5832C4.37699 16.5832 4.05887 16.4547 3.80192 16.1978C3.54498 15.9408 3.4165 15.6227 3.4165 15.2434V8.66005H6.83963V16.5832H4.7563ZM3.4165 6.83963V4.7563C3.4165 4.37699 3.54498 4.05887 3.80192 3.80192C4.05887 3.54498 4.37699 3.4165 4.7563 3.4165H6.83963V6.83963H3.4165ZM10.1536 15.4132L11.1809 16.4325C11.2963 16.548 11.3553 16.677 11.358 16.8196C11.3606 16.9621 11.3043 17.0911 11.189 17.2065C11.0682 17.3272 10.9391 17.3875 10.8019 17.3875C10.6646 17.3875 10.5355 17.3272 10.4148 17.2065L8.54463 15.3363C8.40796 15.1996 8.33963 15.0448 8.33963 14.8717C8.33963 14.6985 8.40796 14.5436 8.54463 14.4069L10.4148 12.5367C10.5303 12.4213 10.6593 12.3636 10.8019 12.3636C10.9446 12.3636 11.0736 12.4213 11.189 12.5367C11.3097 12.6574 11.3687 12.7878 11.3661 12.9278C11.3633 13.0676 11.3016 13.1953 11.1809 13.3107L10.1536 14.33H12.6217C13.0971 14.33 13.5007 14.1641 13.8323 13.8323C14.1641 13.5007 14.33 13.0971 14.33 12.6217V10.1696L13.3107 11.189C13.1953 11.3043 13.0676 11.3633 12.9278 11.3661C12.7878 11.3687 12.6574 11.3097 12.5367 11.189C12.416 11.0682 12.3557 10.9391 12.3557 10.8019C12.3557 10.6646 12.416 10.5355 12.5367 10.4148L14.4069 8.54463C14.5436 8.40796 14.6985 8.33963 14.8717 8.33963C15.0448 8.33963 15.1996 8.40796 15.3363 8.54463L17.2065 10.4148C17.3219 10.5303 17.3809 10.6545 17.3836 10.7875C17.3862 10.9205 17.3272 11.0473 17.2065 11.1682C17.0858 11.2889 16.9569 11.3492 16.8196 11.3492C16.6823 11.3492 16.5532 11.2889 16.4325 11.1682L15.4132 10.1696V12.6217C15.4132 13.4016 15.1429 14.0618 14.6023 14.6023C14.0618 15.1429 13.4016 15.4132 12.6217 15.4132H10.1536Z" fill="#1C1B1F"/>
</g>
</svg>
