<svg width="24" height="24" viewBox="0 0 24 24" fill="none" xmlns="http://www.w3.org/2000/svg">
<g clip-path="url(#clip0_617_28314)">
<g clip-path="url(#clip1_617_28314)">
<rect y="-4" width="24" height="32" rx="4" fill="#E4E4E4"/>
<mask id="mask0_617_28314" style="mask-type:alpha" maskUnits="userSpaceOnUse" x="2" y="2" width="20" height="20">
<rect x="2" y="2" width="20" height="20" fill="#D9D9D9"/>
</mask>
<g mask="url(#mask0_617_28314)">
<path d="M13.0355 16.6955C13.1888 16.6955 13.3184 16.6441 13.4242 16.5411C13.5302 16.4381 13.5832 16.3104 13.5832 16.158C13.5832 16.0058 13.5313 15.8768 13.4275 15.7709C13.3238 15.6652 13.1953 15.6124 13.0421 15.6124H5.96421C5.81088 15.6124 5.6813 15.6639 5.57546 15.7668C5.46949 15.8698 5.4165 15.9975 5.4165 16.1499C5.4165 16.3021 5.46838 16.4311 5.57213 16.537C5.67588 16.6427 5.80435 16.6955 5.95755 16.6955H13.0355ZM13.0355 12.5418C13.1888 12.5418 13.3184 12.4902 13.4242 12.3872C13.5302 12.2841 13.5832 12.1565 13.5832 12.0043C13.5832 11.8519 13.5313 11.7229 13.4275 11.6172C13.3238 11.5114 13.1953 11.4584 13.0421 11.4584H5.96421C5.81088 11.4584 5.6813 11.51 5.57546 11.613C5.46949 11.7161 5.4165 11.8437 5.4165 11.9959C5.4165 12.1483 5.46838 12.2773 5.57213 12.383C5.67588 12.4889 5.80435 12.5418 5.95755 12.5418H13.0355ZM18.0415 8.38781C18.195 8.38781 18.3236 8.33635 18.4273 8.23344C18.5312 8.13038 18.5832 8.00267 18.5832 7.85031C18.5832 7.69809 18.5312 7.56906 18.4273 7.46323C18.3236 7.35753 18.195 7.30469 18.0415 7.30469H5.95817C5.8047 7.30469 5.67609 7.35615 5.57234 7.45906C5.46845 7.56212 5.4165 7.68983 5.4165 7.84219C5.4165 7.99441 5.46845 8.12344 5.57234 8.22927C5.67609 8.33497 5.8047 8.38781 5.95817 8.38781H18.0415Z" fill="#1C1B1F"/>
</g>
</g>
</g>
<defs>
<clipPath id="clip0_617_28314">
<path d="M0 0H24V24H0V0Z" fill="white"/>
</clipPath>
<clipPath id="clip1_617_28314">
<rect y="-4" width="24" height="32" rx="4" fill="white"/>
</clipPath>
</defs>
</svg>
