<svg width="20" height="20" viewBox="0 0 20 20" fill="none" xmlns="http://www.w3.org/2000/svg">
<mask id="mask0_362_29911" style="mask-type:alpha" maskUnits="userSpaceOnUse" x="0" y="0" width="20" height="20">
<rect width="20" height="20" fill="#D9D9D9"/>
</mask>
<g mask="url(#mask0_362_29911)">
<path d="M4.42296 17.0832C4.00866 17.0832 3.654 16.9357 3.359 16.6407C3.064 16.3457 2.9165 15.991 2.9165 15.5767V4.42296C2.9165 4.00866 3.064 3.654 3.359 3.359C3.654 3.064 4.00866 2.9165 4.42296 2.9165H15.5767C15.991 2.9165 16.3457 3.064 16.6407 3.359C16.9357 3.654 17.0832 4.00866 17.0832 4.42296V15.5767C17.0832 15.991 16.9357 16.3457 16.6407 16.6407C16.3457 16.9357 15.991 17.0832 15.5767 17.0832H4.42296ZM4.42296 15.8332H15.5767C15.6516 15.8332 15.713 15.8091 15.7611 15.7611C15.8091 15.713 15.8332 15.6516 15.8332 15.5767V5.83317H4.1665V15.5767C4.1665 15.6516 4.19053 15.713 4.23859 15.7611C4.28664 15.8091 4.3481 15.8332 4.42296 15.8332ZM9.99984 13.7498C8.97845 13.7498 8.06262 13.4796 7.25234 12.939C6.44192 12.3983 5.84331 11.6964 5.4565 10.8332C5.84331 9.96998 6.44192 9.26803 7.25234 8.72734C8.06262 8.18678 8.97845 7.9165 9.99984 7.9165C11.0212 7.9165 11.9371 8.18678 12.7473 8.72734C13.5578 9.26803 14.1564 9.96998 14.5432 10.8332C14.1564 11.6964 13.5578 12.3983 12.7473 12.939C11.9371 13.4796 11.0212 13.7498 9.99984 13.7498ZM9.99984 12.7563C10.7189 12.7563 11.3805 12.5869 11.9846 12.2482C12.5888 11.9096 13.0794 11.4379 13.4565 10.8332C13.0794 10.2284 12.5888 9.75678 11.9846 9.41817C11.3805 9.07942 10.7189 8.91005 9.99984 8.91005C9.28081 8.91005 8.61921 9.07942 8.01505 9.41817C7.41088 9.75678 6.92025 10.2284 6.54317 10.8332C6.92025 11.4379 7.41088 11.9096 8.01505 12.2482C8.61921 12.5869 9.28081 12.7563 9.99984 12.7563ZM10.0017 11.923C10.3049 11.923 10.562 11.8168 10.773 11.6044C10.9841 11.3922 11.0896 11.1345 11.0896 10.8313C11.0896 10.5281 10.9834 10.271 10.7711 10.06C10.5589 9.84894 10.3012 9.74338 9.99796 9.74338C9.69477 9.74338 9.43769 9.84956 9.22671 10.0619C9.0156 10.2741 8.91005 10.5319 8.91005 10.835C8.91005 11.1382 9.01623 11.3953 9.22859 11.6063C9.44081 11.8174 9.69852 11.923 10.0017 11.923Z" fill="#1C1B1F"/>
</g>
</svg>
