<svg width="20" height="20" viewBox="0 0 20 20" fill="none" xmlns="http://www.w3.org/2000/svg">
<path d="M4.1665 4.16683C4.1665 4.62516 4.5415 5.00016 4.99984 5.00016H14.9998C15.4582 5.00016 15.8332 4.62516 15.8332 4.16683C15.8332 3.7085 15.4582 3.3335 14.9998 3.3335H4.99984C4.5415 3.3335 4.1665 3.7085 4.1665 4.16683ZM6.17484 11.6668H7.49984V15.8335C7.49984 16.2918 7.87484 16.6668 8.33317 16.6668H11.6665C12.1248 16.6668 12.4998 16.2918 12.4998 15.8335V11.6668H13.8248C14.5665 11.6668 14.9415 10.7668 14.4165 10.2418L10.5915 6.41683C10.2665 6.09183 9.7415 6.09183 9.4165 6.41683L5.5915 10.2418C5.0665 10.7668 5.43317 11.6668 6.17484 11.6668Z" fill="black"/>
</svg>
