<svg width="20" height="20" viewBox="0 0 20 20" fill="none" xmlns="http://www.w3.org/2000/svg">
<mask id="mask0_543_26960" style="mask-type:alpha" maskUnits="userSpaceOnUse" x="0" y="0" width="20" height="20">
<rect width="20" height="20" fill="#D9D9D9"/>
</mask>
<g mask="url(#mask0_543_26960)">
<path d="M4.52745 4.42676C4.6862 4.42676 4.81724 4.48808 4.92057 4.61072C5.02404 4.73335 5.08293 4.87877 5.09724 5.04697C5.15474 6.36836 5.45141 7.60731 5.98724 8.76384C6.52307 9.92051 7.2337 10.9386 8.11911 11.818C9.00453 12.6976 10.0323 13.4102 11.2024 13.9559C12.3726 14.5016 13.6217 14.8167 14.9497 14.9011C15.1217 14.9182 15.267 14.9762 15.3856 15.0751C15.5042 15.1738 15.5635 15.3015 15.5635 15.4582C15.5635 15.6149 15.5036 15.746 15.3839 15.8516C15.2643 15.9572 15.1277 16.0065 14.9741 15.9993C13.4854 15.9422 12.0859 15.6179 10.7758 15.0263C9.46564 14.4348 8.31745 13.6475 7.3312 12.6643C6.34509 11.6811 5.55849 10.533 4.97141 9.22009C4.38432 7.90704 4.06085 6.50585 4.00099 5.01655C3.99252 4.8521 4.03849 4.71266 4.13891 4.59822C4.23932 4.48391 4.36884 4.42676 4.52745 4.42676Z" fill="#1C1B1F"/>
</g>
</svg>
