<svg width="20" height="20" viewBox="0 0 20 20" fill="none" xmlns="http://www.w3.org/2000/svg">
<mask id="mask0_543_26959" style="mask-type:alpha" maskUnits="userSpaceOnUse" x="0" y="0" width="20" height="20">
<rect width="20" height="20" fill="#D9D9D9"/>
</mask>
<g mask="url(#mask0_543_26959)">
<path d="M15.036 16C14.8773 16 14.7463 15.9386 14.6429 15.816C14.5394 15.6934 14.4806 15.5479 14.4663 15.3797C14.4088 14.0584 14.1121 12.8194 13.5763 11.6629C13.0404 10.5062 12.3298 9.48814 11.4444 8.6087C10.559 7.72912 9.53118 7.01648 8.36104 6.47078C7.1909 5.92509 5.94181 5.61002 4.61375 5.52557C4.44181 5.50849 4.29653 5.45051 4.17792 5.35162C4.05931 5.25287 4 5.12516 4 4.96849C4 4.81183 4.05986 4.68071 4.17958 4.57516C4.29917 4.46946 4.43576 4.42023 4.58937 4.42745C6.07812 4.48453 7.47757 4.80884 8.78771 5.40037C10.0978 5.99189 11.246 6.77926 12.2323 7.76245C13.2184 8.74564 14.005 9.8937 14.5921 11.2066C15.1792 12.5197 15.5026 13.9209 15.5625 15.4102C15.571 15.5746 15.525 15.714 15.4246 15.8285C15.3242 15.9428 15.1947 16 15.036 16Z" fill="#1C1B1F"/>
</g>
</svg>
