<svg width="20" height="20" viewBox="0 0 20 20" fill="none" xmlns="http://www.w3.org/2000/svg">
<mask id="mask0_543_26962" style="mask-type:alpha" maskUnits="userSpaceOnUse" x="0" y="0" width="20" height="20">
<rect width="20" height="20" fill="#D9D9D9"/>
</mask>
<g mask="url(#mask0_543_26962)">
<path d="M4.52745 16C4.6862 16 4.81724 15.9386 4.92057 15.816C5.02404 15.6934 5.08293 15.5479 5.09724 15.3797C5.15474 14.0584 5.45141 12.8194 5.98724 11.6629C6.52307 10.5062 7.2337 9.48814 8.11911 8.6087C9.00453 7.72912 10.0323 7.01648 11.2024 6.47078C12.3726 5.92509 13.6217 5.61002 14.9497 5.52557C15.1217 5.50849 15.267 5.45051 15.3856 5.35162C15.5042 5.25287 15.5635 5.12516 15.5635 4.96849C15.5635 4.81183 15.5036 4.68071 15.3839 4.57516C15.2643 4.46946 15.1277 4.42023 14.9741 4.42745C13.4854 4.48453 12.0859 4.80884 10.7758 5.40037C9.46564 5.99189 8.31745 6.77926 7.3312 7.76245C6.34509 8.74564 5.55849 9.8937 4.97141 11.2066C4.38432 12.5197 4.06085 13.9209 4.00099 15.4102C3.99252 15.5746 4.03849 15.714 4.13891 15.8285C4.23932 15.9428 4.36884 16 4.52745 16Z" fill="#1C1B1F"/>
</g>
</svg>
