<svg width="20" height="20" viewBox="0 0 20 20" fill="none" xmlns="http://www.w3.org/2000/svg">
<mask id="mask0_543_26961" style="mask-type:alpha" maskUnits="userSpaceOnUse" x="0" y="0" width="20" height="20">
<rect width="20" height="20" fill="#D9D9D9"/>
</mask>
<g mask="url(#mask0_543_26961)">
<path d="M15.036 4.42681C14.8773 4.42681 14.7463 4.48813 14.6429 4.61077C14.5394 4.7334 14.4806 4.87882 14.4663 5.04702C14.4088 6.36841 14.1121 7.60736 13.5763 8.76389C13.0404 9.92056 12.3298 10.9386 11.4444 11.8181C10.559 12.6976 9.53118 13.4103 8.36104 13.956C7.1909 14.5017 5.94181 14.8167 4.61375 14.9012C4.44181 14.9183 4.29653 14.9763 4.17792 15.0751C4.05931 15.1739 4 15.3016 4 15.4583C4 15.6149 4.05986 15.746 4.17958 15.8516C4.29917 15.9573 4.43576 16.0065 4.58937 15.9993C6.07812 15.9422 7.47757 15.6179 8.78771 15.0264C10.0978 14.4349 11.246 13.6475 12.2323 12.6643C13.2184 11.6811 14.005 10.5331 14.5921 9.22014C15.1792 7.90708 15.5026 6.5059 15.5625 5.0166C15.571 4.85215 15.525 4.71271 15.4246 4.59826C15.3242 4.48396 15.1947 4.42681 15.036 4.42681Z" fill="#1C1B1F"/>
</g>
</svg>
