<svg width="20" height="20" viewBox="0 0 20 20" fill="none" xmlns="http://www.w3.org/2000/svg">
<mask id="mask0_2622_4660" style="mask-type:alpha" maskUnits="userSpaceOnUse" x="0" y="0" width="20" height="20">
<rect width="20" height="20" fill="#D9D9D9"/>
</mask>
<g mask="url(#mask0_2622_4660)">
<path d="M13.9352 9.38134H8.20932C7.52015 9.38134 6.94189 9.63238 6.47452 10.1345C6.00702 10.6367 5.77327 11.2404 5.77327 11.9455C5.77327 12.6506 6.00702 13.2556 6.47452 13.7603C6.94189 14.2652 7.52015 14.5176 8.20932 14.5176H13.7316C13.8812 14.5176 14.0089 14.5705 14.1147 14.6763C14.2204 14.782 14.2733 14.9097 14.2733 15.0593C14.2733 15.2088 14.2204 15.3365 14.1147 15.4422C14.0089 15.548 13.8812 15.6009 13.7316 15.6009H8.20932C7.2264 15.6009 6.39411 15.2414 5.71244 14.5224C5.03077 13.8034 4.68994 12.9444 4.68994 11.9455C4.68994 10.9466 5.03077 10.089 5.71244 9.37259C6.39411 8.6562 7.2264 8.29801 8.20932 8.29801H13.9352L12.222 6.58488C12.1066 6.46947 12.0476 6.34183 12.0449 6.20197C12.0423 6.06197 12.1013 5.93162 12.222 5.81092C12.3427 5.69023 12.4717 5.62988 12.6091 5.62988C12.7463 5.62988 12.8753 5.69023 12.996 5.81092L15.5602 8.37488C15.6243 8.43905 15.6724 8.51092 15.7043 8.59051C15.7364 8.67009 15.7524 8.75315 15.7524 8.83967C15.7524 8.9262 15.7364 9.00926 15.7043 9.08884C15.6724 9.16842 15.6243 9.2403 15.5602 9.30447L12.996 11.8686C12.8807 11.9839 12.7565 12.0395 12.6235 12.0353C12.4904 12.031 12.3636 11.9685 12.2429 11.8478C12.1222 11.727 12.0618 11.5979 12.0618 11.4607C12.0618 11.3235 12.1222 11.1945 12.2429 11.0736L13.9352 9.38134Z" fill="#1C1B1F"/>
</g>
</svg>
