<svg width="20" height="20" viewBox="0 0 20 20" fill="none" xmlns="http://www.w3.org/2000/svg">
<mask id="mask0_15_6451" style="mask-type:alpha" maskUnits="userSpaceOnUse" x="0" y="0" width="20" height="20">
<rect width="20" height="20" fill="#D9D9D9"/>
</mask>
<g mask="url(#mask0_15_6451)">
<path d="M13.7605 11.239C13.7618 11.3872 13.8163 11.5152 13.924 11.6229C14.0316 11.7305 14.1586 11.7841 14.305 11.7835C14.4512 11.783 14.5786 11.7285 14.6871 11.62L15.5415 10.7655L16.3959 11.62C16.5044 11.7285 16.6328 11.782 16.781 11.7805C16.9292 11.7793 17.0572 11.7248 17.1649 11.617C17.2725 11.5094 17.3261 11.3824 17.3255 11.2361C17.325 11.0898 17.2705 10.9625 17.162 10.8539L16.3075 9.99951L17.162 9.14509C17.2705 9.03657 17.324 8.90821 17.3225 8.76001C17.3213 8.61181 17.2667 8.48385 17.159 8.37611C17.0514 8.26848 16.9244 8.21495 16.7781 8.21554C16.6318 8.21603 16.5044 8.27054 16.3959 8.37906L15.5415 9.23348L14.6871 8.37906C14.5786 8.27054 14.4502 8.21696 14.3019 8.21834C14.1538 8.21971 14.0258 8.27427 13.9181 8.38201C13.8105 8.48964 13.7569 8.61658 13.7574 8.76281C13.758 8.90914 13.8125 9.03657 13.9211 9.14509L14.7755 9.99951L13.9211 10.8539C13.8125 10.9625 13.759 11.0908 13.7605 11.239Z" fill="#1C1B1F"/>
<path d="M8.98213 4.49984H4.2563C4.18143 4.49984 4.11998 4.52387 4.07192 4.57192C4.02387 4.61998 3.99984 4.68143 3.99984 4.7563V15.2434C3.99984 15.3182 4.02387 15.3797 4.07192 15.4278C4.11998 15.4758 4.18143 15.4998 4.2563 15.4998H8.98213V4.49984ZM4.2563 16.5832C3.88782 16.5832 3.57241 16.452 3.31005 16.1896C3.04768 15.9273 2.9165 15.6119 2.9165 15.2434V4.7563C2.9165 4.38782 3.04768 4.07241 3.31005 3.81005C3.57241 3.54768 3.88782 3.4165 4.2563 3.4165H14.7434C15.1119 3.4165 15.4273 3.54734 15.6896 3.809C15.952 4.07067 16.0832 4.38518 16.0832 4.75255V5.50088C16.0832 5.6538 16.0316 5.78317 15.9286 5.889C15.8255 5.99498 15.6979 6.04796 15.5457 6.04796C15.3933 6.04796 15.2643 5.99602 15.1586 5.89213C15.0528 5.78838 14.9998 5.65977 14.9998 5.5063V4.7563C14.9998 4.68143 14.9758 4.61998 14.9278 4.57192C14.8797 4.52387 14.8182 4.49984 14.7434 4.49984H10.0655V15.4998H14.7434C14.8182 15.4998 14.8797 15.4758 14.9278 15.4278C14.9758 15.3797 14.9998 15.3182 14.9998 15.2434V14.4978C14.9998 14.3455 15.0514 14.2165 15.1544 14.1107C15.2575 14.0047 15.3851 13.9517 15.5373 13.9517C15.6897 13.9517 15.8187 14.0039 15.9244 14.1082C16.0303 14.2123 16.0832 14.3415 16.0832 14.4957V15.2478C16.0832 15.6175 15.952 15.9325 15.6896 16.1928C15.4273 16.453 15.1119 16.5832 14.7434 16.5832H4.2563Z" fill="#1C1B1F"/>
</g>
</svg>
