<svg width="20" height="20" viewBox="0 0 20 20" fill="none" xmlns="http://www.w3.org/2000/svg">
<mask id="mask0_10_5994" style="mask-type:alpha" maskUnits="userSpaceOnUse" x="0" y="0" width="20" height="20">
<rect width="20" height="20" fill="#D9D9D9"/>
</mask>
<g mask="url(#mask0_10_5994)">
<path d="M6.04208 10.5833C5.8925 10.5833 5.76479 10.5318 5.65896 10.4287C5.55299 10.3257 5.5 10.1981 5.5 10.0458C5.5 9.89347 5.55194 9.76444 5.65583 9.65875C5.75958 9.55292 5.88819 9.5 6.04167 9.5H14.4579C14.6075 9.5 14.7352 9.55153 14.841 9.65458C14.947 9.75764 15 9.88528 15 10.0375C15 10.1899 14.9481 10.3189 14.8442 10.4246C14.7404 10.5304 14.6118 10.5833 14.4583 10.5833H6.04208Z" fill="#1C1B1F"/>
</g>
</svg>
