<svg width="20" height="20" viewBox="0 0 20 20" fill="none" xmlns="http://www.w3.org/2000/svg">
<mask id="mask0_15_6452" style="mask-type:alpha" maskUnits="userSpaceOnUse" x="0" y="0" width="20" height="20">
<rect width="20" height="20" fill="#D9D9D9"/>
</mask>
<g mask="url(#mask0_15_6452)">
<path d="M8.21881 16.781C8.22009 16.9292 8.27459 17.0572 8.38233 17.1649C8.48997 17.2725 8.61695 17.3261 8.76328 17.3255C8.90952 17.325 9.03689 17.2705 9.14542 17.162L9.99984 16.3075L10.8543 17.162C10.9628 17.2705 11.0911 17.324 11.2393 17.3225C11.3875 17.3213 11.5155 17.2667 11.6232 17.159C11.7309 17.0514 11.7844 16.9244 11.7838 16.7781C11.7833 16.6318 11.7288 16.5044 11.6203 16.3959L10.7659 15.5415L11.6203 14.6871C11.7288 14.5786 11.7824 14.4502 11.781 14.3019C11.7796 14.1538 11.7251 14.0258 11.6173 13.9181C11.5097 13.8105 11.3828 13.7569 11.2365 13.7574C11.0902 13.758 10.9628 13.8125 10.8543 13.9211L9.99984 14.7755L9.14542 13.9211C9.03689 13.8125 8.90854 13.759 8.76034 13.7605C8.61214 13.7618 8.48417 13.8163 8.37644 13.924C8.2688 14.0316 8.21528 14.1586 8.21587 14.305C8.21636 14.4512 8.27086 14.5786 8.37938 14.6871L9.2338 15.5415L8.37938 16.3959C8.27086 16.5044 8.21734 16.6328 8.21881 16.781Z" fill="#1C1B1F"/>
<path d="M15.4998 8.98213V4.2563C15.4998 4.18143 15.4758 4.11998 15.4278 4.07192C15.3797 4.02387 15.3182 3.99984 15.2434 3.99984H4.7563C4.68143 3.99984 4.61998 4.02387 4.57192 4.07192C4.52387 4.11998 4.49984 4.18143 4.49984 4.2563V8.98213H15.4998ZM4.75192 16.0832C4.3822 16.0832 4.0672 15.952 3.80692 15.6896C3.54664 15.4273 3.4165 15.1119 3.4165 14.7434V4.2563C3.4165 3.88782 3.54768 3.57241 3.81005 3.31005C4.07241 3.04768 4.38782 2.9165 4.7563 2.9165H15.2434C15.6119 2.9165 15.9273 3.04768 16.1896 3.31005C16.452 3.57241 16.5832 3.88782 16.5832 4.2563V14.7434C16.5832 15.1119 16.4523 15.4273 16.1907 15.6896C15.929 15.952 15.6145 16.0832 15.2471 16.0832H14.4988C14.3459 16.0832 14.2165 16.0316 14.1107 15.9286C14.0047 15.8255 13.9517 15.6979 13.9517 15.5457C13.9517 15.3933 14.0037 15.2643 14.1075 15.1586C14.2113 15.0528 14.3399 14.9998 14.4934 14.9998H15.2434C15.3182 14.9998 15.3797 14.9758 15.4278 14.9278C15.4758 14.8797 15.4998 14.8182 15.4998 14.7434V10.0655H4.49984V14.7434C4.49984 14.8182 4.52387 14.8797 4.57192 14.9278C4.61998 14.9758 4.68143 14.9998 4.7563 14.9998H5.50192C5.65414 14.9998 5.78317 15.0514 5.889 15.1544C5.99498 15.2575 6.04796 15.3851 6.04796 15.5373C6.04796 15.6897 5.99581 15.8187 5.8915 15.9244C5.78734 16.0303 5.65817 16.0832 5.504 16.0832H4.75192Z" fill="#1C1B1F"/>
</g>
</svg>
