<svg width="20" height="20" viewBox="0 0 20 20" fill="none" xmlns="http://www.w3.org/2000/svg">
<mask id="mask0_21_6488" style="mask-type:alpha" maskUnits="userSpaceOnUse" x="0" y="0" width="20" height="20">
<rect width="20" height="20" fill="#D9D9D9"/>
</mask>
<g mask="url(#mask0_21_6488)">
<path d="M9.99984 17.7083C9.08637 17.7083 8.23046 17.5356 7.43213 17.1902C6.6338 16.8448 5.93768 16.375 5.3438 15.781C4.74977 15.1871 4.28005 14.491 3.93463 13.6927C3.58921 12.8943 3.4165 12.0384 3.4165 11.125C3.4165 10.9712 3.46796 10.8425 3.57088 10.7389C3.67366 10.6352 3.8013 10.5833 3.9538 10.5833C4.1063 10.5833 4.23539 10.6352 4.34109 10.7389C4.44692 10.8425 4.49984 10.9712 4.49984 11.125C4.49984 12.6389 5.03803 13.934 6.11442 15.0104C7.19081 16.0868 8.48595 16.625 9.99984 16.625C11.5137 16.625 12.8089 16.0868 13.8853 15.0104C14.9616 13.934 15.4998 12.6389 15.4998 11.125C15.4998 9.61108 14.9616 8.31594 13.8853 7.23955C12.8089 6.16316 11.511 5.62497 9.99171 5.62497H9.77859L10.4967 6.34289C10.6067 6.45302 10.6644 6.58073 10.6696 6.72601C10.675 6.87129 10.6207 7.00157 10.5065 7.11684C10.3846 7.23226 10.2536 7.28865 10.1136 7.28601C9.97373 7.28337 9.84609 7.22434 9.73067 7.10893L8.16984 5.53997C8.03303 5.4083 7.96463 5.25469 7.96463 5.07913C7.96463 4.90344 8.03303 4.74726 8.16984 4.61059L9.74671 3.04164C9.85671 2.93164 9.97956 2.87393 10.1153 2.86851C10.2509 2.86323 10.3798 2.9183 10.5017 3.03372C10.6159 3.149 10.6716 3.27795 10.669 3.42059C10.6662 3.56323 10.6072 3.69226 10.4919 3.80768L9.75775 4.54164H9.99984C10.9133 4.54164 11.7692 4.71434 12.5675 5.05976C13.3659 5.40518 14.062 5.8749 14.6559 6.46893C15.2499 7.06282 15.7196 7.75893 16.065 8.55726C16.4105 9.35559 16.5832 10.2115 16.5832 11.125C16.5832 12.0384 16.4105 12.8943 16.065 13.6927C15.7196 14.491 15.2499 15.1871 14.6559 15.781C14.062 16.375 13.3659 16.8448 12.5675 17.1902C11.7692 17.5356 10.9133 17.7083 9.99984 17.7083Z" fill="#1C1B1F"/>
</g>
</svg>
