<svg width="20" height="20" viewBox="0 0 20 20" fill="none" xmlns="http://www.w3.org/2000/svg">
<mask id="mask0_608_25790" style="mask-type:alpha" maskUnits="userSpaceOnUse" x="0" y="0" width="20" height="20">
<rect width="20" height="20" fill="#D9D9D9"/>
</mask>
<g mask="url(#mask0_608_25790)">
<path d="M11.1874 18.0418C10.6199 18.0418 10.063 17.9807 9.51676 17.8586C8.97065 17.7367 8.44315 17.5477 7.93426 17.2918C7.80704 17.2244 7.72503 17.1237 7.68822 16.9897C7.65128 16.8557 7.66996 16.7181 7.74426 16.577C7.81857 16.436 7.92885 16.3428 8.0751 16.2974C8.22149 16.252 8.36524 16.2602 8.50635 16.3222C8.91871 16.5423 9.34968 16.7034 9.79926 16.8053C10.2488 16.9074 10.7116 16.9584 11.1874 16.9584C12.7725 16.9584 14.1167 16.3968 15.2199 15.2734C16.3232 14.15 16.8749 12.788 16.8749 11.1876C16.8749 9.61413 16.3098 8.27976 15.1795 7.18448C14.0491 6.08934 12.6836 5.54177 11.0832 5.54177H10.5159L11.5559 6.56094C11.6713 6.67635 11.7256 6.80406 11.7186 6.94406C11.7117 7.08392 11.6505 7.21156 11.5351 7.32698C11.4197 7.4424 11.2968 7.50142 11.1666 7.50406C11.0363 7.5067 10.9134 7.45038 10.798 7.3351L8.92781 5.4649C8.85836 5.39545 8.80892 5.32205 8.77947 5.24469C8.75017 5.16733 8.73551 5.08559 8.73551 4.99948C8.73551 4.91337 8.75017 4.83184 8.77947 4.7549C8.80892 4.67795 8.85836 4.60476 8.92781 4.53531L10.7899 2.6651C10.9053 2.54983 11.0295 2.49219 11.1626 2.49219C11.2955 2.49219 11.4197 2.54983 11.5351 2.6651C11.6505 2.78052 11.7165 2.90476 11.733 3.03781C11.7495 3.17073 11.7002 3.2949 11.5849 3.41031L10.5159 4.45844H11.1457C13.0371 4.45844 14.6454 5.10719 15.9705 6.40469C17.2957 7.70233 17.9582 9.3001 17.9582 11.198C17.9582 13.0907 17.2998 14.7044 15.9828 16.0393C14.6657 17.3743 13.0673 18.0418 11.1874 18.0418ZM6.07426 15.3847C5.98496 15.3847 5.9019 15.3686 5.8251 15.3366C5.74829 15.3045 5.67781 15.2564 5.61364 15.1924L2.13614 11.7149C2.07197 11.6452 2.02392 11.5719 1.99197 11.4951C1.95989 11.4183 1.94385 11.3352 1.94385 11.2459C1.94385 11.1566 1.95989 11.0736 1.99197 10.9968C2.02392 10.92 2.07197 10.8495 2.13614 10.7853L5.61364 7.30781C5.68336 7.24379 5.75663 7.19573 5.83343 7.16365C5.91024 7.13156 5.99329 7.11552 6.0826 7.11552C6.1719 7.11552 6.25496 7.13156 6.33176 7.16365C6.40857 7.19573 6.47906 7.24379 6.54322 7.30781L10.0207 10.7853C10.0848 10.855 10.1328 10.9283 10.1649 11.0051C10.197 11.0819 10.213 11.165 10.213 11.2543C10.213 11.3436 10.197 11.4266 10.1649 11.5034C10.1328 11.5802 10.0848 11.6507 10.0207 11.7149L6.54322 15.1924C6.4735 15.2564 6.40024 15.3045 6.32343 15.3366C6.24663 15.3686 6.16357 15.3847 6.07426 15.3847ZM6.07843 14.1251L8.95343 11.2501L6.07843 8.3751L3.20343 11.2501L6.07843 14.1251Z" fill="#1C1B1F"/>
</g>
</svg>
