<svg width="20" height="20" viewBox="0 0 20 20" fill="none" xmlns="http://www.w3.org/2000/svg">
<mask id="mask0_608_25791" style="mask-type:alpha" maskUnits="userSpaceOnUse" x="0" y="0" width="20" height="20">
<rect width="20" height="20" fill="#D9D9D9"/>
</mask>
<g mask="url(#mask0_608_25791)">
<path d="M8.81234 18.0418C6.93248 18.0418 5.334 17.3752 4.01692 16.042C2.69998 14.7088 2.0415 13.0907 2.0415 11.1876C2.0415 9.29663 2.70407 7.70233 4.02921 6.40469C5.35435 5.10719 6.96262 4.45844 8.854 4.45844H9.4838L8.41484 3.41031C8.29956 3.2949 8.25018 3.17073 8.26671 3.03781C8.28324 2.90476 8.34921 2.78052 8.46463 2.6651C8.58005 2.54983 8.70421 2.49219 8.83713 2.49219C8.97018 2.49219 9.09442 2.54983 9.20984 2.6651L11.0719 4.53531C11.1414 4.60476 11.1908 4.67816 11.2203 4.75552C11.2496 4.83288 11.2642 4.91462 11.2642 5.00073C11.2642 5.08684 11.2496 5.16837 11.2203 5.24531C11.1908 5.32226 11.1414 5.39545 11.0719 5.4649L9.20171 7.3351C9.0863 7.45038 8.96345 7.5067 8.83317 7.50406C8.70289 7.50142 8.58005 7.4424 8.46463 7.32698C8.34921 7.21156 8.28803 7.08392 8.28109 6.94406C8.27414 6.80406 8.32838 6.67635 8.4438 6.56094L9.4838 5.54177H8.9165C7.31609 5.54177 5.95067 6.08934 4.82025 7.18448C3.68998 8.27976 3.12484 9.61413 3.12484 11.1876C3.12484 12.788 3.6765 14.15 4.77984 15.2734C5.88303 16.3968 7.2272 16.9584 8.81234 16.9584C9.28817 16.9584 9.75088 16.9074 10.2005 16.8053C10.65 16.7034 11.081 16.5423 11.4934 16.3222C11.6345 16.2602 11.7782 16.252 11.9246 16.2974C12.0709 16.3428 12.1812 16.436 12.2555 16.577C12.3298 16.7181 12.3484 16.8557 12.3115 16.9897C12.2747 17.1237 12.1927 17.2244 12.0655 17.2918C11.5566 17.5477 11.0291 17.7367 10.483 17.8586C9.93671 17.9807 9.37984 18.0418 8.81234 18.0418ZM13.4565 15.1924L9.979 11.7149C9.91498 11.6452 9.86692 11.5719 9.83484 11.4951C9.80275 11.4183 9.78671 11.3352 9.78671 11.2459C9.78671 11.1566 9.80275 11.0736 9.83484 10.9968C9.86692 10.92 9.91498 10.8495 9.979 10.7853L13.4565 7.30781C13.5262 7.24379 13.5995 7.19573 13.6763 7.16365C13.7531 7.13156 13.8362 7.11552 13.9255 7.11552C14.0148 7.11552 14.0978 7.13156 14.1746 7.16365C14.2514 7.19573 14.3219 7.24379 14.3861 7.30781L17.8636 10.7853C17.9278 10.855 17.9758 10.9283 18.0078 11.0051C18.0398 11.0819 18.0559 11.165 18.0559 11.2543C18.0559 11.3436 18.0398 11.4266 18.0078 11.5034C17.9758 11.5802 17.9278 11.6507 17.8636 11.7149L14.3861 15.1924C14.3164 15.2564 14.2431 15.3045 14.1663 15.3366C14.0895 15.3686 14.0064 15.3847 13.9171 15.3847C13.8278 15.3847 13.7448 15.3686 13.668 15.3366C13.5912 15.3045 13.5207 15.2564 13.4565 15.1924ZM13.9213 14.1251L16.7963 11.2501L13.9213 8.3751L11.0463 11.2501L13.9213 14.1251Z" fill="#1C1B1F"/>
</g>
</svg>
