<svg width="20" height="20" viewBox="0 0 20 20" fill="none" xmlns="http://www.w3.org/2000/svg">
<mask id="mask0_608_25931" style="mask-type:alpha" maskUnits="userSpaceOnUse" x="0" y="0" width="20" height="20">
<rect width="20" height="20" fill="#D9D9D9"/>
</mask>
<g mask="url(#mask0_608_25931)">
<path d="M3.4165 3.95817C3.4165 3.8047 3.46803 3.67609 3.57109 3.57234C3.67414 3.46845 3.80178 3.4165 3.954 3.4165C4.10636 3.4165 4.23539 3.46845 4.34109 3.57234C4.44692 3.67609 4.49984 3.8047 4.49984 3.95817L4.49984 16.0415C4.49984 16.195 4.44831 16.3236 4.34525 16.4273C4.2422 16.5312 4.11456 16.5832 3.96234 16.5832C3.80998 16.5832 3.68095 16.5312 3.57525 16.4273C3.46942 16.3236 3.4165 16.195 3.4165 16.0415L3.4165 3.95817Z" fill="#1C1B1F"/>
<path d="M16.0583 15.4998C16.2118 15.4998 16.3404 15.5513 16.4442 15.6544C16.5481 15.7575 16.6 15.8851 16.6 16.0373C16.6 16.1897 16.5481 16.3187 16.4442 16.4244C16.3404 16.5302 16.2118 16.5832 16.0583 16.5832L3.975 16.5831C3.82153 16.5831 3.69292 16.5316 3.58917 16.4286C3.48528 16.3255 3.43333 16.1979 3.43333 16.0457C3.43333 15.8933 3.48528 15.7643 3.58917 15.6586C3.69292 15.5527 3.82153 15.4998 3.975 15.4998L16.0583 15.4998Z" fill="#1C1B1F"/>
<path d="M9.51979 12.8883V16.0146C9.51979 16.1681 9.57271 16.2967 9.67854 16.4004C9.78424 16.5043 9.91326 16.5563 10.0656 16.5563C10.2178 16.5563 10.3455 16.5043 10.4485 16.4004C10.5516 16.2967 10.6031 16.1681 10.6031 16.0146V12.8863C10.6031 11.8778 10.2575 11.0279 9.56625 10.3367C8.875 9.64543 8.02597 9.2998 7.01917 9.2998H3.97167C3.81819 9.2998 3.68958 9.35272 3.58583 9.45855C3.48194 9.56425 3.43 9.69328 3.43 9.84564C3.43 9.99786 3.48194 10.1255 3.58583 10.2286C3.68958 10.3316 3.81819 10.3831 3.97167 10.3831H7.01667C7.71194 10.3831 8.30292 10.6248 8.78958 11.1081C9.27639 11.5913 9.51979 12.1847 9.51979 12.8883Z" fill="#1C1B1F"/>
</g>
</svg>
