<svg width="20" height="20" viewBox="0 0 20 20" fill="none" xmlns="http://www.w3.org/2000/svg">
<path fill-rule="evenodd" clip-rule="evenodd" d="M8.75556 4.55556C6.43596 4.55556 4.55556 6.43596 4.55556 8.75556C4.55556 11.0752 6.43596 12.9556 8.75556 12.9556C11.0752 12.9556 12.9556 11.0752 12.9556 8.75556C12.9556 6.43596 11.0752 4.55556 8.75556 4.55556ZM3 8.75556C3 5.57685 5.57685 3 8.75556 3C11.9343 3 14.5111 5.57685 14.5111 8.75556C14.5111 10.0645 14.0742 11.2713 13.3382 12.2383L16.7722 15.6723C17.0759 15.976 17.0759 16.4685 16.7722 16.7722C16.4685 17.0759 15.976 17.0759 15.6723 16.7722L12.2383 13.3382C11.2713 14.0742 10.0645 14.5111 8.75556 14.5111C5.57685 14.5111 3 11.9343 3 8.75556Z" fill="#1C1B1F"/>
</svg>
