<svg width="20" height="20" viewBox="0 0 20 20" fill="none" xmlns="http://www.w3.org/2000/svg">
<mask id="mask0_50_7479" style="mask-type:alpha" maskUnits="userSpaceOnUse" x="0" y="0" width="20" height="20">
<rect width="20" height="20" fill="#D9D9D9"/>
</mask>
<g mask="url(#mask0_50_7479)">
<path fill-rule="evenodd" clip-rule="evenodd" d="M10.0049 3.61128C9.82587 3.61128 9.65416 3.68241 9.52755 3.80902C9.40094 3.93562 9.32982 4.10734 9.32982 4.28639V4.39678C9.32854 4.71741 9.23353 5.03067 9.05649 5.298C8.87945 5.56533 8.62811 5.77505 8.3334 5.90136C8.28178 5.92349 8.2274 5.93815 8.1719 5.94502C7.90301 6.03995 7.61328 6.06354 7.33129 6.01241C7.00806 5.9538 6.70979 5.79971 6.47496 5.57L6.47026 5.5654L6.43216 5.52725C6.36947 5.46449 6.29477 5.41446 6.21282 5.38048C6.13086 5.34651 6.04301 5.32902 5.95429 5.32902C5.86557 5.32902 5.77773 5.34651 5.69577 5.38048C5.61381 5.41446 5.53936 5.46425 5.47666 5.52702C5.41389 5.58972 5.36362 5.66464 5.32965 5.7466C5.29568 5.82856 5.27819 5.91641 5.27819 6.00513C5.27819 6.09384 5.29568 6.18169 5.32965 6.26365C5.36362 6.34561 5.41342 6.42006 5.47619 6.48276L5.51919 6.52576C5.7489 6.7606 5.90297 7.05889 5.96158 7.38212C6.01907 7.69917 5.9821 8.02598 5.85549 8.32199C5.74041 8.62416 5.53872 8.88583 5.2755 9.0741C5.00717 9.26602 4.68731 9.37277 4.3575 9.38049L4.34357 9.38065H4.28639C4.10734 9.38065 3.93562 9.45178 3.80902 9.57838C3.68241 9.70499 3.61128 9.8767 3.61128 10.0558C3.61128 10.2348 3.68241 10.4065 3.80902 10.5331C3.93562 10.6597 4.10734 10.7309 4.28639 10.7309H4.39678C4.71741 10.7321 5.03067 10.8271 5.298 11.0042C5.56444 11.1806 5.77366 11.4309 5.9001 11.7243C6.03171 12.0241 6.07083 12.3564 6.01241 12.6786C5.9538 13.0018 5.79971 13.3001 5.57 13.5349L5.5654 13.5396L5.52725 13.5777C5.46448 13.6404 5.41446 13.7151 5.38048 13.797C5.34651 13.879 5.32902 13.9668 5.32902 14.0556C5.32902 14.1443 5.34651 14.2321 5.38048 14.3141C5.41446 14.396 5.46425 14.4705 5.52702 14.5332C5.58972 14.596 5.66464 14.6462 5.7466 14.6802C5.82856 14.7142 5.91641 14.7317 6.00513 14.7317C6.09384 14.7317 6.18169 14.7142 6.26365 14.6802C6.34561 14.6462 6.42006 14.5964 6.48276 14.5337L6.52576 14.4907C6.7606 14.2609 7.05889 14.1069 7.38212 14.0483C7.69917 13.9908 8.02598 14.0277 8.32198 14.1544C8.62416 14.2694 8.88583 14.4711 9.0741 14.7343C9.26602 15.0027 9.37277 15.3225 9.38049 15.6523L9.38065 15.6663V15.7235C9.38065 15.9025 9.45178 16.0742 9.57838 16.2008C9.70499 16.3274 9.87671 16.3986 10.0558 16.3986C10.2348 16.3986 10.4065 16.3274 10.5331 16.2008C10.6597 16.0742 10.7309 15.9025 10.7309 15.7235V15.6154L10.7309 15.6131C10.7321 15.2924 10.8271 14.9792 11.0042 14.7118C11.1806 14.4454 11.4309 14.2362 11.7243 14.1098C12.0241 13.9781 12.3564 13.939 12.6786 13.9974C13.0018 14.056 13.3001 14.2101 13.5349 14.4398L13.5396 14.4444L13.5777 14.4826C13.6404 14.5454 13.7151 14.5954 13.797 14.6294C13.879 14.6633 13.9668 14.6808 14.0556 14.6808C14.1443 14.6808 14.2321 14.6633 14.3141 14.6294C14.396 14.5954 14.4705 14.5456 14.5332 14.4828C14.596 14.4201 14.6462 14.3452 14.6802 14.2632C14.7142 14.1813 14.7317 14.0934 14.7317 14.0047C14.7317 13.916 14.7142 13.8281 14.6802 13.7462C14.6462 13.6642 14.5964 13.5898 14.5337 13.5271L14.4907 13.4841C14.2609 13.2492 14.1069 12.951 14.0483 12.6277C13.9898 12.3055 14.029 11.9733 14.1606 11.6735C14.287 11.38 14.4962 11.1298 14.7627 10.9534C15.03 10.7763 15.3433 10.6813 15.6639 10.68L15.6663 10.68L15.7235 10.68C15.9025 10.68 16.0742 10.6089 16.2008 10.4823C16.3274 10.3557 16.3986 10.184 16.3986 10.0049C16.3986 9.82587 16.3274 9.65416 16.2008 9.52755C16.0742 9.40094 15.9025 9.32982 15.7235 9.32982H15.6154L15.6131 9.32981C15.2924 9.32853 14.9792 9.23353 14.7118 9.05649C14.4445 8.87945 14.2348 8.62811 14.1085 8.3334C14.0864 8.28178 14.0717 8.2274 14.0648 8.1719C13.9699 7.903 13.9463 7.61328 13.9974 7.33129C14.056 7.00806 14.2101 6.70979 14.4398 6.47496L14.4444 6.47026L14.4826 6.43216C14.5454 6.36946 14.5954 6.29477 14.6294 6.21282C14.6633 6.13086 14.6808 6.04301 14.6808 5.95429C14.6808 5.86557 14.6633 5.77773 14.6294 5.69577C14.5954 5.61381 14.5456 5.53936 14.4828 5.47666C14.4201 5.41389 14.3452 5.36362 14.2632 5.32965C14.1813 5.29568 14.0934 5.27819 14.0047 5.27819C13.916 5.27819 13.8281 5.29568 13.7462 5.32965C13.6642 5.36363 13.5898 5.41342 13.5271 5.47619L13.4841 5.51919C13.2492 5.7489 12.951 5.90297 12.6277 5.96158C12.3055 6.02 11.9733 5.98088 11.6735 5.84927C11.3801 5.72283 11.1298 5.51361 10.9534 5.24717C10.7763 4.97984 10.6813 4.66658 10.68 4.34595L10.68 4.34357V4.28639C10.68 4.10734 10.6089 3.93562 10.4823 3.80902C10.3557 3.68241 10.184 3.61128 10.0049 3.61128ZM8.68513 2.9666C9.03516 2.61657 9.5099 2.41992 10.0049 2.41992C10.4999 2.41992 10.9747 2.61657 11.3247 2.9666C11.6747 3.31663 11.8714 3.79137 11.8714 4.28639V4.34211C11.8719 4.43008 11.8981 4.516 11.9466 4.58936C11.9954 4.66297 12.0646 4.72072 12.1458 4.7555L12.1516 4.75802C12.2344 4.79454 12.3262 4.80547 12.4152 4.78933C12.5033 4.77335 12.5847 4.73158 12.6491 4.66933L12.6842 4.63424C12.6841 4.63431 12.6843 4.63416 12.6842 4.63424C12.8575 4.46081 13.0635 4.32299 13.29 4.2291C13.5166 4.13517 13.7594 4.08683 14.0047 4.08683C14.25 4.08683 14.4929 4.13517 14.7195 4.2291C14.9458 4.32295 15.1515 4.46045 15.3248 4.63377C15.4983 4.80711 15.636 5.01296 15.7299 5.23955C15.8238 5.46613 15.8722 5.70901 15.8722 5.95429C15.8722 6.19958 15.8238 6.44245 15.7299 6.66904C15.636 6.89552 15.4984 7.10129 15.325 7.27458C15.3249 7.27466 15.3251 7.27451 15.325 7.27458L15.2897 7.30992C15.2274 7.37429 15.1857 7.45569 15.1697 7.54384C15.1535 7.63284 15.1644 7.72464 15.201 7.8074C15.2188 7.84785 15.2321 7.89006 15.2405 7.93322C15.2741 7.98466 15.318 8.02897 15.3697 8.0632C15.443 8.11178 15.5289 8.13793 15.6169 8.13846H15.7235C16.2185 8.13846 16.6932 8.3351 17.0432 8.68513C17.3933 9.03516 17.5899 9.5099 17.5899 10.0049C17.5899 10.4999 17.3933 10.9747 17.0432 11.3247C16.6932 11.6747 16.2185 11.8714 15.7235 11.8714H15.6677C15.5798 11.8719 15.4938 11.8981 15.4205 11.9466C15.3469 11.9954 15.2891 12.0646 15.2543 12.1458L15.2518 12.1516C15.2153 12.2344 15.2044 12.3262 15.2205 12.4152C15.2365 12.5033 15.2783 12.5847 15.3405 12.6491L15.3756 12.6842C15.5491 12.8575 15.6868 13.0634 15.7807 13.29C15.8747 13.5166 15.923 13.7594 15.923 14.0047C15.923 14.25 15.8747 14.4929 15.7807 14.7195C15.6869 14.9459 15.5493 15.1517 15.3758 15.325C15.2025 15.4984 14.9968 15.636 14.7703 15.7299C14.5437 15.8238 14.3008 15.8722 14.0556 15.8722C13.8103 15.8722 13.5674 15.8238 13.3408 15.7299C13.1142 15.636 12.9084 15.4983 12.735 15.3248L12.6999 15.2897C12.6355 15.2274 12.5542 15.1857 12.466 15.1697C12.377 15.1535 12.2852 15.1644 12.2024 15.201L12.1966 15.2035C12.1155 15.2383 12.0462 15.296 11.9975 15.3697C11.9489 15.443 11.9227 15.5289 11.9222 15.6169V15.7235C11.9222 16.2185 11.7256 16.6932 11.3755 17.0432C11.0255 17.3933 10.5508 17.5899 10.0558 17.5899C9.56073 17.5899 9.08599 17.3933 8.73596 17.0432C8.38593 16.6932 8.18929 16.2185 8.18929 15.7235V15.6747C8.18612 15.5858 8.15686 15.4998 8.10508 15.4274C8.05224 15.3535 7.97838 15.2973 7.89313 15.2659C7.88135 15.2616 7.86971 15.2569 7.85823 15.2518C7.77547 15.2153 7.68368 15.2044 7.59467 15.2205C7.50652 15.2365 7.42511 15.2783 7.36074 15.3405L7.32565 15.3756C7.1523 15.5491 6.94646 15.6868 6.71987 15.7807C6.49328 15.8747 6.25041 15.923 6.00513 15.923C5.75984 15.923 5.51697 15.8747 5.29038 15.7807C5.0638 15.6868 4.85795 15.5491 4.6846 15.3756C4.51128 15.2024 4.37378 14.9967 4.27993 14.7703C4.18601 14.5437 4.13766 14.3008 4.13766 14.0556C4.13766 13.8103 4.18601 13.5674 4.27993 13.3408C4.37382 13.1143 4.51141 12.9086 4.68484 12.7353C4.68476 12.7353 4.68492 12.7352 4.68484 12.7353L4.72016 12.6999C4.78241 12.6356 4.82418 12.5542 4.84016 12.466C4.8563 12.377 4.84541 12.2852 4.80888 12.2024L4.8063 12.1966C4.77152 12.1155 4.7138 12.0462 4.64019 11.9975C4.56683 11.9489 4.48091 11.9227 4.39294 11.9222H4.28639C3.79137 11.9222 3.31663 11.7256 2.9666 11.3755C2.61657 11.0255 2.41992 10.5508 2.41992 10.0558C2.41992 9.56074 2.61657 9.08599 2.9666 8.73596C3.31663 8.38593 3.79137 8.18929 4.28639 8.18929H4.33516C4.42402 8.18612 4.51003 8.15686 4.58242 8.10508C4.65631 8.05224 4.71259 7.97838 4.74395 7.89313C4.74828 7.88135 4.75298 7.86971 4.75805 7.85823C4.79457 7.77547 4.80547 7.68367 4.78933 7.59467C4.77335 7.50651 4.73157 7.4251 4.66932 7.36073L4.63424 7.32565C4.63416 7.32557 4.63432 7.32573 4.63424 7.32565C4.46081 7.15235 4.32299 6.94635 4.2291 6.71987C4.13517 6.49328 4.08683 6.25041 4.08683 6.00513C4.08683 5.75984 4.13517 5.51697 4.2291 5.29038C4.32299 5.0639 4.46058 4.85813 4.634 4.68483C4.8073 4.51141 5.01307 4.37382 5.23955 4.27993C5.46613 4.18601 5.70901 4.13766 5.95429 4.13766C6.19958 4.13766 6.44245 4.18601 6.66904 4.27993C6.89552 4.37382 7.10129 4.51141 7.27458 4.68483C7.27451 4.68476 7.27466 4.68491 7.27458 4.68483L7.3099 4.72015C7.37427 4.7824 7.45568 4.82418 7.54384 4.84016C7.63284 4.8563 7.72464 4.84541 7.8074 4.80888C7.84785 4.79103 7.89006 4.77778 7.93322 4.76931C7.98466 4.73573 8.02897 4.69187 8.0632 4.64019C8.11178 4.56683 8.13793 4.48091 8.13846 4.39294V4.28639C8.13846 3.79137 8.3351 3.31663 8.68513 2.9666ZM10.0049 8.69442C9.28115 8.69442 8.69442 9.28115 8.69442 10.0049C8.69442 10.7287 9.28115 11.3154 10.0049 11.3154C10.7287 11.3154 11.3154 10.7287 11.3154 10.0049C11.3154 9.28115 10.7287 8.69442 10.0049 8.69442ZM7.50306 10.0049C7.50306 8.62318 8.62318 7.50306 10.0049 7.50306C11.3867 7.50306 12.5068 8.62318 12.5068 10.0049C12.5068 11.3867 11.3867 12.5068 10.0049 12.5068C8.62318 12.5068 7.50306 11.3867 7.50306 10.0049Z" fill="#1C1B1F"/>
</g>
</svg>
