<svg width="20" height="20" viewBox="0 0 20 20" fill="none" xmlns="http://www.w3.org/2000/svg">
<mask id="mask0_2618_3305" style="mask-type:alpha" maskUnits="userSpaceOnUse" x="0" y="0" width="20" height="20">
<rect width="20" height="20" fill="#D9D9D9"/>
</mask>
<g mask="url(#mask0_2618_3305)">
<path d="M14.6125 18C13.9492 18 13.3861 17.7699 12.9232 17.3097C12.4603 16.8494 12.2289 16.2906 12.2289 15.6332C12.2289 15.5013 12.267 15.2804 12.343 14.9703L7.01636 11.7075C6.80282 11.9126 6.55612 12.0738 6.27627 12.191C5.99656 12.3082 5.69685 12.3668 5.37712 12.3668C4.71685 12.3668 4.15559 12.1358 3.69335 11.6736C3.23112 11.2115 3 10.6536 3 10C3 9.34637 3.23112 8.7885 3.69335 8.32637C4.15559 7.86425 4.71685 7.63319 5.37712 7.63319C5.69817 7.63319 5.99826 7.69179 6.27737 7.80901C6.55649 7.92623 6.80282 8.0874 7.01636 8.29253L12.343 5.03802C12.3079 4.92989 12.28 4.82169 12.2595 4.71341C12.2391 4.60513 12.2289 4.4896 12.2289 4.36681C12.2289 3.70938 12.461 3.15055 12.9252 2.69033C13.3895 2.23011 13.9532 2 14.6165 2C15.2797 2 15.8427 2.23033 16.3055 2.69099C16.7685 3.1515 17 3.71077 17 4.36879C17 5.02681 16.7681 5.58549 16.3042 6.04483C15.8403 6.50403 15.2771 6.73363 14.6145 6.73363C14.2918 6.73363 13.9927 6.67363 13.7173 6.55363C13.4417 6.43363 13.1972 6.27106 12.9836 6.06593L7.65699 9.32879C7.69214 9.43707 7.71998 9.54527 7.74051 9.65341C7.76089 9.76168 7.77108 9.87722 7.77108 10C7.77108 10.1228 7.76089 10.2383 7.74051 10.3466C7.71998 10.4547 7.69214 10.5629 7.65699 10.6712L12.9836 13.9341C13.1972 13.7289 13.442 13.5664 13.7182 13.4464C13.9944 13.3264 14.2931 13.2664 14.6145 13.2664C15.2771 13.2664 15.8403 13.4966 16.3042 13.9571C16.7681 14.4178 17 14.9771 17 15.6352C17 16.2932 16.7678 16.8518 16.3035 17.311C15.8394 17.7703 15.2757 18 14.6125 18ZM14.6145 16.8571C14.964 16.8571 15.257 16.7399 15.4934 16.5053C15.7299 16.2707 15.8481 15.98 15.8481 15.6332C15.8481 15.2864 15.7299 14.9957 15.4934 14.7611C15.257 14.5264 14.964 14.409 14.6145 14.409C14.2649 14.409 13.9719 14.5264 13.7355 14.7611C13.4989 14.9957 13.3806 15.2864 13.3806 15.6332C13.3806 15.98 13.4989 16.2707 13.7355 16.5053C13.9719 16.7399 14.2649 16.8571 14.6145 16.8571ZM5.37712 11.224C5.72904 11.224 6.02403 11.1067 6.26209 10.8721C6.5003 10.6375 6.6194 10.3468 6.6194 10C6.6194 9.65319 6.5003 9.36249 6.26209 9.12791C6.02403 8.89333 5.72904 8.77604 5.37712 8.77604C5.02993 8.77604 4.73892 8.89333 4.50411 9.12791C4.2693 9.36249 4.1519 9.65319 4.1519 10C4.1519 10.3468 4.2693 10.6375 4.50411 10.8721C4.73892 11.1067 5.02993 11.224 5.37712 11.224ZM14.6145 5.59099C14.964 5.59099 15.257 5.47363 15.4934 5.2389C15.7299 5.00432 15.8481 4.71363 15.8481 4.36681C15.8481 4.02 15.7299 3.7293 15.4934 3.49473C15.257 3.26015 14.964 3.14286 14.6145 3.14286C14.2649 3.14286 13.9719 3.26015 13.7355 3.49473C13.4989 3.7293 13.3806 4.02 13.3806 4.36681C13.3806 4.71363 13.4989 5.00432 13.7355 5.2389C13.9719 5.47363 14.2649 5.59099 14.6145 5.59099Z" fill="#1C1B1F"/>
</g>
</svg>
