<svg width="20" height="20" viewBox="0 0 20 20" fill="none" xmlns="http://www.w3.org/2000/svg">
<mask id="mask0_23_5665" style="mask-type:alpha" maskUnits="userSpaceOnUse" x="0" y="0" width="20" height="20">
<rect width="20" height="20" fill="#D9D9D9"/>
</mask>
<g mask="url(#mask0_23_5665)">
<path d="M4.7563 16.5832C4.38782 16.5832 4.07241 16.452 3.81005 16.1896C3.54768 15.9273 3.4165 15.6119 3.4165 15.2434V4.7563C3.4165 4.38782 3.54768 4.07241 3.81005 3.81005C4.07241 3.54768 4.38782 3.4165 4.7563 3.4165H15.2434C15.6119 3.4165 15.9273 3.54768 16.1896 3.81005C16.452 4.07241 16.5832 4.38782 16.5832 4.7563V15.2434C16.5832 15.6119 16.452 15.9273 16.1896 16.1896C15.9273 16.452 15.6119 16.5832 15.2434 16.5832H4.7563Z" fill="#1C1B1F"/>
</g>
</svg>
