<svg width="20" height="20" viewBox="0 0 20 20" fill="none" xmlns="http://www.w3.org/2000/svg">
<mask id="mask0_23_5177" style="mask-type:alpha" maskUnits="userSpaceOnUse" x="0" y="0" width="20" height="20">
<rect width="20" height="20" fill="#D9D9D9"/>
</mask>
<g mask="url(#mask0_23_5177)">
<path d="M4.7563 16.5832C4.38657 16.5832 4.07081 16.4523 3.809 16.1907C3.54734 15.9289 3.4165 15.6131 3.4165 15.2434V4.7563C3.4165 4.38657 3.54734 4.07081 3.809 3.809C4.07081 3.54734 4.38657 3.4165 4.7563 3.4165H15.2434C15.6131 3.4165 15.9289 3.54734 16.1907 3.809C16.4523 4.07081 16.5832 4.38657 16.5832 4.7563V15.2434C16.5832 15.6131 16.4523 15.9289 16.1907 16.1907C15.9289 16.4523 15.6131 16.5832 15.2434 16.5832H4.7563ZM4.7563 15.4998H15.2434C15.3182 15.4998 15.3797 15.4758 15.4278 15.4278C15.4758 15.3797 15.4998 15.3182 15.4998 15.2434V4.7563C15.4998 4.68143 15.4758 4.61998 15.4278 4.57192C15.3797 4.52387 15.3182 4.49984 15.2434 4.49984H4.7563C4.68143 4.49984 4.61998 4.52387 4.57192 4.57192C4.52387 4.61998 4.49984 4.68143 4.49984 4.7563V15.2434C4.49984 15.3182 4.52387 15.3797 4.57192 15.4278C4.61998 15.4758 4.68143 15.4998 4.7563 15.4998Z" fill="#1C1B1F"/>
</g>
</svg>
