<svg width="20" height="20" viewBox="0 0 20 20" fill="none" xmlns="http://www.w3.org/2000/svg">
<mask id="mask0_25_6250" style="mask-type:alpha" maskUnits="userSpaceOnUse" x="0" y="0" width="20" height="20">
<rect width="20" height="20" fill="#D9D9D9"/>
</mask>
<g mask="url(#mask0_25_6250)">
<path fill-rule="evenodd" clip-rule="evenodd" d="M6.09339 11.3774L9.15262 3.36548C9.19967 3.24665 9.27465 3.15603 9.37756 3.09362C9.48048 3.03121 9.59074 3 9.70836 3H10.1256C10.2432 3 10.3535 3.03428 10.4564 3.10283C10.5593 3.17138 10.6345 3.26302 10.682 3.37776L13.7066 11.3735C13.787 11.5658 13.7701 11.7463 13.6559 11.915C13.5418 12.0835 13.3772 12.1678 13.1621 12.1678C13.0391 12.1678 12.9281 12.133 12.8293 12.0634C12.7305 11.9937 12.6583 11.8953 12.6126 11.7681L11.8526 9.73943H7.93925L7.19142 11.7907C7.1454 11.9092 7.07483 12.0018 6.97971 12.0683C6.88459 12.1346 6.77513 12.1678 6.65134 12.1678C6.43419 12.1678 6.26827 12.0831 6.1536 11.9137C6.03877 11.7443 6.0187 11.5655 6.09339 11.3774ZM8.33589 8.6785H11.486L9.95967 4.43367H9.87278L8.33589 8.6785Z" fill="#1C1B1F"/>
<path d="M8.9376 17C8.83471 17 8.75181 16.9687 8.68891 16.906C8.62587 16.8435 8.59435 16.761 8.59435 16.6588V13.5277C8.59435 13.4254 8.62587 13.343 8.68891 13.2805C8.75181 13.2178 8.83471 13.1864 8.9376 13.1864H10.9917C11.104 13.1864 11.2011 13.2271 11.2829 13.3085C11.3647 13.3898 11.4056 13.4863 11.4056 13.5979V14.7144C11.4056 14.8098 11.3743 14.894 11.3117 14.9672C11.2491 15.0403 11.1698 15.0823 11.0739 15.0932C11.1698 15.1095 11.2491 15.1529 11.3117 15.2233C11.3743 15.2938 11.4056 15.3767 11.4056 15.472V16.5885C11.4056 16.7001 11.3647 16.7966 11.2829 16.878C11.2011 16.9593 11.104 17 10.9917 17H8.9376ZM9.35641 14.7144H10.6436V13.9441H9.35641V14.7144ZM9.35641 16.2424H10.6436V15.472H9.35641V16.2424ZM4.38103 17C4.27131 17 4.18038 16.9641 4.10823 16.8924C4.03608 16.8207 4 16.7303 4 16.6212V13.5979C4 13.4863 4.04091 13.3898 4.12274 13.3085C4.20457 13.2271 4.30162 13.1864 4.4139 13.1864H6.3974C6.50968 13.1864 6.60673 13.2271 6.68856 13.3085C6.77024 13.3898 6.81109 13.4863 6.81109 13.5979V16.6293C6.81109 16.733 6.77508 16.8207 6.70307 16.8924C6.63092 16.9641 6.53999 17 6.43027 17C6.32055 17 6.22961 16.9641 6.15746 16.8924C6.08531 16.8207 6.04924 16.7303 6.04924 16.6212V15.8997H4.76185V16.6235C4.76185 16.7254 4.72584 16.8136 4.65384 16.8882C4.58169 16.9627 4.49075 17 4.38103 17ZM4.76185 15.1422H6.04924V13.9441H4.76185V15.1422ZM13.6026 17C13.4903 17 13.3933 16.9593 13.3114 16.878C13.2298 16.7966 13.1889 16.7001 13.1889 16.5885V13.5979C13.1889 13.4863 13.2298 13.3898 13.3114 13.3085C13.3933 13.2271 13.4903 13.1864 13.6026 13.1864H15.5861C15.6984 13.1864 15.7954 13.2271 15.8773 13.3085C15.9591 13.3898 16 13.4863 16 13.5979V14.2461C16 14.3496 15.9639 14.4373 15.8918 14.509C15.8196 14.5807 15.7287 14.6166 15.619 14.6166C15.5092 14.6166 15.4183 14.5807 15.3462 14.509C15.2742 14.4373 15.2382 14.3469 15.2382 14.2378V13.9441H13.9508V16.2424H15.2382V15.9487C15.2382 15.8453 15.2742 15.7563 15.3462 15.6817C15.4183 15.6071 15.5092 15.5699 15.619 15.5699C15.7287 15.5699 15.8196 15.6057 15.8918 15.6775C15.9639 15.7492 16 15.8396 16 15.9487V16.5885C16 16.7001 15.9591 16.7966 15.8773 16.878C15.7954 16.9593 15.6984 17 15.5861 17H13.6026Z" fill="#1C1B1F"/>
</g>
</svg>
