<svg width="20" height="20" viewBox="0 0 20 20" fill="none" xmlns="http://www.w3.org/2000/svg">
<mask id="mask0_25_6203" style="mask-type:alpha" maskUnits="userSpaceOnUse" x="0" y="0" width="20" height="20">
<rect width="20" height="20" fill="#D9D9D9"/>
</mask>
<g mask="url(#mask0_25_6203)">
<path d="M15.6632 16.5832C15.4026 16.5832 15.1842 16.4953 15.008 16.3196C14.8316 16.1441 14.7434 15.9264 14.7434 15.6667V14.7663C14.7434 14.5067 14.8316 14.2873 15.008 14.1082C15.1842 13.9291 15.4026 13.8396 15.6632 13.8396H16.5832V12.9036H15.1952C15.0748 12.9036 14.9694 12.8584 14.879 12.7682C14.7886 12.6778 14.7434 12.5723 14.7434 12.4517C14.7434 12.3313 14.7886 12.2259 14.879 12.1355C14.9694 12.045 15.0748 11.9998 15.1952 11.9998H16.5671C16.8277 11.9998 17.0462 12.0877 17.2225 12.2634C17.3988 12.4389 17.4869 12.6566 17.4869 12.9163V13.8167C17.4869 14.0763 17.3988 14.2957 17.2225 14.4748C17.0462 14.6539 16.8277 14.7434 16.5671 14.7434H15.6473V15.6792H17.035C17.1556 15.6792 17.2611 15.7244 17.3515 15.8148C17.4418 15.9053 17.4869 16.0107 17.4869 16.1313C17.4869 16.2517 17.4418 16.3571 17.3515 16.4475C17.2611 16.538 17.1556 16.5832 17.035 16.5832H15.6632ZM7.12712 13.7434C6.89768 13.7434 6.73233 13.6494 6.63108 13.4613C6.52969 13.2734 6.53837 13.0819 6.65712 12.8869L9.22587 8.87171L6.89462 5.26109C6.77573 5.07414 6.76344 4.88664 6.85775 4.69859C6.95219 4.51053 7.11184 4.4165 7.33671 4.4165C7.44046 4.4165 7.5349 4.44144 7.62004 4.4913C7.70518 4.54116 7.77143 4.60386 7.81879 4.67942L9.96608 8.05921H9.93421L12.1969 4.65046C12.2423 4.57616 12.3047 4.51859 12.384 4.47775C12.4633 4.43692 12.5501 4.4165 12.6444 4.4165C12.8757 4.4165 13.0426 4.514 13.1452 4.709C13.248 4.904 13.2402 5.09338 13.1217 5.27713L10.745 8.87171L13.3427 12.883C13.4614 13.0667 13.4711 13.256 13.3719 13.4509C13.2729 13.6459 13.1133 13.7434 12.8932 13.7434C12.7923 13.7434 12.7011 13.7184 12.6196 13.6686C12.5381 13.6187 12.4736 13.5561 12.4261 13.4807L10.0175 9.74817H10.0494L7.57358 13.5015C7.52816 13.5783 7.4658 13.6378 7.3865 13.68C7.30719 13.7223 7.22073 13.7434 7.12712 13.7434Z" fill="#1C1B1F"/>
</g>
</svg>
