<svg width="20" height="20" viewBox="0 0 20 20" fill="none" xmlns="http://www.w3.org/2000/svg">
<mask id="mask0_25_6235" style="mask-type:alpha" maskUnits="userSpaceOnUse" x="0" y="0" width="20" height="20">
<rect width="20" height="20" fill="#D9D9D9"/>
</mask>
<g mask="url(#mask0_25_6235)">
<path fill-rule="evenodd" clip-rule="evenodd" d="M6.09339 16.2241L9.15262 8.35879C9.19967 8.24214 9.27465 8.15317 9.37756 8.09191C9.48048 8.03064 9.59074 8 9.70836 8H10.1256C10.2432 8 10.3535 8.03365 10.4564 8.10094C10.5593 8.16824 10.6345 8.25821 10.682 8.37085L13.7066 16.2202C13.787 16.409 13.7701 16.5862 13.6559 16.7518C13.5418 16.9173 13.3772 17 13.1621 17C13.0391 17 12.9281 16.9658 12.8293 16.8975C12.7305 16.8291 12.6583 16.7325 12.6126 16.6076L11.8526 14.6161H7.93925L7.19142 16.6298C7.1454 16.7462 7.07483 16.837 6.97971 16.9023C6.88459 16.9674 6.77513 17 6.65134 17C6.43419 17 6.26827 16.9168 6.1536 16.7505C6.03877 16.5842 6.0187 16.4088 6.09339 16.2241ZM8.33589 13.5746H11.486L9.95967 9.40743H9.87278L8.33589 13.5746Z" fill="#1C1B1F"/>
<path d="M8.9376 6.74375C8.83471 6.74375 8.75181 6.71299 8.68891 6.65146C8.62587 6.59007 8.59435 6.50917 8.59435 6.40875V3.335C8.59435 3.23458 8.62587 3.15368 8.68891 3.09229C8.75181 3.03076 8.83471 3 8.9376 3H10.9917C11.104 3 11.2011 3.03993 11.2829 3.11979C11.3647 3.19965 11.4056 3.29437 11.4056 3.40396V4.5C11.4056 4.59361 11.3743 4.67632 11.3117 4.74812C11.2491 4.81993 11.1698 4.86118 11.0739 4.87187C11.1698 4.88785 11.2491 4.93042 11.3117 4.99958C11.3743 5.06875 11.4056 5.15014 11.4056 5.24375V6.33979C11.4056 6.44937 11.3647 6.5441 11.2829 6.62396C11.2011 6.70382 11.104 6.74375 10.9917 6.74375H8.9376ZM9.35641 4.5H10.6436V3.74375H9.35641V4.5ZM9.35641 6H10.6436V5.24375H9.35641V6ZM4.38103 6.74375C4.27131 6.74375 4.18038 6.70854 4.10823 6.63812C4.03608 6.56771 4 6.47896 4 6.37187V3.40396C4 3.29437 4.04091 3.19965 4.12274 3.11979C4.20457 3.03993 4.30162 3 4.4139 3H6.3974C6.50968 3 6.60673 3.03993 6.68856 3.11979C6.77024 3.19965 6.81109 3.29437 6.81109 3.40396V6.37979C6.81109 6.4816 6.77508 6.56771 6.70307 6.63812C6.63092 6.70854 6.53999 6.74375 6.43027 6.74375C6.32055 6.74375 6.22961 6.70854 6.15746 6.63812C6.08531 6.56771 6.04924 6.47896 6.04924 6.37187V5.66354H4.76185V6.37417C4.76185 6.47417 4.72584 6.56076 4.65384 6.63396C4.58169 6.70715 4.49075 6.74375 4.38103 6.74375ZM4.76185 4.92H6.04924V3.74375H4.76185V4.92ZM13.6026 6.74375C13.4903 6.74375 13.3933 6.70382 13.3114 6.62396C13.2298 6.5441 13.1889 6.44937 13.1889 6.33979V3.40396C13.1889 3.29437 13.2298 3.19965 13.3114 3.11979C13.3933 3.03993 13.4903 3 13.6026 3H15.5861C15.6984 3 15.7954 3.03993 15.8773 3.11979C15.9591 3.19965 16 3.29437 16 3.40396V4.04021C16 4.14187 15.9639 4.22792 15.8918 4.29833C15.8196 4.36875 15.7287 4.40396 15.619 4.40396C15.5092 4.40396 15.4183 4.36875 15.3462 4.29833C15.2742 4.22792 15.2382 4.13917 15.2382 4.03208V3.74375H13.9508V6H15.2382V5.71167C15.2382 5.61014 15.2742 5.52278 15.3462 5.44958C15.4183 5.37639 15.5092 5.33979 15.619 5.33979C15.7287 5.33979 15.8196 5.375 15.8918 5.44542C15.9639 5.51583 16 5.60458 16 5.71167V6.33979C16 6.44937 15.9591 6.5441 15.8773 6.62396C15.7954 6.70382 15.6984 6.74375 15.5861 6.74375H13.6026Z" fill="#1C1B1F"/>
</g>
</svg>
