<svg width="20" height="20" viewBox="0 0 20 20" fill="none" xmlns="http://www.w3.org/2000/svg">
<mask id="mask0_25_6210" style="mask-type:alpha" maskUnits="userSpaceOnUse" x="0" y="0" width="20" height="20">
<rect width="20" height="20" fill="#D9D9D9"/>
</mask>
<g mask="url(#mask0_25_6210)">
<path d="M15.6632 7.99984C15.4026 7.99984 15.1842 7.91199 15.008 7.7363C14.8316 7.56074 14.7434 7.3431 14.7434 7.08338V6.18296C14.7434 5.92338 14.8316 5.704 15.008 5.52484C15.1842 5.34581 15.4026 5.2563 15.6632 5.2563H16.5832V4.32046H15.1952C15.0748 4.32046 14.9694 4.27525 14.879 4.18484C14.7886 4.09442 14.7434 3.98893 14.7434 3.86838C14.7434 3.74796 14.7886 3.64255 14.879 3.55213C14.9694 3.46171 15.0748 3.4165 15.1952 3.4165H16.5671C16.8277 3.4165 17.0462 3.50435 17.2225 3.68005C17.3988 3.8556 17.4869 4.07324 17.4869 4.33296V5.23338C17.4869 5.49296 17.3988 5.71234 17.2225 5.8915C17.0462 6.07053 16.8277 6.16005 16.5671 6.16005H15.6473V7.09609H17.035C17.1556 7.09609 17.2611 7.14123 17.3515 7.2315C17.4418 7.32192 17.4869 7.42741 17.4869 7.54796C17.4869 7.66838 17.4418 7.7738 17.3515 7.86421C17.2611 7.95463 17.1556 7.99984 17.035 7.99984H15.6632ZM7.12712 15.5832C6.89768 15.5832 6.73233 15.4891 6.63108 15.3011C6.52969 15.113 6.53837 14.9215 6.65712 14.7265L9.22587 10.7113L6.89462 7.10067C6.77573 6.91373 6.76344 6.7263 6.85775 6.53838C6.95219 6.35032 7.11184 6.2563 7.33671 6.2563C7.44046 6.2563 7.5349 6.28123 7.62004 6.33109C7.70518 6.38095 7.77143 6.44359 7.81879 6.519L9.96608 9.899H9.93421L12.1969 6.49025C12.2423 6.41595 12.3047 6.35838 12.384 6.31755C12.4633 6.27671 12.5501 6.2563 12.6444 6.2563C12.8757 6.2563 13.0426 6.3538 13.1452 6.5488C13.248 6.74366 13.2402 6.93296 13.1217 7.11671L10.745 10.7113L13.3427 14.7225C13.4614 14.9063 13.4711 15.0957 13.3719 15.2907C13.2729 15.4857 13.1133 15.5832 12.8932 15.5832C12.7923 15.5832 12.7011 15.5582 12.6196 15.5084C12.5381 15.4585 12.4736 15.3958 12.4261 15.3203L10.0175 11.588H10.0494L7.57358 15.3411C7.52816 15.4179 7.4658 15.4775 7.3865 15.5198C7.30719 15.5621 7.22073 15.5832 7.12712 15.5832Z" fill="#1C1B1F"/>
</g>
</svg>
