<svg width="20" height="20" viewBox="0 0 20 20" fill="none" xmlns="http://www.w3.org/2000/svg">
<mask id="mask0_103_15070" style="mask-type:alpha" maskUnits="userSpaceOnUse" x="0" y="0" width="20" height="20">
<rect width="20" height="20" fill="#D9D9D9"/>
</mask>
<g mask="url(#mask0_103_15070)">
<path d="M7.64033 10.7033C7.48796 10.7033 7.35887 10.6514 7.25303 10.5475C7.14734 10.4438 7.09449 10.3151 7.09449 10.1617V4.49021L5.05928 6.52542C4.94651 6.64084 4.81831 6.69855 4.6747 6.69855C4.53109 6.69855 4.40394 6.63876 4.29324 6.51917C4.17783 6.40723 4.12012 6.28015 4.12012 6.13792C4.12012 5.9957 4.17783 5.86688 4.29324 5.75146L7.16345 2.88126C7.23303 2.81709 7.30658 2.76903 7.38408 2.73709C7.46171 2.70501 7.54484 2.68896 7.63345 2.68896C7.72206 2.68896 7.80637 2.70508 7.88637 2.7373C7.96637 2.76966 8.0379 2.81764 8.10095 2.88126L10.9712 5.75146C11.0812 5.86146 11.1388 5.98431 11.1441 6.12001C11.1495 6.2557 11.0945 6.38514 10.9791 6.50834C10.8637 6.62126 10.7346 6.67639 10.592 6.67376C10.4494 6.67098 10.3204 6.61195 10.2051 6.49667L8.17783 4.49021V10.1696C8.17783 10.3208 8.1263 10.4476 8.02324 10.5498C7.92019 10.6522 7.79255 10.7033 7.64033 10.7033ZM12.3664 17.3027C12.2778 17.3027 12.1935 17.2865 12.1135 17.2542C12.0335 17.222 11.9619 17.174 11.8989 17.1104L9.02866 14.2402C8.91866 14.1315 8.86449 14.0054 8.86616 13.8621C8.86769 13.7189 8.92616 13.5857 9.04158 13.4625C9.15699 13.3496 9.28602 13.2945 9.42866 13.2971C9.5713 13.2997 9.70026 13.3588 9.81553 13.4742L11.822 15.5015V9.82188C11.822 9.67077 11.8735 9.54403 11.9766 9.44167C12.0796 9.33945 12.2073 9.28834 12.3595 9.28834C12.5119 9.28834 12.641 9.34021 12.7468 9.44396C12.8525 9.54785 12.9053 9.67653 12.9053 9.83001V15.5015L14.9405 13.466C15.0533 13.3508 15.1815 13.2931 15.3251 13.2931C15.4687 13.2931 15.5959 13.3529 15.7066 13.4725C15.822 13.5843 15.8797 13.7114 15.8797 13.8538C15.8797 13.996 15.822 14.1248 15.7066 14.2402L12.8364 17.1104C12.7668 17.1745 12.6932 17.2225 12.6157 17.2546C12.5381 17.2867 12.455 17.3027 12.3664 17.3027Z" fill="#1C1B1F"/>
</g>
</svg>
