<svg width="20" height="20" viewBox="0 0 20 20" fill="none" xmlns="http://www.w3.org/2000/svg">
<mask id="mask0_2618_3284" style="mask-type:alpha" maskUnits="userSpaceOnUse" x="0" y="0" width="20" height="20">
<rect width="20" height="20" fill="#D9D9D9"/>
</mask>
<g mask="url(#mask0_2618_3284)">
<path d="M4.85598 13.807L6.92761 15.9774C7.04045 16.0958 7.09958 16.2331 7.105 16.3892C7.11055 16.5454 7.05413 16.689 6.93573 16.8201C6.81732 16.9428 6.68496 17.0027 6.53863 16.9999C6.39244 16.9969 6.26014 16.9335 6.14174 16.8096L3.19727 13.7243C3.13144 13.6494 3.08214 13.5706 3.04937 13.4881C3.01646 13.4055 3 13.3162 3 13.2203C3 13.1243 3.01646 13.035 3.04937 12.9524C3.08214 12.8699 3.13144 12.7941 3.19727 12.7251L6.14473 9.63677C6.26114 9.51495 6.39365 9.45254 6.54226 9.44956C6.69101 9.44672 6.82217 9.51017 6.93573 9.63991C7.05413 9.75904 7.11333 9.89505 7.11333 10.0479C7.11333 10.2008 7.05413 10.3393 6.93573 10.4633L4.85598 12.6425H15.698C15.8557 12.6425 15.9877 12.6978 16.094 12.8084C16.2005 12.9189 16.2537 13.0561 16.2537 13.22C16.2537 13.384 16.2005 13.5227 16.094 13.6363C15.9877 13.7501 15.8557 13.807 15.698 13.807H4.85598ZM15.144 7.35751H4.30201C4.14428 7.35751 4.01227 7.3022 3.90598 7.19157C3.79954 7.0811 3.74632 6.9439 3.74632 6.77997C3.74632 6.61605 3.79954 6.47728 3.90598 6.36367C4.01227 6.24991 4.14428 6.19303 4.30201 6.19303H15.144L13.0724 4.0226C12.9595 3.90422 12.9004 3.76694 12.895 3.61078C12.8894 3.45462 12.9459 3.311 13.0643 3.17992C13.1827 3.0572 13.315 2.99726 13.4614 3.0001C13.6076 3.00308 13.7399 3.06653 13.8583 3.19044L16.8027 6.27566C16.8686 6.35061 16.9179 6.42936 16.9506 6.51192C16.9835 6.59448 17 6.68375 17 6.77975C17 6.87574 16.9835 6.96502 16.9506 7.04758C16.9179 7.13014 16.8686 7.20591 16.8027 7.27488L13.8553 10.3632C13.7389 10.4851 13.6111 10.5437 13.4721 10.5392C13.3329 10.5346 13.2041 10.4709 13.0856 10.3482C12.9672 10.2171 12.908 10.0752 12.908 9.92229C12.908 9.76927 12.9672 9.63326 13.0856 9.51428L15.144 7.35751Z" fill="#1C1B1F"/>
</g>
</svg>
