<svg width="20" height="20" viewBox="0 0 20 20" fill="none" xmlns="http://www.w3.org/2000/svg">
<mask id="mask0_15_6464" style="mask-type:alpha" maskUnits="userSpaceOnUse" x="0" y="0" width="20" height="20">
<rect width="20" height="20" fill="#D9D9D9"/>
</mask>
<g mask="url(#mask0_15_6464)">
<path fill-rule="evenodd" clip-rule="evenodd" d="M11.4857 17.5752C11.3124 17.5752 11.1787 17.5033 11.0849 17.3596C10.991 17.216 10.975 17.0624 11.0369 16.899L13.2746 11.3196C13.316 11.2197 13.3771 11.1415 13.4578 11.0848C13.5383 11.0283 13.6337 11 13.7438 11H14.1042C14.2144 11 14.311 11.028 14.394 11.084C14.4771 11.1401 14.5386 11.2167 14.5786 11.314L16.8315 16.9013C16.8937 17.0632 16.8735 17.216 16.7709 17.3596C16.6683 17.5033 16.5263 17.5752 16.3451 17.5752C16.2359 17.5752 16.1418 17.5452 16.0628 17.4852C15.9839 17.4253 15.9246 17.3457 15.8849 17.2463L15.388 15.9806H12.4809L11.9594 17.2577C11.9167 17.357 11.8544 17.4348 11.7728 17.491C11.6911 17.5472 11.5954 17.5752 11.4857 17.5752ZM13.8928 12.2563L12.8255 15.0609H15.0226L13.9678 12.2563H13.8928Z" fill="#1C1B1F"/>
<path d="M4.7563 16.5832C4.38782 16.5832 4.07241 16.452 3.81005 16.1896C3.54768 15.9273 3.4165 15.6119 3.4165 15.2434V4.7563C3.4165 4.38782 3.54768 4.07241 3.81005 3.81005C4.07241 3.54768 4.38782 3.4165 4.7563 3.4165H15.2434C15.6119 3.4165 15.9273 3.54768 16.1896 3.81005C16.452 4.07241 16.5832 4.38782 16.5832 4.7563V10.6634C16.5832 10.8135 16.5316 10.9426 16.4286 11.0507C16.3255 11.1589 16.1979 11.213 16.0457 11.213C15.8933 11.213 15.7643 11.1611 15.6586 11.0573C15.5528 10.9534 15.4998 10.8248 15.4998 10.6713V8.64734H12.5528V10.6634C12.5528 10.8135 12.5012 10.9426 12.3982 11.0507C12.2951 11.1589 12.1675 11.213 12.0153 11.213C11.8629 11.213 11.7338 11.1611 11.628 11.0573C11.5223 10.9534 11.4694 10.8248 11.4694 10.6713V8.64734H8.53025V11.495C8.53025 11.8064 8.42345 12.0709 8.20984 12.2886C7.99623 12.5064 7.73657 12.6153 7.43088 12.6153H4.49984V15.2434C4.49984 15.3182 4.52387 15.3797 4.57192 15.4278C4.61998 15.4758 4.68143 15.4998 4.7563 15.4998H9.09442C9.24789 15.4998 9.3765 15.5514 9.48025 15.6544C9.58414 15.7575 9.63609 15.8851 9.63609 16.0373C9.63609 16.1897 9.58414 16.3187 9.48025 16.4244C9.3765 16.5303 9.24789 16.5832 9.09442 16.5832H4.7563ZM4.49984 11.5319H7.44692V8.64734H4.49984V11.5319ZM4.49984 7.564H15.4998V4.7563C15.4998 4.68143 15.4758 4.61998 15.4278 4.57192C15.3797 4.52387 15.3182 4.49984 15.2434 4.49984H4.7563C4.68143 4.49984 4.61998 4.52387 4.57192 4.57192C4.52387 4.61998 4.49984 4.68143 4.49984 4.7563V7.564Z" fill="#1C1B1F"/>
</g>
</svg>
