<svg width="48" height="32" viewBox="0 0 48 32" fill="none" xmlns="http://www.w3.org/2000/svg">
<rect x="0.5" y="0.5" width="47" height="31" rx="1.5" fill="white"/>
<rect x="0.5" y="0.5" width="47" height="31" rx="1.5" stroke="#E5E2E1"/>
<path d="M43 1H46C46.5523 1 47 1.44772 47 2V30C47 30.5523 46.5523 31 46 31H43V1Z" fill="#E7E7E6"/>
<path d="M43 1H46C46.5523 1 47 1.44772 47 2V19H43V1Z" fill="#ACACAC"/>
<rect x="39" y="5" width="16" height="2" rx="1" transform="rotate(90 39 5)" fill="#ACACAC"/>
<rect x="35" y="5" width="6" height="6" rx="1" transform="rotate(90 35 5)" fill="#ACACAC"/>
<rect x="35" y="12" width="9" height="2" rx="1" transform="rotate(90 35 12)" fill="#ACACAC"/>
<rect x="31" y="12" width="9" height="2" rx="1" transform="rotate(90 31 12)" fill="#ACACAC"/>
<rect x="27" y="5" width="16" height="2" rx="1" transform="rotate(90 27 5)" fill="#ACACAC"/>
<rect x="23" y="5" width="10" height="2" rx="1" transform="rotate(90 23 5)" fill="#ACACAC"/>
</svg>
