<svg width="48" height="32" viewBox="0 0 48 32" fill="none" xmlns="http://www.w3.org/2000/svg">
<rect x="0.5" y="0.5" width="47" height="31" rx="1.5" fill="white"/>
<rect x="0.5" y="0.5" width="47" height="31" rx="1.5" stroke="#E5E2E1"/>
<rect x="30" y="4" width="11" height="1.33333" rx="0.666667" transform="rotate(90 30 4)" fill="#ACACAC"/>
<rect x="27.3333" y="4" width="4.125" height="4" rx="1" transform="rotate(90 27.3333 4)" fill="#ACACAC"/>
<rect x="27.3333" y="8.8125" width="6.1875" height="1.33333" rx="0.666667" transform="rotate(90 27.3333 8.8125)" fill="#ACACAC"/>
<rect x="24.6667" y="8.8125" width="6.1875" height="1.33333" rx="0.666667" transform="rotate(90 24.6667 8.8125)" fill="#ACACAC"/>
<rect x="22" y="4" width="11" height="1.33333" rx="0.666667" transform="rotate(90 22 4)" fill="#ACACAC"/>
<rect x="19.3333" y="4" width="6.875" height="1.33333" rx="0.666667" transform="rotate(90 19.3333 4)" fill="#ACACAC"/>
<rect x="30" y="17" width="11" height="1.33333" rx="0.666667" transform="rotate(90 30 17)" fill="#ACACAC"/>
<rect x="27.3333" y="17" width="4.125" height="4" rx="1" transform="rotate(90 27.3333 17)" fill="#ACACAC"/>
<rect x="27.3333" y="21.8125" width="6.1875" height="1.33333" rx="0.666667" transform="rotate(90 27.3333 21.8125)" fill="#ACACAC"/>
<rect x="24.6667" y="21.8125" width="6.1875" height="1.33333" rx="0.666667" transform="rotate(90 24.6667 21.8125)" fill="#ACACAC"/>
<rect x="22" y="17" width="11" height="1.33333" rx="0.666667" transform="rotate(90 22 17)" fill="#ACACAC"/>
<rect x="19.3333" y="17" width="6.875" height="1.33333" rx="0.666667" transform="rotate(90 19.3333 17)" fill="#ACACAC"/>
</svg>
