<svg viewBox="0 0 56 44" xmlns="http://www.w3.org/2000/svg">
  <!-- Background Container -->
  <rect x="4" y="4" width="48" height="36" rx="1" fill="white" stroke="#E5E2E1" stroke-width="0.5"/>
  
  <!-- Title Section - just an icon/bar instead of text -->
  <rect x="7.5" y="6" width="33" height="5" rx="0.5" fill="#AEAEAE"/>
  <rect x="12" y="7.5" width="24" height="2" rx="0.5" fill="white"/>
  
  <!-- Table of Contents Items -->
  <g transform="translate(7.5, 14)">
    <!-- Item 1 -->
    <rect x="0" y="0" width="3" height="3" rx="0.5" fill="#AEAEAE"/>
    <rect x="4.5" y="0.5" width="22" height="1.5" rx="0.5" fill="#333333"/>
    <line x1="0" y1="4.5" x2="41" y2="4.5" stroke="#E5E2E1" stroke-width="0.3"/>
    
    <!-- Item 2 -->
    <rect x="0" y="6.5" width="3" height="3" rx="0.5" fill="#AEAEAE"/>
    <rect x="4.5" y="7" width="28" height="1.5" rx="0.5" fill="#333333"/>
    <line x1="0" y1="11" x2="41" y2="11" stroke="#E5E2E1" stroke-width="0.3"/>
    
    <!-- Item 3 -->
    <rect x="0" y="13" width="3" height="3" rx="0.5" fill="#AEAEAE"/>
    <rect x="4.5" y="13.5" width="24" height="1.5" rx="0.5" fill="#333333"/>
    <line x1="0" y1="17.5" x2="41" y2="17.5" stroke="#E5E2E1" stroke-width="0.3"/>
    
    <!-- Item 4 -->
    <rect x="0" y="19.5" width="3" height="3" rx="0.5" fill="#AEAEAE"/>
    <rect x="4.5" y="20" width="26" height="1.5" rx="0.5" fill="#333333"/>
  </g>
</svg>