<svg width="20" height="20" viewBox="0 0 20 20" fill="none" xmlns="http://www.w3.org/2000/svg">
<mask id="mask0_412_25643" style="mask-type:alpha" maskUnits="userSpaceOnUse" x="0" y="0" width="20" height="20">
<rect width="20" height="20" fill="#D9D9D9"/>
</mask>
<g mask="url(#mask0_412_25643)">
<path d="M11.0355 14.6955C11.1888 14.6955 11.3184 14.6441 11.4242 14.5411C11.5302 14.4381 11.5832 14.3104 11.5832 14.158C11.5832 14.0058 11.5313 13.8768 11.4275 13.7709C11.3238 13.6652 11.1953 13.6124 11.0421 13.6124H3.96421C3.81088 13.6124 3.6813 13.6639 3.57546 13.7668C3.46949 13.8698 3.4165 13.9975 3.4165 14.1499C3.4165 14.3021 3.46838 14.4311 3.57213 14.537C3.67588 14.6427 3.80435 14.6955 3.95755 14.6955H11.0355ZM11.0355 10.5418C11.1888 10.5418 11.3184 10.4902 11.4242 10.3872C11.5302 10.2841 11.5832 10.1565 11.5832 10.0043C11.5832 9.85191 11.5313 9.72288 11.4275 9.61719C11.3238 9.51135 11.1953 9.45844 11.0421 9.45844H3.96421C3.81088 9.45844 3.6813 9.50997 3.57546 9.61302C3.46949 9.71608 3.4165 9.84372 3.4165 9.99594C3.4165 10.1483 3.46838 10.2773 3.57213 10.383C3.67588 10.4889 3.80435 10.5418 3.95755 10.5418H11.0355ZM16.0415 6.38781C16.195 6.38781 16.3236 6.33635 16.4273 6.23344C16.5312 6.13038 16.5832 6.00267 16.5832 5.85031C16.5832 5.69809 16.5312 5.56906 16.4273 5.46323C16.3236 5.35753 16.195 5.30469 16.0415 5.30469H3.95817C3.8047 5.30469 3.67609 5.35615 3.57234 5.45906C3.46845 5.56212 3.4165 5.68983 3.4165 5.84219C3.4165 5.99441 3.46845 6.12344 3.57234 6.22927C3.67609 6.33497 3.8047 6.38781 3.95817 6.38781H16.0415Z" fill="#1C1B1F"/>
</g>
</svg>
