<svg width="20" height="20" viewBox="0 0 20 20" fill="none" xmlns="http://www.w3.org/2000/svg">
<mask id="mask0_412_25649" style="mask-type:alpha" maskUnits="userSpaceOnUse" x="0" y="0" width="20" height="20">
<rect width="20" height="20" fill="#D9D9D9"/>
</mask>
<g mask="url(#mask0_412_25649)">
<path d="M3.95817 6.38781C3.8047 6.38781 3.67609 6.33635 3.57234 6.23344C3.46845 6.13038 3.4165 6.00267 3.4165 5.85031C3.4165 5.69809 3.46845 5.56906 3.57234 5.46323C3.67609 5.35753 3.8047 5.30469 3.95817 5.30469H16.0415C16.195 5.30469 16.3236 5.35615 16.4273 5.45906C16.5312 5.56212 16.5832 5.68983 16.5832 5.84219C16.5832 5.99441 16.5312 6.12344 16.4273 6.22927C16.3236 6.33497 16.195 6.38781 16.0415 6.38781H3.95817Z" fill="#1C1B1F"/>
<path d="M6.1588 14.5411C6.26463 14.644 6.39421 14.6955 6.54755 14.6955H13.6255C13.7787 14.6955 13.9071 14.6427 14.0109 14.537C14.1146 14.4311 14.1665 14.3021 14.1665 14.1499C14.1665 13.9975 14.1135 13.8698 14.0075 13.7668C13.9017 13.6638 13.7721 13.6124 13.6188 13.6124H6.54088C6.38769 13.6124 6.25921 13.6652 6.15546 13.7709C6.05171 13.8768 5.99984 14.0058 5.99984 14.158C5.99984 14.3104 6.05282 14.4381 6.1588 14.5411Z" fill="#1C1B1F"/>
<path d="M6.1588 10.3872C6.26463 10.4902 6.39421 10.5418 6.54755 10.5418H13.6255C13.7787 10.5418 13.9071 10.4888 14.0109 10.383C14.1146 10.2773 14.1665 10.1483 14.1665 9.99592C14.1665 9.84369 14.1135 9.71606 14.0075 9.613C13.9017 9.50995 13.7721 9.45842 13.6188 9.45842H6.54088C6.38769 9.45842 6.25921 9.51133 6.15546 9.61717C6.05171 9.72286 5.99984 9.85189 5.99984 10.0043C5.99984 10.1565 6.05282 10.2841 6.1588 10.3872Z" fill="#1C1B1F"/>
</g>
</svg>
