<svg width="20" height="20" viewBox="0 0 20 20" fill="none" xmlns="http://www.w3.org/2000/svg">
<mask id="mask0_412_25550" style="mask-type:alpha" maskUnits="userSpaceOnUse" x="0" y="0" width="20" height="20">
<rect width="20" height="20" fill="#D9D9D9"/>
</mask>
<g mask="url(#mask0_412_25550)">
<path d="M8.96421 14.6955C8.81088 14.6955 8.6813 14.6441 8.57546 14.5411C8.46949 14.4381 8.4165 14.3104 8.4165 14.158C8.4165 14.0058 8.46838 13.8768 8.57213 13.7709C8.67588 13.6652 8.80435 13.6124 8.95755 13.6124H16.0355C16.1888 13.6124 16.3184 13.6639 16.4242 13.7668C16.5302 13.8698 16.5832 13.9975 16.5832 14.1499C16.5832 14.3021 16.5313 14.4311 16.4275 14.537C16.3238 14.6427 16.1953 14.6955 16.0421 14.6955H8.96421ZM8.96421 10.5418C8.81088 10.5418 8.6813 10.4902 8.57546 10.3872C8.46949 10.2841 8.4165 10.1565 8.4165 10.0043C8.4165 9.85191 8.46838 9.72288 8.57213 9.61719C8.67588 9.51135 8.80435 9.45844 8.95755 9.45844H16.0355C16.1888 9.45844 16.3184 9.50997 16.4242 9.61302C16.5302 9.71608 16.5832 9.84372 16.5832 9.99594C16.5832 10.1483 16.5313 10.2773 16.4275 10.383C16.3238 10.4889 16.1953 10.5418 16.0421 10.5418H8.96421ZM3.95817 6.38781C3.8047 6.38781 3.67609 6.33635 3.57234 6.23344C3.46845 6.13038 3.4165 6.00267 3.4165 5.85031C3.4165 5.69809 3.46845 5.56906 3.57234 5.46323C3.67609 5.35753 3.8047 5.30469 3.95817 5.30469H16.0415C16.195 5.30469 16.3236 5.35615 16.4273 5.45906C16.5312 5.56212 16.5832 5.68983 16.5832 5.84219C16.5832 5.99441 16.5312 6.12344 16.4273 6.22927C16.3236 6.33497 16.195 6.38781 16.0415 6.38781H3.95817Z" fill="#1C1B1F"/>
</g>
</svg>
