<svg width="20" height="20" viewBox="0 0 20 20" fill="none" xmlns="http://www.w3.org/2000/svg">
<mask id="mask0_2622_4653" style="mask-type:alpha" maskUnits="userSpaceOnUse" x="0" y="0" width="20" height="20">
<rect width="20" height="20" fill="#D9D9D9"/>
</mask>
<g mask="url(#mask0_2622_4653)">
<path d="M6.7098 15.583C6.56021 15.583 6.43251 15.5301 6.32667 15.4243C6.22098 15.3186 6.16813 15.1909 6.16813 15.0414C6.16813 14.8918 6.22098 14.7641 6.32667 14.6584C6.43251 14.5526 6.56021 14.4997 6.7098 14.4997H12.2321C12.9213 14.4997 13.4995 14.2473 13.9669 13.7424C14.4344 13.2377 14.6681 12.6327 14.6681 11.9276C14.6681 11.2225 14.4344 10.6188 13.9669 10.1166C13.4995 9.61448 12.9213 9.36344 12.2321 9.36344H6.50626L8.19855 11.0766C8.31924 11.1974 8.37959 11.3264 8.37959 11.4636C8.37959 11.6009 8.31924 11.7299 8.19855 11.8507C8.07785 11.9714 7.95098 12.0305 7.81792 12.0278C7.68487 12.025 7.5607 11.966 7.44542 11.8507L4.88126 9.28656C4.81709 9.2224 4.76903 9.15052 4.73709 9.07094C4.70501 8.99135 4.68896 8.9083 4.68896 8.82177C4.68896 8.73524 4.70501 8.65219 4.73709 8.5726C4.76903 8.49302 4.81709 8.42115 4.88126 8.35698L7.42459 5.81385C7.54528 5.69316 7.67424 5.63281 7.81146 5.63281C7.94883 5.63281 8.07785 5.69316 8.19855 5.81385C8.31924 5.93455 8.38174 6.06142 8.38605 6.19448C8.39035 6.3274 8.3348 6.45156 8.21938 6.56698L6.50626 8.2801H12.2321C13.215 8.2801 14.0473 8.6383 14.729 9.35469C15.4106 10.0711 15.7515 10.9287 15.7515 11.9276C15.7515 12.9265 15.4106 13.7855 14.729 14.5045C14.0473 15.2235 13.215 15.583 12.2321 15.583H6.7098Z" fill="#1C1B1F"/>
</g>
</svg>
