<svg width="20" height="20" viewBox="0 0 20 20" fill="none" xmlns="http://www.w3.org/2000/svg">
<mask id="mask0_614_26299" style="mask-type:alpha" maskUnits="userSpaceOnUse" x="0" y="0" width="20" height="20">
<rect width="20" height="20" fill="#D9D9D9"/>
</mask>
<g mask="url(#mask0_614_26299)">
<path fill-rule="evenodd" clip-rule="evenodd" d="M14.9681 17.9552C14.1412 17.9552 13.4398 17.6673 12.864 17.0915C12.288 16.5156 12 15.8162 12 14.9931C12 14.1701 12.288 13.4654 12.864 12.8792C13.4398 12.2931 14.1412 12 14.9681 12C15.7951 12 16.4997 12.2931 17.0819 12.8792C17.6641 13.4654 17.9552 14.1701 17.9552 14.9931C17.9552 15.8162 17.6641 16.5156 17.0819 17.0915C16.4997 17.6673 15.7951 17.9552 14.9681 17.9552ZM14.9835 16.8798C15.5083 16.8798 15.9542 16.6964 16.3212 16.3294C16.6882 15.9625 16.8717 15.5136 16.8717 14.9827C16.8717 14.4554 16.6864 14.007 16.316 13.6375C15.9456 13.2681 15.498 13.0834 14.9731 13.0834C14.4484 13.0834 14.0009 13.2681 13.6306 13.6375C13.2603 14.007 13.0752 14.4554 13.0752 14.9827C13.0752 15.5136 13.2621 15.9625 13.6358 16.3294C14.0094 16.6964 14.4587 16.8798 14.9835 16.8798Z" fill="#1C1B1F"/>
<path fill-rule="evenodd" clip-rule="evenodd" d="M4.96812 17.9552C4.14118 17.9552 3.43979 17.6673 2.86396 17.0915C2.28799 16.5156 2 15.8162 2 14.9931C2 14.1701 2.28799 13.4654 2.86396 12.8792C3.43979 12.2931 4.14118 12 4.96812 12C5.79507 12 6.49965 12.2931 7.08188 12.8792C7.6641 13.4654 7.95521 14.1701 7.95521 14.9931C7.95521 15.8162 7.6641 16.5156 7.08188 17.0915C6.49965 17.6673 5.79507 17.9552 4.96812 17.9552ZM4.98353 16.8798C5.50825 16.8798 5.95415 16.6964 6.32124 16.3294C6.68818 15.9625 6.87165 15.5136 6.87165 14.9827C6.87165 14.4554 6.68645 14.007 6.31603 13.6375C5.94561 13.2681 5.49797 13.0834 4.97311 13.0834C4.44839 13.0834 4.00089 13.2681 3.63061 13.6375C3.26033 14.007 3.0752 14.4554 3.0752 14.9827C3.0752 15.5136 3.26207 15.9625 3.63582 16.3294C4.00943 16.6964 4.45867 16.8798 4.98353 16.8798Z" fill="#1C1B1F"/>
<path fill-rule="evenodd" clip-rule="evenodd" d="M4.96812 7.95521C4.14118 7.95521 3.43979 7.66729 2.86396 7.09146C2.28799 6.51562 2 5.81618 2 4.99312C2 4.17007 2.28799 3.46542 2.86396 2.87917C3.43979 2.29305 4.14118 2 4.96812 2C5.79507 2 6.49965 2.29305 7.08188 2.87917C7.6641 3.46542 7.95521 4.17007 7.95521 4.99312C7.95521 5.81618 7.6641 6.51562 7.08188 7.09146C6.49965 7.66729 5.79507 7.95521 4.96812 7.95521ZM4.98353 6.87983C5.50825 6.87983 5.95415 6.69636 6.32124 6.32942C6.68818 5.96247 6.87165 5.51358 6.87165 4.98275C6.87165 4.45539 6.68645 4.00699 6.31603 3.63754C5.94561 3.2681 5.49797 3.08337 4.97311 3.08337C4.44839 3.08337 4.00089 3.2681 3.63061 3.63754C3.26033 4.00699 3.0752 4.45539 3.0752 4.98275C3.0752 5.51358 3.26207 5.96247 3.63582 6.32942C4.00943 6.69636 4.45867 6.87983 4.98353 6.87983Z" fill="#1C1B1F"/>
<path fill-rule="evenodd" clip-rule="evenodd" d="M14.9681 7.95521C14.1412 7.95521 13.4398 7.66729 12.864 7.09146C12.288 6.51562 12 5.81618 12 4.99312C12 4.17007 12.288 3.46542 12.864 2.87917C13.4398 2.29305 14.1412 2 14.9681 2C15.7951 2 16.4997 2.29305 17.0819 2.87917C17.6641 3.46542 17.9552 4.17007 17.9552 4.99312C17.9552 5.81618 17.6641 6.51562 17.0819 7.09146C16.4997 7.66729 15.7951 7.95521 14.9681 7.95521ZM14.9835 6.87983C15.5083 6.87983 15.9542 6.69636 16.3212 6.32942C16.6882 5.96247 16.8717 5.51358 16.8717 4.98275C16.8717 4.45539 16.6864 4.00699 16.316 3.63754C15.9456 3.2681 15.498 3.08337 14.9731 3.08337C14.4484 3.08337 14.0009 3.2681 13.6306 3.63754C13.2603 4.00699 13.0752 4.45539 13.0752 4.98275C13.0752 5.51358 13.2621 5.96247 13.6358 6.32942C14.0094 6.69636 14.4587 6.87983 14.9835 6.87983Z" fill="#1C1B1F"/>
<path d="M7.35587 15.4288C7.45962 15.5318 7.58823 15.5833 7.7417 15.5833L12.2419 15.5834C12.3953 15.5834 12.5239 15.5304 12.6277 15.4246C12.7316 15.3189 12.7835 15.1899 12.7835 15.0375C12.7835 14.8853 12.7316 14.7577 12.6277 14.6546C12.5239 14.5516 12.3953 14.5 12.2419 14.5L7.7417 14.5C7.58823 14.5 7.45962 14.5529 7.35587 14.6587C7.25198 14.7644 7.20003 14.8935 7.20003 15.0458C7.20003 15.1981 7.25198 15.3257 7.35587 15.4288Z" fill="#1C1B1F"/>
<path d="M7.35587 5.42875C7.45962 5.53181 7.58823 5.58333 7.7417 5.58333L12.2419 5.58337C12.3953 5.58337 12.5239 5.53045 12.6277 5.42462C12.7316 5.31892 12.7835 5.18989 12.7835 5.03753C12.7835 4.88531 12.7316 4.75767 12.6277 4.65462C12.5239 4.55156 12.3953 4.50003 12.2419 4.50003L7.7417 4.5C7.58823 4.5 7.45962 4.55292 7.35587 4.65875C7.25198 4.76444 7.20003 4.89347 7.20003 5.04583C7.20003 5.19806 7.25198 5.32569 7.35587 5.42875Z" fill="#1C1B1F"/>
<path d="M5.42875 12.4278C5.53181 12.3241 5.58333 12.1955 5.58333 12.042L5.58337 7.54183C5.58337 7.38836 5.53045 7.25975 5.42462 7.156C5.31892 7.05211 5.18989 7.00016 5.03753 7.00016C4.88531 7.00016 4.75767 7.05211 4.65462 7.156C4.55156 7.25975 4.50003 7.38836 4.50003 7.54183L4.5 12.042C4.5 12.1955 4.55292 12.3241 4.65875 12.4278C4.76444 12.5317 4.89347 12.5837 5.04583 12.5837C5.19806 12.5837 5.32569 12.5317 5.42875 12.4278Z" fill="#1C1B1F"/>
<path d="M15.4288 12.4278C15.5318 12.3241 15.5833 12.1955 15.5833 12.042L15.5834 7.54183C15.5834 7.38836 15.5304 7.25975 15.4246 7.156C15.3189 7.05211 15.1899 7.00016 15.0375 7.00016C14.8853 7.00016 14.7577 7.05211 14.6546 7.156C14.5516 7.25975 14.5 7.38836 14.5 7.54183L14.5 12.042C14.5 12.1955 14.5529 12.3241 14.6587 12.4278C14.7644 12.5317 14.8935 12.5837 15.0458 12.5837C15.1981 12.5837 15.3257 12.5317 15.4288 12.4278Z" fill="#1C1B1F"/>
</g>
</svg>
