<svg width="20" height="20" viewBox="0 0 20 20" fill="none" xmlns="http://www.w3.org/2000/svg">
<mask id="mask0_109_15544" style="mask-type:alpha" maskUnits="userSpaceOnUse" x="0" y="0" width="20" height="20">
<rect width="20" height="20" fill="#D9D9D9"/>
</mask>
<g mask="url(#mask0_109_15544)">
<path d="M9.45817 11.1457V13.9469C9.45817 14.1001 9.50963 14.2284 9.61255 14.3319C9.71532 14.4353 9.84296 14.4869 9.99546 14.4869C10.148 14.4869 10.2771 14.4353 10.3828 14.3319C10.4886 14.2284 10.5415 14.1001 10.5415 13.9469V11.1457L11.5548 12.159C11.6069 12.2109 11.6682 12.2489 11.7386 12.273C11.8091 12.297 11.8762 12.3104 11.9398 12.3132C12.0033 12.3158 12.073 12.3051 12.1488 12.2811C12.2246 12.2571 12.2866 12.221 12.3348 12.173C12.4555 12.0575 12.5146 11.9285 12.5119 11.7859C12.5091 11.6432 12.451 11.5152 12.3375 11.4017L10.4646 9.52859C10.3991 9.45817 10.3303 9.40852 10.2584 9.37963C10.1864 9.35074 10.1003 9.3363 9.99984 9.3363C9.89942 9.3363 9.81324 9.35074 9.7413 9.37963C9.66935 9.40852 9.6006 9.45817 9.53505 9.52859L7.66213 11.4017C7.55393 11.5099 7.50039 11.6344 7.5015 11.7753C7.50248 11.9161 7.56123 12.0417 7.67775 12.1521C7.79317 12.2728 7.9222 12.3319 8.06484 12.3292C8.20734 12.3264 8.33442 12.2693 8.44609 12.1578L9.45817 11.1457ZM5.75046 17.5832C5.37505 17.5832 5.05887 17.4537 4.80192 17.1946C4.54498 16.9356 4.4165 16.6185 4.4165 16.2434V3.7563C4.4165 3.38116 4.54602 3.06407 4.80505 2.80505C5.06407 2.54602 5.38116 2.4165 5.7563 2.4165H11.6473C11.8234 2.4165 11.993 2.44859 12.1561 2.51275C12.319 2.57678 12.4689 2.6772 12.6057 2.814L15.1857 5.394C15.3225 5.53081 15.4229 5.68067 15.4869 5.84359C15.5511 6.00664 15.5832 6.17623 15.5832 6.35234V16.2434C15.5832 16.6185 15.4536 16.9356 15.1944 17.1946C14.9353 17.4537 14.618 17.5832 14.2425 17.5832H5.75046ZM11.4165 5.91317V3.49984H5.7563C5.69213 3.49984 5.63338 3.52657 5.58005 3.58005C5.52657 3.63338 5.49984 3.69213 5.49984 3.7563V16.2434C5.49984 16.3075 5.52657 16.3663 5.58005 16.4196C5.63338 16.4731 5.69213 16.4998 5.7563 16.4998H14.2434C14.3075 16.4998 14.3663 16.4731 14.4196 16.4196C14.4731 16.3663 14.4998 16.3075 14.4998 16.2434V6.58317H12.0865C11.8953 6.58317 11.7358 6.51928 11.6082 6.3915C11.4804 6.26386 11.4165 6.10442 11.4165 5.91317Z" fill="#1C1B1F"/>
</g>
</svg>
