<svg width="20" height="20" viewBox="0 0 20 20" fill="none" xmlns="http://www.w3.org/2000/svg">
<mask id="mask0_15_6679" style="mask-type:alpha" maskUnits="userSpaceOnUse" x="0" y="0" width="20" height="20">
<rect width="20" height="20" fill="#D9D9D9"/>
</mask>
<g mask="url(#mask0_15_6679)">
<path d="M2.95817 17.5832C2.8047 17.5832 2.67609 17.5316 2.57234 17.4286C2.46845 17.3255 2.4165 17.1979 2.4165 17.0457C2.4165 16.8933 2.46845 16.7643 2.57234 16.6586C2.67609 16.5528 2.8047 16.4998 2.95817 16.4998H17.0415C17.195 16.4998 17.3236 16.5514 17.4273 16.6544C17.5312 16.7575 17.5832 16.8851 17.5832 17.0373C17.5832 17.1897 17.5312 17.3187 17.4273 17.4244C17.3236 17.5303 17.195 17.5832 17.0415 17.5832H2.95817ZM6.99984 10.7915C6.77998 10.7915 6.59303 10.7146 6.439 10.5609C6.28512 10.4071 6.20817 10.2205 6.20817 10.0009C6.20817 9.78116 6.28512 9.59414 6.439 9.43984C6.59303 9.28539 6.77998 9.20817 6.99984 9.20817H12.9998C13.2197 9.20817 13.4066 9.28505 13.5607 9.4388C13.7146 9.59255 13.7915 9.77921 13.7915 9.9988C13.7915 10.2185 13.7146 10.4055 13.5607 10.5598C13.4066 10.7143 13.2197 10.7915 12.9998 10.7915H6.99984ZM2.95817 3.49984C2.8047 3.49984 2.67609 3.44831 2.57234 3.34525C2.46845 3.2422 2.4165 3.11456 2.4165 2.96234C2.4165 2.80998 2.46845 2.68095 2.57234 2.57525C2.67609 2.46942 2.8047 2.4165 2.95817 2.4165H17.0415C17.195 2.4165 17.3236 2.46803 17.4273 2.57109C17.5312 2.67414 17.5832 2.80178 17.5832 2.954C17.5832 3.10636 17.5312 3.23539 17.4273 3.34109C17.3236 3.44692 17.195 3.49984 17.0415 3.49984H2.95817Z" fill="#1C1B1F"/>
</g>
</svg>
