<svg width="20" height="20" viewBox="0 0 20 20" fill="none" xmlns="http://www.w3.org/2000/svg">
<mask id="mask0_582_25325" style="mask-type:alpha" maskUnits="userSpaceOnUse" x="0" y="0" width="20" height="20">
<rect width="20" height="20" fill="#D9D9D9"/>
</mask>
<g mask="url(#mask0_582_25325)">
<path d="M12.5002 16.5832C12.1251 16.5832 11.808 16.4537 11.549 16.1946C11.2899 15.9356 11.1604 15.6185 11.1604 15.2434V4.7563C11.1604 4.39088 11.2899 4.07623 11.549 3.81234C11.808 3.54845 12.1251 3.4165 12.5002 3.4165H14.9873C15.3527 3.4165 15.6674 3.54845 15.9313 3.81234C16.1951 4.07623 16.3271 4.39088 16.3271 4.7563V15.2434C16.3271 15.6185 16.1951 15.9356 15.9313 16.1946C15.6674 16.4537 15.3527 16.5832 14.9873 16.5832H12.5002ZM12.2438 4.7563V15.2434C12.2438 15.3075 12.2705 15.3663 12.324 15.4196C12.3773 15.4731 12.436 15.4998 12.5002 15.4998H14.9873C15.0515 15.4998 15.1102 15.4731 15.1635 15.4196C15.217 15.3663 15.2438 15.3075 15.2438 15.2434V4.7563C15.2438 4.69213 15.217 4.63338 15.1635 4.58005C15.1102 4.52657 15.0515 4.49984 14.9873 4.49984H12.5002C12.436 4.49984 12.3773 4.52657 12.324 4.58005C12.2705 4.63338 12.2438 4.69213 12.2438 4.7563ZM5.01313 16.5832C4.63799 16.5832 4.32091 16.4537 4.06188 16.1946C3.80285 15.9356 3.67334 15.6185 3.67334 15.2434V4.7563C3.67334 4.39088 3.80285 4.07623 4.06188 3.81234C4.32091 3.54845 4.63799 3.4165 5.01313 3.4165H7.50022C7.86563 3.4165 8.18028 3.54845 8.44417 3.81234C8.70806 4.07623 8.84001 4.39088 8.84001 4.7563V15.2434C8.84001 15.6185 8.70806 15.9356 8.44417 16.1946C8.18028 16.4537 7.86563 16.5832 7.50022 16.5832H5.01313ZM4.75667 4.7563V15.2434C4.75667 15.3075 4.78341 15.3663 4.83688 15.4196C4.89021 15.4731 4.94896 15.4998 5.01313 15.4998H7.50022C7.56438 15.4998 7.62313 15.4731 7.67647 15.4196C7.72994 15.3663 7.75667 15.3075 7.75667 15.2434V4.7563C7.75667 4.69213 7.72994 4.63338 7.67647 4.58005C7.62313 4.52657 7.56438 4.49984 7.50022 4.49984H5.01313C4.94896 4.49984 4.89021 4.52657 4.83688 4.58005C4.78341 4.63338 4.75667 4.69213 4.75667 4.7563Z" fill="#1C1B1F"/>
</g>
</svg>
