<svg width="20" height="20" viewBox="0 0 20 20" fill="none" xmlns="http://www.w3.org/2000/svg">
<mask id="mask0_582_25335" style="mask-type:alpha" maskUnits="userSpaceOnUse" x="0" y="0" width="20" height="20">
<rect width="20" height="20" fill="#D9D9D9"/>
</mask>
<g mask="url(#mask0_582_25335)">
<path d="M4.33979 16.5832C3.96465 16.5832 3.64757 16.4537 3.38854 16.1946C3.12951 15.9356 3 15.6185 3 15.2434V4.7563C3 4.39088 3.12951 4.07623 3.38854 3.81234C3.64757 3.54845 3.96465 3.4165 4.33979 3.4165H5.82688C6.19229 3.4165 6.50694 3.54845 6.77083 3.81234C7.03472 4.07623 7.16667 4.39088 7.16667 4.7563V15.2434C7.16667 15.6185 7.03472 15.9356 6.77083 16.1946C6.50694 16.4537 6.19229 16.5832 5.82688 16.5832H4.33979ZM4.08333 4.7563V15.2434C4.08333 15.3075 4.11007 15.3663 4.16354 15.4196C4.21688 15.4731 4.27562 15.4998 4.33979 15.4998H5.82688C5.89104 15.4998 5.94979 15.4731 6.00313 15.4196C6.0566 15.3663 6.08333 15.3075 6.08333 15.2434V4.7563C6.08333 4.69213 6.0566 4.63338 6.00313 4.58005C5.94979 4.52657 5.89104 4.49984 5.82688 4.49984H4.33979C4.27562 4.49984 4.21688 4.52657 4.16354 4.58005C4.11007 4.63338 4.08333 4.69213 4.08333 4.7563Z" fill="#1C1B1F"/>
<path d="M9.33979 16.5832C8.96465 16.5832 8.64757 16.4537 8.38854 16.1946C8.12951 15.9356 8 15.6185 8 15.2434V4.7563C8 4.39088 8.12951 4.07623 8.38854 3.81234C8.64757 3.54845 8.96465 3.4165 9.33979 3.4165H10.8269C11.1923 3.4165 11.5069 3.54845 11.7708 3.81234C12.0347 4.07623 12.1667 4.39088 12.1667 4.7563V15.2434C12.1667 15.6185 12.0347 15.9356 11.7708 16.1946C11.5069 16.4537 11.1923 16.5832 10.8269 16.5832H9.33979ZM9.08333 4.7563V15.2434C9.08333 15.3075 9.11007 15.3663 9.16354 15.4196C9.21688 15.4731 9.27563 15.4998 9.33979 15.4998H10.8269C10.891 15.4998 10.9498 15.4731 11.0031 15.4196C11.0566 15.3663 11.0833 15.3075 11.0833 15.2434V4.7563C11.0833 4.69213 11.0566 4.63338 11.0031 4.58005C10.9498 4.52657 10.891 4.49984 10.8269 4.49984H9.33979C9.27563 4.49984 9.21688 4.52657 9.16354 4.58005C9.11007 4.63338 9.08333 4.69213 9.08333 4.7563Z" fill="#1C1B1F"/>
<path d="M14.3398 16.5832C13.9647 16.5832 13.6476 16.4537 13.3885 16.1946C13.1295 15.9356 13 15.6185 13 15.2434V4.7563C13 4.39088 13.1295 4.07623 13.3885 3.81234C13.6476 3.54845 13.9647 3.4165 14.3398 3.4165H15.8269C16.1923 3.4165 16.5069 3.54845 16.7708 3.81234C17.0347 4.07623 17.1667 4.39088 17.1667 4.7563V15.2434C17.1667 15.6185 17.0347 15.9356 16.7708 16.1946C16.5069 16.4537 16.1923 16.5832 15.8269 16.5832H14.3398ZM14.0833 4.7563V15.2434C14.0833 15.3075 14.1101 15.3663 14.1635 15.4196C14.2169 15.4731 14.2756 15.4998 14.3398 15.4998H15.8269C15.891 15.4998 15.9498 15.4731 16.0031 15.4196C16.0566 15.3663 16.0833 15.3075 16.0833 15.2434V4.7563C16.0833 4.69213 16.0566 4.63338 16.0031 4.58005C15.9498 4.52657 15.891 4.49984 15.8269 4.49984H14.3398C14.2756 4.49984 14.2169 4.52657 14.1635 4.58005C14.1101 4.63338 14.0833 4.69213 14.0833 4.7563Z" fill="#1C1B1F"/>
</g>
</svg>
