<svg width="20" height="20" viewBox="0 0 20 20" fill="none" xmlns="http://www.w3.org/2000/svg">
<mask id="mask0_2676_4018" style="mask-type:alpha" maskUnits="userSpaceOnUse" x="0" y="0" width="20" height="20">
<rect width="20" height="20" fill="#D9D9D9"/>
</mask>
<g mask="url(#mask0_2676_4018)">
<path d="M10.0018 13.1473C10.8767 13.1473 11.6196 12.8412 12.2308 12.2288C12.8419 11.6164 13.1474 10.8728 13.1474 9.99796C13.1474 9.1231 12.8412 8.38011 12.2289 7.769C11.6165 7.15789 10.8729 6.85234 9.99805 6.85234C9.12319 6.85234 8.3802 7.15852 7.76909 7.77088C7.15798 8.38324 6.85242 9.12685 6.85242 10.0017C6.85242 10.8766 7.1586 11.6196 7.77096 12.2307C8.38332 12.8418 9.12694 13.1473 10.0018 13.1473ZM9.99992 11.9998C9.44437 11.9998 8.97214 11.8054 8.58326 11.4165C8.19437 11.0276 7.99992 10.5554 7.99992 9.99984C7.99992 9.44428 8.19437 8.97206 8.58326 8.58317C8.97214 8.19428 9.44437 7.99984 9.99992 7.99984C10.5555 7.99984 11.0277 8.19428 11.4166 8.58317C11.8055 8.97206 11.9999 9.44428 11.9999 9.99984C11.9999 10.5554 11.8055 11.0276 11.4166 11.4165C11.0277 11.8054 10.5555 11.9998 9.99992 11.9998ZM9.99992 15.5832C8.30117 15.5832 6.73492 15.1325 5.30117 14.2313C3.86742 13.3302 2.7168 12.1441 1.8493 10.673C1.77985 10.5671 1.73256 10.4585 1.70742 10.3471C1.68242 10.2357 1.66992 10.1214 1.66992 10.0042C1.66992 9.88699 1.68242 9.77123 1.70742 9.65692C1.73256 9.54262 1.77985 9.43255 1.8493 9.32671C2.7168 7.8556 3.86742 6.66949 5.30117 5.76838C6.73492 4.86713 8.30117 4.4165 9.99992 4.4165C11.6987 4.4165 13.2649 4.86713 14.6987 5.76838C16.1324 6.66949 17.283 7.8556 18.1505 9.32671C18.22 9.43255 18.2673 9.54116 18.2924 9.65255C18.3174 9.76393 18.3299 9.87824 18.3299 9.99546C18.3299 10.1127 18.3174 10.2284 18.2924 10.3428C18.2673 10.4571 18.22 10.5671 18.1505 10.673C17.283 12.1441 16.1324 13.3302 14.6987 14.2313C13.2649 15.1325 11.6987 15.5832 9.99992 15.5832ZM9.99992 14.4998C11.5555 14.4998 12.993 14.0971 14.3124 13.2915C15.6319 12.4859 16.6458 11.3887 17.3541 9.99984C16.6458 8.61095 15.6319 7.51373 14.3124 6.70817C12.993 5.90262 11.5555 5.49984 9.99992 5.49984C8.44437 5.49984 7.00687 5.90262 5.68742 6.70817C4.36798 7.51373 3.35409 8.61095 2.64576 9.99984C3.35409 11.3887 4.36798 12.4859 5.68742 13.2915C7.00687 14.0971 8.44437 14.4998 9.99992 14.4998Z" fill="#1C1B1F"/>
</g>
</svg>
