<svg width="20" height="20" viewBox="0 0 20 20" fill="none" xmlns="http://www.w3.org/2000/svg">
<mask id="mask0_2676_4025" style="mask-type:alpha" maskUnits="userSpaceOnUse" x="0" y="0" width="20" height="20">
<rect width="20" height="20" fill="#D9D9D9"/>
</mask>
<g mask="url(#mask0_2676_4025)">
<path d="M12.231 7.76924C12.4585 7.99688 12.6612 8.30084 12.8391 8.68111C13.017 9.06153 13.1251 9.44722 13.1635 9.8382C13.1635 9.99847 13.1079 10.1342 12.9966 10.2453C12.8854 10.3564 12.7524 10.4119 12.5979 10.4119C12.4319 10.4119 12.2913 10.3564 12.1762 10.2453C12.0609 10.1342 12.0033 9.99847 12.0033 9.8382C12.0151 9.55514 11.9745 9.2982 11.8816 9.06736C11.7887 8.83667 11.6589 8.63452 11.4922 8.4609C11.3256 8.28729 11.1276 8.16014 10.8985 8.07945C10.6693 7.99875 10.4185 7.96695 10.146 7.98403C9.9857 7.98945 9.84737 7.93785 9.73098 7.82924C9.61445 7.72063 9.55355 7.58903 9.54827 7.43445C9.54285 7.27417 9.59438 7.13577 9.70285 7.01924C9.81132 6.90285 9.9457 6.84202 10.106 6.83674C10.5076 6.86452 10.8979 6.9625 11.2766 7.1307C11.6554 7.29903 11.9735 7.51188 12.231 7.76924ZM10.0001 5.50007C9.73639 5.50007 9.47743 5.51139 9.22327 5.53403C8.9691 5.55653 8.71632 5.59257 8.46493 5.64215C8.31632 5.66604 8.17098 5.63792 8.02889 5.55778C7.88681 5.47764 7.79605 5.36625 7.7566 5.22361C7.71702 5.0757 7.73466 4.93952 7.80952 4.81507C7.88424 4.69063 7.99743 4.61542 8.1491 4.58945C8.46007 4.52667 8.76834 4.48222 9.07389 4.45611C9.37959 4.42986 9.68834 4.41674 10.0001 4.41674C11.749 4.41674 13.366 4.85771 14.8512 5.73965C16.3362 6.6216 17.469 7.84334 18.2495 9.40486C18.3033 9.50889 18.3392 9.60778 18.3574 9.70153C18.3756 9.79528 18.3847 9.89479 18.3847 10.0001C18.3847 10.1053 18.3743 10.2049 18.3535 10.2986C18.3326 10.3924 18.3014 10.4921 18.2597 10.5978C18.0079 11.1017 17.7019 11.5714 17.3416 12.0069C16.9815 12.4425 16.5888 12.8537 16.1635 13.2405C16.0482 13.342 15.9179 13.3898 15.7726 13.3838C15.6272 13.378 15.5011 13.3147 15.3943 13.1938C15.2875 13.0728 15.2432 12.9435 15.2614 12.8059C15.2796 12.6683 15.3463 12.5417 15.4616 12.4263C15.8655 12.0855 16.2249 11.7129 16.5397 11.3086C16.8546 10.9042 17.1261 10.468 17.3543 10.0001C16.6738 8.59729 15.6703 7.4966 14.3439 6.69799C13.0175 5.89938 11.5696 5.50007 10.0001 5.50007ZM10.0001 15.5834C8.2875 15.5834 6.70737 15.1355 5.25973 14.2397C3.81209 13.3438 2.66362 12.1494 1.81431 10.6563C1.74598 10.5533 1.70271 10.4465 1.68452 10.3361C1.66632 10.2257 1.65723 10.1135 1.65723 9.99945C1.65723 9.88556 1.66764 9.77222 1.68848 9.65945C1.70931 9.54681 1.75445 9.44028 1.82389 9.33986C2.17542 8.70417 2.57681 8.11292 3.02806 7.56611C3.47945 7.01945 3.99792 6.52896 4.58348 6.09465L2.86869 4.38778C2.75341 4.27778 2.69306 4.15493 2.68764 4.01924C2.68237 3.88354 2.74007 3.75535 2.86077 3.63465C2.98146 3.51396 3.11049 3.45361 3.24785 3.45361C3.38507 3.45361 3.51403 3.51396 3.63473 3.63465L16.3656 16.3655C16.481 16.4809 16.5387 16.6064 16.5387 16.7419C16.5387 16.8776 16.481 17.0032 16.3656 17.1186C16.2449 17.2393 16.1158 17.2997 15.9785 17.2997C15.8413 17.2997 15.7123 17.2393 15.5916 17.1186L13.3881 14.9199C12.8493 15.1517 12.2963 15.3202 11.7289 15.4255C11.1617 15.5308 10.5854 15.5834 10.0001 15.5834ZM5.35764 6.88945C4.78598 7.29445 4.26375 7.75222 3.79098 8.26278C3.3182 8.77347 2.93653 9.35257 2.64598 10.0001C3.32653 11.4028 4.33 12.5035 5.65639 13.3022C6.98278 14.1008 8.4307 14.5001 10.0001 14.5001C10.4443 14.5001 10.8807 14.4691 11.3093 14.4072C11.7378 14.3452 12.1577 14.2432 12.5691 14.1011L11.327 12.8751C11.1166 12.9766 10.8994 13.0474 10.6756 13.0874C10.4518 13.1275 10.2267 13.1476 10.0001 13.1476C9.12403 13.1476 8.38042 12.842 7.76931 12.2309C7.1582 11.6198 6.85264 10.8762 6.85264 10.0001C6.85264 9.77354 6.88098 9.54841 6.93764 9.32466C6.99431 9.10077 7.05681 8.88361 7.12514 8.6732L5.35764 6.88945Z" fill="#1C1B1F"/>
</g>
</svg>
