<svg width="20" height="20" viewBox="0 0 20 20" fill="none" xmlns="http://www.w3.org/2000/svg">
<mask id="mask0_2664_3788" style="mask-type:alpha" maskUnits="userSpaceOnUse" x="0" y="0" width="20" height="20">
<rect width="20" height="20" fill="#D9D9D9"/>
</mask>
<g mask="url(#mask0_2664_3788)">
<path d="M13.2038 9.87326L10.1429 6.81243C10.0649 6.73451 10.0098 6.65187 9.97772 6.56451C9.94577 6.47729 9.9298 6.38382 9.9298 6.2841C9.9298 6.18437 9.94577 6.09125 9.97772 6.00472C10.0098 5.91819 10.0649 5.83597 10.1429 5.75805L13.2038 2.69701C13.2817 2.6191 13.3643 2.56409 13.4517 2.53201C13.5389 2.49993 13.6324 2.48389 13.7321 2.48389C13.8318 2.48389 13.9249 2.49993 14.0115 2.53201C14.098 2.56409 14.1802 2.6191 14.2581 2.69701L17.3192 5.75805C17.3971 5.83597 17.4521 5.91854 17.4842 6.00576C17.5163 6.09298 17.5323 6.18646 17.5323 6.28618C17.5323 6.3859 17.5163 6.47903 17.4842 6.56555C17.4521 6.65222 17.3971 6.73451 17.3192 6.81243L14.2581 9.87326C14.1802 9.95132 14.0976 10.0063 14.0104 10.0383C13.9231 10.0703 13.8296 10.0864 13.73 10.0864C13.6303 10.0864 13.5371 10.0703 13.4504 10.0383C13.3639 10.0063 13.2817 9.95132 13.2038 9.87326ZM3.17334 8.25305V3.92618C3.17334 3.71285 3.24549 3.53396 3.3898 3.38951C3.53424 3.24521 3.71313 3.17305 3.92647 3.17305H8.25334C8.46681 3.17305 8.6457 3.24521 8.79001 3.38951C8.93445 3.53396 9.00667 3.71285 9.00667 3.92618V8.25305C9.00667 8.46653 8.93445 8.64541 8.79001 8.78972C8.6457 8.93416 8.46681 9.00639 8.25334 9.00639H3.92647C3.71313 9.00639 3.53424 8.93416 3.3898 8.78972C3.24549 8.64541 3.17334 8.46653 3.17334 8.25305ZM10.9938 16.0737V11.7468C10.9938 11.5333 11.066 11.3544 11.2104 11.2101C11.3547 11.0657 11.5336 10.9935 11.7471 10.9935H16.074C16.2873 10.9935 16.4662 11.0657 16.6106 11.2101C16.7549 11.3544 16.8271 11.5333 16.8271 11.7468V16.0737C16.8271 16.287 16.7549 16.4659 16.6106 16.6103C16.4662 16.7547 16.2873 16.8268 16.074 16.8268H11.7471C11.5336 16.8268 11.3547 16.7547 11.2104 16.6103C11.066 16.4659 10.9938 16.287 10.9938 16.0737ZM3.17334 16.0737V11.7468C3.17334 11.5333 3.24549 11.3544 3.3898 11.2101C3.53424 11.0657 3.71313 10.9935 3.92647 10.9935H8.25334C8.46681 10.9935 8.6457 11.0657 8.79001 11.2101C8.93445 11.3544 9.00667 11.5333 9.00667 11.7468V16.0737C9.00667 16.287 8.93445 16.4659 8.79001 16.6103C8.6457 16.7547 8.46681 16.8268 8.25334 16.8268H3.92647C3.71313 16.8268 3.53424 16.7547 3.3898 16.6103C3.24549 16.4659 3.17334 16.287 3.17334 16.0737ZM4.42334 7.75639H7.75667V4.42305H4.42334V7.75639ZM13.7519 8.66014L16.106 6.30597L13.7519 3.9518L11.3977 6.30597L13.7519 8.66014ZM12.2438 15.5768H15.5771V12.2435H12.2438V15.5768ZM4.42334 15.5768H7.75667V12.2435H4.42334V15.5768Z" fill="#1C1B1F"/>
</g>
</svg>
